<svg xmlns="http://www.w3.org/2000/svg" viewBox="0 0 558.05 456"><defs><style>.a{fill:#fff;}.b{fill:#526672;}.c{fill:#afc4d1;}</style></defs><title>Arrow Up Dollar</title><path class="a" d="M14,456c-8.23,0-13.12-.25-14-.29l1.09-8s73.94-4,183.55-43.09C331,352.5,428.55,239.24,474.75,91.7c3-9.63,5.84-19.59,8.39-29.58l44.1,13.72c-2.64,10.34-5.56,20.63-8.69,30.6C492,191.14,448.21,262.25,388.29,317.81c-47.9,44.41-106.07,79-172.9,102.68C125.49,452.41,45.39,456,14,456Z"/><polygon class="a" points="518.71 0 440.3 89.21 558.05 112.07 518.71 0"/><path class="b" d="M529.15,62.41c-.23-.27-.48-.53-.73-.79A16.67,16.67,0,0,0,524.94,59a25.9,25.9,0,0,0-4.18-1.89c-8.68-3.11-19-2.87-19-6.73,0-1.9,1.75-3.48,7.21-3.48A34.08,34.08,0,0,1,524.41,51L530,37.48A41.42,41.42,0,0,0,514,32.88V24.4H502.78V33c-13,1.82-19.49,9.35-19.49,18.3a14.45,14.45,0,0,0,2.83,9.11,13.07,13.07,0,0,0,1.2,1.37,16.85,16.85,0,0,0,3.46,2.62c3.74,2.16,8.31,3.26,12.41,4.13s7.65,1.49,9.48,2.72A2.47,2.47,0,0,1,514,73.37c0,1.9-1.9,3-7.21,3q-.93,0-1.89-.06a38.63,38.63,0,0,1-15.41-4.45c-.34-.18-.67-.37-1-.56l-1.23,2.79-4.79,10.84c4.43,2.73,11.42,4.78,18.77,5.42q.8.08,1.59.12v8.4H514V90.09c12.28-2.14,18.47-9.59,18.47-18.15A14,14,0,0,0,529.15,62.41Z"/><path class="c" d="M528.9,61.62c.25.26.5.52.73.79l-28,28c-7.35-.64-14.34-2.69-18.77-5.42l4.79-10.84,1.23-2.79c.33.19.66.38,1,.56a38.63,38.63,0,0,0,15.41,4.45q1,.06,1.89.06c5.31,0,7.21-1.11,7.21-3a2.47,2.47,0,0,0-1.28-2.08c-1.83-1.23-5.42-1.87-9.48-2.72s-8.67-2-12.41-4.13a16.85,16.85,0,0,1-3.46-2.62,13.07,13.07,0,0,1-1.2-1.37l27.83-27.83v.26a41.42,41.42,0,0,1,16.09,4.6L524.89,51a34.08,34.08,0,0,0-15.45-4.12c-5.46,0-7.21,1.58-7.21,3.48,0,3.86,10.33,3.62,19,6.73A25.9,25.9,0,0,1,525.42,59,16.67,16.67,0,0,1,528.9,61.62Z"/></svg>