<svg xmlns="http://www.w3.org/2000/svg" viewBox="0 0 1044.82 539.84"><defs><style>.a{fill:#00e0e1;}.b{fill:#458fb0;}</style></defs><title>Asset 2</title><path class="a" d="M894,286.23a118.46,118.46,0,0,0,9.58-46.76c0-67.72-56.89-122.61-127.07-122.61a131.41,131.41,0,0,0-34.79,4.65C694.77,48.57,611,0,515.44,0c-100,0-187.18,53.24-232.68,132a84.18,84.18,0,0,0-40.22-10.14c-45.44,0-82.27,35.54-82.27,79.38a76.52,76.52,0,0,0,.79,10.87C66.33,251.42,0,342.29,0,448.13a248.48,248.48,0,0,0,17.48,91.71H1035.26a194.39,194.39,0,0,0,9.56-60.36C1044.82,387.72,981.1,310.33,894,286.23Z"/><path class="b" d="M787.19,489.08H228.46a18.7,18.7,0,0,1-18.7-18.7h0a18.69,18.69,0,0,1,18.7-18.69H787.19a18.69,18.69,0,0,1,18.7,18.69h0A18.7,18.7,0,0,1,787.19,489.08Z"/></svg>