<svg xmlns="http://www.w3.org/2000/svg" viewBox="0 0 185.23 82.45"><defs><style>.a{fill:#0aa0b9;}.b{fill:#e3f6ff;}</style></defs><title>Asset 17</title><rect class="a" width="185.23" height="82.45"/><rect class="b" x="54.65" y="-48.13" width="75.94" height="178.71" transform="translate(133.84 -51.39) rotate(90)"/><path class="a" d="M177.08,67.11V15.34a7.19,7.19,0,0,1-7.19-7.19H15.34a7.19,7.19,0,0,1-7.19,7.19V67.11a7.19,7.19,0,0,1,7.19,7.2H169.89A7.19,7.19,0,0,1,177.08,67.11Z"/><path class="b" d="M119.33,41.23a46.33,46.33,0,0,1-3.41,17.7c-4.58,11-13.3,18.47-23.3,18.47S73.89,70,69.32,58.93a46,46,0,0,1-3.43-17.7,46,46,0,0,1,3.43-17.71c4.57-11,13.28-18.47,23.3-18.47s18.72,7.45,23.3,18.47A46.38,46.38,0,0,1,119.33,41.23Z"/><circle class="b" cx="150.63" cy="41.23" r="10.92"/><circle class="b" cx="32.05" cy="41.23" r="10.92"/><path class="a" d="M87.49,53.36h16v1.82H80.89V53.36h4.59V42.05H80.89V40.62h4.59v-4c0-5.58,3.52-9.34,10.44-9.34a13.15,13.15,0,0,1,8,2.25l-.83,1.67a11.9,11.9,0,0,0-7.28-2.06c-5.65,0-8.31,2.77-8.31,7.56v3.91H98.81v1.43H87.49Z"/></svg>