<svg xmlns="http://www.w3.org/2000/svg" viewBox="0 0 390 390"><defs><style>.a{fill:#4dd3ea;}.b{fill:#007288;}</style></defs><title>Asset 3</title><path class="a" d="M390,195c0,107.69-87.3,195-195,195C88.92,390,2.59,305.26.06,199.78,0,198.19,0,196.61,0,195a195,195,0,0,1,389.12-18.59Q390,185.6,390,195Z"/><path class="b" d="M214.26,150.82l-7.21,10.56-13.93,12s-2,20.17-3.88,21.61,7.25,12,7.25,12l5.13,13,15.52,1.92,18.25-4.8,20.17,1.44,8.17,3.36L256,236.31,269,256l-7.2,21.61,5.28,20.17,6.72,17.78s-2.88,8.64,0,8.64h14.41l28.34-21.13v-24s16.81-20.17,17.77-21.61,6.72-23.05,6.72-23.05l15.37-17.77-7.2-11.53-12-3.36-19.69-28.34-6.72-16.81-18.26-5.76-13.92,7.68-7.69-7.68-7.68-7.21-3.85-6.24-21.61,6.72-14.41-1Z"/><path class="b" d="M71.61,213.25l-13,17.53,6.49,31.94,12.72,10.09,17.3,13.93,6.72,25,20.65,29.78s8.65,20.65,11,21.61S147,373.67,147,373.67l19.21-1.92v-6.24s-14.89-15.37-15.85-17.3-.48-21.61,0-24,12.49-23.05,12.49-23.05l-3.37-14.89s10.57-14.41,10.57-16.81-2.4-13-2.4-13l-2.88-18.12-24.5-7.58L122,233l-7.68-11.53L94.18,219Z"/><path class="b" d="M364.58,166.67l-8.15,3.84L370.35,184l-13.92,13H343.94l-10.09-20.64-13-11.53-10.08-8.17,16.32-14.88-16.32-4.33-8.17-6.25s-12.48,0-17.77,3.37-12.16-5.29-12.16-5.29L256.52,122l-8.65,1.91-11,11.06H222.9l-5.76,6.73-12.49-9.14L215.22,122h17.29l3.36-5.29-6.24-1.92-.49-5.28,8.17-2.89-8.64-7.68-6.73,1.92h-9.12v-4.8l14.41-8.64,13,13.44H245l6.73-6.24,6.73,1.92,12,4.32L282,98.47s13.93-13,13.93-14.41-6.73-4.81-6.73-4.81H281c-1.44,0,3.85-12,3.85-12L272.7,73.48s1.11,8.65,0,10.58-6.57,5.27-6.57,5.27-11-8.15-12.49-6.71-6.72,0-6.72,0l-4.32-8.17,11.53-2.88,5.76-8.65,20.65-13s9.61,1.45,13,3.36,10.08,2.88,10.08,2.88l-7.2,7.7,6.73,7.68h12l19.2-7.68,2.89-2.31a194.3,194.3,0,0,1,51.91,114.84l-5.81-2.07Z"/><path class="b" d="M104.28,129.2c0,2.88-7.7,12.5-7.7,12.5l-12,5.76L70.65,160.9l-2.4,23.53-3.37,12.49H54.32L49,187.31,39,184.43l-9.6,9.14,1.44,9.59s12,8.17,12.48,10.09,2.88,7.69,2.88,7.69l12.49,6.24v6.73L33.18,220.45,6.3,213.25.06,199.78C0,198.19,0,196.61,0,195A194.11,194.11,0,0,1,36.66,81.18l1.34-1,11.28,9.12v9.14l-6.49,5.76-11.52,3.84v4.32L43.76,111l9.6-4.8,10.08-7.68h8.17l-6.73,6.24L53.36,117.2l-7.68,10.56,3.6,7.68,7-3.36.49,5.29,4.8,6.24,6.72-13,2.89-13,10.56-6.24,6.24,2.88h12S104.28,126.32,104.28,129.2Z"/><polygon class="b" points="97.19 67.25 107.27 67.25 107.27 76.37 112.55 80.21 114.47 102.79 123.6 102.79 130.32 89.34 144.73 72.05 155.3 64.84 173.07 51.88 175.47 35.07 187 21.62 176.43 17.77 167.31 21.14 142.09 33.15 127.44 37.47 111.59 45.63 85.66 52.84 72.69 60.28 72.69 71.57 61.64 80.21 74.61 82.13 83.26 74.93 90.94 66.28 97.19 67.25"/></svg>