<svg xmlns="http://www.w3.org/2000/svg" viewBox="0 0 302.87 213.57"><defs><style>.a{fill:none;stroke:#fff;stroke-miterlimit:10;stroke-width:4.66px;}.b{fill:#fff;}</style></defs><title>Left Graph Points</title><polyline class="a" points="296.35 6.52 257.57 51.13 235.38 157.93 175.53 122.78 121.56 207.99 48.47 132.32 6.65 160.26"/><circle class="b" cx="296.35" cy="6.52" r="6.52" transform="translate(16.62 104.59) rotate(-20.58)"/><path class="b" d="M115.79,207.83a6.52,6.52,0,1,1,7.25,5.69A6.51,6.51,0,0,1,115.79,207.83Z"/><path class="b" d="M252,51.44a6.52,6.52,0,1,1,7.26,5.69A6.53,6.53,0,0,1,252,51.44Z"/><path class="b" d="M169,123.29a6.52,6.52,0,1,1,7.25,5.7A6.52,6.52,0,0,1,169,123.29Z"/><path class="b" d="M.05,160a6.52,6.52,0,1,1,7.25,5.69A6.53,6.53,0,0,1,.05,160Z"/><path class="b" d="M228.82,157.92a6.52,6.52,0,1,1,7.25,5.7A6.51,6.51,0,0,1,228.82,157.92Z"/><circle class="b" cx="48.61" cy="133.54" r="6.52" transform="translate(-61.17 43.3) rotate(-30.58)"/></svg>