<svg xmlns="http://www.w3.org/2000/svg" viewBox="0 0 78.93 221.22"><defs><style>.a{fill:#7f94a0;}.b{fill:#3f2724;}.c{fill:#526672;}.d{fill:#fff;}.e{fill:#1a1c2e;}.f{fill:#fe5e5a;}</style></defs><title>Right Man Orange Tie</title><path class="a" d="M68.66,218.22a2.22,2.22,0,0,0,.44,0,2.18,2.18,0,0,0,1.81-2.5l-2.49-15.5a2.18,2.18,0,1,0-4.31.69l2.49,15.5A2.19,2.19,0,0,0,68.66,218.22Z"/><path d="M71.51,215.43s1.11,5.67-.24,5.77-20.82-.13-20.9-1c-.26-3.09,15.75-5.26,17.3-4.89S71.37,214.61,71.51,215.43Z"/><path class="a" d="M30.65,216.62a2.16,2.16,0,0,0,2.25-2.52l-2.48-15.51a2.19,2.19,0,0,0-4.32.7l2.49,15.5A2.18,2.18,0,0,0,30.65,216.62Z"/><path d="M26.22,207.48a56.17,56.17,0,0,0,7-.35c-5.36-37.23-8.51-87,11.42-120.79q-8.25-4.49-16.57-8.82C13.28,107,21.93,175.46,26.22,207.48Z"/><path d="M64.52,208a72,72,0,0,0,7-2C55.6,171.48,45.17,117.76,49.81,79.41c-6.27-.58-12.56-1.06-18.84-1.5C31.71,116.51,51,172.71,64.52,208Z"/><path d="M33.5,213.84s1.11,5.66-.24,5.76-20.82-.12-20.9-1c-.26-3.1,15.75-5.27,17.3-4.89S33.36,213,33.5,213.84Z"/><path class="b" d="M15.16,79.84s9.57,7,9.71,9.92-9.72-2.6-12.52-9.17Z"/><path class="a" d="M16.27,79.11c-1.48,1.32-3,2.6-4.43,3.81C-8.69,53.43-3.08,41.13,33.07,27.59c5.53-2.07,5.48-1.19,6.61,2.86.89,0,.89-.07,0,0,1.13,4.05-.86,4.5-5.22,6.12C6,47.18-2,55.19,16.27,79.11Z"/><path class="c" d="M22.47,89.86c3.74-1.08,11.24,1.22,14.94.63,5.44-.87,8.07-.36,13.39.18C52.19,74,52.34,56.45,54.25,40.1c.41-3.44.67-5.48.14-8.1-.72-3.51-2.43-6-4.73-7.36-2.81-1.7-6.5-1.73-10.3,0a7.82,7.82,0,0,0-1.66.91c-2.28,1.59-4.45,4.8-5,11C31.18,52.07,26.08,73.85,22.47,89.86Z"/><path class="d" d="M37.7,25.57l-.13,10.48-.16,13.16,6-12,6.28-12.58c-2.81-1.7-6.5-1.73-10.3,0A7.82,7.82,0,0,0,37.7,25.57Z"/><path class="b" d="M50.07,11.57c-.71,6.56-5.86,11.39-9.87,11s-5.37-6-4.66-12.54S39.87.44,43.88.87,50.78,5,50.07,11.57Z"/><path class="b" d="M52.78,14.15c-.16,1.52-1.89,3.31-3,3.19S48.53,16,48.7,14.43s1.22-2.86,2.32-2.74A2,2,0,0,1,52.78,14.15Z"/><path class="b" d="M48.53,12.53l-6.87-1c-.13.94-1.23,9.9-1,13.31.21,1.05,1.9,1.6,3.79,1.23,1.7-.34,3-1.31,3-2.27h0A92.18,92.18,0,0,1,48.53,12.53Z"/><path class="e" d="M51.48,7.49s-.93-4.36-4.06-6.23S37.92-1,35.92,4.63c0,0-1.05,4.16,4.08,5s4.3-1.9,6.73.73,4.75.82,5.2,1.42Z"/><polygon class="f" points="37.57 36.05 37.41 49.21 43.38 37.22 43.51 29.23 41.09 29.13 37.57 36.05"/><path class="b" d="M55.6,84.65S44.27,88,43.15,90.78s10,.77,14.85-4.5Z"/><path class="a" d="M54.79,83.59c1,1.73,2,3.45,2.93,5.06,29.15-21,27.93-34.47-1.67-59.24-4.53-3.78-4.78-2.94-7.19.51-.84-.32-.82-.36,0,0-2.41,3.44-.68,4.53,2.89,7.51C75.1,56.88,80,67.08,54.79,83.59Z"/></svg>