<svg xmlns="http://www.w3.org/2000/svg" viewBox="0 0 186.72 232.14"><defs><style>.a{fill:#526672;}.b{fill:#0aa0b9;}.c{fill:#e3f6ff;}.d{fill:#e1f7ff;}.e{fill:#bf8957;}.f{fill:#7f94a0;}</style></defs><title>Asset 20</title><path class="a" d="M3.18,167.66a3.55,3.55,0,0,1,0-.46,2.32,2.32,0,0,1,2.68-1.89l16.39,2.82a2.31,2.31,0,1,1-.78,4.56L5.1,169.87A2.31,2.31,0,0,1,3.18,167.66Z"/><path d="M138.88,77.68c1-2.05,1.77-4.25,2.55-6.4C109.72,55.05,112.24,68.84,104.15,31c-1.24-5.79-3.41-4.27-7.09-1.91-.42-.89-.41-.9,0,0-3.67,2.37-4.15,2.76-2.1,7.74C108.4,69.4,107.3,65.31,138.88,77.68Z"/><rect class="b" x="1.49" y="43.25" width="185.23" height="82.45"/><rect class="c" x="56.14" y="-4.88" width="75.94" height="178.71" transform="translate(178.58 -9.63) rotate(90)"/><path class="b" d="M178.58,110.36V58.59a7.19,7.19,0,0,1-7.2-7.19H16.84a7.2,7.2,0,0,1-7.2,7.19v51.77a7.2,7.2,0,0,1,7.2,7.19H171.38A7.19,7.19,0,0,1,178.58,110.36Z"/><path class="c" d="M120.83,84.48a46.18,46.18,0,0,1-3.42,17.7c-4.58,11-13.29,18.47-23.3,18.47s-18.73-7.45-23.3-18.47a47.54,47.54,0,0,1,0-35.41c4.57-11,13.29-18.47,23.3-18.47s18.72,7.45,23.3,18.47A46.2,46.2,0,0,1,120.83,84.48Z"/><circle class="c" cx="152.12" cy="84.48" r="10.92" transform="translate(35.97 214.04) rotate(-77.17)"/><circle class="c" cx="33.54" cy="84.48" r="10.92" transform="translate(-29.77 19.27) rotate(-22.5)"/><path class="b" d="M90.32,97.19v-4a11.62,11.62,0,0,1-6-1.74l1-2.66a10.53,10.53,0,0,0,5.7,1.71c2.81,0,4.71-1.63,4.71-3.88s-1.55-3.52-4.47-4.71c-4-1.58-6.53-3.4-6.53-6.84,0-3.29,2.33-5.78,6-6.37v-4h2.45v3.84a10.62,10.62,0,0,1,5.15,1.38l-1,2.61a9.61,9.61,0,0,0-5-1.34c-3,0-4.19,1.82-4.19,3.4,0,2.06,1.46,3.09,4.91,4.51,4.07,1.66,6.13,3.72,6.13,7.24,0,3.13-2.18,6.06-6.25,6.73v4.11Z"/><path class="a" d="M97.19,228.74a2.45,2.45,0,0,1-.46,0,2.31,2.31,0,0,1-1.8-2.73l3.31-16.3a2.32,2.32,0,1,1,4.54.92l-3.32,16.3A2.31,2.31,0,0,1,97.19,228.74Z"/><path d="M14,173.45c.07-2.67.2-5.34.46-8,59.35,3.13,86.74-16.76,68.28-80.18,6.5-2,13.09-3.92,19.73-5.4C111.3,152.65,82.23,174.91,14,173.45Z"/><path d="M102.29,219.26a58.69,58.69,0,0,1-7.37-.68c7.33-39.18,12.88-91.77-6.72-128.4,6-2.92,11.93-5.77,17.93-8.6C120.45,113.49,108.25,185.55,102.29,219.26Z"/><path d="M6.16,164.68s-6-1.25-6.11.18S-.06,186.92.9,187c3.27.32,5.77-16.62,5.39-18.26S7,164.84,6.16,164.68Z"/><path d="M94.3,225.67s-1.43,6,0,6.11,22,.79,22.17-.16c.41-3.27-16.44-6.28-18.09-6S94.49,224.81,94.3,225.67Z"/><path d="M111.49,94.9c-3.91-1.31-12,.79-15.84,0-5.72-1.17-8.54-.73-14.19-.4-.73-17.74-.11-36.3-1.41-53.7-.28-3.65-.46-5.83.22-8.57.92-3.69,2.84-6.24,5.33-7.59,3.05-1.67,7-1.54,10.91.47a9.38,9.38,0,0,1,1.72,1c2.34,1.79,4.5,5.29,4.84,11.88C103.94,54.5,108.38,77.78,111.49,94.9Z"/><path class="d" d="M98.23,26.15l-.34,11.1-.41,14-5.79-13L85.6,24.64c3.05-1.67,7-1.54,10.91.47A9.38,9.38,0,0,1,98.23,26.15Z"/><path class="e" d="M84.41,15.21c3.82,5.87,11.64,7.55,15.78,4.86s3-8.76-.76-14.62-9.12-6.67-13.27-4S80.59,9.35,84.41,15.21Z"/><path class="e" d="M82.11,15.63c.89,1.36,3.38,2.23,4.37,1.59s.52-1.91-.37-3.28-2.52-2.12-3.51-1.48A2.11,2.11,0,0,0,82.11,15.63Z"/><path class="e" d="M87.29,12.92l7.32-.71c.1,1,.86,10.54.49,14.13C94.83,27.45,93,28,91,27.47,89.25,27,88,26,87.91,24.94h0C88.12,22.78,87.63,16.42,87.29,12.92Z"/><path d="M102.46,12l-.25.14c-1.28.69-7.07,3.94-7.66,6.34-.66,2.69,3.12-1,4.26-2.77s2.53-1.5,3.77-1.86S104.39,12,102.46,12Z"/><polygon class="f" points="97.89 37.25 97.48 51.2 91.69 38.24 91.91 29.78 94.47 29.78 97.89 37.25"/></svg>