<svg xmlns="http://www.w3.org/2000/svg" viewBox="0 0 110 154.65"><defs><style>.a,.d{fill:none;stroke:#000;}.a{stroke-miterlimit:10;stroke-width:5px;}.b{fill:#007288;}.c{fill:#4dd3ea;}.d{stroke-linecap:round;stroke-linejoin:round;stroke-width:4px;}.e{fill:#526672;}</style></defs><title>Right Plant</title><line class="a" x1="55.8" y1="94.74" x2="44.61" y2="83.55"/><line class="a" x1="54.86" y1="57.88" x2="43.7" y2="47"/><path class="b" d="M48.06,86.72,0,38.66S.73,59.45,14,72.72,48.06,86.72,48.06,86.72Z"/><path class="c" d="M34.05,52.67c-13.27-13.27-34-14-34-14L48.06,86.72S47.32,65.94,34.05,52.67Z"/><path class="b" d="M45.79,49l-25-25s.38,10.82,7.29,17.73S45.79,49,45.79,49Z"/><path class="c" d="M38.5,31.3C31.59,24.39,20.77,24,20.77,24l25,25S45.4,38.21,38.5,31.3Z"/><line class="a" x1="63.15" y1="113.53" x2="68.5" y2="108.18"/><line class="a" x1="63.52" y1="78.18" x2="68.87" y2="72.82"/><path class="d" d="M55.8,131.08c0-9.06,7.35-9.06,7.35-18.12S55.8,103.9,55.8,94.84s7.35-9.07,7.35-18.13S55.8,67.65,55.8,58.59s7.35-9.07,7.35-18.13"/><path class="c" d="M110,32.79,68.32,74.46s18-.63,29.54-12.14S110,32.79,110,32.79Z"/><path class="b" d="M80.47,44.93C69,56.44,68.32,74.46,68.32,74.46L110,32.79S92,33.42,80.47,44.93Z"/><path class="c" d="M63.56,0V45.79s9.56-10.25,9.56-22.89S63.56,0,63.56,0Z"/><path class="b" d="M54,22.9c0,12.64,9.55,22.89,9.55,22.89V0S54,10.25,54,22.9Z"/><polygon class="e" points="71.14 154.65 47.81 154.65 45.13 120.85 73.82 120.85 71.14 154.65"/><path class="c" d="M109.84,67.53,68.16,109.21s18-.63,29.54-12.14S109.84,67.53,109.84,67.53Z"/><path class="b" d="M79.55,80.44C68,91.94,67.41,110,67.41,110l41.67-41.68S91.06,68.93,79.55,80.44Z"/></svg>