<svg xmlns="http://www.w3.org/2000/svg" viewBox="0 0 90 164.41"><defs><style>.a{fill:none;stroke:#000;stroke-linecap:round;stroke-linejoin:round;stroke-width:2.26px;}.b{fill:#526672;}.c{fill:#4dd3ea;}</style></defs><title>Bottom Left Plant</title><line class="a" x1="45.15" y1="163.28" x2="45.46" y2="27.08"/><line class="a" x1="45.46" y1="69.01" x2="63.04" y2="51.43"/><line class="a" x1="45.46" y1="129.56" x2="63.04" y2="111.98"/><line class="a" x1="45.46" y1="87.63" x2="27.25" y2="69.42"/><path class="b" d="M45.46,0V54.17S56.76,42,56.76,27.08,45.46,0,45.46,0Z"/><path class="c" d="M34.16,27.08c0,15,11.3,27.09,11.3,27.09V0S34.16,12.13,34.16,27.08Z"/><path class="b" d="M90,24.62,56.76,57.86s14.38-.51,23.56-9.69S90,24.62,90,24.62Z"/><path class="c" d="M66.45,34.3c-9.18,9.18-9.69,23.56-9.69,23.56L90,24.62S75.63,25.13,66.45,34.3Z"/><path class="b" d="M90,85,56.76,118.26s14.38-.51,23.56-9.69S90,85,90,85Z"/><path class="c" d="M66.45,94.71c-9.18,9.17-9.69,23.55-9.69,23.55L90,85S75.63,85.53,66.45,94.71Z"/><path class="c" d="M31.08,73.25,0,42.17s.47,13.44,9.06,22S31.08,73.25,31.08,73.25Z"/><path class="b" d="M22,51.23c-8.59-8.59-22-9.06-22-9.06L31.08,73.25S30.61,59.81,22,51.23Z"/></svg>