<svg xmlns="http://www.w3.org/2000/svg" viewBox="0 0 527.04 169.9"><defs><style>.a{fill:#e3f6ff;}.b{fill:#0aa0b9;}.c{fill:#afc4d1;}.d{fill:#7f94a0;}</style></defs><title>Asset 26</title><circle class="a" cx="175.79" cy="114.08" r="10.92" transform="translate(28.68 263.33) rotate(-78.4)"/><rect class="b" x="25.21" y="70.44" width="185.23" height="82.45" transform="translate(4.75 -4.81) rotate(2.39)"/><rect class="a" x="79.86" y="22.31" width="75.94" height="178.71" transform="translate(234.3 -1.41) rotate(92.39)"/><path class="b" d="M201.14,141l2.16-51.72a7.2,7.2,0,0,1-6.89-7.49L42,75.4a7.19,7.19,0,0,1-7.49,6.88L32.35,134a7.2,7.2,0,0,1,6.89,7.49l154.41,6.43A7.2,7.2,0,0,1,201.14,141Z"/><path class="a" d="M144.52,112.78a46.28,46.28,0,0,1-4.15,17.54c-5,10.83-14.05,17.91-24.05,17.49s-18.4-8.22-22.51-19.43A47.54,47.54,0,0,1,95.28,93c5-10.83,14-17.91,24-17.49s18.4,8.22,22.52,19.43A46.28,46.28,0,0,1,144.52,112.78Z"/><circle class="a" cx="57.31" cy="109.14" r="10.92" transform="translate(-63.26 134.85) rotate(-74.33)"/><path class="a" d="M144.52,112.78a46.28,46.28,0,0,1-4.15,17.54l-46.56-1.94A47.54,47.54,0,0,1,95.28,93L141.85,95A46.28,46.28,0,0,1,144.52,112.78Z"/><path class="b" d="M124.05,122.93a10.65,10.65,0,0,1-6,1.42,10.41,10.41,0,0,1-7.88-3.85,12.27,12.27,0,0,1-2.56-6.92l-2.45-.1.08-1.94,2.25.09,0-.59c0-.63.09-1.22.15-1.78l-2.33-.09.08-2,2.61.11a12.56,12.56,0,0,1,3.52-6.55,10.4,10.4,0,0,1,8-3,11.28,11.28,0,0,1,5.21,1.48l-.9,2.58a9.05,9.05,0,0,0-4.38-1.29,6.9,6.9,0,0,0-5.31,2,9.39,9.39,0,0,0-2.58,4.93l11,.46-.09,2-11.38-.47c-.06.51-.13,1.1-.15,1.65,0,.24,0,.44,0,.72l11.47.47-.09,1.94-11.18-.47a9.56,9.56,0,0,0,2,5.27,7.52,7.52,0,0,0,5.48,2.53,10.3,10.3,0,0,0,4.88-1.1Z"/><circle class="a" cx="176.12" cy="114.51" r="10.92" transform="translate(54.37 285.71) rotate(-87.61)"/><rect x="10.68" y="154.85" width="516.32" height="9.45" transform="translate(3.53 -5.8) rotate(1.24)"/><rect class="c" x="55.15" y="100.4" width="7.31" height="77.6" transform="translate(-82.14 193.72) rotate(-88.25)"/><rect class="d" x="55.15" y="136.73" width="7.31" height="4.94" transform="translate(-82.14 193.72) rotate(-88.25)"/><rect class="d" x="39.47" y="136.25" width="7.31" height="4.94" transform="translate(-96.85 177.58) rotate(-88.25)"/><rect class="d" x="23.8" y="135.77" width="7.31" height="4.94" transform="translate(-111.57 161.45) rotate(-88.25)"/><rect class="d" x="86.52" y="137.69" width="7.31" height="4.94" transform="translate(-52.68 226.01) rotate(-88.25)"/><rect class="d" x="70.85" y="137.21" width="7.31" height="4.94" transform="translate(-67.4 209.87) rotate(-88.25)"/><rect class="c" x="51.93" y="107.31" width="7.31" height="77.6" transform="translate(-92.15 197.2) rotate(-88.25)"/><rect class="d" x="51.93" y="143.64" width="7.31" height="4.94" transform="translate(-92.15 197.2) rotate(-88.25)"/><rect class="d" x="36.26" y="143.16" width="7.31" height="4.94" transform="translate(-106.87 181.07) rotate(-88.25)"/><rect class="d" x="20.58" y="142.68" width="7.31" height="4.94" transform="translate(-121.58 164.93) rotate(-88.25)"/><rect class="d" x="83.31" y="144.6" width="7.31" height="4.94" transform="translate(-62.7 229.49) rotate(-88.25)"/><rect class="d" x="67.63" y="144.12" width="7.31" height="4.94" transform="translate(-77.41 213.36) rotate(-88.25)"/><rect class="c" x="57.26" y="93.22" width="7.31" height="77.6" transform="translate(-72.92 188.87) rotate(-88.25)"/><rect class="d" x="57.26" y="129.56" width="7.31" height="4.94" transform="translate(-72.92 188.87) rotate(-88.25)"/><rect class="d" x="41.58" y="129.08" width="7.31" height="4.94" transform="translate(-87.63 172.74) rotate(-88.25)"/><rect class="d" x="25.91" y="128.6" width="7.31" height="4.94" transform="translate(-102.35 156.6) rotate(-88.25)"/><rect class="d" x="88.63" y="130.52" width="7.31" height="4.94" transform="translate(-43.46 221.16) rotate(-88.25)"/><rect class="d" x="72.96" y="130.04" width="7.31" height="4.94" transform="translate(-58.18 205.03) rotate(-88.25)"/><rect class="c" x="54.47" y="86.14" width="7.31" height="77.6" transform="translate(-68.53 179.21) rotate(-88.25)"/><rect class="d" x="54.47" y="122.47" width="7.31" height="4.94" transform="translate(-68.53 179.21) rotate(-88.25)"/><rect class="d" x="38.8" y="121.99" width="7.31" height="4.94" transform="translate(-83.24 163.08) rotate(-88.25)"/><rect class="d" x="23.12" y="121.51" width="7.31" height="4.94" transform="translate(-97.96 146.95) rotate(-88.25)"/><rect class="d" x="85.85" y="123.43" width="7.31" height="4.94" transform="translate(-39.08 211.51) rotate(-88.25)"/><rect class="d" x="70.17" y="122.95" width="7.31" height="4.94" transform="translate(-53.79 195.37) rotate(-88.25)"/><rect class="c" x="63.68" y="79.42" width="7.31" height="77.6" transform="translate(-52.88 181.91) rotate(-88.25)"/><rect class="d" x="63.68" y="115.75" width="7.31" height="4.94" transform="translate(-52.88 181.91) rotate(-88.25)"/><rect class="d" x="48.01" y="115.27" width="7.31" height="4.94" transform="translate(-67.6 165.77) rotate(-88.25)"/><rect class="d" x="32.33" y="114.79" width="7.31" height="4.94" transform="translate(-82.31 149.64) rotate(-88.25)"/><rect class="d" x="95.06" y="116.71" width="7.31" height="4.94" transform="translate(-23.43 214.2) rotate(-88.25)"/><rect class="d" x="79.38" y="116.23" width="7.31" height="4.94" transform="translate(-38.15 198.06) rotate(-88.25)"/><rect class="c" x="54.9" y="72.14" width="7.31" height="77.6" transform="translate(-54.13 166.08) rotate(-88.25)"/><rect class="d" x="54.9" y="108.47" width="7.31" height="4.94" transform="translate(-54.13 166.08) rotate(-88.25)"/><rect class="d" x="39.23" y="107.99" width="7.31" height="4.94" transform="translate(-68.84 149.94) rotate(-88.25)"/><rect class="d" x="23.55" y="107.51" width="7.31" height="4.94" transform="translate(-83.56 133.81) rotate(-88.25)"/><rect class="d" x="86.28" y="109.43" width="7.31" height="4.94" transform="translate(-24.67 198.37) rotate(-88.25)"/><rect class="d" x="70.6" y="108.95" width="7.31" height="4.94" transform="translate(-39.39 182.24) rotate(-88.25)"/><rect class="c" x="49.12" y="64.96" width="7.31" height="77.6" transform="translate(-52.56 153.34) rotate(-88.25)"/><rect class="d" x="49.12" y="101.29" width="7.31" height="4.94" transform="translate(-52.56 153.34) rotate(-88.25)"/><rect class="d" x="33.44" y="100.81" width="7.31" height="4.94" transform="translate(-67.27 137.2) rotate(-88.25)"/><rect class="d" x="17.77" y="100.33" width="7.31" height="4.94" transform="translate(-81.99 121.07) rotate(-88.25)"/><rect class="d" x="80.49" y="102.25" width="7.31" height="4.94" transform="translate(-23.1 185.63) rotate(-88.25)"/><rect class="d" x="64.82" y="101.77" width="7.31" height="4.94" transform="translate(-37.82 169.5) rotate(-88.25)"/><rect class="c" x="42.47" y="50.43" width="7.31" height="77.6" transform="translate(-44.47 132.61) rotate(-88.25)"/><rect class="d" x="42.47" y="86.76" width="7.31" height="4.94" transform="translate(-44.47 132.61) rotate(-88.25)"/><rect class="d" x="58.15" y="87.24" width="7.31" height="4.94" transform="translate(-29.76 148.74) rotate(-88.25)"/><rect class="d" x="73.83" y="87.72" width="7.31" height="4.94" transform="translate(-15.04 164.88) rotate(-88.25)"/><rect class="d" x="11.1" y="85.8" width="7.31" height="4.94" transform="translate(-73.92 100.32) rotate(-88.25)"/><rect class="d" x="26.78" y="86.28" width="7.31" height="4.94" transform="translate(-59.21 116.45) rotate(-88.25)"/><rect class="c" x="45.26" y="57.52" width="7.31" height="77.6" transform="translate(-48.86 142.26) rotate(-88.25)"/><rect class="d" x="45.26" y="93.85" width="7.31" height="4.94" transform="translate(-48.86 142.26) rotate(-88.25)"/><rect class="d" x="60.93" y="94.33" width="7.31" height="4.94" transform="translate(-34.14 158.4) rotate(-88.25)"/><rect class="d" x="76.61" y="94.81" width="7.31" height="4.94" transform="translate(-19.43 174.53) rotate(-88.25)"/><rect class="d" x="13.88" y="92.89" width="7.31" height="4.94" transform="translate(-78.31 109.97) rotate(-88.25)"/><rect class="d" x="29.56" y="93.37" width="7.31" height="4.94" transform="translate(-63.6 126.11) rotate(-88.25)"/><rect class="c" x="40.81" y="43.14" width="7.31" height="77.6" transform="translate(-38.8 123.87) rotate(-88.25)"/><rect class="d" x="40.81" y="79.47" width="7.31" height="4.94" transform="translate(-38.8 123.87) rotate(-88.25)"/><rect class="d" x="56.48" y="79.95" width="7.31" height="4.94" transform="translate(-24.08 140.01) rotate(-88.25)"/><rect class="d" x="72.16" y="80.43" width="7.31" height="4.94" transform="translate(-9.37 156.14) rotate(-88.25)"/><rect class="d" x="9.43" y="78.51" width="7.31" height="4.94" transform="translate(-68.25 91.58) rotate(-88.25)"/><rect class="d" x="25.11" y="78.99" width="7.31" height="4.94" transform="translate(-53.54 107.72) rotate(-88.25)"/><rect class="c" x="44.02" y="36.23" width="7.31" height="77.6" transform="translate(-28.78 120.39) rotate(-88.25)"/><rect class="d" x="44.02" y="72.56" width="7.31" height="4.94" transform="translate(-28.78 120.39) rotate(-88.25)"/><rect class="d" x="59.7" y="73.04" width="7.31" height="4.94" transform="translate(-14.07 136.53) rotate(-88.25)"/><rect class="d" x="75.37" y="73.52" width="7.31" height="4.94" transform="translate(0.65 152.66) rotate(-88.25)"/><rect class="d" x="12.65" y="71.6" width="7.31" height="4.94" transform="translate(-58.24 88.1) rotate(-88.25)"/><rect class="d" x="28.32" y="72.08" width="7.31" height="4.94" transform="translate(-43.52 104.23) rotate(-88.25)"/><rect class="c" x="35.24" y="28.96" width="7.31" height="77.6" transform="translate(-30.03 104.57) rotate(-88.25)"/><rect class="d" x="35.24" y="65.29" width="7.31" height="4.94" transform="translate(-30.03 104.57) rotate(-88.25)"/><rect class="d" x="50.91" y="65.77" width="7.31" height="4.94" transform="translate(-15.31 120.7) rotate(-88.25)"/><rect class="d" x="66.59" y="66.25" width="7.31" height="4.94" transform="translate(-0.6 136.83) rotate(-88.25)"/><rect class="d" x="3.86" y="64.33" width="7.31" height="4.94" transform="translate(-59.48 72.27) rotate(-88.25)"/><rect class="d" x="19.54" y="64.81" width="7.31" height="4.94" transform="translate(-44.76 88.41) rotate(-88.25)"/><rect class="c" x="44.45" y="22.24" width="7.31" height="77.6" transform="translate(-14.38 107.26) rotate(-88.25)"/><rect class="d" x="44.45" y="58.57" width="7.31" height="4.94" transform="translate(-14.38 107.26) rotate(-88.25)"/><rect class="d" x="60.12" y="59.05" width="7.31" height="4.94" transform="translate(0.33 123.39) rotate(-88.25)"/><rect class="d" x="75.8" y="59.53" width="7.31" height="4.94" transform="translate(15.05 139.52) rotate(-88.25)"/><rect class="d" x="13.07" y="57.61" width="7.31" height="4.94" transform="translate(-43.83 74.96) rotate(-88.25)"/><rect class="d" x="28.75" y="58.09" width="7.31" height="4.94" transform="translate(-29.12 91.1) rotate(-88.25)"/><rect class="c" x="50.66" y="15.43" width="7.31" height="77.6" transform="translate(-1.55 106.86) rotate(-88.25)"/><rect class="d" x="50.66" y="51.76" width="7.31" height="4.94" transform="translate(-1.55 106.86) rotate(-88.25)"/><rect class="d" x="66.34" y="52.24" width="7.31" height="4.94" transform="translate(13.17 122.99) rotate(-88.25)"/><rect class="d" x="82.01" y="52.72" width="7.31" height="4.94" transform="translate(27.88 139.13) rotate(-88.25)"/><rect class="d" x="19.29" y="50.8" width="7.31" height="4.94" transform="translate(-31 74.57) rotate(-88.25)"/><rect class="d" x="34.96" y="51.28" width="7.31" height="4.94" transform="translate(-16.29 90.7) rotate(-88.25)"/><rect class="c" x="178.91" y="103.31" width="7.31" height="77.6" transform="translate(34.94 320.24) rotate(-88.25)"/><rect class="d" x="178.91" y="139.64" width="7.31" height="4.94" transform="translate(34.94 320.24) rotate(-88.25)"/><rect class="d" x="194.59" y="140.12" width="7.31" height="4.94" transform="translate(49.66 336.37) rotate(-88.25)"/><rect class="d" x="210.27" y="140.6" width="7.31" height="4.94" transform="translate(64.37 352.51) rotate(-88.25)"/><rect class="d" x="147.54" y="138.67" width="7.31" height="4.94" transform="translate(5.49 287.95) rotate(-88.25)"/><rect class="d" x="163.22" y="139.16" width="7.31" height="4.94" transform="translate(20.2 304.08) rotate(-88.25)"/><rect class="c" x="181.7" y="110.39" width="7.31" height="77.6" transform="translate(30.55 329.9) rotate(-88.25)"/><rect class="d" x="181.7" y="146.72" width="7.31" height="4.94" transform="translate(30.55 329.9) rotate(-88.25)"/><rect class="d" x="197.37" y="147.2" width="7.31" height="4.94" transform="translate(45.27 346.03) rotate(-88.25)"/><rect class="d" x="213.05" y="147.69" width="7.31" height="4.94" transform="translate(59.98 362.16) rotate(-88.25)"/><rect class="d" x="150.32" y="145.76" width="7.31" height="4.94" transform="translate(1.1 297.6) rotate(-88.25)"/><rect class="d" x="166" y="146.24" width="7.31" height="4.94" transform="translate(15.82 313.74) rotate(-88.25)"/><rect class="c" x="177.25" y="96.01" width="7.31" height="77.6" transform="translate(40.61 311.5) rotate(-88.25)"/><rect class="d" x="177.25" y="132.34" width="7.31" height="4.94" transform="translate(40.61 311.5) rotate(-88.25)"/><rect class="d" x="192.92" y="132.82" width="7.31" height="4.94" transform="translate(55.33 327.64) rotate(-88.25)"/><rect class="d" x="208.6" y="133.3" width="7.31" height="4.94" transform="translate(70.04 343.77) rotate(-88.25)"/><rect class="d" x="145.87" y="131.38" width="7.31" height="4.94" transform="translate(11.16 279.21) rotate(-88.25)"/><rect class="d" x="161.55" y="131.86" width="7.31" height="4.94" transform="translate(25.88 295.35) rotate(-88.25)"/><rect class="c" x="180.46" y="89.11" width="7.31" height="77.6" transform="translate(50.63 308.02) rotate(-88.25)"/><rect class="d" x="180.46" y="125.44" width="7.31" height="4.94" transform="translate(50.63 308.02) rotate(-88.25)"/><rect class="d" x="196.14" y="125.92" width="7.31" height="4.94" transform="translate(65.34 324.16) rotate(-88.25)"/><rect class="d" x="211.81" y="126.4" width="7.31" height="4.94" transform="translate(80.06 340.29) rotate(-88.25)"/><rect class="d" x="149.09" y="124.48" width="7.31" height="4.94" transform="translate(21.18 275.73) rotate(-88.25)"/><rect class="d" x="164.76" y="124.96" width="7.31" height="4.94" transform="translate(35.89 291.87) rotate(-88.25)"/><rect class="c" x="171.68" y="81.83" width="7.31" height="77.6" transform="translate(49.39 292.2) rotate(-88.25)"/><rect class="d" x="171.68" y="118.17" width="7.31" height="4.94" transform="translate(49.39 292.2) rotate(-88.25)"/><rect class="d" x="187.35" y="118.65" width="7.31" height="4.94" transform="translate(64.1 308.33) rotate(-88.25)"/><rect class="d" x="203.03" y="119.13" width="7.31" height="4.94" transform="translate(78.82 324.46) rotate(-88.25)"/><rect class="d" x="140.3" y="117.2" width="7.31" height="4.94" transform="translate(19.93 259.9) rotate(-88.25)"/><rect class="d" x="155.98" y="117.68" width="7.31" height="4.94" transform="translate(34.65 276.04) rotate(-88.25)"/><rect class="c" x="180.89" y="75.11" width="7.31" height="77.6" transform="translate(65.03 294.89) rotate(-88.25)"/><rect class="d" x="180.89" y="111.44" width="7.31" height="4.94" transform="translate(65.03 294.89) rotate(-88.25)"/><rect class="d" x="196.56" y="111.92" width="7.31" height="4.94" transform="translate(79.75 311.02) rotate(-88.25)"/><rect class="d" x="212.24" y="112.41" width="7.31" height="4.94" transform="translate(94.46 327.15) rotate(-88.25)"/><rect class="d" x="149.51" y="110.48" width="7.31" height="4.94" transform="translate(35.58 262.6) rotate(-88.25)"/><rect class="d" x="165.19" y="110.96" width="7.31" height="4.94" transform="translate(50.29 278.73) rotate(-88.25)"/><rect class="c" x="187.1" y="68.3" width="7.31" height="77.6" transform="translate(77.86 294.49) rotate(-88.25)"/><rect class="d" x="187.1" y="104.63" width="7.31" height="4.94" transform="translate(77.86 294.49) rotate(-88.25)"/><rect class="d" x="202.78" y="105.11" width="7.31" height="4.94" transform="translate(92.58 310.62) rotate(-88.25)"/><rect class="d" x="218.45" y="105.59" width="7.31" height="4.94" transform="translate(107.29 326.76) rotate(-88.25)"/><rect class="d" x="155.73" y="103.67" width="7.31" height="4.94" transform="translate(48.41 262.2) rotate(-88.25)"/><rect class="d" x="171.4" y="104.15" width="7.31" height="4.94" transform="translate(63.13 278.33) rotate(-88.25)"/><rect class="d" x="372.24" y="94.49" width="140" height="64.33" transform="translate(4.37 -14.36) rotate(1.87)"/><polygon class="d" points="499.52 111.12 480.95 110.51 487.65 0 500.03 0.4 499.52 111.12"/><polygon class="d" points="473.16 123.68 454.6 123.08 461.3 12.56 473.68 12.97 473.16 123.68"/><polygon class="d" points="393.18 147.82 371.53 147.12 373.98 72.08 395.17 86.77 393.18 147.82"/><polygon class="d" points="412.51 148.45 390.87 147.75 393.32 72.71 414.51 87.4 412.51 148.45"/><polygon class="d" points="431.85 149.08 410.21 148.38 412.66 73.34 433.85 88.03 431.85 149.08"/><rect x="433.24" y="103.93" width="79.65" height="6.32" transform="translate(3.74 -15.37) rotate(1.87)"/><rect x="432.81" y="117.34" width="79.65" height="6.32" transform="matrix(1, 0.03, -0.03, 1, 4.18, -15.35)"/><rect x="432.37" y="130.75" width="79.65" height="6.32" transform="translate(4.62 -15.33) rotate(1.87)"/><rect x="377.38" y="100.96" width="9.02" height="6.32" transform="translate(3.6 -12.4) rotate(1.87)"/><rect x="376.94" y="114.37" width="9.02" height="6.32" transform="translate(4.04 -12.38) rotate(1.87)"/><rect x="376.5" y="127.77" width="9.02" height="6.32" transform="translate(4.47 -12.36) rotate(1.87)"/><rect x="396.71" y="101.59" width="9.02" height="6.32" transform="translate(3.63 -13.03) rotate(1.87)"/><rect x="396.28" y="115" width="9.02" height="6.32" transform="matrix(1, 0.03, -0.03, 1, 4.07, -13.01)"/><rect x="395.84" y="128.41" width="9.02" height="6.32" transform="translate(4.5 -12.99) rotate(1.87)"/><rect x="416.05" y="102.22" width="9.02" height="6.32" transform="translate(3.66 -13.66) rotate(1.87)"/><rect x="415.62" y="115.63" width="9.02" height="6.32" transform="translate(4.1 -13.64) rotate(1.87)"/><rect x="415.18" y="129.04" width="9.02" height="6.32" transform="translate(4.53 -13.62) rotate(1.87)"/><rect x="456.65" y="21.32" width="20.85" height="4.21" transform="translate(1.01 -15.22) rotate(1.87)"/><rect x="483.36" y="8.05" width="20.33" height="4.21" transform="translate(0.59 -16.09) rotate(1.87)"/><rect x="455.88" y="44.91" width="20.85" height="4.21" transform="translate(1.78 -15.18) rotate(1.87)"/><rect x="482.59" y="31.64" width="20.33" height="4.21" transform="translate(1.36 -16.05) rotate(1.87)"/><rect x="455.11" y="68.5" width="20.85" height="4.21" transform="translate(2.55 -15.15) rotate(1.87)"/><rect x="481.82" y="55.23" width="20.33" height="4.21" transform="matrix(1, 0.03, -0.03, 1, 2.13, -16.01)"/></svg>