<svg xmlns="http://www.w3.org/2000/svg" viewBox="0 0 130.75 218.62"><defs><style>.a{fill:#ffd8b6;}.b{fill:#8fcccf;}.c{fill:#00a1b8;}.d{fill:#bcf0f2;}</style></defs><title>Asset 16</title><path d="M60,6.31c-5.94,1.92-15,14.2-19.54,28.13s-2.38,25.2,2.6,26.81S62.17,44.43,66.69,30.5,67.53,3.88,60,6.31Z"/><path class="a" d="M62.4,14.23c2.77,5.72,9,8.43,12.51,6.74s2.93-7.16.15-12.88S68,.83,64.54,2.52,59.62,8.51,62.4,14.23Z"/><path class="a" d="M64.42,15.05l6.66.49c-.06.91-.85,9.57-1.74,12.73-.41.95-2.12,1.13-3.82.39C64,28,63,26.83,63.11,25.91h0A85.37,85.37,0,0,0,64.42,15.05Z"/><path d="M55.31,12.45s-.46-5,2.55-8.31S68.23-2.44,72.62,2.62c0,0,2.72,3.9-3,7s-5.75-.09-7.67,3.72-5.31,3-5.62,3.78Z"/><path class="a" d="M60.77,17.45c.65,1.33,2.8,2.4,3.76,1.93s.68-1.67,0-3-2-2.2-3-1.73A1.92,1.92,0,0,0,60.77,17.45Z"/><path class="a" d="M120.84,12.17s6.44-8.72,9.17-8.82-2.47,8.89-8.51,11.41Z"/><path class="b" d="M120.18,11.07c1.44,1,2.87,2,4.2,3.1-17.31,21.82-27,29.58-55,23.47-4.28-.93-4.12-2.67-2.71-5.73h0c1.4-3.05,2.76-3,6.49-2.14C97.58,35.36,103.46,28.16,120.18,11.07Z"/><path class="a" d="M91.78,214.55c-1.42.52-2.84,1-4.27,1.51C75,179.2,76.07,144.58,66.15,108.73c2.34-1,4.7-1.88,7.07-2.78C83.39,140.41,81.35,178,91.78,214.55Z"/><path class="a" d="M7,171.25a45.94,45.94,0,0,1,.45-4.69c43.8,3.3,61.6-30.17,46-69.21,2.35-1.24,4.69-2.53,7.11-3.63C74.83,137.08,57.35,176.47,7,171.25Z"/><path d="M85.66,213s-1.14,5.45.17,5.56,20,.12,20.13-.75c.29-3-15.1-5.26-16.6-4.92S85.81,212.22,85.66,213Z"/><path d="M9.86,166.56s-5-2.47-5.42-1.24S-.73,184.7.1,185C2.91,186,9,171.7,9,170.17S10.58,166.9,9.86,166.56Z"/><path class="c" d="M55.38,148.36c1.23,1,2.08,2.15,3.27,3.25a65.54,65.54,0,0,0,8.84,6.75,35.18,35.18,0,0,0,5.75,3.21,27.53,27.53,0,0,0,9.67,1.79c-1.3-41.24,1.26-62-23.54-82.52C57,79.55,56.8,80.69,56,80.42c-.5.48-1.16.87-1.64,1.35C48.3,88,49,92.86,50.79,102c4.16,21.14,1.47,25.61-8.43,41.13C47.35,143.68,51.53,145.09,55.38,148.36Z"/><path class="d" d="M73.16,93.54c-5,.23-9-1.49-13.28-4-3.31-1.93-7.55-2.72-11-4.07-2.75-15.56.4-40.94,6.35-51,5.23-8.85,5.26-7.4,7.19-8.24a7.37,7.37,0,0,1,8,1.13l.12.12C73,29.8,73.15,35,73.61,40.33s2.5,4.36-2.11,13.78C69.51,58.16,73.21,85.53,73.16,93.54Z"/></svg>