<svg xmlns="http://www.w3.org/2000/svg" viewBox="0 0 395.22 303.82"><defs><style>.bbe6c589-539c-4388-9c94-752d3e201eb1{fill:#e1f7ff;}.af486ecb-a646-462f-8e6b-f8a9288253ca{fill:#afc4d1;}.ab20afd7-e06c-4d62-b36f-8e38b337d2b1{fill:#293d48;}.bc5950a0-871b-4bff-af7b-2c9fc90b5db5{fill:#00e0e1;}.b9ebb2d3-431d-41a0-8bbf-30e2ed5313e1{fill:#526672;}.f9ac3154-b34e-4cf1-936f-db92c577b617{fill:#7f94a0;}.f0330790-928b-486e-965e-3794f0712776{fill:none;stroke:#7f94a0;stroke-miterlimit:10;stroke-width:3.57px;}</style></defs><title>03 - comp</title><g id="a65c07dd-b095-46aa-a98d-8922cbdc92b3" data-name="Layer 2"><g id="b1896cd6-f2a0-4545-bbfd-79ca65897899" data-name="Layer 1"><g id="e991556d-87cf-44f8-bbdc-88639ea36d81" data-name="Computer"><polygon class="bbe6c589-539c-4388-9c94-752d3e201eb1" points="147.87 263.53 145.59 293.53 224.41 293.53 222.13 263.53 147.87 263.53"/><polygon class="af486ecb-a646-462f-8e6b-f8a9288253ca" points="220.88 247.06 149.12 247.06 147.87 263.53 222.13 263.53 220.88 247.06"/><path class="af486ecb-a646-462f-8e6b-f8a9288253ca" d="M133.58,290.88H236.42a7.85,7.85,0,0,1,7.85,7.85v5.09a0,0,0,0,1,0,0H125.74a0,0,0,0,1,0,0v-5.09A7.85,7.85,0,0,1,133.58,290.88Z"/><path d="M359.36,0H10.64A10.64,10.64,0,0,0,0,10.64V220H370V10.64A10.64,10.64,0,0,0,359.36,0Z"/><path class="bbe6c589-539c-4388-9c94-752d3e201eb1" d="M219.41,220H0v25.24a10.64,10.64,0,0,0,10.64,10.64H359.36A10.64,10.64,0,0,0,370,245.24V220Z"/><polygon class="ab20afd7-e06c-4d62-b36f-8e38b337d2b1" points="142.3 12.95 12.95 12.95 12.95 142.3 12.95 205.29 183.83 205.29 183.83 12.95 142.3 12.95"/><rect class="bc5950a0-871b-4bff-af7b-2c9fc90b5db5" x="183.83" y="12.94" width="170.88" height="192.34"/></g><path class="b9ebb2d3-431d-41a0-8bbf-30e2ed5313e1" d="M151.08,127a7.69,7.69,0,0,0-12.43-6.07l-19.89-14.45a1,1,0,0,0,0-.17,7.7,7.7,0,1,0-15.4,0s0,.11,0,.17L83.49,120.88a7.62,7.62,0,0,0-4.72-1.63,7.7,7.7,0,0,0-.28,15.39l7.87,24.21a7.69,7.69,0,1,0,11.35,9h25.8a7.7,7.7,0,1,0,12.1-8.5l8-24.73A7.7,7.7,0,0,0,151.08,127Zm-20.29,30.72a7.7,7.7,0,0,0-7.28,5.2H97.71a7.68,7.68,0,0,0-6.46-5.15l-8-24.54A7.66,7.66,0,0,0,86.47,127a7.75,7.75,0,0,0-.24-1.88l19-13.8a7.69,7.69,0,0,0,11.69,0l19,13.81a7.29,7.29,0,0,0-.25,1.88,7.67,7.67,0,0,0,3.2,6.23l-8,24.5Z"/><path class="f9ac3154-b34e-4cf1-936f-db92c577b617" d="M383.63,215.32a.76.76,0,0,1,0-.15c0-.09,0-.19,0-.28,0-.38,0-.76.07-1.15,0-.09,0-.18,0-.27,0-.39,0-.77,0-1.16a2.44,2.44,0,0,0,0-.27v0c0-.1,0-.21,0-.31s0-.47,0-.71v-1.56l0-1.16a2.44,2.44,0,0,1,0-.27c0-.39,0-.77-.06-1.15,0-.09,0-.19,0-.28a.76.76,0,0,1,0-.15l6.59-2.53,4.94-1.89a42.66,42.66,0,0,0-.74-6.1,44.12,44.12,0,0,0-1.63-5.92l-5.3.13-7.06.18a.24.24,0,0,0,0-.08l-.09-.26-.39-1.09-.09-.26-.42-1.08-.09-.22c-.06-.16-.12-.32-.19-.48l-.19-.48-.1-.22c-.14-.35-.3-.71-.45-1.06,0-.09-.08-.17-.11-.25-.16-.35-.32-.7-.49-1l-.11-.25a.43.43,0,0,0,0-.07l5.18-4.79,3.89-3.61a41.63,41.63,0,0,0-3-5.38,41.05,41.05,0,0,0-3.71-4.89l-4.88,2.09-6.48,2.78-.09-.11-.19-.21c-.25-.29-.5-.58-.76-.86l-.19-.21-.78-.85-.19-.2h0l-.21-.22-.5-.51-.08-.09-.1-.09c-.16-.17-.33-.34-.5-.5l-.22-.22h0l-.2-.19-.83-.8-.21-.19c-.28-.26-.56-.52-.85-.77a2,2,0,0,0-.21-.19l-.11-.1,2.88-6.45,2.15-4.83a42.25,42.25,0,0,0-10.18-6.82l-3.64,3.83-4.88,5.12-.06,0-.26-.13-1-.49-.25-.11-1.06-.48-.22-.09-.47-.2-.47-.2-.22-.09-1.08-.43-.26-.1-1.08-.4-.26-.1-.07,0,.27-7,.2-5.3a42.22,42.22,0,0,0-5.9-1.71,41.31,41.31,0,0,0-6.08-.84l-2,4.93-2.62,6.55h-.14l-.28,0-1.15-.07-.27,0-1.16,0h-2.87c-.39,0-.78,0-1.16,0h-.28l-1.14,0-.28,0h-.15l-2.53-6.59-1.89-4.94a42,42,0,0,0-12,2.38l.13,5.29.18,7.06-.08,0-.26.1-1.09.38-.26.1-1.08.41-.22.09-.48.19-.48.2-.21.09-1.08.46-.24.1-1.06.49-.24.11-.07,0-4.79-5.18-3.61-3.89a42.31,42.31,0,0,0-5.38,3,41.13,41.13,0,0,0-4.89,3.72l2.09,4.87,2.78,6.48-.11.1L280,163c-.29.25-.58.5-.86.76l-.21.18-.85.79-.19.19s0,0,0,0l-.22.21-.51.49-.08.08h0l-.09.09c-.17.16-.34.33-.5.5s-.15.15-.22.22,0,0,0,0l-.18.19-.8.84-.19.2c-.26.28-.52.56-.77.85l-.19.21-.1.11-6.45-2.88L262.67,164a41,41,0,0,0-3.78,4.84,41.8,41.8,0,0,0-3,5.34l3.83,3.64,5.12,4.88a.25.25,0,0,1,0,.07,2.56,2.56,0,0,1-.11.24c-.17.35-.34.7-.5,1.05,0,.08-.07.16-.11.25-.16.35-.33.7-.48,1.06l-.09.22-.21.47-.19.48-.09.21c-.15.36-.29.72-.43,1.09l-.1.24c-.14.37-.28.73-.41,1.1l-.09.25,0,.07-7-.27-5.3-.2A42.44,42.44,0,0,0,247,201l4.93,2,6.54,2.62v.14l0,.29c0,.38-.05.76-.07,1.14,0,.09,0,.18,0,.28,0,.38,0,.76,0,1.15a2.44,2.44,0,0,0,0,.27v0c0,.11,0,.21,0,.32s0,.47,0,.7v1.3c0,.08,0,.17,0,.26q0,.58,0,1.17v.27l.06,1.15,0,.27v.15l-6.6,2.53-4.93,1.89a42,42,0,0,0,2.38,12l5.29-.13,7.06-.17a.19.19,0,0,0,0,.07l.09.27.39,1.08a2,2,0,0,0,.1.26c.13.36.27.72.41,1.09l.09.22c.06.16.12.32.19.48s.13.31.19.47l.09.21c.15.36.31.72.47,1.08l.1.24c.16.35.32.71.49,1.06l.11.24a.3.3,0,0,0,0,.08l-5.18,4.79-3.89,3.6a41.63,41.63,0,0,0,3,5.38,42.15,42.15,0,0,0,3.71,4.89L266.9,254l6.47-2.78.11.12.18.2.76.87.18.2c.26.29.52.57.79.85l.19.2h0l.21.23.5.51.09.08.08.1.51.5.22.21,0,0,.18.18c.29.27.56.55.85.81l.19.18.86.78.2.18.12.1L276.74,264l-2.15,4.83a41.69,41.69,0,0,0,10.17,6.82l3.65-3.83,4.87-5.12.08,0,.24.12,1,.49.24.12,1.07.47.22.1.47.2.47.2.22.09,1.09.43.24.09,1.09.41.26.09.07,0-.27,7.05-.2,5.3a42,42,0,0,0,12,2.54l2-4.92,2.61-6.55h.15l.29,0,1.14.07H318l1.15.05h2.87l1.17,0h.26l1.16-.05.27,0h.15l2.53,6.6,1.89,4.94a42.94,42.94,0,0,0,12-2.38l-.13-5.29-.17-7.06.07,0,.27-.09,1.08-.39.27-.1c.35-.13.72-.26,1.07-.41a1.09,1.09,0,0,0,.23-.09l.47-.18.48-.2.22-.09,1.07-.46.24-.11,1.06-.48.25-.12.07,0,4.79,5.18,3.6,3.89a42.38,42.38,0,0,0,10.28-6.67l-2.1-4.88-2.78-6.47.11-.1.22-.19.85-.75a2.09,2.09,0,0,0,.22-.2l.84-.77.2-.2h0l.23-.22.5-.49.09-.09a.43.43,0,0,1,.1-.09l.5-.51.21-.21,0,0,.19-.2c.27-.27.53-.55.8-.83l.18-.2.78-.86.18-.2.1-.12,6.45,2.88,4.83,2.15a39.21,39.21,0,0,0,3.78-4.84,39.89,39.89,0,0,0,3-5.33l-3.83-3.65-5.12-4.87s0-.05,0-.07.09-.17.13-.26c.17-.34.33-.69.49-1l.12-.25c.16-.35.32-.7.47-1l.09-.23.21-.47.2-.47.09-.22c.14-.36.28-.72.43-1.08a1.86,1.86,0,0,1,.1-.25c.13-.37.27-.73.4-1.09l.09-.26,0-.07,7,.27,5.3.2a39.67,39.67,0,0,0,1.71-5.9,41.13,41.13,0,0,0,.84-6.08l-4.93-2Zm-29.27,2.19a34,34,0,1,1-26.22-40.36A34,34,0,0,1,354.36,217.51Z"/><path class="f9ac3154-b34e-4cf1-936f-db92c577b617" d="M242.17,137.6l0-.07c0-.05,0-.1,0-.15l-.12-.58,0-.14c0-.2-.09-.4-.14-.59l0-.14h0s0-.1,0-.16l-.09-.35a.14.14,0,0,0,0-.07s0,0,0-.06-.07-.24-.1-.36,0-.1,0-.15v0a.65.65,0,0,1,0-.13c-.06-.19-.11-.39-.17-.58a.57.57,0,0,1,0-.14c-.06-.19-.12-.38-.19-.57l0-.13,0-.08,3-2.16,2.23-1.61a22.72,22.72,0,0,0-1.19-3,22.18,22.18,0,0,0-1.62-2.76l-2.64.78-3.53,1,0,0-.08-.12-.35-.49-.08-.12c-.11-.17-.23-.33-.35-.49l-.08-.1-.16-.21a1.77,1.77,0,0,0-.16-.22.86.86,0,0,1-.07-.1l-.38-.47-.09-.11c-.12-.16-.25-.31-.38-.47l-.09-.11,0,0,2-3.1,1.47-2.34a21.85,21.85,0,0,0-2.21-2.31,21.41,21.41,0,0,0-2.53-2l-2.17,1.71-2.88,2.27-.07,0-.12-.08-.49-.33-.13-.08-.5-.32-.13-.07h0l-.13-.08-.32-.19-.05,0-.06,0-.32-.18-.14-.08h0l-.13-.07-.52-.28-.13-.07-.53-.28-.13-.06-.07,0,.58-3.63.43-2.72a22,22,0,0,0-2.94-1.25,21.65,21.65,0,0,0-3.09-.81l-1.32,2.42-1.77,3.23h0l-.14,0-.59-.11-.14,0-.6-.1-.12,0-.26,0-.27,0-.12,0-.6-.07h-.15l-.59-.06h-.19l-.81-3.58-.61-2.69a22.67,22.67,0,0,0-3.2-.07,22.15,22.15,0,0,0-3.17.4l-.33,2.74-.43,3.65H204l-.14,0-.59.12-.13,0-.59.13-.14,0h0l-.16,0-.36.09-.06,0-.07,0-.35.09-.16,0h0l-.13,0-.58.17-.14,0-.57.18-.14,0-.07,0-2.16-3-1.61-2.23a21,21,0,0,0-3,1.2,20.32,20.32,0,0,0-2.76,1.61l.78,2.65,1,3.52,0,0-.12.08-.5.34-.11.08-.5.36-.09.07-.22.16-.21.16-.1.08-.48.37-.1.09-.47.39-.11.09,0,0-3.11-2-2.33-1.47a21.85,21.85,0,0,0-2.31,2.21,22.26,22.26,0,0,0-2,2.53l1.71,2.17,2.26,2.88a.43.43,0,0,1,0,.07l-.08.12-.33.5-.08.12c-.11.17-.22.34-.32.51a.75.75,0,0,0-.07.12h0l-.09.14c-.06.1-.12.21-.19.31l0,.06h0l0,.06-.19.32s-.05.09-.07.14h0l-.07.12c-.1.17-.19.35-.29.53l-.06.12c-.1.18-.19.36-.28.54l-.06.13a.21.21,0,0,0,0,.06l-3.63-.58-2.72-.43a22,22,0,0,0-1.26,2.94,21.73,21.73,0,0,0-.8,3.1l2.41,1.32,3.23,1.76v0s0,.09,0,.14c0,.2-.08.4-.11.59l0,.14-.09.6a.5.5,0,0,0,0,.12c0,.09,0,.18,0,.27a2.51,2.51,0,0,1,0,.27s0,.08,0,.11c0,.21,0,.41-.07.61l0,.14c0,.2,0,.4,0,.6,0,0,0,.09,0,.14v0l-3.58.81-2.69.61a20,20,0,0,0-.07,3.2,20.81,20.81,0,0,0,.4,3.17l2.74.33,3.64.44,0,.07s0,.1,0,.15l.12.58,0,.14c0,.2.09.39.14.59l0,.14h0c0,.05,0,.1,0,.16l.09.35a.14.14,0,0,0,0,.06s0,.05,0,.07l.1.36c0,.05,0,.1,0,.15h0a.74.74,0,0,1,0,.14c.06.19.11.39.17.58l0,.13c.06.19.12.38.19.58l0,.13,0,.08-3,2.15-2.23,1.62a22,22,0,0,0,1.19,3,22.31,22.31,0,0,0,1.62,2.77l2.64-.78,3.53-1,0,0a.83.83,0,0,1,.08.12l.35.49a.83.83,0,0,0,.08.12l.35.49a.36.36,0,0,1,.07.1l.17.21c.05.07.11.14.16.22l.07.09.38.48.09.11.38.47.09.1,0,0-2,3.11-1.47,2.34a20.8,20.8,0,0,0,2.21,2.3,22.26,22.26,0,0,0,2.52,2l2.17-1.71,2.89-2.27.07.05.11.07.5.34.12.07.51.33.12.07h0l.14.08.32.19,0,0,.06,0,.32.18.14.08h0l.12.06.54.29.12.07.53.28.13.06.07,0-.58,3.63-.43,2.72a22,22,0,0,0,2.94,1.25,21.65,21.65,0,0,0,3.09.81l1.32-2.42,1.77-3.23h0l.14,0,.59.11.14,0,.6.1h.12l.27,0,.26,0,.12,0,.61.07h.13l.61.06h.18l.81,3.58.61,2.69a22.56,22.56,0,0,0,3.19.07,22.11,22.11,0,0,0,3.18-.4l.33-2.74.43-3.65h.08l.14,0,.59-.12.14,0,.58-.13.15,0h0l.16,0,.36-.09h.06l.07,0,.35-.09.16,0h0l.13,0,.59-.17.13,0,.57-.18.14-.05.07,0,2.16,3,1.62,2.23a22.37,22.37,0,0,0,5.72-2.81l-.77-2.65-1-3.53,0,0,.13-.08.49-.34.12-.09.49-.35.1-.07.21-.16.21-.16.1-.08.48-.38.11-.08.46-.39.11-.09,0,0,3.11,2,2.33,1.48a21,21,0,0,0,2.31-2.22,20.31,20.31,0,0,0,2-2.52l-1.7-2.17L237,162.06l0-.06.08-.12.33-.5a.83.83,0,0,0,.08-.12c.11-.17.22-.34.32-.51l.08-.12h0l.09-.14.18-.31a.21.21,0,0,0,0-.06l0-.06.19-.32.08-.14h0a.75.75,0,0,0,.07-.12c.1-.18.2-.35.29-.53l.07-.12.27-.54s0-.08.07-.13l0-.07,3.63.58,2.72.44a20.93,20.93,0,0,0,1.26-3,23.07,23.07,0,0,0,.81-3.09l-2.42-1.32L242.08,150s0,0,0,0,0-.1,0-.15.08-.39.11-.59l0-.14.09-.59a.51.51,0,0,0,0-.13c0-.09,0-.17,0-.26a2.51,2.51,0,0,1,0-.27v-.12c0-.2.05-.4.07-.6s0-.09,0-.14,0-.4.05-.6,0-.1,0-.14v0l3.58-.81,2.69-.61a20.07,20.07,0,0,0,.07-3.2,20.78,20.78,0,0,0-.4-3.18l-2.74-.32Zm-14.43,5a17.72,17.72,0,1,1-18.62-16.78A17.72,17.72,0,0,1,227.74,142.64Z"/><g id="a1f8bf80-7bb6-41d5-bbd1-f3cd267d6ec4" data-name="Padlock on Screen"><path class="f9ac3154-b34e-4cf1-936f-db92c577b617" d="M166.6,47.71h34.25a2.61,2.61,0,0,1,2.61,2.61V63.07a19.73,19.73,0,0,1-19.73,19.73h0A19.73,19.73,0,0,1,164,63.07V50.32A2.61,2.61,0,0,1,166.6,47.71Z"/><path class="f0330790-928b-486e-965e-3794f0712776" d="M195.28,53.34V39.54A11.55,11.55,0,0,0,183.72,28h0a11.56,11.56,0,0,0-11.56,11.56V52.22"/><path class="bc5950a0-871b-4bff-af7b-2c9fc90b5db5" d="M179.13,62a4.59,4.59,0,1,1,4.59,4.58A4.59,4.59,0,0,1,179.13,62Z"/><path class="bc5950a0-871b-4bff-af7b-2c9fc90b5db5" d="M183.72,74.81h0a1.9,1.9,0,0,1-1.9-1.91V66.23a1.9,1.9,0,0,1,1.9-1.9h0a1.9,1.9,0,0,1,1.9,1.9V72.9A1.9,1.9,0,0,1,183.72,74.81Z"/></g></g></g></svg>