<svg xmlns="http://www.w3.org/2000/svg" viewBox="0 0 162.58 260.89"><defs><style>.e82dd3fa-35e3-4061-818e-bb6a84a43b72{fill:#7f94a0;}.bbcf6527-eddf-4735-bb4b-24d8dd1b455b{fill:#526672;}.b081b98f-9645-4112-95c6-5cf137c83fdd{fill:#e1f7ff;}.ea699e3d-b524-4818-8f57-8b7b4b52d884{fill:#fff;}</style></defs><title>03 Bulb</title><g id="be452b6e-762b-4c8e-9681-aa097e0de972" data-name="Layer 2"><g id="a35e4950-0499-45a2-ab31-dc706f9a465b" data-name="Layer 1"><g id="fd7407b2-c5ed-4460-9205-cd325ec3a9e0" data-name="Bulb"><path class="e82dd3fa-35e3-4061-818e-bb6a84a43b72" d="M62.92,201h38.37a0,0,0,0,1,0,0v42.32a17.55,17.55,0,0,1-17.55,17.55H80.47a17.55,17.55,0,0,1-17.55-17.55V201A0,0,0,0,1,62.92,201Z" transform="translate(-1.25 0.45) rotate(-0.31)"/><path class="bbcf6527-eddf-4735-bb4b-24d8dd1b455b" d="M48.63,190h66.83a0,0,0,0,1,0,0v36.71A23.16,23.16,0,0,1,92.3,249.91H71.79a23.16,23.16,0,0,1-23.16-23.16V190a0,0,0,0,1,0,0Z" transform="translate(-1.19 0.45) rotate(-0.31)"/><path class="b081b98f-9645-4112-95c6-5cf137c83fdd" d="M79.69,0A81.29,81.29,0,0,0,23.77,138.73a59.08,59.08,0,0,1,17,41.5l.06,11.34a9.61,9.61,0,0,0,9.66,9.56l30.8-.16V0Z"/><path class="ea699e3d-b524-4818-8f57-8b7b4b52d884" d="M162.58,80.85A81.29,81.29,0,0,0,81.29,0V201l32.1-.18a9.61,9.61,0,0,0,9.56-9.66l-.07-11.93a57.94,57.94,0,0,1,16.4-40.95A81,81,0,0,0,162.58,80.85Z"/><path class="e82dd3fa-35e3-4061-818e-bb6a84a43b72" d="M115.44,214.62,48.59,215a3.8,3.8,0,0,1-3.81-3.78h0a3.79,3.79,0,0,1,3.77-3.81L115.4,207a3.79,3.79,0,0,1,3.81,3.77h0A3.79,3.79,0,0,1,115.44,214.62Z"/><path class="e82dd3fa-35e3-4061-818e-bb6a84a43b72" d="M115.52,228.46l-66.86.37a3.79,3.79,0,0,1-3.81-3.77h0a3.8,3.8,0,0,1,3.77-3.82l66.86-.36a3.79,3.79,0,0,1,3.81,3.77h0A3.79,3.79,0,0,1,115.52,228.46Z"/><rect class="e82dd3fa-35e3-4061-818e-bb6a84a43b72" x="48.73" y="234.9" width="66.83" height="7.58" rx="3.59" transform="translate(-1.29 0.45) rotate(-0.31)"/></g></g></g></svg>