<svg xmlns="http://www.w3.org/2000/svg" viewBox="0 0 80 80"><defs><style>.a7426a8e-1423-4ab4-8533-3fae59978016{fill:#00a1b8;}</style></defs><title>03 comp cog</title><g id="f89707a4-8f93-450d-9bf4-420bd455e21e" data-name="Layer 2"><g id="b5493575-f1e5-4aab-b274-d04954a2f5e4" data-name="Layer 1"><path class="a7426a8e-1423-4ab4-8533-3fae59978016" d="M73,33.89l0-.08,0-.15-.12-.6,0-.15c0-.2-.09-.4-.14-.6l0-.14h0a.94.94,0,0,1,0-.16l-.09-.37a.14.14,0,0,1,0-.06.64.64,0,0,0,0-.07c0-.12-.06-.25-.1-.37s0-.1,0-.15v0a.57.57,0,0,1,0-.14l-.18-.59a.74.74,0,0,0,0-.14c-.06-.2-.12-.39-.19-.59,0,0,0-.09,0-.14l0-.07,3.06-2.22,2.29-1.66a21.38,21.38,0,0,0-1.23-3.05,22.08,22.08,0,0,0-1.66-2.83l-2.71.8-3.63,1.06s0,0,0,0l-.08-.13-.35-.51-.09-.12L67,20.1l-.08-.1-.16-.22-.17-.22-.08-.1c-.12-.17-.25-.33-.38-.49l-.09-.11-.4-.48-.09-.11,0,0,2-3.19,1.52-2.4a22,22,0,0,0-2.27-2.37,22.42,22.42,0,0,0-2.6-2L62,10l-3,2.34-.07,0-.12-.08-.51-.34-.13-.08c-.17-.12-.34-.22-.52-.33l-.12-.08h0l-.14-.08-.33-.2-.06,0-.06,0-.32-.19-.15-.09h0l-.13-.07-.54-.3-.13-.07L55.12,10,55,10l-.07,0,.6-3.73L56,3.41a21.39,21.39,0,0,0-3-1.28,23,23,0,0,0-3.18-.84L48.4,3.78,46.59,7.1h0l-.15,0L45.79,7l-.14,0L45,6.82h-.12l-.27,0-.28,0-.12,0-.62-.07-.14,0-.62-.06h-.19l-.83-3.68L41.21.1A23.85,23.85,0,0,0,37.93,0a23.23,23.23,0,0,0-3.26.41l-.34,2.82L33.89,7l-.08,0-.15,0-.6.12-.14,0-.61.14-.14,0h0l-.16,0-.37.09-.06,0-.07,0-.37.1-.15,0h0l-.14,0-.59.18-.14,0-.59.19-.14,0-.07,0L27.07,5.14,25.41,2.85a20.8,20.8,0,0,0-3,1.23,21.53,21.53,0,0,0-2.84,1.66l.8,2.71,1.06,3.62,0,0a.57.57,0,0,0-.13.08l-.51.35-.12.09-.5.36-.1.08-.22.16-.22.17-.1.07-.49.39-.11.09-.48.4-.11.09,0,0-3.19-2-2.4-1.51a22,22,0,0,0-2.37,2.27,22.42,22.42,0,0,0-2,2.6L10,18l2.33,3,0,.07-.08.12c-.12.17-.23.34-.34.51a.83.83,0,0,0-.08.12l-.33.53-.08.12h0a.64.64,0,0,1-.08.14l-.2.33,0,0h0l0,.06-.19.32a1.09,1.09,0,0,0-.08.15h0l-.07.12-.3.55-.07.13-.28.54L10,25l0,.07-3.73-.6-2.8-.44a22.62,22.62,0,0,0-1.28,3,21.27,21.27,0,0,0-.83,3.18L3.78,31.6,7.1,33.41v.05l0,.14c0,.2-.08.4-.11.61l0,.14c0,.2-.07.41-.1.62,0,0,0,.08,0,.12a2.51,2.51,0,0,0,0,.27,2.7,2.7,0,0,0,0,.28s0,.08,0,.12c0,.21,0,.41-.07.62l0,.14-.06.62a.61.61,0,0,1,0,.14v0l-3.68.83L.1,38.79A23.82,23.82,0,0,0,0,42.07a23.42,23.42,0,0,0,.41,3.26l2.82.34L7,46.11l0,.08,0,.15.12.6,0,.15c0,.2.09.4.14.6l0,.14h0l0,.16.09.37a.14.14,0,0,1,0,.06s0,0,0,.07l.1.37c0,.05,0,.1,0,.15v0a.65.65,0,0,1,0,.13l.18.6,0,.14c.06.19.12.39.19.59l0,.14,0,.07L5.14,52.93,2.85,54.59a20.8,20.8,0,0,0,1.23,3,21.53,21.53,0,0,0,1.66,2.84l2.71-.8,3.62-1.06,0,0,.08.13.35.51.09.11.36.51.08.1.16.22.17.22.07.1.39.49.09.11.4.48.09.11,0,0-2,3.19-1.51,2.4a22,22,0,0,0,2.27,2.37,22.42,22.42,0,0,0,2.6,2L18,70l3-2.33.07,0,.12.08.51.34a.57.57,0,0,0,.13.08l.52.33.12.08h0l.14.09.33.2.06,0,.05,0,.34.19.14.08h0l.12.07.55.3.12.07.56.28L25,70l.08,0-.6,3.73-.44,2.8a22.62,22.62,0,0,0,3,1.28,21.27,21.27,0,0,0,3.18.83l1.35-2.48,1.81-3.32h0l.15,0,.61.11.14,0,.62.1h.12l.27,0,.28,0,.12,0,.62.07.14,0,.62.06h.19l.83,3.68.63,2.77a23.82,23.82,0,0,0,3.28.07,23.42,23.42,0,0,0,3.26-.41l.34-2.82L46.11,73l.08,0,.15,0,.6-.12.15,0,.6-.14.14,0h0l.16,0,.37-.09.06,0,.07,0,.37-.1.15,0h0l.13,0,.6-.18.14,0,.59-.19.14,0,.07,0,2.22,3.06,1.66,2.29a21.38,21.38,0,0,0,3-1.23,22.08,22.08,0,0,0,2.83-1.66l-.8-2.71-1.06-3.63,0,0,.13-.08.51-.35.12-.09.5-.36.1-.08.22-.16.22-.17.1-.08c.17-.12.33-.25.49-.38l.11-.09.48-.4.11-.09,0,0,3.19,2,2.4,1.52a22,22,0,0,0,2.37-2.27,22.42,22.42,0,0,0,2-2.6L70,62l-2.34-3,0-.07.09-.12.33-.51.09-.13.32-.52a.57.57,0,0,0,.08-.13h0l.09-.15a3.37,3.37,0,0,0,.19-.32l0-.06,0-.06c.07-.11.13-.22.19-.33a.64.64,0,0,0,.08-.14h0a.54.54,0,0,0,.07-.13l.3-.54s0-.08.07-.13.19-.36.28-.55S70,55,70,55l0-.07,3.73.6,2.8.44a21.39,21.39,0,0,0,1.28-3,23,23,0,0,0,.84-3.18L76.22,48.4,72.9,46.59a.08.08,0,0,0,0,0l0-.15c0-.2.08-.41.11-.61l0-.15c0-.2.07-.4.1-.6,0,0,0-.09,0-.13a2.51,2.51,0,0,0,0-.27,2.7,2.7,0,0,0,0-.28l0-.12c0-.21,0-.41.07-.62,0,0,0-.1,0-.14l.06-.62a.76.76,0,0,1,0-.15v0l3.68-.83,2.77-.63A23.85,23.85,0,0,0,80,37.93a23.23,23.23,0,0,0-.41-3.26l-2.82-.34ZM58.18,39.06A18.2,18.2,0,1,1,39.06,21.82,18.2,18.2,0,0,1,58.18,39.06Z"/></g></g></svg>