<svg xmlns="http://www.w3.org/2000/svg" viewBox="0 0 63.95 63.95"><defs><style>.e8faa492-894f-4c6d-91f2-1b75afad5873{fill:#7f94a0;}</style></defs><title>03 Cog Out</title><g id="a9e3ca56-5b93-4f2e-bc42-8fd42d822d7e" data-name="Layer 2"><g id="b5329453-4ffc-416e-b9c8-0e3e3b30e8c0" data-name="Layer 1"><g id="e63afbc5-3a42-49df-941e-fa3a54285f90" data-name="Cog Out"><path class="e8faa492-894f-4c6d-91f2-1b75afad5873" d="M59,34.08V34s0-.08,0-.12l0-.49a.49.49,0,0,1,0-.12c0-.17,0-.33,0-.5a.49.49,0,0,0,0-.12h0v-.14c0-.1,0-.2,0-.3v-.55h0a.49.49,0,0,1,0-.12c0-.16,0-.33,0-.5v-.11l0-.5v-.12a.2.2,0,0,0,0-.07l2.85-1.09L64,28.34a17,17,0,0,0-.33-2.63,18.1,18.1,0,0,0-.7-2.55l-2.28.05-3,.08a0,0,0,0,1,0,0,.56.56,0,0,1,0-.12c-.06-.15-.11-.31-.17-.47s0-.07,0-.11l-.18-.46a1,1,0,0,0,0-.1c0-.07,0-.14-.08-.2a1.8,1.8,0,0,1-.08-.21.3.3,0,0,1,0-.1c-.07-.15-.14-.3-.2-.45a1.17,1.17,0,0,0,0-.11l-.21-.46-.05-.1s0,0,0,0l2.23-2.07,1.68-1.55A18.13,18.13,0,0,0,59,14.4a16.94,16.94,0,0,0-1.6-2.11l-2.1.9-2.8,1.2,0-.05-.08-.09-.32-.37L52,13.79l-.33-.37-.09-.08h0l-.09-.09L51.27,13l0,0,0,0c-.08-.07-.15-.15-.22-.22l-.09-.09h0l-.08-.08-.36-.34-.09-.08L50,11.78l-.09-.08,0,0,1.24-2.78L52,6.79a17.91,17.91,0,0,0-4.39-2.93L46.05,5.51,44,7.71h0l-.11,0-.45-.22-.11,0-.45-.2-.1,0-.2-.09L42.3,7l-.1,0-.46-.19-.11,0-.47-.17-.11,0h0l.12-3,.09-2.29A17.7,17.7,0,0,0,38.68.41,18.45,18.45,0,0,0,36.05.05L35.2,2.18,34.08,5H33.9l-.5,0h-.12l-.5,0H31.54l-.5,0h-.12l-.49,0h-.18L29.16,2.13,28.34,0a18.33,18.33,0,0,0-2.63.32A18.13,18.13,0,0,0,23.16,1l.05,2.28.08,3h0l-.11,0-.48.17-.11,0-.46.18-.1,0-.2.09L21.59,7,21.5,7l-.47.2-.1,0-.46.21-.1,0,0,0L18.27,5.32,16.72,3.64A17,17,0,0,0,14.4,4.92a16.71,16.71,0,0,0-2.11,1.6l.9,2.1,1.2,2.79-.05,0-.09.08-.37.33-.09.08-.37.34a.6.6,0,0,1-.08.08h0l-.09.09-.22.21,0,0h0l0,0-.22.21-.09.1h0l-.08.08-.34.36-.08.09-.34.36-.08.09,0,0L8.88,12.86,6.8,11.93A16.71,16.71,0,0,0,5.17,14a17.61,17.61,0,0,0-1.31,2.3l1.65,1.57L7.71,20v0s0,.07,0,.1-.15.3-.22.45,0,.07,0,.11l-.21.46,0,.09-.09.21-.08.2a.36.36,0,0,0,0,.09c-.07.16-.13.31-.19.47l0,.11c-.06.16-.12.31-.17.47a.36.36,0,0,0,0,.11l0,0-3-.12-2.29-.08a17.7,17.7,0,0,0-.74,2.54,18.32,18.32,0,0,0-.36,2.62l2.13.85L5,29.87v.06a.49.49,0,0,0,0,.12l0,.5a.49.49,0,0,0,0,.12c0,.16,0,.33,0,.49v.12h0a.57.57,0,0,1,0,.13v.86h0v.11c0,.17,0,.34,0,.5V33c0,.16,0,.33,0,.5v.18L2.13,34.79,0,35.61a18.19,18.19,0,0,0,.32,2.62A17.89,17.89,0,0,0,1,40.79l2.28-.06,3-.07v0s0,.07,0,.11.11.32.17.47,0,.08,0,.11l.18.47,0,.09.09.21.08.21a.36.36,0,0,1,0,.09c.06.15.13.31.2.46l0,.11a4.54,4.54,0,0,0,.21.45s0,.07,0,.11l0,0L5.32,45.67,3.64,47.23a18.33,18.33,0,0,0,2.88,4.43l2.1-.9,2.79-1.2a.1.1,0,0,1,0,0l.08.09.33.37.08.09.34.36.08.09h0l.09.1.21.22,0,0,0,0,.22.21.09.1h0a.3.3,0,0,0,.08.08l.36.35.09.08.37.33.08.08,0,0-1.24,2.78-.93,2.08a18.33,18.33,0,0,0,4.39,2.94l1.57-1.65L20,56.23l0,0,.1,0,.45.21.11.05.46.21.09,0,.21.09.2.08.09,0,.47.18.11,0,.47.17.11,0h0l-.12,3-.08,2.29a19.06,19.06,0,0,0,2.54.73,17,17,0,0,0,2.62.36l.85-2.12L29.87,59h.19l.49,0H33l.5,0h.18l1.09,2.85L35.61,64a17,17,0,0,0,2.63-.33,18.1,18.1,0,0,0,2.55-.7l-.06-2.28-.07-3h0l.12,0,.46-.17.12,0,.46-.18.1,0,.2-.08.21-.08.09-.05.46-.19.11,0,.45-.21.11-.05h0l2.07,2.23,1.55,1.68A18.84,18.84,0,0,0,49.55,59a18.56,18.56,0,0,0,2.11-1.6l-.9-2.1-1.2-2.8,0,0,.09-.08.37-.32.09-.09.36-.33.09-.09h0l.1-.09.22-.21s0,0,0,0,0,0,0,0l.21-.22.1-.09h0l.09-.08.34-.37.08-.08.33-.37.08-.09,0,0,2.78,1.24,2.08.93a16,16,0,0,0,1.63-2.09,17,17,0,0,0,1.31-2.3l-1.65-1.57L56.23,44l0,0a.54.54,0,0,1,0-.11l.21-.45.05-.11.21-.45a.69.69,0,0,1,0-.1l.09-.2a1.19,1.19,0,0,1,.08-.2l0-.1.18-.46a1.17,1.17,0,0,1,0-.11c.06-.16.11-.32.17-.47s0-.08,0-.11v0l3,.12,2.29.09a19.06,19.06,0,0,0,.73-2.54,17.13,17.13,0,0,0,.36-2.63l-2.12-.85ZM46.33,35A14.68,14.68,0,1,1,35,17.62,14.68,14.68,0,0,1,46.33,35Z"/></g></g></g></svg>