<svg xmlns="http://www.w3.org/2000/svg" viewBox="0 0 231.46 395.99"><defs><style>.a8a20c28-88c1-46be-95ea-a8c4adad22a7{fill:#00a1b8;}.fa4f4243-9f6b-45e6-a0a6-daccc8a55e7b{fill:#293d48;}.e6a2c94e-3011-45e7-b1d5-c3764959e4dc{fill:#bf8957;}.a49a41a3-567c-4096-9780-5c0de7a09d72{fill:#e1f7ff;}.beb83614-fede-43df-9ff2-78321a7ffdcc{fill:#3f2724;}.b6d87e34-d23c-4c29-875b-0a13d27a30c5{fill:#00e0e1;}</style></defs><title>03 man right</title><g id="ba22e125-ebd8-4826-8aba-a03193c171b1" data-name="Layer 2"><g id="a2ddbcd7-b54d-4fa0-b03d-126c3ba05c6c" data-name="Layer 1"><path id="a4c0db81-3465-4c5e-9ca3-0f9465f2b7fd" data-name="Ladder" class="a8a20c28-88c1-46be-95ea-a8c4adad22a7" d="M169.42,176a2.08,2.08,0,0,0-2.08,2.08v20.33H138.5V178.08a2.08,2.08,0,1,0-4.15,0v21.69a2.27,2.27,0,0,0-.19.9,2.23,2.23,0,0,0,.19.9V221.4a2.27,2.27,0,0,0-.19.9,2.32,2.32,0,0,0,.19.91V243a2.23,2.23,0,0,0-.19.9,2.27,2.27,0,0,0,.19.9v19.83a2.23,2.23,0,0,0-.19.9,2.27,2.27,0,0,0,.19.9V286.3a2.27,2.27,0,0,0-.19.9,2.23,2.23,0,0,0,.19.9v19.83a2.27,2.27,0,0,0-.19.9,2.23,2.23,0,0,0,.19.9v19.83a2.32,2.32,0,0,0-.19.91,2.27,2.27,0,0,0,.19.9V351.2a2.23,2.23,0,0,0-.19.9,2.27,2.27,0,0,0,.19.9v19.83a2.27,2.27,0,0,0-.19.9,2.23,2.23,0,0,0,.19.9v19.29a2.08,2.08,0,0,0,4.15,0V376h28.84v17.93a2.08,2.08,0,0,0,4.15,0V178.08A2.08,2.08,0,0,0,169.42,176Zm-2.08,91.83v17.11H138.5V267.83Zm-28.84-4.52V246.2h28.84v17.11Zm28.84,26.15v17.11H138.5V289.46Zm0,21.64v17.1H138.5V311.1Zm0-69.43H138.5v-17.1h28.84ZM138.5,332.73h28.84v17.1H138.5Zm28.84-129.79V220H138.5v-17.1ZM138.5,371.47V354.36h28.84v17.11Z"/><g id="e337baa1-ea31-4e3f-a3cc-c856afaf863e" data-name="Man with Magnifyer"><rect x="70.96" y="76.36" width="6.75" height="79.55" transform="translate(-39.93 38.96) rotate(-23.34)"/><rect class="fa4f4243-9f6b-45e6-a0a6-daccc8a55e7b" x="74.05" y="99.13" width="10.82" height="57.73" transform="translate(-44.21 41.96) rotate(-23.34)"/><path d="M25.74,3.5a42.61,42.61,0,1,0,56,22.24A42.59,42.59,0,0,0,25.74,3.5ZM58,78.21A38.77,38.77,0,1,1,78.21,27.26,38.78,38.78,0,0,1,58,78.21Z"/><path class="e6a2c94e-3011-45e7-b1d5-c3764959e4dc" d="M94.58,145.88s-8.24-6.41-8.27-9,8.5,2.58,10.78,8.47Z"/><path class="e6a2c94e-3011-45e7-b1d5-c3764959e4dc" d="M152.78,326.53a1.9,1.9,0,0,0,.41,0,2,2,0,0,0,1.58-2.39l-2.91-14.27a2,2,0,1,0-4,.81l2.9,14.27A2,2,0,0,0,152.78,326.53Z"/><path class="fa4f4243-9f6b-45e6-a0a6-daccc8a55e7b" d="M94.09,147.8c.82-1.53,1.51-3.06,2.38-4.68,26.94,13.22,25.23,13.77,56.12,8,4.73-.89,4.17,1.73,4.48,4.76.63.14.64.12,0,0,.3,3-1.28,3.51-5.09,4.15C127.07,164.15,114.54,163.16,94.09,147.8Z"/><path class="e6a2c94e-3011-45e7-b1d5-c3764959e4dc" d="M179.19,211.18s3.08,10,1.6,12.15-5.49-7-4-13.12Z"/><path class="fa4f4243-9f6b-45e6-a0a6-daccc8a55e7b" d="M180.73,212c-1.73-.16-3.41-.18-5.24-.35,1.55-30,2.74-28.61-14.76-54.73-2.67-4,0-4.51,2.61-6-.11-.64-.14-.64,0,0,2.67-1.47,3.74-.21,5.82,3C182.79,175.27,186.81,187.17,180.73,212Z"/><path class="fa4f4243-9f6b-45e6-a0a6-daccc8a55e7b" d="M148.33,318.23a55.64,55.64,0,0,0,6.44-.59c-6.41-34.31-11.27-80.35,5.89-112.42q-7.82-3.83-15.7-7.52C132.42,225.63,143.1,288.72,148.33,318.23Z"/><path d="M155.32,323.84s1.25,5.21,0,5.35-19.3.69-19.41-.14c-.36-2.86,14.39-5.5,15.84-5.21S155.15,323.08,155.32,323.84Z"/><path class="e6a2c94e-3011-45e7-b1d5-c3764959e4dc" d="M227.89,293.92a1.74,1.74,0,0,0,.14-.38,2,2,0,0,0-1.47-2.46l-14.13-3.52a2,2,0,0,0-1,3.93L225.57,295A2,2,0,0,0,227.89,293.92Z"/><path class="fa4f4243-9f6b-45e6-a0a6-daccc8a55e7b" d="M219,294.68c.69-2.08,1.25-4.19,1.73-6.33-43.88-13.44-78.55-27.64-54.1-80q-8.12-4-16.29-7.85C130.35,259.53,169.66,281.14,219,294.68Z"/><path d="M227.11,291.23s4.92,2.1,4.29,3.2-11,15.89-11.7,15.47c-2.51-1.41,4.18-14.82,5.28-15.81S226.4,290.91,227.11,291.23Z"/><path class="fa4f4243-9f6b-45e6-a0a6-daccc8a55e7b" d="M140.27,209.35c3.42-1.14,10.47.69,13.87,0,5-1,7.47-.64,12.42-.35.63-15.53.1-31.78,1.23-47,.24-3.21.41-5.11-.19-7.51a9.88,9.88,0,0,0-4.67-6.65c-2.67-1.46-6.09-1.35-9.55.42a7.81,7.81,0,0,0-1.5.91c-2,1.57-3.94,4.63-4.24,10.4C146.87,174,143,194.37,140.27,209.35Z"/><path class="a49a41a3-567c-4096-9780-5c0de7a09d72" d="M151.88,149.17l.29,9.72.36,12.2,5.08-11.34,5.32-11.91c-2.67-1.46-6.09-1.35-9.55.42A7.81,7.81,0,0,0,151.88,149.17Z"/><path class="e6a2c94e-3011-45e7-b1d5-c3764959e4dc" d="M162.19,138.44c-3.34,5.13-9.62,7-12.76,4.93s-1.94-7.19,1.4-12.33,7.58-6.09,10.72-4S165.54,133.3,162.19,138.44Z"/><path class="e6a2c94e-3011-45e7-b1d5-c3764959e4dc" d="M163.36,141.71c-.78,1.19-3,1.95-3.83,1.39s-.45-1.68.33-2.87,2.21-1.86,3.07-1.3A1.84,1.84,0,0,1,163.36,141.71Z"/><path class="e6a2c94e-3011-45e7-b1d5-c3764959e4dc" d="M161.45,137.59l-6.4-.63c-.09.88-.76,9.23-.43,12.37.23,1,1.83,1.42,3.56,1,1.56-.38,2.69-1.33,2.73-2.22h0A85.37,85.37,0,0,1,161.45,137.59Z"/><path class="beb83614-fede-43df-9ff2-78321a7ffdcc" d="M159.07,140.19c-.95-1-1.84-.1-4.11,1.18s-6.33.94-6.61-4.37c-.18-3.39-2.09,2.15-2.1,2.15-.38,2.78.37,4.46,2.23,5.67,2.57,1.68,6.68,1.44,10.31-.73C159.37,142.73,159.71,140.89,159.07,140.19Z"/><path class="beb83614-fede-43df-9ff2-78321a7ffdcc" d="M148.17,136.8l.22.12c1.12.6,6.19,3.45,6.71,5.55.58,2.36-2.73-.91-3.73-2.43s-2.21-1.31-3.3-1.62S146.49,136.74,148.17,136.8Z"/><path class="beb83614-fede-43df-9ff2-78321a7ffdcc" d="M165.07,135.65s1.05-4-.75-6.86-6.89-5.88-10.92-2c0,0-2.62,3,1.27,5.85s4.36.23,5.26,3.42,3.59,2.68,3.71,3.36Z"/><polygon class="b6d87e34-d23c-4c29-875b-0a13d27a30c5" points="152.17 158.89 152.53 171.09 157.6 159.75 157.41 152.34 155.17 152.34 152.17 158.89"/></g></g></g></svg>