<svg xmlns="http://www.w3.org/2000/svg" viewBox="0 0 52 48.43"><defs><style>.a66772a8-f92c-46ea-9f82-f70702ded0a9{fill:#afc4d1;}</style></defs><title>03 Pentagram Out</title><g id="fce63454-f27c-4358-8d76-17808066db1b" data-name="Layer 2"><g id="eac0908e-370b-4ab5-8737-44e0e5aae50d" data-name="Layer 1"><path id="bd0cd55a-9574-46b7-94d4-ae0ee5534a65" data-name="Pentagram Out" class="a66772a8-f92c-46ea-9f82-f70702ded0a9" d="M52,18.45a5,5,0,0,0-8.07-3.94L31,5.12S31,5,31,5A5,5,0,0,0,21,5s0,.07,0,.11L8.07,14.51a5,5,0,1,0-3.24,8.94L9.94,39.19a5,5,0,1,0,7.38,5.86H34.09A5,5,0,1,0,42,39.53l5.22-16.08A5,5,0,0,0,52,18.45Zm-13.18,20a5,5,0,0,0-4.73,3.38H17.32a5,5,0,0,0-4.2-3.35L7.94,22.51A5,5,0,0,0,10,18.45a4.92,4.92,0,0,0-.16-1.22l12.35-9a5,5,0,0,0,7.6,0l12.35,9A4.92,4.92,0,0,0,42,18.45a5,5,0,0,0,2.07,4.06L38.89,38.43Z"/></g></g></svg>