<svg xmlns="http://www.w3.org/2000/svg" viewBox="0 0 220.59 82.49"><defs><style>.a6ef1315-e871-48ba-9be1-5fa914945048{fill:#afc4d1;}.a8c706fe-83a4-42a0-b045-d94251086e9b{fill:#526672;}.b189ae75-a5c4-47bc-abe0-a26d9e272efd{fill:#e1f7ff;}.adf8c2e4-9e00-4fa8-825a-0193f992251f{fill:#fff;}</style></defs><title>03 pyramid 4</title><g id="a8e3a89b-2cf8-4795-9ef2-2d31f559ff19" data-name="Layer 2"><g id="fcddc413-47da-4c03-9c5d-79eb244743ee" data-name="Layer 1"><polygon class="a6ef1315-e871-48ba-9be1-5fa914945048" points="56 0 0 82.49 220.59 82.49 164.59 0 56 0"/><g id="b75aba65-647a-432e-982b-cc5861a41218" data-name="Chat Icons"><path class="a8c706fe-83a4-42a0-b045-d94251086e9b" d="M40.68,61.93H61.2A10.66,10.66,0,0,1,71.86,72.59v9.48a0,0,0,0,1,0,0H30a0,0,0,0,1,0,0V72.59A10.66,10.66,0,0,1,40.68,61.93Z"/><path class="a8c706fe-83a4-42a0-b045-d94251086e9b" d="M63.08,49.87C62.75,57,57,65.6,50.3,65.29S38.68,55.87,39,48.74s5.92-11.11,12.57-10.8S63.42,42.74,63.08,49.87Z"/><path class="b189ae75-a5c4-47bc-abe0-a26d9e272efd" d="M110.79,65.59h16.8a8.72,8.72,0,0,1,8.72,8.72v7.75a0,0,0,0,1,0,0H102.07a0,0,0,0,1,0,0V74.31A8.72,8.72,0,0,1,110.79,65.59Z"/><path class="b189ae75-a5c4-47bc-abe0-a26d9e272efd" d="M129.05,53.62c0,5.83-4.41,13.09-9.86,13.09s-9.86-7.26-9.86-13.09,4.41-9.31,9.86-9.31S129.05,47.78,129.05,53.62Z"/><rect class="a8c706fe-83a4-42a0-b045-d94251086e9b" x="50.27" y="4.93" width="42.66" height="26.89" rx="5.94" transform="translate(143.2 36.75) rotate(180)"/><polygon class="a8c706fe-83a4-42a0-b045-d94251086e9b" points="65.93 29.82 56.93 40.32 56.93 28.82 65.93 29.82"/><rect class="adf8c2e4-9e00-4fa8-825a-0193f992251f" x="57.02" y="11.62" width="29.16" height="2.69" transform="translate(143.2 25.94) rotate(180)"/><rect class="adf8c2e4-9e00-4fa8-825a-0193f992251f" x="57.02" y="17.03" width="29.16" height="2.69" transform="translate(143.2 36.75) rotate(180)"/><rect class="adf8c2e4-9e00-4fa8-825a-0193f992251f" x="57.02" y="22.43" width="29.16" height="2.69" transform="translate(143.2 47.55) rotate(180)"/><rect class="b189ae75-a5c4-47bc-abe0-a26d9e272efd" x="75" y="15.67" width="42.66" height="26.89" rx="5.94"/><polygon class="b189ae75-a5c4-47bc-abe0-a26d9e272efd" points="101.99 40.57 110.99 51.07 110.99 39.57 101.99 40.57"/><rect x="81.75" y="22.37" width="29.16" height="2.69"/><rect x="81.75" y="27.77" width="29.16" height="2.69"/><rect x="81.75" y="33.18" width="29.16" height="2.69"/></g></g></g></svg>