<svg xmlns="http://www.w3.org/2000/svg" viewBox="0 0 553.9 83.97"><defs><style>.bb2ac691-1e10-4b25-81bd-253f69c1b3e0{fill:#afc4d1;}.b33db419-97d5-407a-b2aa-5164d2f5c2c1{fill:#526672;}.a7dff857-da43-46d8-9528-cab873b7fab1,.b33db419-97d5-407a-b2aa-5164d2f5c2c1{stroke:#293d48;stroke-miterlimit:10;}.a7dff857-da43-46d8-9528-cab873b7fab1,.add78dc4-f787-41b9-8e8e-935e1cfd6930{fill:#fff;}.befae1bf-e478-4045-a84a-85815962ca55{fill:none;stroke:#ff5d4b;stroke-linecap:round;stroke-linejoin:round;stroke-width:1.52px;}.e72d0d50-bd51-4f10-905a-99e225115dfd{fill:#e1f7ff;}.b651d80c-52fa-48b0-bd5f-874d8041d5fb{fill:#00e0e1;}.bd50d80d-de31-4269-b205-1415a4be3124{fill:#8dc2c4;}.fb2e7e17-d704-4cf9-878e-8235d703f4d8{fill:#00a1b8;}</style></defs><title>03 pyramid 1</title><g id="a1124999-3e89-4576-a3df-91ae25f9cd05" data-name="Layer 2"><g id="a253ba12-fecb-4cb0-b25b-433f0895038d" data-name="Layer 1"><polygon class="bb2ac691-1e10-4b25-81bd-253f69c1b3e0" points="0 83.97 276.95 83.97 553.9 83.97 499.24 3.46 54.65 3.46 0 83.97"/><circle class="b33db419-97d5-407a-b2aa-5164d2f5c2c1" cx="167.9" cy="34.65" r="25"/><circle class="a7dff857-da43-46d8-9528-cab873b7fab1" cx="167.9" cy="34.65" r="21.35" transform="translate(-1.3 62.27) rotate(-20.93)"/><polygon class="b33db419-97d5-407a-b2aa-5164d2f5c2c1" points="167.9 14.86 166.71 36.64 169.09 36.64 167.9 14.86"/><polygon class="b33db419-97d5-407a-b2aa-5164d2f5c2c1" points="184.94 30.39 165.8 33.96 166.23 35.75 184.94 30.39"/><line class="befae1bf-e478-4045-a84a-85815962ca55" x1="167.9" y1="34.65" x2="181.47" y2="39.13"/><path d="M231.09,17.56h60a0,0,0,0,1,0,0V47.48a9.46,9.46,0,0,1-9.46,9.46H240.56a9.46,9.46,0,0,1-9.46-9.46V17.56A0,0,0,0,1,231.09,17.56Z"/><polygon points="255.73 19.75 231.09 19.75 231.09 9.06 250.01 9.06 255.73 19.75"/><path class="add78dc4-f787-41b9-8e8e-935e1cfd6930" d="M253.37,34.5l-8.52,2.92,8.52,2.92v4.78L239,39.92v-5l14.33-5.2Z"/><path class="add78dc4-f787-41b9-8e8e-935e1cfd6930" d="M262.8,25.49h4.81l-7.94,22.68h-4.81Z"/><path class="add78dc4-f787-41b9-8e8e-935e1cfd6930" d="M283.15,34.92v5l-14.33,5.2V40.34l8.52-2.92-8.52-2.92V29.72Z"/><path class="e72d0d50-bd51-4f10-905a-99e225115dfd" d="M358,.22c.78.08,1.55.19,2.31.34a34.76,34.76,0,0,1,8.48,2.65,33.19,33.19,0,0,1,4.1,2.24,35.3,35.3,0,0,1,14.08,17.44,35.53,35.53,0,0,1,1.32,4.48,34.45,34.45,0,0,1,.8,9.17c0,.77-.09,1.55-.18,2.33s-.19,1.56-.34,2.31a34.08,34.08,0,0,1-2.66,8.48,34.5,34.5,0,0,1-2.23,4.1,34.89,34.89,0,0,1-5.92,7.05,35.1,35.1,0,0,1-11.52,7,32.63,32.63,0,0,1-4.49,1.32,34,34,0,0,1-9.16.8c-.77,0-1.55-.09-2.34-.18s-1.55-.19-2.31-.34a34.76,34.76,0,0,1-8.48-2.65,33.19,33.19,0,0,1-4.1-2.24,34.89,34.89,0,0,1-7.05-5.92A35.27,35.27,0,0,1,325.37,55a34.9,34.9,0,0,1-4.12-7.87,33.94,33.94,0,0,1-1.32-4.48,34.45,34.45,0,0,1-.8-9.17c0-.77.09-1.55.18-2.33s.19-1.56.34-2.31a34.08,34.08,0,0,1,2.66-8.48,34.5,34.5,0,0,1,2.23-4.1,34.89,34.89,0,0,1,5.92-7,35.1,35.1,0,0,1,11.52-7A32.63,32.63,0,0,1,346.47.84a34,34,0,0,1,9.16-.8C356.4.06,357.18.13,358,.22Z"/><path class="b651d80c-52fa-48b0-bd5f-874d8041d5fb" d="M357.73,23.43l8.81-16.14,2.22-4.08a33.19,33.19,0,0,1,4.1,2.24l-2.22,4.07-8.94,16.4,18.21-14.55A35.27,35.27,0,0,1,382.82,15l-3.61,2.89L364.85,29.4l17.64-5.2,4.45-1.31a35.53,35.53,0,0,1,1.32,4.48l-4.44,1.31L365.9,34l23.16,2.58c0,.77-.09,1.55-.18,2.33s-.19,1.56-.34,2.31l-22.88-2.54,16.16,8.8,4.06,2.22a34.5,34.5,0,0,1-2.23,4.1l-4.08-2.21-16.4-8.94,11.67,14.58,2.89,3.62a35.37,35.37,0,0,1-3.65,2.92l-2.89-3.61-11.5-14.37,5.2,17.65,1.32,4.44a32.63,32.63,0,0,1-4.49,1.32l-1.3-4.43-5.29-17.92L352.56,70c-.77,0-1.55-.09-2.34-.18s-1.55-.19-2.31-.34l2.55-22.87-8.81,16.15-2.22,4.07a33.19,33.19,0,0,1-4.1-2.24l2.21-4.07,8.95-16.39L331.9,55.75l-3.62,2.88A35.27,35.27,0,0,1,325.37,55l18-14.37-17.64,5.2-4.45,1.3a33.94,33.94,0,0,1-1.32-4.48l4.44-1.31L342.29,36l-23.16-2.58c0-.77.09-1.55.18-2.33s.19-1.56.34-2.31l22.88,2.54-16.16-8.8-4.06-2.22a34.5,34.5,0,0,1,2.23-4.1l4.07,2.22L345,27.39,333.35,12.81l-2.89-3.62a35.37,35.37,0,0,1,3.65-2.92L337,9.89l11.49,14.37-5.2-17.65L342,2.16A32.63,32.63,0,0,1,346.47.84l1.31,4.44,5.28,17.91L355.63,0c.77,0,1.55.09,2.34.18s1.55.19,2.31.34Z"/><circle class="bd50d80d-de31-4269-b205-1415a4be3124" cx="354.09" cy="35" r="30.38"/><circle class="bb2ac691-1e10-4b25-81bd-253f69c1b3e0" cx="354.09" cy="35" r="28.67" transform="translate(308.56 387.9) rotate(-88.29)"/><path class="fb2e7e17-d704-4cf9-878e-8235d703f4d8" d="M365.69,48.29,368.2,53l-5.95,3.19-2.4-4.48c-4.35,2-9.06,3.07-12.43,2.86l-.68-9A22.94,22.94,0,0,0,357.94,43c2.83-1.51,3.52-2.65,3-3.66-2-3.71-16.72,8-22.61-3-2.56-4.77-1.25-10.64,5.16-15.31L341,16.49,347,13.3l2.42,4.51a25.17,25.17,0,0,1,9.88-2.14l.87,8.83a20.68,20.68,0,0,0-9.41,2.21c-2.91,1.56-3.38,2.9-2.84,3.91,1.9,3.55,16.65-8.15,22.48,2.74C372.79,37.91,371.62,43.64,365.69,48.29Z"/></g></g></svg>