<svg xmlns="http://www.w3.org/2000/svg" viewBox="0 0 332.59 82.49"><defs><style>.b5be9f02-0069-4190-9a3a-2a8432b2c6e2{fill:#526672;}.ba76a1cb-4b87-4d0f-af9b-012ffff04d51{fill:#afc4d1;}.a9916123-16e8-4ae8-9bef-c7d6565f1d5d,.a9d00051-2e5b-43b1-aa18-c89564fc9a18{fill:none;stroke-miterlimit:10;}.a9d00051-2e5b-43b1-aa18-c89564fc9a18{stroke:#afc4d1;stroke-width:3.57px;}.a9916123-16e8-4ae8-9bef-c7d6565f1d5d{stroke:#fff;stroke-width:4px;}.ab3aa2f9-9b4c-4025-9d19-b2da041523b0{fill:#293d48;}.eb0dd12b-5249-4790-b999-7b94fb884c18{fill:#e1f7ff;}.a54451a5-b052-497a-b39f-920e12859d58{fill:#fff;}.a68fe10a-b082-4f10-875b-b8ed261bc74c{fill:#007288;}.b1a4516c-04af-4d5e-9286-90dc4192909a{fill:#ff5d4b;}.a534e9df-d710-43ec-bd10-ded3ea053aa0{fill:#00a1b8;}.e5cad53d-815d-4b84-ab33-041fe8af6f3b{fill:#4dd3ea;}.ad2db839-28b6-40c8-8620-b62ac1693e67{fill:#3c3f57;}.a20a26fb-926f-4e77-92f4-2ca0e5ceadf4{fill:#00e0e1;}.ab80579d-e0f8-4b85-a717-64d5f5a0ef54{fill:#90d2d4;}</style></defs><title>03 pyramid 3</title><g id="ff39d535-56d0-476a-b482-0da52b8a3e9e" data-name="Layer 2"><g id="a7823609-dac7-4f1c-b512-8815c3dc9ef5" data-name="Layer 1"><polygon class="b5be9f02-0069-4190-9a3a-2a8432b2c6e2" points="27.82 41.51 0 82.49 332.59 82.49 304.77 41.51 276.59 0 56 0 27.82 41.51"/><g id="a67d29f4-7ca2-426b-9ed3-4a741fe7ceb3" data-name="Padlock"><path class="ba76a1cb-4b87-4d0f-af9b-012ffff04d51" d="M86.17,33.72h34.25A2.61,2.61,0,0,1,123,36.33V49.09a19.73,19.73,0,0,1-19.73,19.73h0A19.73,19.73,0,0,1,83.56,49.09V36.33a2.61,2.61,0,0,1,2.61-2.61Z"/><path class="a9d00051-2e5b-43b1-aa18-c89564fc9a18" d="M114.85,39.35V25.55A11.55,11.55,0,0,0,103.29,14h0A11.56,11.56,0,0,0,91.73,25.55V38.23"/><path d="M98.71,48a4.59,4.59,0,1,1,4.58,4.58A4.58,4.58,0,0,1,98.71,48Z"/><path d="M103.29,60.82h0a1.9,1.9,0,0,1-1.9-1.9V52.24a1.9,1.9,0,0,1,1.9-1.9h0a1.91,1.91,0,0,1,1.91,1.9v6.68A1.91,1.91,0,0,1,103.29,60.82Z"/></g><g id="fac1c54e-de49-4e02-9a63-4617045f97e0" data-name="Robot"><path class="a9916123-16e8-4ae8-9bef-c7d6565f1d5d" d="M218.9,32.81s6.81,8.36,17.59,5.06"/><path class="ab3aa2f9-9b4c-4025-9d19-b2da041523b0" d="M219.26,34.67h0a4.56,4.56,0,0,1-6.32-1.28l-.32-.48a3.67,3.67,0,0,1,0-4l2.29,3.44,3.94-2.62-2.28-3.44a3.67,3.67,0,0,1,3.68,1.58l.32.49A4.56,4.56,0,0,1,219.26,34.67Z"/><path class="a9916123-16e8-4ae8-9bef-c7d6565f1d5d" d="M266.94,53.2s-.21-10.78-10.74-14.83"/><path class="ab3aa2f9-9b4c-4025-9d19-b2da041523b0" d="M267.8,51.51h0a4.57,4.57,0,0,1,4.2,4.9L272,57a3.67,3.67,0,0,1-2.45,3.17l.32-4.12-4.71-.37-.33,4.13a3.67,3.67,0,0,1-1.92-3.52l0-.58A4.56,4.56,0,0,1,267.8,51.51Z"/><path class="eb0dd12b-5249-4790-b999-7b94fb884c18" d="M260.36,45.33c0,7.41-6.26,21.64-14,21.64-2.49,0-4.83-1.49-6.86-3.75-4.25-4.73-7.11-12.87-7.11-17.89,0-7.41,6.25-10.7,14-10.7a23.6,23.6,0,0,1,4.62.44C256.45,36.19,260.36,39.47,260.36,45.33Z"/><path class="a54451a5-b052-497a-b39f-920e12859d58" d="M253.28,41.59c0,7.34-6.14,21.36-13.76,21.63-4.25-4.73-7.11-12.87-7.11-17.89,0-7.41,6.25-10.7,14-10.7a23.6,23.6,0,0,1,4.62.44A9.6,9.6,0,0,1,253.28,41.59Z"/><path class="eb0dd12b-5249-4790-b999-7b94fb884c18" d="M260,29.9c0,7.65-6.2,8.33-13.84,8.33-4.44,0-8.39-.23-10.93-1.92-1.83-1.22-2.92-3.2-2.92-6.41a13.84,13.84,0,0,1,13.85-13.85h.35A13.84,13.84,0,0,1,260,29.9Z"/><path class="a54451a5-b052-497a-b39f-920e12859d58" d="M253.53,28.12c0,7.65-6.2,8.33-13.85,8.33-1.56,0-3.06,0-4.47-.14-1.83-1.22-2.92-3.2-2.92-6.41a13.84,13.84,0,0,1,13.85-13.85h.35A13.84,13.84,0,0,1,253.53,28.12Z"/><rect x="237.61" y="24.64" width="17.42" height="6.52" rx="3.26"/><rect class="a68fe10a-b082-4f10-875b-b8ed261bc74c" x="244.27" y="20.4" width="4.11" height="15.01" rx="1.08" transform="translate(274.22 -218.42) rotate(90)"/><circle class="b1a4516c-04af-4d5e-9286-90dc4192909a" cx="241.5" cy="27.9" r="1"/><circle class="b1a4516c-04af-4d5e-9286-90dc4192909a" cx="251.22" cy="27.9" r="1"/><rect x="238.82" y="43.14" width="11.4" height="7.3" rx="3"/><rect class="a534e9df-d710-43ec-bd10-ded3ea053aa0" x="240.03" y="44.35" width="8.98" height="4.88"/><rect class="b1a4516c-04af-4d5e-9286-90dc4192909a" x="252.22" y="43.14" width="2.82" height="1.75"/><rect class="b1a4516c-04af-4d5e-9286-90dc4192909a" x="252.22" y="45.91" width="2.82" height="1.75"/><path class="e5cad53d-815d-4b84-ab33-041fe8af6f3b" d="M244.52,45.4a5.23,5.23,0,0,1-1.61,3.83H240V44.35h4.39A5.94,5.94,0,0,1,244.52,45.4Z"/></g><g id="bb6eccfb-e743-4bc9-9cdc-3786cfeeedc1" data-name="Pie Chart"><circle class="ad2db839-28b6-40c8-8620-b62ac1693e67" cx="172.44" cy="41.51" r="30" transform="translate(21.16 134.09) rotate(-45)"/><path class="a20a26fb-926f-4e77-92f4-2ca0e5ceadf4" d="M172.44,41.51l-23.05-19.2a30,30,0,1,1-6.95,19.2Z"/><path class="ab80579d-e0f8-4b85-a717-64d5f5a0ef54" d="M172.44,41.51l16,25.4a30,30,0,0,1-46-25.4Z"/></g></g></g></svg>