<svg xmlns="http://www.w3.org/2000/svg" viewBox="0 0 444.59 82.49"><defs><style>.f388c879-a477-4de0-8f60-a2687e6c4ea1{fill:#7f94a0;}.bbf555da-4308-4883-ac76-761ad8da64d1{fill:#007288;}.b930ae2c-741c-4d1f-a491-189df407e85a,.ef8097e4-e6c5-419e-89c8-4ee23baf229d{fill:none;stroke-linecap:round;stroke-linejoin:round;}.ef8097e4-e6c5-419e-89c8-4ee23baf229d{stroke:#007288;stroke-width:3px;}.a87c74d1-48c9-4450-a67a-a12b80ec5a23{fill:#00e0e1;}.b799be1e-6595-496a-8cd4-aceb939a86e7{fill:#293d48;}.b930ae2c-741c-4d1f-a491-189df407e85a{stroke:#000;stroke-width:4px;}.b1c9d0d9-c480-45b1-b11d-a627a44881c8{fill:#526672;stroke:#526672;stroke-miterlimit:10;}.b757f571-2c2a-4a74-8689-511179e1465b{fill:#afc4d1;}</style></defs><title>03 pyramid 2</title><g id="bcfe3b6f-3a2b-4043-a495-69aa6c226213" data-name="Layer 2"><g id="a35a9112-58e6-48ea-bd40-05e19b2f2946" data-name="Layer 1"><polygon class="f388c879-a477-4de0-8f60-a2687e6c4ea1" points="0 82.49 444.59 82.49 388.59 0 56 0 0 82.49"/><g id="ec256c32-0c76-45c6-8060-ce30a9f0a49e" data-name="Trophy"><path class="bbf555da-4308-4883-ac76-761ad8da64d1" d="M101.49,55.18a9.52,9.52,0,0,0,9.38-7.89l4.7-27H80.66l4.7,27a9.52,9.52,0,0,0,9.39,7.89h.74v9.09h-3a5.5,5.5,0,0,0-5.5,5.5h22.25a5.5,5.5,0,0,0-5.5-5.5h-3V55.18Z"/><path class="ef8097e4-e6c5-419e-89c8-4ee23baf229d" d="M109.71,26H121a3.59,3.59,0,0,1,3.41,4.74l-1.25,3.75A15.35,15.35,0,0,1,109,45l-2.3.06"/><path class="ef8097e4-e6c5-419e-89c8-4ee23baf229d" d="M86.21,26H75a3.6,3.6,0,0,0-3.41,4.74l1.26,3.75A15.34,15.34,0,0,0,86.91,45l2.3.06"/><circle class="a87c74d1-48c9-4450-a67a-a12b80ec5a23" cx="98.12" cy="36.15" r="8.12"/></g><g id="b6f3d13c-8a39-46e8-a0c4-4b3265a4e437" data-name="MortarBoard"><polygon class="b799be1e-6595-496a-8cd4-aceb939a86e7" points="232.39 32.92 266.42 57.53 266.42 8.32 232.39 32.92"/><polygon points="266.42 8.32 266.42 57.53 300.45 32.92 266.42 8.32"/><rect class="b799be1e-6595-496a-8cd4-aceb939a86e7" x="250.75" y="44.11" width="15.67" height="14.91"/><rect x="266.42" y="44.11" width="15.67" height="14.91"/><line class="b930ae2c-741c-4d1f-a491-189df407e85a" x1="296.39" y1="32.92" x2="296.39" y2="55.33"/><polygon points="302.39 73.63 296.27 55.92 296.27 73.63 302.39 73.63"/><polygon class="b1c9d0d9-c480-45b1-b11d-a627a44881c8" points="296.27 73.63 296.27 55.92 290.15 73.63 296.27 73.63"/><circle cx="296.39" cy="55.95" r="1.87"/></g><g id="b92289e0-9db2-44af-937f-b42590ced3cd" data-name="Cog"><path class="b757f571-2c2a-4a74-8689-511179e1465b" d="M205.23,38.23v-.06a.43.43,0,0,0,0-.11l-.09-.47,0-.11c0-.15-.06-.31-.1-.46l0-.11h0l0-.12c0-.1,0-.19-.07-.29a.07.07,0,0,1,0-.05l0,0c0-.09,0-.19-.07-.28s0-.08,0-.12h0l0-.11-.13-.46,0-.11c0-.15-.09-.3-.14-.45l0-.11a.14.14,0,0,0,0-.06L206.67,33l1.77-1.27a16.28,16.28,0,0,0-.95-2.35,17,17,0,0,0-1.28-2.19l-2.09.61-2.8.83s0,0,0,0a.36.36,0,0,1-.07-.1l-.27-.39-.06-.09-.28-.39-.06-.08a1.09,1.09,0,0,1-.13-.17l-.13-.17-.06-.07-.29-.38-.08-.09-.3-.36-.07-.09s0,0,0,0L201,23.7l1.17-1.85A18.92,18.92,0,0,0,200.45,20a18.45,18.45,0,0,0-2-1.55l-1.72,1.35-2.28,1.8,0,0-.1-.07-.39-.26-.1-.06-.4-.26-.1-.06h0l-.1-.07-.25-.15,0,0-.05,0-.25-.15-.11-.06h0l-.09-.06-.42-.23-.1-.05-.42-.22-.11-.05-.05,0,.46-2.87.34-2.16a17.34,17.34,0,0,0-2.33-1,16.68,16.68,0,0,0-2.45-.64L186.26,15l-1.39,2.56h0l-.12,0-.46-.08-.12,0-.47-.08h-.1l-.2,0-.21,0h-.1l-.48-.06h-.11l-.47-.05h-.15l-.64-2.84-.48-2.13a17.87,17.87,0,0,0-2.54,0,17.39,17.39,0,0,0-2.51.31l-.26,2.17-.35,2.89h0l-.12,0-.46.1-.11,0-.47.11-.11,0h0l-.12,0-.28.07h-.1L173,18l-.12,0h0l-.11,0-.45.13-.11,0-.45.15-.11,0-.06,0-1.71-2.36-1.28-1.76a18,18,0,0,0-2.35.94A17.32,17.32,0,0,0,164,16.52l.61,2.1.82,2.79,0,0-.09.06-.39.28-.1.06-.38.28-.08.06a1.09,1.09,0,0,0-.17.13l-.17.12-.08.06-.38.3-.08.07-.37.31-.09.07,0,0-2.46-1.55-1.85-1.17a17.74,17.74,0,0,0-1.83,1.75,16.24,16.24,0,0,0-1.55,2L156.67,26l1.79,2.29,0,.05-.06.09-.27.4-.06.09-.25.41-.06.09h0l-.06.11-.15.25,0,0h0l0,.05-.14.25-.06.11h0a.47.47,0,0,0-.05.1c-.08.14-.16.28-.23.42a.31.31,0,0,0-.05.1c-.08.14-.15.28-.22.42l-.05.1,0,.06L153.73,31l-2.15-.35a17.8,17.8,0,0,0-1.64,4.78l1.92,1,2.56,1.4v0s0,.07,0,.11l-.09.47s0,.07,0,.11-.05.32-.07.47,0,.07,0,.1l0,.21,0,.21v.1l-.06.47v.11c0,.16,0,.32,0,.48a.45.45,0,0,0,0,.11v0l-2.83.65L149,42a16.39,16.39,0,0,0-.06,2.53,17.36,17.36,0,0,0,.32,2.52l2.17.26,2.89.34v.06a.36.36,0,0,0,0,.11l.09.47,0,.11c0,.15.06.31.1.46l0,.11h0l0,.13c0,.09.05.19.07.28v.05l0,0,.07.28s0,.08,0,.12v0l0,.1.13.46,0,.11c0,.15.09.3.14.45l0,.11a.14.14,0,0,0,0,.06l-2.36,1.71-1.77,1.28a17.26,17.26,0,0,0,2.23,4.53l2.09-.61,2.8-.82v0a.86.86,0,0,0,.07.1l.27.39.06.09.28.39.06.08.13.17.13.17.06.07c.09.13.2.26.3.38l.06.09.31.37.07.08,0,0-1.55,2.46L157.37,64a17.84,17.84,0,0,0,1.76,1.83,17.28,17.28,0,0,0,2,1.55l1.72-1.35,2.28-1.8.05,0,.1.06.39.26.1.06.4.26.1.06h0l.11.07.25.15.05,0,0,0,.26.15.11.06h0l.09,0,.42.23.1,0,.42.22.1,0,.06,0L167.83,69l-.34,2.16a16.14,16.14,0,0,0,2.33,1,16.36,16.36,0,0,0,2.45.64l1-1.91,1.4-2.56h0l.11,0,.47.08.11,0,.48.08H176l.22,0,.2,0,.1,0,.48,0h.11l.47,0h.15l.64,2.84.48,2.13a17.85,17.85,0,0,0,2.54.06,17.4,17.4,0,0,0,2.51-.32l.26-2.17.34-2.89h.06l.12,0,.46-.1.11,0,.47-.11.11,0h0l.13,0,.28-.08h.11l.28-.08.12,0h0l.1,0,.47-.14.1,0,.45-.14.11,0,.06,0,1.71,2.36L191,71.6a18.94,18.94,0,0,0,2.35-.95,18.19,18.19,0,0,0,2.19-1.28l-.62-2.1-.82-2.79,0,0,.09-.06.39-.27.1-.07c.13-.09.26-.18.38-.28l.08-.06.17-.12.17-.13.08-.06.38-.3.08-.07.37-.3.09-.08,0,0L199,64.19l1.85,1.17a16.74,16.74,0,0,0,1.83-1.75,17.37,17.37,0,0,0,1.56-2l-1.36-1.72-1.79-2.28,0,0a.36.36,0,0,1,.07-.1l.26-.39.06-.1c.08-.14.17-.27.25-.4l.06-.1h0l.06-.11.15-.25,0,0,0-.05.14-.25.06-.11h0a.93.93,0,0,0,0-.1c.08-.14.16-.28.23-.42l.06-.09.21-.43.06-.1,0-.06,2.88.46,2.15.35a17.15,17.15,0,0,0,1-2.33,18.48,18.48,0,0,0,.65-2.45l-1.92-1L205.16,48a0,0,0,0,0,0,0s0-.07,0-.11l.09-.47,0-.11c0-.16,0-.31.07-.47s0-.07,0-.1l0-.21,0-.21v-.09l.06-.48a.37.37,0,0,1,0-.11c0-.16,0-.32,0-.48a.41.41,0,0,0,0-.11v0l2.83-.64,2.13-.49a16.39,16.39,0,0,0,.06-2.53,17,17,0,0,0-.32-2.51l-2.17-.26Zm-11.42,4a14,14,0,1,1-14.75-13.29A14,14,0,0,1,193.81,42.22Z"/></g></g></g></svg>