<svg xmlns="http://www.w3.org/2000/svg" viewBox="0 0 193.73 176.09"><defs><style>.f11fc647-54c4-4d7b-bc42-85899e86f6db{fill:#526672;}.afa17377-4f7e-4610-bbb2-8981c4b2b24f{fill:#f0d1cd;}.b157aac6-2860-404f-b10c-cda478b38e8a{fill:#293d48;}.b1929e62-e6ff-416e-9107-f0d30a71c093{fill:#4dd3ea;}.a2aedd17-aeac-467c-9249-e2b792a144ce{fill:#ff5d4b;}.b9603b97-5ba9-45ab-ad90-4300f31074fb{fill:#00a1b8;}</style></defs><title>03 RedHair Woman at Table</title><g id="edcdc92b-1ced-4091-bf3a-b335727c76db" data-name="Layer 2"><g id="e14e21f1-c283-4ca6-bd8d-8989a40a838c" data-name="Layer 1"><g id="ffea79cf-57bd-4e31-a31b-5771bdedee8d" data-name="RedHair Woman at Table"><rect class="f11fc647-54c4-4d7b-bc42-85899e86f6db" x="22.82" y="114.56" width="3.59" height="59"/><rect class="f11fc647-54c4-4d7b-bc42-85899e86f6db" x="47.39" y="114.56" width="3.59" height="59"/><rect class="f11fc647-54c4-4d7b-bc42-85899e86f6db" x="18.71" y="105.93" width="36.23" height="11.02" rx="5.51"/><path class="afa17377-4f7e-4610-bbb2-8981c4b2b24f" d="M70.15,170.4A2.14,2.14,0,0,1,68,167.82l3.09-15.16a2.15,2.15,0,1,1,4.22.86l-3.09,15.16A2.16,2.16,0,0,1,70.15,170.4Z"/><path class="b157aac6-2860-404f-b10c-cda478b38e8a" d="M74.6,164.05c-2.24-.51-4.46-1.11-6.67-1.74,14.23-61.44,13.44-51.18-40.22-56.47-5.83-.57-9.24-4.9-10.1-10.34-.51-3.31.23-6.16,0-9.36C80.43,97.78,93.51,90.58,74.6,164.05Z"/><path class="afa17377-4f7e-4610-bbb2-8981c4b2b24f" d="M82.7,71.12s11-1.73,13,.15-8.18,4.71-14.4,2.2Z"/><path class="b1929e62-e6ff-416e-9107-f0d30a71c093" d="M82.7,69.4a34.31,34.31,0,0,1,.49,5.25c-44.86,1.11-33.18-2-57.75-29.91-3.75-4.27-1.75-5.08,1.33-6.65-.42-.93-.43-.93,0,0,3.08-1.58,3.74-1.36,6.92,2.87C54.46,68.56,42.33,66.58,82.7,69.4Z"/><path class="afa17377-4f7e-4610-bbb2-8981c4b2b24f" d="M89.76,170.5a2.1,2.1,0,0,1-.43.05,2.14,2.14,0,0,1-2.2-2.1L86.77,153a2.15,2.15,0,0,1,4.3-.1l.36,15.46A2.16,2.16,0,0,1,89.76,170.5Z"/><path class="b157aac6-2860-404f-b10c-cda478b38e8a" d="M92.49,162.83c-2.31,0-4.59,0-6.9-.12-.28-58.77-2.82-52.29-57.79-57.17-6-.54-9.5-4.59-10.26-10.05-.45-3.31,0-6.1-.25-9.29C80.79,95,94,95.56,92.49,162.83Z"/><path class="a2aedd17-aeac-467c-9249-e2b792a144ce" d="M27.83,6.38a5.61,5.61,0,0,0-5.42,3.3c-.76,2.08.81,4.26,2.78,5s6-1.34,6.78-3.42S30.49,6.6,27.83,6.38Z"/><path class="a2aedd17-aeac-467c-9249-e2b792a144ce" d="M16.62,1.37c-4.3-2.31-11-1.73-14.56,2S-.13,13.13,3.41,16.48s12.53,4.11,18.18-1.05C25.36,12,22.06,4.3,16.62,1.37Z"/><path class="a2aedd17-aeac-467c-9249-e2b792a144ce" d="M21.79,16.89c-3.19-1.76-8.11-1.46-10.61,1.18s-1.43,7.1,1.22,9.6,10.3,2.26,12.8-.39S25.82,19.12,21.79,16.89Z"/><path class="afa17377-4f7e-4610-bbb2-8981c4b2b24f" d="M18.76,21c2.76,5.9,9.1,8.75,12.7,7.06s3.1-7.28.34-13.17S24.71,7.32,21.11,9,16,15.06,18.76,21Z"/><path class="afa17377-4f7e-4610-bbb2-8981c4b2b24f" d="M17.05,24.22c.64,1.38,2.83,2.49,3.82,2s.72-1.7.08-3.07-2.05-2.28-3-1.81A1.94,1.94,0,0,0,17.05,24.22Z"/><path class="a2aedd17-aeac-467c-9249-e2b792a144ce" d="M16.14,17.6s-.52-4.36,1.79-7.11S26.05,5.32,29.72,10c0,0,2.32,3.54-2.19,6s-4.62-.4-6,2.83-4.17,2.28-4.4,3Z"/><path class="b9603b97-5ba9-45ab-ad90-4300f31074fb" d="M43,101c-5,1.1-9.3,0-14.08-1.74-3.68-1.37-8.09-1.43-11.83-2.18-5.47-15.21-6.82-41.39-2.47-52.54,4-10.3,7.21-10.33,8.17-10.46,3.4,1.59,3.09-1.19,6,.74s4,7.12,5.39,12.45,3.28,4,.26,14.26C33.14,66,41.63,92.91,43,101Z"/><path class="afa17377-4f7e-4610-bbb2-8981c4b2b24f" d="M20.5,23.38l6.81-.67c.09.94.8,9.8.45,13.15-.25,1-1.94,1.5-3.78,1-1.66-.4-2.86-1.41-2.91-2.35h0A90.94,90.94,0,0,0,20.5,23.38Z"/><path class="b157aac6-2860-404f-b10c-cda478b38e8a" d="M86.08,167.54s-1.33,5.53,0,5.69,20.5.73,20.61-.16c.39-3-15.28-5.83-16.82-5.53S86.26,166.74,86.08,167.54Z"/><path class="b157aac6-2860-404f-b10c-cda478b38e8a" d="M66.15,167.54s-1.34,5.53,0,5.69,20.5.73,20.61-.16c.38-3-15.29-5.83-16.82-5.53S66.32,166.74,66.15,167.54Z"/><path class="afa17377-4f7e-4610-bbb2-8981c4b2b24f" d="M78.92,69.37s10.79-2.56,13-.84-7.79,5.32-14.19,3.3Z"/><path class="b1929e62-e6ff-416e-9107-f0d30a71c093" d="M78.78,67.66a34,34,0,0,1,.9,5.2C35,77.42,46.44,73.43,19.8,47.48c-4.08-4,2.48-11.15,7.92-4.4C49.41,70,38.32,68,78.78,67.66Z"/><rect x="42.92" y="73.82" width="150.81" height="6.22"/><rect x="58.97" y="76.87" width="3.41" height="99.22"/><rect x="174.95" y="76.87" width="3.41" height="99.22"/></g></g></g></svg>