<svg xmlns="http://www.w3.org/2000/svg" viewBox="0 0 81 45.71"><defs><style>.f5166540-e4fa-4d0b-8cee-4beeccbcebf6{fill:#293d48;stroke:#fff;stroke-miterlimit:10;}.fd8fb0e0-2fb5-45c5-8e66-299383590f24{fill:#fff;}.a28b5bc6-db96-471f-92a4-83ab4fca49bc{fill:#00e0e1;}</style></defs><title>03 Tamp1 Cloud</title><g id="a7e6ceb2-3e52-47ad-b80a-816c1c41409c" data-name="Layer 2"><g id="bb079132-6895-460e-b70b-5e928ae6d9a8" data-name="Layer 1"><g id="fd293d6c-4203-4a52-82cb-a6c1464d36b4" data-name="Tamp1 Cloud"><path class="f5166540-e4fa-4d0b-8cee-4beeccbcebf6" d="M64.75,13.71a15.76,15.76,0,0,0-5.69,1.06A22.36,22.36,0,0,0,16,20.28,12.88,12.88,0,0,0,13.13,20a12.63,12.63,0,0,0-.69,25.24v0H64.75a15.75,15.75,0,0,0,0-31.5Z"/><path class="fd8fb0e0-2fb5-45c5-8e66-299383590f24" d="M41,30.74V11a.18.18,0,0,0-.32-.14l-5.08,4.64a.45.45,0,0,1-.79-.29V13a1.64,1.64,0,0,1,.4-1.19L40.7,6.59a1.11,1.11,0,0,1,.72-.32h2.23a.72.72,0,0,1,.72.72V30.74a.72.72,0,0,1-.72.72H41.74A.72.72,0,0,1,41,30.74Z"/><ellipse class="a28b5bc6-db96-471f-92a4-83ab4fca49bc" cx="43.37" cy="37.21" rx="3.94" ry="4"/></g></g></g></svg>