<svg xmlns="http://www.w3.org/2000/svg" viewBox="0 0 120.8 211.62"><defs><style>.bc2f4257-5f76-4efa-9225-75d4d11d299d{fill:#ffd8b6;}.e3f28b4f-fd21-42d0-8df4-9cf1d59d9a2c{fill:#a4f2ff;}.aef36804-f60c-4442-ae28-1d86c0ca861b{fill:#007288;}.eb1665bf-99bb-4de2-91dd-3852d2639759{fill:#1a1c2e;}</style></defs><title>03 Woman Under Bulb</title><g id="f9807ddc-60a3-4444-86af-7736e52ab662" data-name="Layer 2"><g id="a9f0c43f-b89d-4f83-97f8-75319d51e129" data-name="Layer 1"><g id="bc047424-23f0-49f9-b519-60abf474e818" data-name="Woman Under Bulb"><path class="bc2f4257-5f76-4efa-9225-75d4d11d299d" d="M4.4,199.08a2.48,2.48,0,0,1-.37-.17,2,2,0,0,1-.75-2.78l7.31-12.66a2,2,0,1,1,3.52,2L6.8,198.16A2,2,0,0,1,4.4,199.08Z"/><path d="M3.8,194.4s-4.52,2.93-3.7,3.9,13.58,13.84,14.24,13.31c2.23-1.83-6.69-14-7.94-14.74S4.44,194,3.8,194.4Z"/><path class="bc2f4257-5f76-4efa-9225-75d4d11d299d" d="M102.68,9.09S108.36.27,111,0s-1.83,8.73-7.51,11.54Z"/><path class="e3f28b4f-fd21-42d0-8df4-9cf1d59d9a2c" d="M102,8.06c1.45.89,2.9,1.77,4.25,2.73C90.86,32.92,82,41,54.59,36.84c-4.19-.64-4.13-2.32-3-5.36-.64-.36-.65-.35,0,0,1.16-3,2.48-3.07,6.14-2.47C81.67,32.9,86.9,25.59,102,8.06Z"/><path class="bc2f4257-5f76-4efa-9225-75d4d11d299d" d="M79.91,207.25a2.5,2.5,0,0,1-.38.15A2,2,0,0,1,77,206l-4.15-14a2,2,0,0,1,3.9-1.16l4.15,14A2,2,0,0,1,79.91,207.25Z"/><path class="aef36804-f60c-4442-ae28-1d86c0ca861b" d="M80.4,197.29a54.78,54.78,0,0,1-5.8,3.34C62.3,164.44,56.84,117.37,42.82,85.12,48.21,83,53.63,81,59,78.94,72,117.1,62.08,153.21,80.4,197.29Z"/><path class="aef36804-f60c-4442-ae28-1d86c0ca861b" d="M10.54,193.57c-2-1-3.94-2-5.84-3.13C27.37,151.79,41.6,125.25,39,79c5.79-.77,11.6-1.43,17.4-2.09C56.26,121.22,33.83,157.66,10.54,193.57Z"/><path class="eb1665bf-99bb-4de2-91dd-3852d2639759" d="M61.41.07a5.34,5.34,0,0,0-5.13,3.12c-.71,2,.77,4,2.63,4.71s5.7-1.26,6.41-3.23S63.92.28,61.41.07Z"/><path class="eb1665bf-99bb-4de2-91dd-3852d2639759" d="M54.28,13.45c-3.59-2.89-10-3.53-13.86-.7s-3.74,8.72-1,12.44,10.92,6,17.07,2.18C60.56,24.83,58.83,17.12,54.28,13.45Z"/><path class="eb1665bf-99bb-4de2-91dd-3852d2639759" d="M57.09,10.2C54.44,8,49.82,7.44,47,9.46s-2.56,6.35-.54,9.13,9.18,3.89,12,1.87S60.45,13,57.09,10.2Z"/><path class="bc2f4257-5f76-4efa-9225-75d4d11d299d" d="M52.82,13.84c2.61,5.57,8.6,8.28,12,6.68s2.93-6.87.33-12.44S58.46,1,55.06,2.55,50.22,8.27,52.82,13.84Z"/><path class="bc2f4257-5f76-4efa-9225-75d4d11d299d" d="M51.21,16.93c.61,1.3,2.67,2.36,3.61,1.92s.68-1.6.08-2.9S53,13.8,52,14.24A1.83,1.83,0,0,0,51.21,16.93Z"/><path class="eb1665bf-99bb-4de2-91dd-3852d2639759" d="M50.36,10.67S49.86,6.55,52.05,4s7.68-4.89,11.15-.5c0,0,2.18,3.35-2.08,5.64s-4.37-.38-5.71,2.67-3.94,2.16-4.16,2.83Z"/><path class="e3f28b4f-fd21-42d0-8df4-9cf1d59d9a2c" d="M62.16,90.68c-4.87.15-8.66-1.57-12.79-4.05-3.17-1.92-7.26-2.75-10.6-4.09C36.32,67.45,39.71,43,45.6,33.29c5.18-8.49,5.19-7.09,7.06-7.87a7.13,7.13,0,0,1,7.7,1.2l.12.11C62.87,29,63,34,63.32,39.23s2.36,4.25-2.24,13.3C59.11,56.42,62.32,82.93,62.16,90.68Z"/><path class="bc2f4257-5f76-4efa-9225-75d4d11d299d" d="M54.77,14.66l6.44.56c-.08.88-1,9.25-1.86,12.29-.41.92-2.07,1.06-3.7.33-1.47-.66-2.41-1.81-2.29-2.7h0A85.09,85.09,0,0,0,54.77,14.66Z"/><path d="M76.16,204.94s-1.26,5.23,0,5.37,19.38.7,19.48-.14c.36-2.87-14.45-5.52-15.9-5.23S76.32,204.18,76.16,204.94Z"/><path class="bc2f4257-5f76-4efa-9225-75d4d11d299d" d="M110.46,35.88s6.84-8.62,9.61-8.63-2.81,8.93-9,11.28Z"/><path class="e3f28b4f-fd21-42d0-8df4-9cf1d59d9a2c" d="M111.85,33.56c1.25,1.28,2.36,2.31,3.73,3.69-26.83,22-36.67,19.14-63.62.07-4.12-2.92.75-10.16,7.15-4.6C81.57,52.24,86.26,49.87,111.85,33.56Z"/></g></g></g></svg>