<svg xmlns="http://www.w3.org/2000/svg" viewBox="0 0 157.59 208.67"><defs><style>.a14a64b1-4eb9-4306-93f1-1d9bc0a1a10f{fill:#bf8957;}.f51ce7eb-9365-450d-a8e3-38e1ec2110e4{fill:#293d48;}.bdae7306-d2ef-4356-bcfc-7528c8cacdfa{fill:#fff;}.f1ae74c4-9671-4a51-af59-ff5ebdbd7ec3{fill:#7f94a0;}.b2baf3b3-23a0-4cee-a5e5-b83f1db27aed{fill:#4dd3ea;}.bd304896-15c5-43ad-b759-6b2d58aa63be{fill:#00a1b8;}.fed97830-1ca4-404e-9212-23e3444961c7{fill:#526672;}.bd33c97e-ea5b-48fe-867a-d4158a300764{fill:#afc4d1;}.a354e889-d64a-46ed-8a24-e301cc0c1fb9{fill:#00e0e1;}</style></defs><title>04 - Woman Question Mark</title><g id="a7523fa2-af9b-47b8-b259-4738790f0512" data-name="Layer 2"><g id="a0c6a22c-a93c-45f4-a7f8-68141ab19db9" data-name="Layer 1"><g id="f2d9b0d9-4c15-4f05-8795-c405097ef105" data-name="Woman Question Mark"><path class="a14a64b1-4eb9-4306-93f1-1d9bc0a1a10f" d="M7.2,148.45a2.44,2.44,0,0,1,0-.38,1.9,1.9,0,0,1,2.12-1.65l13.54,1.67a1.89,1.89,0,1,1-.47,3.76L8.86,150.18A1.9,1.9,0,0,1,7.2,148.45Z"/><path class="f51ce7eb-9365-450d-a8e3-38e1ec2110e4" d="M11,146.23s-4.16-2.81-4.7-1.76S-.65,161.18.05,161.55c2.39,1.25,9.55-10.82,9.78-12.19S11.61,146.63,11,146.23Z"/><path class="bdae7306-d2ef-4356-bcfc-7528c8cacdfa" d="M133.75,37.15s7.55-6.22,10-5.71-4.11,7.24-10,8.12Z"/><path class="f1ae74c4-9671-4a51-af59-ff5ebdbd7ec3" d="M135.54,35.48c.73,1.38,1.43,2.74,2.07,4.12-22.2,11-34,14.36-58,7.47C76,46,76,44.56,77.34,41.75c-.47-.41-.48-.39,0,0C78.7,39,79.69,39,83.25,40,106.55,47,113,43.16,135.54,35.48Z"/><path class="a14a64b1-4eb9-4306-93f1-1d9bc0a1a10f" d="M82.63,205.89a1.64,1.64,0,0,1-.38,0,1.89,1.89,0,0,1-1.48-2.24l2.72-13.37a1.9,1.9,0,0,1,3.72.76l-2.72,13.37A1.91,1.91,0,0,1,82.63,205.89Z"/><path class="b2baf3b3-23a0-4cee-a5e5-b83f1db27aed" d="M86.81,198.11a48.92,48.92,0,0,1-6-.55c6-32.14,10.57-75.28-5.51-105.31q7.32-3.6,14.71-7C101.7,111.37,91.7,170.47,86.81,198.11Z"/><path class="bd304896-15c5-43ad-b759-6b2d58aa63be" d="M14.53,152.26q.35-3,.94-6C63,152.42,81.31,138.05,71,87.69c5.36-1.45,10.75-2.79,16.13-4.14C91.76,140.17,68.31,158.71,14.53,152.26Z"/><path class="fed97830-1ca4-404e-9212-23e3444961c7" d="M86,16c-1.87-1.12-4.79-1-6.3.46s-.92,4.17.62,5.71,6.09,1.57,7.6.06S88.33,17.36,86,16Z"/><path class="fed97830-1ca4-404e-9212-23e3444961c7" d="M62.55,35.94c-3.7-2.21-9.66-2-12.9,1.16s-2.31,8.54.67,11.63,10.88,4.11,16.06-.21C69.84,45.63,67.23,38.73,62.55,35.94Z"/><path class="fed97830-1ca4-404e-9212-23e3444961c7" d="M64.72,32.57C62,30.9,57.64,31,55.33,33.2s-1.54,6.19.69,8.5,9,2.4,11.3.17S68.19,34.7,64.72,32.57Z"/><path class="fed97830-1ca4-404e-9212-23e3444961c7" d="M74.75,21.52S71.08,27.93,67.43,29s-5.73,1.17-7.81,5.64S52.68,35.8,52,41s10.42,13,16.17,5.95c4.74-5.79,2.36-6.59,6.79-8a10.48,10.48,0,0,0,6.27-5.44C82.76,30.1,74.75,21.52,74.75,21.52Z"/><path class="a14a64b1-4eb9-4306-93f1-1d9bc0a1a10f" d="M73.36,25.31c0,5.74,4,10.39,7.51,10.39s5.19-4.65,5.19-10.39-2.84-8.66-6.35-8.66S73.36,19.57,73.36,25.31Z"/><path class="a14a64b1-4eb9-4306-93f1-1d9bc0a1a10f" d="M70.78,27.29c0,1.33,1.32,3,2.29,3s1.21-1.08,1.21-2.42-.79-2.58-1.75-2.58A1.72,1.72,0,0,0,70.78,27.29Z"/><path class="fed97830-1ca4-404e-9212-23e3444961c7" d="M72.53,21.66s1.21-3.68,4.09-5,8.42-1.1,9.61,4c0,0,.52,3.69-4,3.94s-3.55-2-5.89,0-4.18.27-4.63.75Z"/><path class="bd33c97e-ea5b-48fe-867a-d4158a300764" d="M93.55,98.27A27.21,27.21,0,0,1,81,95.4,26.19,26.19,0,0,0,70.62,93c-.8-11.49-2.71-41.76-.89-47.34C72,38.72,76,35.78,76,35.78s2.56,2.25,4.47,2.08,4.12,6.35,6.74,10.51S92,53.91,89.76,60.28C88.8,63,94,94.28,93.55,98.27Z"/><path class="a14a64b1-4eb9-4306-93f1-1d9bc0a1a10f" d="M73.63,28.42l6-.59c.08.82.71,8.64.41,11.59-.23.91-1.72,1.33-3.35.93-1.46-.35-2.51-1.24-2.56-2.08h0A79.82,79.82,0,0,0,73.63,28.42Z"/><path class="f51ce7eb-9365-450d-a8e3-38e1ec2110e4" d="M80.26,203.37s-1.18,4.88,0,5,18.08.65,18.18-.13c.34-2.68-13.49-5.15-14.84-4.88S80.41,202.66,80.26,203.37Z"/><path class="a354e889-d64a-46ed-8a24-e301cc0c1fb9" d="M135.38,21.55c0-2.9-2.81-4.4-6.28-4.4a11,11,0,0,0-9.74,6.37l-16.68-8.34C107.46,6.18,116.92,0,131.92,0c14.71,0,25.67,6.18,25.67,17.9,0,14.34-15,16.87-15,24.08H123.29C123.29,30.64,135.38,27.27,135.38,21.55Zm-14.8,35.24c0-6.28,5.06-11.06,12.37-11.06s12.37,4.78,12.37,11.06S140.26,68,133,68,120.58,63,120.58,56.79Z"/><path class="bdae7306-d2ef-4356-bcfc-7528c8cacdfa" d="M115.48,63.92s8-6.5,10.48-6-4.34,7.59-10.48,8.49Z"/><path class="f1ae74c4-9671-4a51-af59-ff5ebdbd7ec3" d="M116.33,63c.66,1.41,1.34,2.9,2,4.16C93.6,78.58,75.41,80.87,69.24,50.47c-.94-4.65,1.05-3.81,3-5.3,3.35.58,4.19-.13,4.8,4.21C81,77.81,94.91,69,116.33,63Z"/></g></g></g></svg>