<svg xmlns="http://www.w3.org/2000/svg" viewBox="0 0 181.98 159.02"><defs><style>.bb8353ee-5527-4b7c-a253-5261999138e5{fill:#e1f7ff;}.b983013f-1bc6-4be5-9cda-98f224c1fdfb{fill:none;stroke:#293d48;stroke-miterlimit:10;stroke-width:34px;}.a565545d-8a8d-4d4b-ac28-7315687c9399{fill:#7f94a0;}.a1fdb3d1-232b-4353-99ea-9aea6c6ec63d{fill:#293d48;}.f90d8288-a2bf-4e2d-b550-dbaef491ae01{fill:#fff;}.a175e0aa-695b-477c-ae7d-5a8c63fb4d9f{fill:#00e0e1;}</style></defs><title>04 arm bottom left</title><g id="eeb66abd-03c3-4fae-9aec-5d35b4ab9021" data-name="Layer 2"><g id="b75ee604-793d-4f3e-9eb0-989527a21fa9" data-name="Layer 1"><path class="bb8353ee-5527-4b7c-a253-5261999138e5" d="M30.39,121.87h0a5.23,5.23,0,0,0-.05-7.4l-12.5-12.33a5.24,5.24,0,0,0-7.4,0h0a5.24,5.24,0,0,0,.05,7.4L23,121.92A5.24,5.24,0,0,0,30.39,121.87Z"/><path class="bb8353ee-5527-4b7c-a253-5261999138e5" d="M7,84.77H7a4.11,4.11,0,0,0-2.71,5.14l5.85,18.92a4.11,4.11,0,0,0,5.14,2.71h0A4.11,4.11,0,0,0,18,106.4L12.1,87.48A4.11,4.11,0,0,0,7,84.77Z"/><polygon class="bb8353ee-5527-4b7c-a253-5261999138e5" points="65.19 139.34 75.92 118.97 40.44 103.66 22.07 126.23 65.19 139.34"/><path class="bb8353ee-5527-4b7c-a253-5261999138e5" d="M28.48,125.28h0a5.23,5.23,0,0,0-.05-7.4l-12.5-12.33a5.23,5.23,0,0,0-7.4.06h0a5.23,5.23,0,0,0,.06,7.4l12.49,12.32A5.23,5.23,0,0,0,28.48,125.28Z"/><path class="bb8353ee-5527-4b7c-a253-5261999138e5" d="M2.9,82.82h0A4.11,4.11,0,0,0,.18,88l7,22.75a4.12,4.12,0,0,0,5.14,2.71h0a4.12,4.12,0,0,0,2.72-5.14L8,85.53A4.11,4.11,0,0,0,2.9,82.82Z"/><path class="bb8353ee-5527-4b7c-a253-5261999138e5" d="M36.46,84.53h0a4.84,4.84,0,0,1,6.4,2l16.2,26.34a6,6,0,0,1-2.12,8c-3.93,2.26-7.4-.66-8.69-3.09l-14-26.52a5,5,0,0,1,2.24-6.8"/><path class="b983013f-1bc6-4be5-9cda-98f224c1fdfb" d="M173.4,125.32s-61.6,36-112.16,2.24"/><g id="ed4ec8dc-d8a9-41e4-928b-46c127942d15" data-name="Bulb"><path class="a565545d-8a8d-4d4b-ac28-7315687c9399" d="M13.32,76.87h14.9a0,0,0,0,1,0,0V93.3a6.81,6.81,0,0,1-6.81,6.81H20.13a6.81,6.81,0,0,1-6.81-6.81V76.87a0,0,0,0,1,0,0Z" transform="translate(18.02 -2.36) rotate(11.47)"/><path class="a1fdb3d1-232b-4353-99ea-9aea6c6ec63d" d="M8.64,72.7H34.58a0,0,0,0,1,0,0V87a9,9,0,0,1-9,9h-8a9,9,0,0,1-9-9V72.7a0,0,0,0,1,0,0Z" transform="translate(17.21 -2.61) rotate(11.48)"/><path class="a565545d-8a8d-4d4b-ac28-7315687c9399" d="M34.73,84.93,9.29,79.77A1.48,1.48,0,0,1,8.14,78h0a1.47,1.47,0,0,1,1.74-1.15l25.43,5.16a1.47,1.47,0,0,1,1.15,1.74h0A1.46,1.46,0,0,1,34.73,84.93Z"/><path class="a565545d-8a8d-4d4b-ac28-7315687c9399" d="M33.66,90.2,8.23,85A1.47,1.47,0,0,1,7.08,83.3h0a1.47,1.47,0,0,1,1.73-1.15l25.43,5.17a1.46,1.46,0,0,1,1.15,1.73h0A1.46,1.46,0,0,1,33.66,90.2Z"/><rect class="a565545d-8a8d-4d4b-ac28-7315687c9399" x="7.19" y="89.97" width="25.94" height="2.94" rx="1.39" transform="translate(18.6 -2.18) rotate(11.48)"/><path class="bb8353ee-5527-4b7c-a253-5261999138e5" d="M38.16.54A31.56,31.56,0,0,0,5.91,48.82,22.93,22.93,0,0,1,9.08,66L8.2,70.26a3.74,3.74,0,0,0,2.92,4.4L22.61,77,38.92.7Z"/><path class="f90d8288-a2bf-4e2d-b550-dbaef491ae01" d="M63.25,37.84A31.55,31.55,0,0,0,38.92.7L22.61,77,35,79.52a3.74,3.74,0,0,0,4.4-2.92l.92-4.53A22.5,22.5,0,0,1,49.84,57.8,31.44,31.44,0,0,0,63.25,37.84Z"/><path class="a175e0aa-695b-477c-ae7d-5a8c63fb4d9f" d="M28.87,60.84c1.35-.26,2.33-.93,2.52-1.88A2.72,2.72,0,0,0,30,56.38a2.13,2.13,0,0,1-.86-2.12l3-14.59a1.13,1.13,0,0,1,1.33-.89,1.15,1.15,0,0,0,1.37-.89l0-.25A1.14,1.14,0,0,0,34,36.29l-5.9-1.2a1.14,1.14,0,0,0-1.35.89l-.05.25a1.14,1.14,0,0,0,.87,1.35,1.15,1.15,0,0,1,.92,1.35l-3,14.58a2.13,2.13,0,0,1-1.62,1.63A2.71,2.71,0,0,0,21.62,57c-.19,1,.45,2,1.59,2.72a1.7,1.7,0,0,0-1,1.07L18.08,76.07l9.13,1.85L29.34,62.2A1.68,1.68,0,0,0,28.87,60.84Z"/><path class="a565545d-8a8d-4d4b-ac28-7315687c9399" d="M24.47,77.37l-3.66-.74,3.45-14.27a.79.79,0,0,1,.93-.59l1,.21a.8.8,0,0,1,.63.91Z"/></g></g></g></svg>