<svg xmlns="http://www.w3.org/2000/svg" viewBox="0 0 189.17 241"><defs><style>.be5a6afe-dce7-4cb1-97b7-022a0a417a68{fill:#e1f7ff;}.a2475e78-c70e-405e-bdc7-ed9b573319e0{fill:none;stroke:#293d48;stroke-miterlimit:10;stroke-width:34px;}.e5e6753a-9b24-4acf-a1cb-a090eadd28c9{fill:#293d48;}.ff5a7a8a-0911-4920-87c2-ec1c2675f6e9{fill:#a4f2ff;opacity:0.61;}</style></defs><title>04 arm top left</title><g id="b153518a-ec31-420b-b35e-b5f61990e55a" data-name="Layer 2"><g id="b38dd554-90ef-43a0-9b49-cca7aef76cfd" data-name="Layer 1"><path class="be5a6afe-dce7-4cb1-97b7-022a0a417a68" d="M8.51,122.73h0a5.23,5.23,0,0,0,5.86-4.51l2.25-17.41A5.23,5.23,0,0,0,12.1,95h0a5.23,5.23,0,0,0-5.86,4.52L4,116.87A5.23,5.23,0,0,0,8.51,122.73Z"/><polygon class="be5a6afe-dce7-4cb1-97b7-022a0a417a68" points="15.65 161.01 38.36 157.23 29.08 119.72 0 118.75 15.65 161.01"/><path class="be5a6afe-dce7-4cb1-97b7-022a0a417a68" d="M4.64,123.28h0a5.23,5.23,0,0,0,5.86-4.52l2.25-17.41a5.24,5.24,0,0,0-4.52-5.86h0A5.24,5.24,0,0,0,2.37,100L.12,117.42A5.23,5.23,0,0,0,4.64,123.28Z"/><path class="be5a6afe-dce7-4cb1-97b7-022a0a417a68" d="M32.72,86.36h0a4.11,4.11,0,0,0-5.53-1.8L6,95.35a4.1,4.1,0,0,0-1.8,5.52h0a4.11,4.11,0,0,0,5.53,1.8L30.91,91.88A4.11,4.11,0,0,0,32.72,86.36Z"/><path class="be5a6afe-dce7-4cb1-97b7-022a0a417a68" d="M37.3,103.52h0a4.83,4.83,0,0,1,3.64,5.64l-4.3,30.61a6,6,0,0,1-6.76,4.86c-4.46-.77-5.28-5.23-4.72-7.92l6.09-29.38a5,5,0,0,1,6-3.81"/><path class="a2475e78-c70e-405e-bdc7-ed9b573319e0" d="M109.82,224.27s-70.23-12.63-86.7-71.18"/><g id="baf37c57-e4c4-4379-a29d-44400f39a5f1" data-name="Magnifyer"><rect x="58.18" y="40.92" width="7.47" height="87.99" transform="translate(112.32 -7.3) rotate(64.76)"/><rect class="e5e6753a-9b24-4acf-a1cb-a090eadd28c9" x="43" y="59.08" width="11.97" height="63.86" transform="translate(110.41 7.89) rotate(64.76)"/><path d="M184.66,27a47.13,47.13,0,1,0-22.53,62.73A47.14,47.14,0,0,0,184.66,27ZM103.24,65.43a42.89,42.89,0,1,1,57.08,20.5A42.89,42.89,0,0,1,103.24,65.43Z"/><circle class="ff5a7a8a-0911-4920-87c2-ec1c2675f6e9" cx="142.03" cy="47.14" r="42.88" transform="translate(85.16 185.56) rotate(-86.03)"/></g></g></g></svg>