<svg xmlns="http://www.w3.org/2000/svg" viewBox="0 0 201.29 205.47"><defs><style>.ba922265-0f1d-48b3-92d9-1fbc69c14322{fill:#0aa0b9;}.be77df9e-d050-4caf-bf1e-05b038378829{fill:#e3f6ff;}.f50892d9-323c-465e-95ae-7f79e1719417{fill:#e1f7ff;}.a23561a8-8e63-455a-abc6-4f66848edf36{fill:none;stroke:#293d48;stroke-miterlimit:10;stroke-width:34px;}</style></defs><title>04 arm top right 2</title><g id="aebd1d3f-fea4-4317-8d86-d6620a270bf1" data-name="Layer 2"><g id="aef96483-ec55-486d-bb7f-4dfdb006c7d8" data-name="Layer 1"><g id="f751572a-8710-4f64-bf36-28f1b6bd061d" data-name="Note Top"><rect class="ba922265-0f1d-48b3-92d9-1fbc69c14322" width="185.23" height="82.45"/><rect class="be77df9e-d050-4caf-bf1e-05b038378829" x="54.65" y="-48.13" width="75.94" height="178.71" transform="translate(133.84 -51.39) rotate(90)"/><path class="ba922265-0f1d-48b3-92d9-1fbc69c14322" d="M177.08,67.11V15.34a7.19,7.19,0,0,1-7.19-7.19H15.34a7.19,7.19,0,0,1-7.19,7.19V67.11a7.19,7.19,0,0,1,7.19,7.2H169.89A7.19,7.19,0,0,1,177.08,67.11Z"/><path class="be77df9e-d050-4caf-bf1e-05b038378829" d="M119.33,41.23a46.33,46.33,0,0,1-3.41,17.7c-4.58,11-13.3,18.47-23.3,18.47S73.89,70,69.32,58.93a46,46,0,0,1-3.43-17.7,46,46,0,0,1,3.43-17.71c4.57-11,13.28-18.47,23.3-18.47s18.72,7.45,23.3,18.47A46.38,46.38,0,0,1,119.33,41.23Z"/><circle class="be77df9e-d050-4caf-bf1e-05b038378829" cx="150.63" cy="41.23" r="10.92" transform="translate(85.81 183.31) rotate(-80.78)"/><circle class="be77df9e-d050-4caf-bf1e-05b038378829" cx="32.05" cy="41.23" r="10.92" transform="translate(-15.44 62.94) rotate(-76.72)"/><path class="be77df9e-d050-4caf-bf1e-05b038378829" d="M119.33,41.23a46.33,46.33,0,0,1-3.41,17.7H69.32a46,46,0,0,1-3.43-17.7,46,46,0,0,1,3.43-17.71h46.6A46.38,46.38,0,0,1,119.33,41.23Z"/><path class="ba922265-0f1d-48b3-92d9-1fbc69c14322" d="M95.43,54.44V56.1a.79.79,0,0,1-.79.79H92.86a.79.79,0,0,1-.79-.79V54.36a7.88,7.88,0,0,1-7-8.15v-.63a.79.79,0,0,1,.79-.79h2.21a.79.79,0,0,1,.79.79v.63c0,2.69,2.14,4.55,5.23,4.55,2.88,0,4.9-1.66,4.9-4.08,0-2.73-1.66-4.23-5.73-5.18-4.67-1.07-7.44-3.64-7.44-8,0-4,2.53-6.57,6.25-7.32V24.45a.79.79,0,0,1,.79-.79h1.78a.79.79,0,0,1,.79.79v1.62c4.39.4,7,3.17,7,7.48v.51a.79.79,0,0,1-.79.79H99.51a.79.79,0,0,1-.79-.79v-.51c0-2.38-1.71-3.76-4.52-3.76s-4.51,1.42-4.51,3.68c0,2.45,1.63,3.72,6.26,4.75a8.33,8.33,0,0,1,6.92,8.31C102.87,50.84,99.9,53.92,95.43,54.44Z"/></g><path class="f50892d9-323c-465e-95ae-7f79e1719417" d="M192.78,87.21h0a5.23,5.23,0,0,1-5.86-4.52l-2.25-17.41a5.23,5.23,0,0,1,4.52-5.86h0a5.23,5.23,0,0,1,5.86,4.52l2.25,17.41A5.23,5.23,0,0,1,192.78,87.21Z"/><polygon class="f50892d9-323c-465e-95ae-7f79e1719417" points="185.64 125.49 162.93 121.7 172.21 84.19 201.29 83.22 185.64 125.49"/><path class="f50892d9-323c-465e-95ae-7f79e1719417" d="M196.65,87.75h0a5.23,5.23,0,0,1-5.86-4.52l-2.25-17.4A5.24,5.24,0,0,1,193.06,60h0a5.23,5.23,0,0,1,5.86,4.52l2.25,17.4A5.23,5.23,0,0,1,196.65,87.75Z"/><path class="f50892d9-323c-465e-95ae-7f79e1719417" d="M168.57,50.83h0A4.12,4.12,0,0,1,174.1,49l21.23,10.79a4.11,4.11,0,0,1,1.8,5.53h0a4.11,4.11,0,0,1-5.53,1.8L170.38,56.36A4.12,4.12,0,0,1,168.57,50.83Z"/><path class="f50892d9-323c-465e-95ae-7f79e1719417" d="M164,68h0a4.84,4.84,0,0,0-3.64,5.64l4.3,30.62a6,6,0,0,0,6.75,4.85c4.47-.77,5.29-5.22,4.73-7.92L170,71.8A5,5,0,0,0,164,68"/><path class="a23561a8-8e63-455a-abc6-4f66848edf36" d="M91.46,188.74s70.24-12.63,86.71-71.17"/></g></g></svg>