<svg xmlns="http://www.w3.org/2000/svg" viewBox="0 0 181.98 114.88"><defs><style>.f87593dd-ee68-490c-a961-89833bdb689d{fill:#293d48;}.e9ed3b3f-5bf7-4657-a631-3c7916fb7415{fill:#7f94a0;}.ed20b070-bc83-42df-a6d4-05321006b1c1{fill:#e1f7ff;}.b77702a6-786f-4286-815d-26965506fad8{fill:none;stroke:#293d48;stroke-miterlimit:10;stroke-width:34px;}</style></defs><title>04 arm bottom right</title><g id="b0efa9ff-05a7-4654-a940-186e8f352fbc" data-name="Layer 2"><g id="e21dccf6-499b-4aa3-86c7-f3667b30e32d" data-name="Layer 1"><path id="b1797a37-a6cc-44a9-bebb-b87c770dd3c7" data-name="Cog 4" class="f87593dd-ee68-490c-a961-89833bdb689d" d="M171.84,39.42a.08.08,0,0,1,0-.05c.06-.17.12-.33.17-.5s.05-.11.07-.17l0-.1.09-.25,0-.05c0-.16.09-.32.14-.47l.06-.18,0-.12a2,2,0,0,0,.08-.26s0,0,0-.06.07-.28.11-.42h0a1.05,1.05,0,0,0,0-.19c0-.05,0-.1,0-.15a2.5,2.5,0,0,1,.07-.26s0,0,0-.08.05-.23.08-.34a.29.29,0,0,1,0-.09l0-.15a1.62,1.62,0,0,0,0-.19c0-.08,0-.16,0-.25s0-.06,0-.09,0-.18,0-.27l0-.17,0-.13,0-.21a1.43,1.43,0,0,1,0-.22c0-.05,0-.09,0-.13a1.1,1.1,0,0,0,0-.18,2,2,0,0,0,0-.26s0-.06,0-.1l0-.25a1.11,1.11,0,0,0,0-.19c0-.05,0-.1,0-.16v-.08c0-.12,0-.23,0-.35v-.08c0-.09,0-.18,0-.27s0-.11,0-.16a1.27,1.27,0,0,0,0-.2c0-.14,0-.29,0-.43v-.07a2.44,2.44,0,0,0,0-.27V30.5c0-.16,0-.33,0-.49V30c0-.09,0-.18,0-.27v-.1c0-.06,0-.12,0-.18s0-.35,0-.53v-.05l4.51-1.7-1.94-8-4.79.56,0,0-.22-.48L171,19l0-.09a2.56,2.56,0,0,0-.11-.24l0-.06-.23-.43-.08-.16-.06-.11-.13-.24,0-.06-.22-.38a1,1,0,0,1-.1-.17l-.08-.13c-.05-.08-.09-.16-.14-.23a.43.43,0,0,0,0-.07l-.2-.3,0-.07-.09-.14-.1-.15-.14-.21a.35.35,0,0,1-.05-.08l-.16-.22-.1-.15a.61.61,0,0,1-.07-.1l-.13-.18-.14-.18-.07-.09-.11-.15c-.06-.07-.11-.15-.16-.22l-.06-.07-.16-.2-.12-.15-.09-.11-.07-.08-.22-.27-.05-.06-.18-.2-.1-.12-.13-.14h0l-.29-.32,0-.05-.2-.2-.08-.09a.8.8,0,0,1-.13-.13c-.12-.11-.23-.23-.35-.35l0,0-.19-.18-.08-.07-.13-.12c-.13-.12-.25-.25-.39-.36a.08.08,0,0,0,0,0l2-4.39-7-4.27-3,3.78,0,0L156.38,6l-.16-.06-.1,0-.26-.09,0,0-.48-.14-.17-.06-.12,0-.27-.08-.05,0-.43-.11h0l-.18-.05-.15,0-.27-.07h-.06l-.36-.08-.09,0L153,5l-.18,0-.25-.05-.09,0-.27,0-.19,0-.11,0-.22,0-.22,0h-.11l-.19,0-.28,0h-.08l-.25,0-.19,0-.15,0h-.1l-.36,0h-.69l-.46,0h-1.73l-.55,0h0L144.63,0l-8,1.94.56,4.78h0l-.51.24-.16.08-.1,0-.24.12h0l-.46.24-.16.09-.11.06-.25.13,0,0c-.14.07-.27.15-.4.23h0l-.16.09-.13.08-.24.14-.05,0-.31.2-.09.06-.12.07-.16.11-.21.14-.06,0-.24.17-.16.11-.09.06-.18.13-.18.13-.08.07-.16.12-.22.17-.07.05-.19.16-.15.12-.11.08-.08.07-.29.24,0,0-.21.18-.11.1-.14.12v0l-.34.3,0,0-.2.19-.09.09-.13.13-.36.36,0,0-.18.2-.08.07-.12.14-.38.4v0l-4.4-2-4.26,7,3.78,3v0c-.07.18-.13.36-.19.53l-.06.17,0,.1-.09.25v0c-.06.16-.11.33-.16.5a.84.84,0,0,0,0,.17.56.56,0,0,0,0,.12c0,.09-.05.18-.08.27v0l-.12.45v0c0,.05,0,.11,0,.17a.83.83,0,0,1,0,.15l-.06.26v.05c0,.13-.06.25-.08.38l0,.1,0,.14a1.16,1.16,0,0,1,0,.18,2.21,2.21,0,0,1,0,.25s0,.05,0,.07,0,.19-.05.29a1.77,1.77,0,0,1,0,.2s0,.06,0,.1a1.43,1.43,0,0,0,0,.22l0,.22a.31.31,0,0,0,0,.1l0,.2c0,.09,0,.19,0,.29s0,.05,0,.07l0,.25a1.23,1.23,0,0,1,0,.19s0,.09,0,.13,0,.08,0,.11,0,.25,0,.38v.05c0,.09,0,.18,0,.28s0,.1,0,.15a1.09,1.09,0,0,1,0,.18v0c0,.15,0,.3,0,.46v0a2.72,2.72,0,0,1,0,.28v1.4c0,.19,0,.38,0,.57h0l-4.51,1.7,1.93,8,4.79-.56v0l.24.51s.05.1.07.16l0,.09.12.25v0l.24.46.08.16.06.11.14.25,0,0c.07.13.15.26.23.39v0l.08.15.08.13c0,.08.1.16.14.24a.1.1,0,0,1,0,0l.2.31.06.09a.75.75,0,0,0,.07.12s.07.1.1.16l.14.21,0,.06.16.23.12.17.06.08.13.18.13.18.07.09.11.15.18.24,0,.06c.06.06.11.13.16.19l.12.15.1.11.06.08.24.29,0,0,.19.21.1.11.12.14h0c.11.11.21.23.31.34l0,0,.19.2.09.09.12.13.37.37,0,0,.19.18.08.07a1.42,1.42,0,0,0,.13.12l.41.39h0l-2,4.39,7,4.27,3-3.78h0l.53.19.17.06.1,0,.25.08h0l.49.16.17.05.12,0,.27.08h0l.44.11h0l.18,0,.16,0,.26.07h.05l.37.08.1,0,.14,0,.19,0,.24,0,.09,0,.27,0,.19,0,.11,0,.22,0,.22,0h.11l.19,0,.27,0h.1l.25,0,.18,0h.25l.35,0h.08l.27,0h.35l.44,0h1.75l.53,0h.05l1.7,4.51,8-1.94-.56-4.78.05,0,.48-.23.16-.08.1,0,.24-.12.05,0,.43-.22.16-.08.12-.07.24-.13.05,0c.13-.07.26-.14.38-.22h0l.17-.1.13-.08.23-.14.07,0,.29-.19.09,0,.12-.08.16-.11.21-.13.08-.06.22-.16.16-.1.09-.07.18-.13.18-.13.1-.08.14-.11.22-.16.07-.06.2-.16.14-.11.13-.11.06-.05.28-.23.06-.05.2-.18.12-.1.14-.13h0l.33-.3,0,0,.2-.19.1-.09.12-.13.36-.35,0,0,.19-.2.07-.07.12-.13.36-.4,0,0,4.39,2,4.27-7Zm-11,.15-.24.34-.3.37-.19.24-.33.39-.18.2-.36.38-.19.19-.36.34-.21.2-.36.31a2.43,2.43,0,0,1-.25.2l-.33.27-.3.22-.31.22-.35.24-.27.17-.4.25-.25.14-.44.24-.24.12-.47.23-.24.1-.48.21-.28.11-.45.16-.38.13-.36.11c-.26.08-.51.15-.77.21l-.78.17-.37.06-.4.07-.47.05-.31,0-.51,0-.27,0h-.78l-.5,0h-.29l-.47,0-.32,0-.43,0-.37,0-.36-.07L144.5,46l-.32-.07-.46-.11-.27-.07-.49-.15-.25-.08-.49-.17-.25-.09-.48-.2-.27-.12-.44-.2-.36-.18-.34-.18L139.4,44h0l-.65-.42-.31-.22-.33-.24-.38-.29-.23-.19-.4-.34-.19-.18c-.13-.11-.26-.24-.38-.36l-.19-.18-.35-.37-.19-.21a3.65,3.65,0,0,1-.31-.36l-.21-.24L135,40l-.22-.3-.22-.3-.24-.35-.17-.28c-.09-.13-.17-.26-.25-.4l-.14-.25c-.08-.14-.17-.29-.24-.44l-.12-.24c-.08-.15-.16-.31-.23-.46s-.07-.17-.11-.25-.11-.25-.16-.38l0-.09-.11-.29,0-.08c-.05-.12-.09-.24-.13-.36s-.09-.26-.13-.39l-.12-.36c-.07-.25-.14-.51-.2-.77s-.12-.51-.17-.77l-.06-.37c0-.14,0-.27-.07-.41s0-.25-.05-.38a.19.19,0,0,0,0-.08l0-.31a.31.31,0,0,0,0-.1l0-.41c0-.09,0-.18,0-.27s0-.35,0-.52v-.27c0-.16,0-.33,0-.5s0-.19,0-.29,0-.31,0-.47l0-.32c0-.14,0-.28,0-.42s0-.25.05-.37,0-.25.07-.37.05-.28.07-.42.05-.21.08-.31.07-.31.11-.46.05-.19.07-.28.09-.32.14-.48l.09-.25c.05-.17.11-.33.17-.5l.09-.25.12-.28L133,24c0-.1.09-.19.13-.28l.06-.13.13-.3c.06-.13.13-.25.19-.37l.17-.33c.13-.23.26-.46.4-.69s.28-.45.43-.67l.21-.3c.08-.11.16-.23.25-.34s.13-.17.2-.26l.09-.11.19-.24.14-.16.2-.23c.06-.06.11-.13.17-.2l.36-.37.19-.19.36-.35.21-.2.36-.3.25-.21.33-.26.3-.23.31-.21c.11-.09.23-.17.35-.25l.27-.17.41-.25.24-.13.45-.25.23-.12.47-.23.24-.1.48-.21.28-.1.45-.17.38-.12c.12,0,.24-.09.37-.12l.75-.2h0l.76-.17.38-.06.39-.07.48-.05.3,0,.51,0,.27,0h1.57l.48,0,.32,0,.42.06.37,0,.37.06.42.08.31.07.46.11.28.08.48.14.25.08.49.17.25.1.48.19.28.12.43.2.37.19.33.17.69.39.67.43.3.22.34.24.37.29.24.19.39.34.2.18.37.36.19.18.35.37.19.21.31.36.21.24.26.34.23.3.21.3.24.35.18.28.24.4.14.25c.09.14.17.29.25.44l.11.24c.08.15.16.31.23.47l.11.24c.07.16.14.31.2.47s.08.19.11.29.12.29.17.44l.12.39.12.36.21.77c.06.26.11.52.16.77s.05.25.07.38l.06.4.06.47,0,.3c0,.17,0,.35,0,.52a2.28,2.28,0,0,0,0,.26c0,.18,0,.35,0,.52v.27c0,.17,0,.33,0,.5a2.81,2.81,0,0,0,0,.29c0,.15,0,.31,0,.47s0,.21,0,.32,0,.28-.05.42,0,.25-.05.37l-.06.37c0,.14-.05.28-.08.42s-.05.21-.07.32-.07.3-.11.46,0,.18-.08.27-.09.32-.14.49a1.83,1.83,0,0,0-.08.25c-.06.16-.11.33-.17.49s-.07.16-.1.25-.12.32-.19.47-.08.19-.13.29-.12.28-.19.42-.13.25-.19.37l-.17.33c-.13.24-.26.47-.4.69s-.28.45-.43.67Z"/><path id="b4eb99f0-fce7-4d2b-86ce-3c23c38d0e73" data-name="Cog 1" class="e9ed3b3f-5bf7-4657-a631-3c7916fb7415" d="M158.29,34.26v0l.08-.21,0-.08v0a.49.49,0,0,0,0-.11v0l.06-.21,0-.07v-.06s0-.08,0-.11v0a1.05,1.05,0,0,0,0-.19h0l0-.08V33l0-.11v0l0-.16v0a.64.64,0,0,1,0-.07s0,0,0-.08a.43.43,0,0,0,0-.11v0s0-.08,0-.12,0-.05,0-.07v-.06a.28.28,0,0,1,0-.09.3.3,0,0,1,0-.1v-.05a.25.25,0,0,0,0-.08s0-.08,0-.12v0s0-.07,0-.11a.19.19,0,0,1,0-.08v-.11c0-.05,0-.1,0-.15v0a.49.49,0,0,0,0-.12v-.06a.28.28,0,0,0,0-.09c0-.07,0-.13,0-.19v-.77a1.69,1.69,0,0,1,0-.23v0l2-.75-.85-3.49-2.09.25v0l-.1-.21,0-.07,0,0a.54.54,0,0,1,0-.11l0,0a1.14,1.14,0,0,0-.1-.19l0-.07,0,0-.06-.11v0l-.1-.17a.25.25,0,0,0,0-.07l0-.06a.61.61,0,0,0-.07-.1v0l-.09-.13,0,0a.21.21,0,0,0,0-.06.43.43,0,0,0,0-.07l-.06-.09,0,0-.06-.09-.05-.07,0,0-.06-.08a.35.35,0,0,1-.05-.08l0,0-.05-.07-.07-.09,0,0-.07-.09-.05-.06,0-.05,0,0-.1-.12,0,0-.08-.09-.05,0-.05-.06h0l-.12-.14,0,0-.09-.09,0,0-.06,0-.15-.16h0l-.08-.08,0,0-.06,0c-.05-.05-.11-.1-.16-.16h0l.87-1.92-3.07-1.87-1.31,1.65h0l-.22-.08-.07,0,0,0-.12,0h0l-.2-.07-.08,0-.05,0-.12,0h0l-.19-.05h0l-.08,0-.07,0-.12,0h0l-.16,0h0l-.07,0H150l-.1,0h0l-.12,0-.08,0h-.15l-.1,0h-.13l-.12,0h-2l-.74-2-3.49.84.25,2.1h0l-.23.11-.07,0,0,0-.1.05h0l-.2.1-.07,0,0,0-.11.05h0l-.17.1h0l-.08,0-.05,0-.11.06,0,0-.14.09,0,0-.06,0-.07.05-.09.06,0,0-.11.07-.07.05,0,0-.08.05-.08.06,0,0-.07.05-.1.08,0,0-.08.07-.07,0,0,0,0,0-.13.11h0l-.09.08,0,0-.05.06h0l-.15.14h0l-.09.08,0,0-.06.06-.16.16h0l-.08.08,0,0-.05.06-.17.18h0l-1.92-.87-1.87,3.07,1.66,1.3h0l-.09.24,0,.07v0s0,.08,0,.11h0c0,.08-.05.15-.07.22a.24.24,0,0,0,0,.08l0,.05,0,.12h0c0,.07,0,.13-.05.2h0a.19.19,0,0,0,0,.07l0,.07,0,.11v0a1,1,0,0,0,0,.17v0s0,0,0,.06l0,.08s0,.08,0,.11v0a.51.51,0,0,1,0,.13s0,.06,0,.09v0s0,.06,0,.1,0,.06,0,.09v0a.22.22,0,0,1,0,.08.51.51,0,0,1,0,.13v0a.45.45,0,0,0,0,.11.25.25,0,0,0,0,.08s0,0,0,.06v.05c0,.06,0,.11,0,.16v0a.49.49,0,0,1,0,.12v.14h0a1.41,1.41,0,0,0,0,.2v.68s0,0,0,.08a2.18,2.18,0,0,0,0,.25h0l-2,.75.85,3.49,2.09-.25h0c0,.08.07.15.1.22a.16.16,0,0,0,0,.07l0,.05a.47.47,0,0,0,.05.1h0c0,.07.07.14.11.2l0,.07,0,.05.06.11v0l.1.17h0l0,.06,0,.06.06.1v0l.09.13,0,0,0,0a.43.43,0,0,0,0,.07l.06.1,0,0,.07.1,0,.07,0,0,.06.07.06.08,0,0,0,.07.08.1v0a.27.27,0,0,1,.07.08l.06.07,0,0,0,0a1.47,1.47,0,0,1,.1.13h0l.08.09,0,0,.06.06h0l.13.15h0l.09.09,0,0,0,.05.16.17h0l.09.09,0,0,.06,0,.18.17h0l-.86,1.92,3.06,1.87,1.31-1.65h0l.23.09.07,0,0,0,.11,0h0l.22.07.07,0,.06,0,.11,0h0l.19,0h0l.08,0,.06,0,.12,0h0l.16,0h.11l.08,0,.11,0h0l.12,0H146l.1,0h2.26l.74,2,3.49-.84-.24-2.1h0l.21-.1.07,0,0,0,.11,0h0l.19-.1.07,0,.05,0,.1-.06,0,0,.16-.09h0l.07,0,.06,0,.1-.06,0,0,.13-.08,0,0,.06,0,.07,0,.09-.06,0,0,.09-.07.07,0,0,0,.08,0,.08-.06,0,0,.06,0,.1-.07,0,0,.09-.07.06,0,0,0,0,0,.13-.1,0,0,.09-.08.05,0,.06-.06h0l.15-.13,0,0,.08-.08,0,0,.06-.06.15-.15h0l.08-.09,0,0L156,38l.15-.17,0,0,1.92.87L160,35.57Zm-4.81.07-.1.14-.13.16-.09.11a2.09,2.09,0,0,1-.14.17l-.08.09-.16.16-.08.08c0,.06-.11.11-.16.16l-.09.08-.16.14-.11.09-.14.11-.13.1-.14.1-.15.1-.12.08-.18.1-.1.07-.2.1-.1.05-.21.1-.1.05-.21.09-.13.05-.19.07-.17.06-.16.05-.33.09-.34.07-.16,0-.18,0-.21,0-.13,0H147l-.18,0-.17,0-.16,0-.18,0-.14,0-.2-.05-.12,0-.21-.06-.11,0-.22-.08-.1,0a1,1,0,0,1-.21-.08l-.13-.06-.19-.08-.15-.08-.15-.08-.3-.17h0l-.29-.19-.13-.1a.71.71,0,0,1-.14-.1l-.17-.13-.1-.08-.17-.15-.09-.08-.17-.16-.08-.07L142.6,35l-.08-.09-.14-.15-.09-.11-.12-.15-.09-.13a1.13,1.13,0,0,1-.1-.13s-.07-.1-.1-.16L141.8,34l-.11-.17-.06-.11c0-.07-.07-.13-.1-.19l-.06-.11-.1-.2s0-.08,0-.11l-.08-.17v0l-.05-.12v0l-.06-.16-.06-.17s0-.1-.05-.15l-.09-.34c0-.11,0-.23-.07-.34l0-.16,0-.18s0-.11,0-.16v0c0-.05,0-.09,0-.14v0a1.09,1.09,0,0,1,0-.18.49.49,0,0,1,0-.12c0-.07,0-.15,0-.23V30.2a1.55,1.55,0,0,1,0-.22v-.13c0-.07,0-.13,0-.2s0-.1,0-.14,0-.13,0-.19l0-.16a.78.78,0,0,1,0-.16c0-.06,0-.12,0-.19l0-.13a1.17,1.17,0,0,1,0-.2l0-.12.06-.22s0-.07,0-.11,0-.14.07-.21a1.17,1.17,0,0,1,0-.11l0-.13a.2.2,0,0,0,0-.08.61.61,0,0,0,.05-.12l0-.06.06-.13.08-.16.08-.15c0-.1.11-.2.17-.3a2.9,2.9,0,0,1,.19-.29l.09-.13.11-.15.09-.12,0,0,.09-.11.06-.07.09-.1.07-.09c.06-.05.11-.11.16-.16l.08-.08.16-.15.09-.09.16-.13.11-.1.15-.11.13-.1.13-.09.15-.11.12-.07.18-.11.11-.06.19-.11.1-.05.21-.1.11-.05.2-.09.13,0,.19-.07.17-.05.16-.05a2,2,0,0,1,.33-.09h0l.34-.07.16,0,.17,0,.21,0h.13l.23,0h1.15l.19,0,.16,0,.16,0,.18,0,.14,0,.2.05.12,0,.21.07.11,0,.22.08.11,0,.21.08.12.06.19.08L151,24l.14.07.31.17.29.19.13.1.15.1.16.13.11.08.17.15a.6.6,0,0,0,.08.08l.17.16a.6.6,0,0,1,.08.08l.15.16.09.09.13.15.09.11.12.15a1.13,1.13,0,0,0,.1.13l.09.13.11.16.07.12a1.63,1.63,0,0,1,.11.17l.06.11.11.2,0,.1.1.2a1.17,1.17,0,0,0,.05.11l.09.21s0,.08,0,.12l.08.2s0,.11,0,.17a.88.88,0,0,1,.05.15l.09.34c0,.11,0,.23.08.34s0,.11,0,.16l0,.18,0,.21s0,.08,0,.13,0,.15,0,.22v.12a1.77,1.77,0,0,1,0,.23v.33a.62.62,0,0,0,0,.13c0,.07,0,.14,0,.2s0,.1,0,.15a1.1,1.1,0,0,1,0,.18c0,.06,0,.11,0,.16l0,.16,0,.19s0,.09,0,.14,0,.13,0,.2,0,.08,0,.12l-.06.21a.49.49,0,0,1,0,.11,1.72,1.72,0,0,1-.07.21s0,.08,0,.11l-.09.21a1.12,1.12,0,0,1,0,.13l-.09.18a.8.8,0,0,1-.08.16l-.07.15-.18.3-.18.29Z"/><path class="ed20b070-bc83-42df-a6d4-05321006b1c1" d="M151.59,77.72h0a5.24,5.24,0,0,1,0-7.4L164.14,58a5.23,5.23,0,0,1,7.4,0h0a5.23,5.23,0,0,1,0,7.4L159,77.77A5.23,5.23,0,0,1,151.59,77.72Z"/><path class="ed20b070-bc83-42df-a6d4-05321006b1c1" d="M175,40.62h0a4.13,4.13,0,0,1,2.72,5.15l-5.86,18.91a4.11,4.11,0,0,1-5.14,2.71h0A4.11,4.11,0,0,1,164,62.25l5.85-18.91A4.12,4.12,0,0,1,175,40.62Z"/><polygon class="ed20b070-bc83-42df-a6d4-05321006b1c1" points="116.79 95.19 106.07 74.83 141.54 59.52 159.91 82.08 116.79 95.19"/><path class="ed20b070-bc83-42df-a6d4-05321006b1c1" d="M153.5,81.13h0a5.23,5.23,0,0,1,.05-7.4l12.5-12.32a5.23,5.23,0,0,1,7.4.05h0a5.23,5.23,0,0,1,0,7.4L160.9,81.18A5.23,5.23,0,0,1,153.5,81.13Z"/><path class="ed20b070-bc83-42df-a6d4-05321006b1c1" d="M179.09,38.67h0a4.11,4.11,0,0,1,2.71,5.14l-7,22.75a4.11,4.11,0,0,1-5.14,2.71h0a4.11,4.11,0,0,1-2.71-5.14l7-22.75A4.11,4.11,0,0,1,179.09,38.67Z"/><path class="ed20b070-bc83-42df-a6d4-05321006b1c1" d="M149.47,43.17h0a4.82,4.82,0,0,0-6.69.51L121,65.63a6,6,0,0,0,.23,8.32c3.31,3.09,7.35,1,9.16-1L150.1,50.29a5,5,0,0,0-.63-7.12"/><path class="b77702a6-786f-4286-815d-26965506fad8" d="M8.58,81.18s61.6,36,112.16,2.23"/></g></g></svg>