<svg xmlns="http://www.w3.org/2000/svg" viewBox="0 0 441.75 246.88"><defs><style>.e02e589f-718f-47ee-a1a0-e4007fbf2d20{fill:#e1f7ff;}.f23027e1-e92a-48ee-ab17-88140e06033c{fill:#00e0e1;}</style></defs><title>04 bg cloud 2</title><g id="f97d052d-6a87-46f3-8fef-37a168583028" data-name="Layer 2"><g id="f639747e-84ff-4fef-9606-1f34753b3506" data-name="Layer 1"><path id="a25496d9-7eb7-4d63-a480-1cd5c91b4866" data-name="Top Cloud" class="e02e589f-718f-47ee-a1a0-e4007fbf2d20" d="M354.78,72.94a86.74,86.74,0,0,0-31.43,5.88A123.46,123.46,0,0,0,85.6,109.25,69.73,69.73,0,1,0,65.92,246.77v.11H354.78a87,87,0,1,0,0-173.94Z"/><path id="ba9b651e-8943-45bb-b79c-7cd367b68690" data-name="Tamp Cloud" class="f23027e1-e92a-48ee-ab17-88140e06033c" d="M203.21,43.55A21.1,21.1,0,0,0,195.56,45a30,30,0,0,0-57.85,7.41,17,17,0,1,0-4.79,33.46v0h70.29a21.17,21.17,0,0,0,0-42.33Z"/></g></g></svg>