<svg xmlns="http://www.w3.org/2000/svg" viewBox="0 0 1015.65 543.84"><defs><style>.ff24010e-a228-4d08-a408-33c03dbad3c6{fill:#a4f2ff;}.b050f8da-b343-43bd-a4e4-71290b0004ad{fill:none;stroke:#4dd3ea;stroke-miterlimit:10;stroke-width:4px;}</style></defs><title>04 bg cloud</title><g id="b26f686b-ff22-4146-9498-4230b8590310" data-name="Layer 2"><g id="fa566e95-67cd-46c2-a5db-b03af5823281" data-name="Layer 1"><path class="ff24010e-a228-4d08-a408-33c03dbad3c6" d="M1006.36,543.84a202.74,202.74,0,0,0-137.3-255.48,123.6,123.6,0,0,0-148-166A258.66,258.66,0,0,0,501.05,0C380.94,0,280,81.81,250.73,192.74,111.53,197,0,311.21,0,451.45a258.43,258.43,0,0,0,17,92.39Z"/><g id="a7684a9d-d075-42f9-adbf-4103ae6fdd1f" data-name="Server Cables"><path class="b050f8da-b343-43bd-a4e4-71290b0004ad" d="M32.82,430.84V494c0,8.29,13.29,15,29.67,15H597.05c18.65,0,33.77-7.65,33.77-17.09V476.49"/><path class="b050f8da-b343-43bd-a4e4-71290b0004ad" d="M32.82,411.84v84c0,14.36,18.12,26,40.47,26H632.36c22.35,0,40.46-11.63,40.46-26V472.09"/></g></g></g></svg>