<svg xmlns="http://www.w3.org/2000/svg" viewBox="0 0 370.59 396.18"><defs><style>.a858da37-d052-45d6-9de2-d2b22fbdc580,.b21bb804-4f47-469f-aea0-5ae4c62e6ee4,.bf8b694d-a444-4bd6-834a-100fac035064{fill:#293d48;}.bdbdeaf4-af46-4fdb-b1fa-9af238368e13{fill:#7f94a0;}.fd25cf01-24d5-43f7-9d89-efcaac31f5a7{fill:#00e0e1;}.e5610b44-9b32-4b81-975a-e1233543f8f0{fill:#e1f7ff;}.bc8f5a95-9bf0-4b5a-a8d7-c9724a62bb65{fill:#afc4d1;}.aaf4f325-9724-4a7e-80d3-d855b59a94b0,.b21bb804-4f47-469f-aea0-5ae4c62e6ee4,.b811d3fb-539d-4658-ae06-96bf0f3caf48,.bf8b694d-a444-4bd6-834a-100fac035064,.e5bf24e7-8cba-4a15-8066-32186ceeeaf2{stroke:#293d48;stroke-miterlimit:10;}.a0186fb4-6fd4-4c9a-b2c2-99d06cada530,.aaf4f325-9724-4a7e-80d3-d855b59a94b0{fill:#fff;}.e5bf24e7-8cba-4a15-8066-32186ceeeaf2{fill:#526672;}.b811d3fb-539d-4658-ae06-96bf0f3caf48{fill:#fe8482;}.ff0a4cbb-5021-49ee-b9c3-60aea9f04108{fill:none;stroke:#ff5d4b;stroke-linecap:round;stroke-linejoin:round;stroke-width:1.52px;}.bbb9edce-ace2-4a18-836a-828a3e9fb92b{fill:#a4f2ff;}.b21bb804-4f47-469f-aea0-5ae4c62e6ee4{stroke-width:3px;}</style></defs><title>04 computerAsset 5</title><g id="a1ec0de6-c536-4f72-b1e0-6f923bebc39e" data-name="Layer 2"><g id="b12d752b-f3d8-491e-bf61-089ad3df3b92" data-name="Layer 1"><g id="ae73e044-d025-4a37-897a-20ee433fb8fc" data-name="Server 1"><rect class="a858da37-d052-45d6-9de2-d2b22fbdc580" x="286.63" y="264.11" width="78.66" height="114.17"/><rect class="bdbdeaf4-af46-4fdb-b1fa-9af238368e13" x="281.33" y="261.98" width="89.25" height="26.34" rx="9.82"/><rect class="bdbdeaf4-af46-4fdb-b1fa-9af238368e13" x="281.33" y="294.02" width="89.25" height="26.34" rx="9.82"/><rect class="bdbdeaf4-af46-4fdb-b1fa-9af238368e13" x="281.33" y="326.05" width="89.25" height="26.34" rx="9.82"/><rect class="bdbdeaf4-af46-4fdb-b1fa-9af238368e13" x="281.33" y="358.09" width="89.25" height="26.34" rx="9.82"/><circle class="fd25cf01-24d5-43f7-9d89-efcaac31f5a7" cx="358.76" cy="272.03" r="1.87"/><circle class="fd25cf01-24d5-43f7-9d89-efcaac31f5a7" cx="358.76" cy="303.37" r="1.87"/><circle class="fd25cf01-24d5-43f7-9d89-efcaac31f5a7" cx="358.76" cy="334.72" r="1.87"/><circle class="fd25cf01-24d5-43f7-9d89-efcaac31f5a7" cx="358.76" cy="366.06" r="1.87"/></g><g id="af4e5688-7074-4f67-bb1a-ba1d9d0192e7" data-name="Computer"><polygon class="e5610b44-9b32-4b81-975a-e1233543f8f0" points="133.28 284.25 131.23 311.29 202.28 311.29 200.22 284.25 133.28 284.25"/><polygon class="bdbdeaf4-af46-4fdb-b1fa-9af238368e13" points="199.09 269.4 134.41 269.4 133.28 284.25 200.22 284.25 199.09 269.4"/><path class="e5610b44-9b32-4b81-975a-e1233543f8f0" d="M119.44,308.9h94.62a6.11,6.11,0,0,1,6.11,6.11v5.55a0,0,0,0,1,0,0H113.33a0,0,0,0,1,0,0V315A6.11,6.11,0,0,1,119.44,308.9Z"/><path d="M323.91,46.71H9.59A9.59,9.59,0,0,0,0,56.3V245H333.5V56.3A9.59,9.59,0,0,0,323.91,46.71Z"/><path class="e5610b44-9b32-4b81-975a-e1233543f8f0" d="M333.5,245v22.75a9.59,9.59,0,0,1-9.59,9.59H9.59A9.59,9.59,0,0,1,0,267.76V245Z"/><polygon class="fd25cf01-24d5-43f7-9d89-efcaac31f5a7" points="165.69 58.38 128.26 58.38 11.67 58.38 11.67 174.97 11.67 231.75 165.69 231.75 319.72 231.75 319.72 58.38 165.69 58.38"/><rect class="bc8f5a95-9bf0-4b5a-a8d7-c9724a62bb65" x="72.88" y="320.57" width="181.32" height="18.9"/><rect class="bdbdeaf4-af46-4fdb-b1fa-9af238368e13" x="43.69" y="339.47" width="239.7" height="18.9"/></g><g id="ad53049f-23d4-4ccc-846c-72841be0bd3c" data-name="Clock"><circle class="bf8b694d-a444-4bd6-834a-100fac035064" cx="164.35" cy="188.65" r="38.65"/><circle class="aaf4f325-9724-4a7e-80d3-d855b59a94b0" cx="164.35" cy="188.65" r="33.01" transform="translate(-56.55 71.17) rotate(-20.93)"/><polygon class="e5bf24e7-8cba-4a15-8066-32186ceeeaf2" points="164.35 158.06 162.51 191.73 166.19 191.73 164.35 158.06"/><polygon class="e5bf24e7-8cba-4a15-8066-32186ceeeaf2" points="190.7 182.06 161.11 187.58 161.76 190.35 190.7 182.06"/><path class="b811d3fb-539d-4658-ae06-96bf0f3caf48" d="M163.31,188.65a1,1,0,1,1,1,1A1,1,0,0,1,163.31,188.65Z"/><line class="ff0a4cbb-5021-49ee-b9c3-60aea9f04108" x1="164.35" y1="188.65" x2="185.33" y2="195.58"/></g><g id="a7ca4726-2e45-4060-8612-2cb81180923f" data-name="Bars Screen"><rect class="bdbdeaf4-af46-4fdb-b1fa-9af238368e13" x="231.12" y="62.85" width="13.34" height="157.65"/><rect class="a858da37-d052-45d6-9de2-d2b22fbdc580" x="251.24" width="13.34" height="220.5"/><rect class="bdbdeaf4-af46-4fdb-b1fa-9af238368e13" x="271.37" y="31.16" width="13.34" height="189.34"/><rect class="a858da37-d052-45d6-9de2-d2b22fbdc580" x="291.49" y="99.55" width="13.34" height="120.95"/><rect class="bbb9edce-ace2-4a18-836a-828a3e9fb92b" x="223.76" y="160.12" width="14.37" height="60.38"/><polygon class="bbb9edce-ace2-4a18-836a-828a3e9fb92b" points="230.94 139.94 213.12 170.81 248.77 170.81 230.94 139.94"/><rect class="e5610b44-9b32-4b81-975a-e1233543f8f0" x="260.54" y="146.91" width="14.37" height="60.38" transform="translate(535.44 354.19) rotate(180)"/><polygon class="e5610b44-9b32-4b81-975a-e1233543f8f0" points="267.72 227.47 285.54 196.6 249.9 196.6 267.72 227.47"/></g><g id="b9ea8e38-2dde-44f8-a371-ad9596625e53" data-name="Server 3"><rect class="bdbdeaf4-af46-4fdb-b1fa-9af238368e13" x="244.41" y="310.22" width="78.66" height="79.83"/><rect class="bc8f5a95-9bf0-4b5a-a8d7-c9724a62bb65" x="239.12" y="305.77" width="89.25" height="26.34" rx="9.82"/><rect class="bc8f5a95-9bf0-4b5a-a8d7-c9724a62bb65" x="239.12" y="337.81" width="89.25" height="26.34" rx="9.82"/><rect class="bc8f5a95-9bf0-4b5a-a8d7-c9724a62bb65" x="239.12" y="369.85" width="89.25" height="26.34" rx="9.82"/><circle class="a0186fb4-6fd4-4c9a-b2c2-99d06cada530" cx="313.61" cy="315.13" r="1.87"/><circle class="a0186fb4-6fd4-4c9a-b2c2-99d06cada530" cx="313.61" cy="346.47" r="1.87"/><path class="a0186fb4-6fd4-4c9a-b2c2-99d06cada530" d="M311.74,377.82a1.87,1.87,0,1,1,1.87,1.86A1.86,1.86,0,0,1,311.74,377.82Z"/></g><g id="b772e4c9-d0e6-4c16-9d08-85f4bf046193" data-name="Connect Symbol Screen"><circle class="b21bb804-4f47-469f-aea0-5ae4c62e6ee4" cx="78.97" cy="190.79" r="9.19" transform="translate(-15.47 7.16) rotate(-4.73)"/><circle class="b21bb804-4f47-469f-aea0-5ae4c62e6ee4" cx="110.6" cy="165.7" r="9.19" transform="translate(-60.4 267.9) rotate(-87.14)"/><circle class="b21bb804-4f47-469f-aea0-5ae4c62e6ee4" cx="110.6" cy="212.38" r="9.19" transform="translate(-12.98 7.28) rotate(-3.56)"/><line class="b21bb804-4f47-469f-aea0-5ae4c62e6ee4" x1="82.31" y1="194.81" x2="107.35" y2="211.57"/><line class="b21bb804-4f47-469f-aea0-5ae4c62e6ee4" x1="82.67" y1="186.86" x2="106.68" y2="168.66"/></g></g></g></svg>