<svg xmlns="http://www.w3.org/2000/svg" viewBox="0 0 87.74 157.98"><defs><style>.b9a83fcb-03ed-4d66-8334-f5acdf857757{fill:#7f94a0;}.a2ca9a8a-ed1a-43a6-883a-fef2d2a317df{fill:#00e0e1;}</style></defs><title>04 cogs rightt</title><g id="f76c3ec8-d387-4305-b00f-0e194a2cacfa" data-name="Layer 2"><g id="a985dd7a-a417-4206-b19f-fa4bdbc13070" data-name="Layer 1"><path id="b68fcfa6-2897-4671-997a-fb15b8631124" data-name="Cog 3" class="b9a83fcb-03ed-4d66-8334-f5acdf857757" d="M78.8,57.18l0-.07.26-.72.09-.25a.78.78,0,0,1,0-.14l.12-.37,0-.08.21-.68a1.83,1.83,0,0,0,.08-.25.84.84,0,0,0,0-.17l.12-.39s0-.06,0-.08c.06-.21.11-.41.16-.62h0a2.29,2.29,0,0,0,.08-.28c0-.07,0-.14.05-.22s.07-.25.1-.38,0-.07,0-.1.08-.34.11-.51l0-.12a1.89,1.89,0,0,0,0-.23l.06-.27c0-.12,0-.24.07-.36s0-.09,0-.13,0-.26.07-.39a2.38,2.38,0,0,1,0-.26l0-.17c0-.11,0-.21,0-.32s0-.21,0-.32,0-.12,0-.18l0-.26.06-.38a.78.78,0,0,1,0-.14c0-.12,0-.25,0-.37l0-.27a2,2,0,0,1,0-.23.49.49,0,0,1,0-.12c0-.17,0-.34,0-.51a.49.49,0,0,1,0-.12c0-.13,0-.26,0-.39s0-.15,0-.23,0-.19,0-.29l0-.63v-.09c0-.13,0-.27,0-.4a1.09,1.09,0,0,1,0-.18,2.43,2.43,0,0,1,0-.27v-.79c0-.13,0-.26,0-.39v-.15c0-.09,0-.18,0-.26l0-.77a.25.25,0,0,0,0-.08l6.55-2.46L84.93,27.77l-7,.81,0-.06c-.1-.24-.22-.47-.33-.7a2.56,2.56,0,0,0-.11-.24l-.06-.14c-.06-.11-.11-.23-.17-.35l0-.07-.33-.63-.12-.23L76.7,26c-.06-.12-.12-.24-.19-.36l0-.07L76.15,25,76,24.76l-.11-.19-.21-.34a.47.47,0,0,0-.06-.09l-.28-.44-.06-.1-.13-.2c0-.07-.1-.15-.15-.22l-.2-.31a.76.76,0,0,0-.08-.11,3.71,3.71,0,0,0-.23-.32l-.14-.22-.1-.15-.2-.25-.19-.27-.1-.13-.17-.21c-.07-.11-.15-.21-.23-.32a.44.44,0,0,1-.08-.11l-.23-.28-.17-.22-.15-.16L72.64,20c-.11-.13-.21-.27-.33-.4l-.06-.08-.27-.3-.14-.17-.19-.2h0c-.14-.16-.28-.32-.43-.47l0-.07L70.88,18l-.13-.13-.19-.19c-.16-.17-.33-.34-.5-.5l0-.06-.29-.27-.11-.1-.19-.18-.56-.52L68.8,16l2.88-6.36L61.52,3.45,57.18,8.94l-.06,0-.74-.26-.24-.09L56,8.51l-.37-.13-.07,0-.69-.21-.25-.08L54.45,8l-.39-.11-.08,0-.62-.17h0l-.27-.07-.21-.06-.39-.09-.09,0-.52-.12-.14,0-.21-.05-.27,0-.36-.07-.12,0-.4-.07L50.1,7l-.16,0-.32-.05-.32,0-.16,0-.28,0-.4-.05-.12,0-.36,0-.28,0-.22,0h-.14l-.53-.05h-.09l-.39,0-.23,0h-.29l-.66,0h-2.5l-.81,0h0L39.34,0,27.77,2.81l.81,6.94,0,0-.74.34-.24.11-.14.07-.35.17,0,0-.66.35-.23.12L26,11l-.36.2-.05,0c-.19.1-.38.22-.57.33h0l-.23.13-.2.12-.34.2-.07,0c-.15.09-.3.2-.46.29l-.12.08-.18.11-.22.15-.31.21-.09.06-.34.24-.23.16-.13.09-.26.19-.27.19-.12.09-.23.18a3.92,3.92,0,0,1-.32.25l-.1.07-.28.23-.22.17-.15.13-.12.1-.42.35-.06.05-.3.26-.17.15-.19.18,0,0-.49.44-.05,0-.29.28-.13.13-.18.18-.53.53,0,0-.27.28-.1.11-.18.2-.55.59,0,0L9.65,16.05,3.45,26.22l5.49,4.33v0c-.1.25-.19.51-.28.76l-.09.24c0,.05,0,.1-.05.15s-.09.24-.13.37v0c-.08.24-.15.48-.22.72a2.25,2.25,0,0,0-.08.24L8,33.29c0,.13-.08.26-.11.39v0c-.07.22-.12.44-.17.65v0a2.17,2.17,0,0,0-.07.24l-.06.22-.09.39,0,.06-.12.55,0,.15a1.46,1.46,0,0,1-.05.2,2,2,0,0,1,0,.26c0,.12,0,.24-.07.36s0,.07,0,.11,0,.28-.07.42a2.74,2.74,0,0,0,0,.28l0,.15c0,.1,0,.21-.05.32a3.06,3.06,0,0,0,0,.32c0,.05,0,.09,0,.14a2.54,2.54,0,0,1,0,.29l-.06.42s0,.07,0,.11,0,.24,0,.36l0,.28c0,.06,0,.13,0,.19a.81.81,0,0,1,0,.16c0,.18,0,.36-.05.54s0,.06,0,.08,0,.27,0,.4,0,.15,0,.23a2.09,2.09,0,0,1,0,.25v0c0,.23,0,.45,0,.67a.09.09,0,0,0,0,0v.41a1.09,1.09,0,0,0,0,.18v.26c0,.25,0,.5,0,.75v0c0,.13,0,.26,0,.39v.15c0,.09,0,.17,0,.26l0,.82v0L0,48.4,2.81,60l6.94-.82,0,0,.34.73.11.24.07.13.17.36,0,0c.11.23.23.45.35.67l.12.23.09.16c.06.12.12.24.19.36l0,0,.33.57,0,0,.12.22.12.19.2.34a.35.35,0,0,1,0,.08l.29.45.09.13.1.17.15.23.21.31L13,65l.23.33.17.24.08.12.19.26.19.26a1.47,1.47,0,0,0,.1.13l.17.22.26.34.06.08.23.29.17.21.14.17.09.1.36.44,0,0,.26.3.15.17.19.2h0l.45.5,0,0,.28.3a1.59,1.59,0,0,1,.13.13l.18.18.53.54,0,0,.28.27.11.1.19.18.6.55,0,0-2.89,6.37,10.17,6.19,4.33-5.48h0l.76.28.24.09.15,0,.37.13h0l.71.22.25.08.18,0,.39.12h0l.64.17h0l.26.07.22.05.39.1.07,0,.54.11.13,0,.22,0,.27.06.35.07.12,0,.41.07.26,0,.17,0,.32,0,.32,0,.16,0,.27,0,.4.06.13,0,.36,0,.27,0h.22l.14,0,.51,0H41l.39,0,.22,0h.29l.64,0h.67a2.25,2.25,0,0,1,.26,0h1.6l.77,0h.07l2.47,6.55L60,84.93l-.82-7,.08,0,.69-.33.24-.11.13-.06.35-.17.08,0,.63-.33.23-.12.16-.09.36-.19.07,0,.55-.32h0L63,76l.19-.11.34-.2.1-.07.43-.27.12-.08.18-.11.23-.16.31-.2.12-.08.31-.22a1.88,1.88,0,0,1,.23-.16l.13-.09.26-.2.26-.18.15-.12.2-.15a3.92,3.92,0,0,0,.32-.25l.11-.07.28-.23.21-.17.18-.15.09-.08.41-.34.08-.06.3-.27.17-.14.21-.2h0l.48-.43.06,0c.09-.1.19-.19.29-.29l.13-.12.18-.19.52-.5a.12.12,0,0,1,0,0l.27-.29.1-.11.18-.19c.17-.19.35-.37.52-.57a.12.12,0,0,0,0,0l6.37,2.89,6.19-10.17Zm-16,.23-.35.49c-.13.18-.28.35-.42.53s-.18.24-.28.35l-.49.57-.25.29-.52.54-.27.28-.53.5-.31.28-.52.45-.36.3-.48.38-.43.33-.45.31-.51.35-.39.25-.59.36-.36.2-.64.36-.34.17-.68.33-.36.15-.68.3-.42.16-.64.24-.56.18-.52.17c-.37.1-.74.21-1.12.3s-.75.17-1.13.24c-.17,0-.35.06-.53.09l-.59.1-.68.08-.44,0-.75,0-.38,0H43.73l-.73,0-.42,0-.68-.05-.47,0L40.82,67l-.54-.08-.53-.09c-.2,0-.41-.07-.61-.12l-.46-.1L38,66.44l-.39-.11-.71-.2L36.55,66l-.72-.25-.35-.14-.7-.28-.4-.18-.63-.28-.52-.27-.49-.25q-.5-.27-1-.57l0,0c-.32-.2-.64-.4-.95-.61l-.45-.32-.48-.34-.54-.43L29,61.79c-.2-.16-.38-.32-.57-.49l-.29-.25-.55-.53-.27-.26-.51-.54-.27-.3c-.16-.17-.31-.34-.45-.52s-.21-.23-.3-.35l-.39-.49L25,57.63l-.32-.45-.34-.51c-.09-.13-.17-.26-.25-.4s-.25-.38-.36-.58l-.21-.36-.35-.64c-.06-.11-.11-.23-.17-.35s-.23-.44-.33-.67-.11-.24-.16-.36-.16-.36-.23-.55l-.06-.13c-.06-.14-.11-.28-.16-.42l-.05-.12-.19-.52c-.07-.19-.12-.38-.19-.57s-.11-.34-.16-.51c-.11-.37-.21-.74-.3-1.12S21,48.62,21,48.24c0-.17-.06-.35-.09-.53s-.07-.39-.1-.59,0-.37-.07-.55,0-.08,0-.13,0-.29-.05-.44a.76.76,0,0,1,0-.15c0-.2,0-.39,0-.59l0-.39c0-.25,0-.51,0-.76v-.38c0-.25,0-.49,0-.73s0-.28,0-.42,0-.45.05-.68,0-.31.05-.47.05-.41.07-.61.05-.36.08-.54.06-.35.09-.53.07-.41.11-.61.07-.31.11-.46.1-.44.16-.66.07-.27.11-.4.13-.47.2-.71l.12-.36c.08-.24.16-.48.25-.71s.09-.25.14-.37.11-.27.16-.41.08-.19.11-.28.13-.27.19-.41a1.42,1.42,0,0,1,.08-.18l.2-.44.27-.53c.09-.16.16-.32.25-.48.18-.34.37-.67.57-1s.42-.66.63-1l.31-.44.35-.49.3-.38.12-.15.28-.36.2-.22.29-.34c.09-.09.17-.19.26-.29l.52-.54.27-.28.53-.5.3-.29.52-.44c.12-.1.24-.21.36-.3s.32-.26.49-.38l.43-.33.44-.31c.17-.12.34-.24.52-.35l.39-.25c.19-.12.39-.25.59-.36l.35-.2.65-.36.34-.17.68-.33.35-.16.69-.29.41-.16.65-.24.55-.18.53-.17c.36-.11.72-.2,1.09-.29l0,0,1.1-.23.55-.1.57-.09.69-.08.44-.05.75,0,.38,0,.76,0H44l.74,0h.4l.69.06.46,0,.62.07.53.08.54.09.61.11.46.11.66.16.4.11.7.2.37.12.71.25.36.14.69.27.41.19.63.28.53.27.48.25c.33.18.67.37,1,.58s.65.41,1,.62l.44.31.49.35.53.43.35.27.57.49.29.26.54.52.28.27c.17.17.33.35.5.53l.28.3.45.52.3.36.38.49.33.43.31.44.35.51c.08.14.17.27.25.4l.36.59c.07.11.13.23.2.35s.24.43.35.65l.18.34.33.68.15.35.3.69c0,.14.1.28.16.41l.24.65.18.56c.06.18.12.35.17.52.1.37.21.74.3,1.12s.17.75.24,1.12c0,.18.06.36.09.54s.07.39.1.59.05.45.08.68,0,.29,0,.44,0,.5,0,.74l0,.39c0,.25,0,.5,0,.76s0,.25,0,.38,0,.49,0,.73,0,.28,0,.41,0,.46-.05.69,0,.31,0,.47,0,.4-.07.61,0,.36-.08.54l-.09.53c0,.2-.07.41-.12.61s-.06.3-.1.45-.1.45-.16.67-.07.27-.11.4-.13.47-.2.7l-.12.37c-.08.24-.16.48-.25.71l-.14.36c-.09.23-.18.47-.28.69l-.18.41c-.09.21-.18.42-.28.63l-.28.53-.24.48c-.19.33-.38.67-.58,1s-.41.65-.62,1C63.06,57.12,63,57.26,62.84,57.41Z"/><path id="b2b34f6b-6997-483e-af4d-512608349ed9" data-name="Cog 2" class="a2ca9a8a-ed1a-43a6-883a-fef2d2a317df" d="M80.19,137.72a.08.08,0,0,1,0-.05l.17-.48.06-.16,0-.1.09-.24v-.05c.05-.15.1-.3.14-.45l.06-.17,0-.12a2.41,2.41,0,0,1,.08-.25s0,0,0-.06.07-.27.11-.41h0c0-.06,0-.12,0-.18a.83.83,0,0,1,0-.15l.06-.25s0,0,0-.07,0-.22.08-.34a.31.31,0,0,1,0-.08l0-.15a.85.85,0,0,1,0-.17c0-.08,0-.16,0-.24s0-.06,0-.09a2.34,2.34,0,0,0,0-.26c0-.06,0-.11,0-.17a.5.5,0,0,1,0-.12l0-.21,0-.21s0-.08,0-.12,0-.11,0-.17l0-.25s0-.07,0-.1a1.94,1.94,0,0,0,0-.24,1.1,1.1,0,0,0,0-.18c0-.05,0-.1,0-.15v-.08c0-.12,0-.23,0-.34v-.08c0-.09,0-.17,0-.26s0-.1,0-.15a1.21,1.21,0,0,1,0-.19c0-.14,0-.28,0-.42v-.06a2.44,2.44,0,0,0,0-.27v-1.35c0-.17,0-.34,0-.51v0l4.33-1.63-1.86-7.67-4.6.53,0,0c-.07-.16-.15-.31-.22-.46l-.07-.16,0-.09c0-.08-.07-.16-.11-.23l0,0c-.07-.14-.14-.28-.22-.42a1.09,1.09,0,0,0-.08-.15.37.37,0,0,0,0-.11c0-.08-.09-.16-.13-.24l0,0-.21-.36-.1-.17-.07-.12c-.05-.08-.09-.16-.14-.23l0-.06-.18-.29-.05-.07-.08-.13-.1-.15-.13-.2a.35.35,0,0,1-.05-.08l-.16-.21-.09-.14-.07-.1-.13-.17-.12-.18-.07-.08-.11-.15-.16-.21-.06-.07-.15-.19-.11-.14-.09-.11-.06-.07-.22-.27s0,0,0,0-.11-.13-.17-.2l-.1-.11-.12-.13h0c-.09-.11-.19-.21-.28-.31l0,0-.19-.19-.08-.09-.12-.12c-.11-.11-.22-.23-.34-.34l0,0-.19-.18-.07-.07L74,110.8l-.37-.34,0,0,1.91-4.22-6.74-4.11-2.88,3.64,0,0-.49-.17-.16-.06-.09,0-.25-.08h0c-.15-.06-.31-.1-.46-.15l-.16,0-.12,0-.26-.08h-.05l-.41-.11h0l-.17,0-.15,0-.25-.06-.07,0-.34-.07-.09,0-.14,0-.18,0-.24,0H61.6l-.26,0-.18,0-.11,0-.21,0-.21,0h-.11l-.18,0-.27,0H60l-.24,0-.18,0h-.24l-.35,0h-.67l-.43,0h-.43a1.08,1.08,0,0,0-.18,0H56.22l-.54,0h0L54,99.8l-7.67,1.86.54,4.61h0l-.49.23-.15.07-.09,0-.24.12h0l-.44.23-.16.08-.1.06-.24.13h0l-.38.23h0l-.16.09-.13.08-.22.13,0,0-.3.2-.08,0-.12.07-.15.1-.21.14-.05,0-.24.16-.15.11-.08.06-.18.12a1.09,1.09,0,0,1-.17.13l-.08.06-.15.12-.22.16-.06,0-.19.15-.14.12a.39.39,0,0,0-.1.08l-.08.07-.28.23,0,0-.2.18a.52.52,0,0,0-.11.1.69.69,0,0,0-.13.11l0,0-.32.29,0,0-.19.18-.09.09-.12.12-.35.34,0,0a1.54,1.54,0,0,0-.17.19l-.08.07-.11.13c-.12.13-.25.25-.36.39l0,0-4.23-1.92-4.1,6.75,3.63,2.87v0c-.07.17-.13.34-.19.51l-.06.16,0,.1a2.25,2.25,0,0,0-.08.24v0l-.15.47a1.09,1.09,0,0,0-.05.17s0,.08,0,.11,0,.18-.07.26v0l-.12.43v0l0,.17,0,.14c0,.09,0,.17-.07.26v0c0,.12,0,.24-.08.36a.43.43,0,0,1,0,.11l0,.12,0,.18a2,2,0,0,0,0,.24.17.17,0,0,0,0,.07,2.74,2.74,0,0,0-.05.28c0,.06,0,.12,0,.19s0,.06,0,.09a1.7,1.7,0,0,0,0,.22l0,.21a.28.28,0,0,0,0,.09l0,.2c0,.09,0,.18,0,.28a.13.13,0,0,1,0,.06c0,.09,0,.17,0,.25a1.1,1.1,0,0,0,0,.18.57.57,0,0,0,0,.13.34.34,0,0,0,0,.1c0,.12,0,.24,0,.36V127c0,.08,0,.17,0,.26s0,.1,0,.15v.19c0,.15,0,.29,0,.44v0a2.44,2.44,0,0,1,0,.27v.82a2.09,2.09,0,0,0,0,.25v.11a1,1,0,0,0,0,.17c0,.18,0,.36,0,.54v0l-4.34,1.63,1.86,7.67,4.61-.53v0l.22.48.08.16,0,.09.11.23,0,0c.07.15.15.29.23.44l.08.15.06.11.12.24,0,0,.22.38v0l.09.15.08.12.13.23,0,.05.19.3.06.09.07.11.1.15c0,.07.09.14.14.2l0,.07c0,.07.11.14.16.22l.11.16.05.08.13.17.13.18.06.08.11.14.17.23.05.06.15.19a1.71,1.71,0,0,1,.11.14l.09.11.06.07.24.28,0,0c.06.07.12.13.17.2a.52.52,0,0,1,.1.11l.12.13h0l.3.33,0,0,.19.2.08.09.12.12.36.35v0l.19.18.08.07.12.12.4.36v0l-1.91,4.22,6.74,4.11,2.88-3.64h0l.5.18.17.06.09,0,.25.09h0l.47.15.16,0,.12,0,.26.08h0l.42.11h0l.18,0,.14,0,.26.06h0l.35.08.09,0,.14,0,.18,0,.24.05h.08l.26.05.18,0,.11,0,.21,0,.21,0h.11l.18,0,.27,0h.08l.24,0,.18,0h.24l.34,0h.68l.42,0h1.68l.51,0h0L60,158l7.67-1.87-.54-4.6,0,0,.46-.22.16-.07.09,0,.23-.11,0,0,.41-.22.16-.08.11-.06.23-.13,0,0,.36-.21h0l.16-.09.13-.08L70,150l.07-.05.28-.18.08,0,.13-.08.15-.1.2-.13.08-.06.2-.14.16-.11.09-.06.17-.13.17-.12.1-.07.13-.11.22-.16.06-.05.19-.15.14-.12.12-.1.06-.05.28-.22a.1.1,0,0,1,0,0l.19-.18a.52.52,0,0,0,.11-.1.86.86,0,0,0,.14-.13h0c.11-.09.22-.18.32-.28l0,0,.19-.18.09-.09.12-.12.35-.34,0,0,.18-.19L75,146l.11-.13.35-.37,0,0,4.22,1.91,4.1-6.74Zm-10.58.15c-.08.1-.15.21-.23.32l-.28.36a2.11,2.11,0,0,0-.19.23l-.32.37-.17.19-.35.37-.18.18-.35.33-.2.19-.34.3-.24.2-.33.25-.28.21-.3.21-.33.23-.27.17-.38.24-.24.13-.43.24-.23.11-.45.22-.23.1-.46.2-.27.1-.43.16c-.12.05-.25.08-.37.12l-.35.11c-.24.08-.49.14-.73.2l-.75.17-.36,0-.39.07-.45.05-.29,0-.49,0-.26,0H56.17l-.45,0-.31,0-.41-.05-.35-.05-.36-.06-.4-.08-.3-.07-.45-.1-.26-.08-.47-.13-.23-.08-.48-.17-.24-.09-.46-.18-.27-.12-.41-.19-.35-.18-.32-.17L49,142.1h0l-.63-.41-.3-.21-.31-.23c-.13-.09-.25-.19-.36-.28a2.11,2.11,0,0,1-.23-.19l-.38-.32-.19-.17-.36-.35-.18-.17-.34-.36-.18-.2-.3-.34-.2-.24-.25-.32-.22-.29-.21-.29-.23-.34c-.05-.09-.11-.18-.17-.27s-.16-.25-.23-.38l-.14-.24c-.08-.14-.16-.28-.23-.43l-.12-.22-.21-.45-.11-.24-.15-.36a.36.36,0,0,1,0-.09c0-.09-.07-.19-.11-.28l0-.08-.13-.34-.12-.38c0-.12-.08-.23-.11-.34s-.14-.49-.2-.74-.11-.5-.16-.75l-.06-.35-.06-.39c0-.13,0-.25,0-.37v-.08l0-.3a.38.38,0,0,0,0-.1l0-.39c0-.09,0-.17,0-.26s0-.33,0-.5,0-.17,0-.25,0-.33,0-.49a2.44,2.44,0,0,1,0-.27l0-.46,0-.31c0-.13,0-.27.05-.4s0-.24,0-.36l.06-.35c0-.14,0-.27.07-.41s0-.2.07-.3.07-.3.11-.44,0-.18.07-.27.09-.31.14-.46a2.25,2.25,0,0,1,.08-.24c0-.16.1-.32.16-.48l.09-.24c0-.09.08-.18.11-.27s0-.12.08-.19l.12-.27a.61.61,0,0,0,.05-.12c0-.09.09-.19.14-.29a3.84,3.84,0,0,1,.18-.35,3.18,3.18,0,0,1,.16-.32c.12-.22.25-.45.38-.66s.27-.44.42-.65.13-.19.2-.29l.24-.32c.06-.09.13-.17.19-.25l.09-.11.18-.23.13-.15.19-.22.18-.2.34-.36.18-.18.35-.33.2-.19.34-.3.25-.2.32-.25.28-.22.3-.2a4,4,0,0,1,.34-.23l.26-.17.39-.24.23-.13.43-.24.23-.11.45-.22.23-.1.46-.2.27-.1.43-.16c.12,0,.24-.08.37-.12l.35-.12.72-.19h0l.73-.16.37-.06.38-.06.46,0,.28,0,.5,0,.25,0h1.52l.45,0,.31,0,.41,0,.35,0,.36.06.4.08.31.07.44.1.26.08.47.13.24.08.47.16.24.1.46.18.27.12.41.19.36.18.32.16c.22.13.44.25.66.39s.43.27.64.41l.29.21.33.23.35.28.24.18.37.33.19.17.36.34c.06.06.13.12.18.18l.34.35.19.21.29.34.2.24a3.92,3.92,0,0,1,.25.32l.22.29.21.29.23.34.17.26c.08.13.16.26.23.39l.14.24c.08.14.16.28.23.42l.12.23.22.45a2.44,2.44,0,0,0,.1.24c.07.15.13.3.19.45s.07.18.11.28l.16.42.12.38c0,.11.08.23.11.34s.14.49.2.74.11.5.16.75l.06.35c0,.13,0,.26.07.39s0,.3,0,.45l0,.3c0,.16,0,.33,0,.49s0,.17,0,.26,0,.33,0,.5a2.09,2.09,0,0,1,0,.25c0,.16,0,.33,0,.49s0,.18,0,.27,0,.3,0,.45l0,.32c0,.13,0,.27-.05.4s0,.24,0,.36,0,.23-.06.35,0,.27-.07.4,0,.21-.07.31-.07.29-.11.44,0,.18-.07.26-.09.32-.14.47a2.25,2.25,0,0,1-.08.24c0,.16-.1.32-.16.48l-.09.24c-.06.15-.12.3-.19.45s-.08.18-.12.27l-.18.42-.18.35-.17.32c-.12.22-.25.44-.38.66s-.27.44-.41.65Z"/></g></g></svg>