<svg xmlns="http://www.w3.org/2000/svg" xmlns:xlink="http://www.w3.org/1999/xlink" viewBox="0 0 185.09 142.46"><defs><style>.e9e204b2-4909-40d2-925d-282e55418b6b{fill:#bcf0f2;}.fd0dcc2c-f51b-4ca6-88ae-7c18094439fb{fill:#7f94a0;}.e14cdffe-d49c-40c1-ace8-c63891c24092{fill:#afc4d1;}.fbb04304-1d22-4164-8f6c-81f0fef61b3a{clip-path:url(#f286b772-ef87-493b-9baa-a798af5c28f9);}.e02852cb-b58c-4d4e-af95-d9f9d47e2183{fill:#526672;}.b95c8041-4765-4b42-953f-c3e88a9561f8{fill:#f0d1cd;}.ba5c66ed-0756-4ba0-8378-e71aa2f5c4d4{fill:#293d48;}.acd7c5cc-5c85-422a-ba34-cc0b0f907958{fill:#3f2724;}.abe4f425-b88c-4d4f-a146-5f6c53d63cc1{fill:#00e0e1;}.a25e3ee4-827f-4768-88a4-4e821f05bfa1{fill:#e1f7ff;}.a68f3c49-c324-4814-a79a-832e4f297cc7{fill:#fff;}</style><clipPath id="f286b772-ef87-493b-9baa-a798af5c28f9"><rect class="e9e204b2-4909-40d2-925d-282e55418b6b" x="113.73" y="20.35" width="62.07" height="74.9"/></clipPath></defs><title>04 ID Card</title><g id="eec1babd-e2be-416e-a133-053504d5fbba" data-name="Layer 2"><g id="f2bc1b1c-dba6-428c-b005-7fc59c680615" data-name="Layer 1"><g id="b045c3d3-8519-4e5c-99ab-8042cfdb7dd9" data-name="ID Card"><path class="fd0dcc2c-f51b-4ca6-88ae-7c18094439fb" d="M185.09,6.62A6.62,6.62,0,0,0,178.47,0H6.62A6.62,6.62,0,0,0,0,6.62v6.93H185.09Z"/><path class="e14cdffe-d49c-40c1-ace8-c63891c24092" d="M0,13.55V135.84a6.62,6.62,0,0,0,6.62,6.62H178.47a6.62,6.62,0,0,0,6.62-6.62V13.55Z"/><rect class="e9e204b2-4909-40d2-925d-282e55418b6b" x="113.73" y="20.35" width="62.07" height="74.9"/><g class="fbb04304-1d22-4164-8f6c-81f0fef61b3a"><path class="e02852cb-b58c-4d4e-af95-d9f9d47e2183" d="M123.47,75.1h37.71a0,0,0,0,1,0,0v41.66a18.85,18.85,0,0,1-18.85,18.85h0a18.85,18.85,0,0,1-18.85-18.85V75.1a0,0,0,0,1,0,0Z" transform="translate(284.65 210.72) rotate(180)"/><path class="b95c8041-4765-4b42-953f-c3e88a9561f8" d="M133.42,56.34c4.57,11.22,16.09,17.14,23,14.35s6.45-13.23,1.89-24.45S145.81,31.57,139,34.36,128.86,45.12,133.42,56.34Z"/><path class="b95c8041-4765-4b42-953f-c3e88a9561f8" d="M135.38,56.74,148,55.5c.17,1.74,1.5,18.25.85,24.47-.46,1.92-3.62,2.8-7,2-3.08-.74-5.32-2.62-5.4-4.38h0C136.81,73.81,136,62.8,135.38,56.74Z"/><path class="ba5c66ed-0756-4ba0-8378-e71aa2f5c4d4" d="M120,135.62c1.64-9.84,7-21.48,16-37.68,7.73-13.82-7.37-20-11.13-11.32-8.81,20.23-14.63,35.65-16.21,49Z"/><path class="acd7c5cc-5c85-422a-ba34-cc0b0f907958" d="M159,58.79a5.55,5.55,0,0,0-3.74.37c-.39.24-.71.58-1.11.79s-.59.23-.88.37a5,5,0,0,0-1.55,1.39c-.65.75-2.19,2.89-.36,3.25a2.07,2.07,0,0,0,1.24-.2c1.29-.59,2.06-2,3.32-2.62a6.29,6.29,0,0,1,.71-.3,23.83,23.83,0,0,1,2.34-.79,3.38,3.38,0,0,0,1-.39,1,1,0,0,0,.51-.91C160.43,59.1,159.63,58.87,159,58.79Z"/><path class="acd7c5cc-5c85-422a-ba34-cc0b0f907958" d="M154.88,37c-.28-.39-.57-.71-.86-1a2.78,2.78,0,0,0,.61-2.67c-.5-1.08-1.92-1.28-3.11-1.33a6,6,0,0,0-.4-3.13,2.83,2.83,0,0,0-2.48-1.71c-1,0-1.59.34-2.44-.38-.54-.45-.72-1.27-1.32-1.67s-1.65.29-1.88,1.11a12.87,12.87,0,0,1-.49,2.5,6.2,6.2,0,0,1-1.42,1.52,8,8,0,0,0-1.71,2.48,17.34,17.34,0,0,0-6.48,4.18,13,13,0,0,0-2.46,3.89A2.18,2.18,0,0,1,130,41a6.88,6.88,0,0,1-1,.24,4.38,4.38,0,0,0-3.11,3.43,7.15,7.15,0,0,0,.88,4.71,4.16,4.16,0,0,1,.81,2.46,4.93,4.93,0,0,1-.4,1.09,4,4,0,0,0,.07,3.3A3,3,0,0,0,130,57.81a4.68,4.68,0,0,0,1.16-.28c.6-.2,1.41-.42,2.22-.69a7.35,7.35,0,0,0,5.32-4.31c2.94-5.86,2.89-.61,11.5-4.68S154.88,37,154.88,37Z"/><path class="b95c8041-4765-4b42-953f-c3e88a9561f8" d="M129.94,61.44c1.06,2.62,5,4.9,6.91,4.13s1.5-3.08.44-5.69-3.59-4.43-5.48-3.66S128.88,58.83,129.94,61.44Z"/><path class="acd7c5cc-5c85-422a-ba34-cc0b0f907958" d="M138.05,62s-1.57-.41-.37,1.78,9,9.5,16.93,9,8.07-8,7.88-9.56-.92-2.27-2,1.17a8.05,8.05,0,0,1-8.12,5.75c-3.63-.34-9.91-3.79-11.69-5.29A16.43,16.43,0,0,1,138.05,62Z"/></g><circle class="abe4f425-b88c-4d4f-a146-5f6c53d63cc1" cx="8.72" cy="6.73" r="2.79" transform="translate(-0.76 1.12) rotate(-7.02)"/><circle class="a25e3ee4-827f-4768-88a4-4e821f05bfa1" cx="17.83" cy="6.73" r="2.79" transform="translate(-1.22 7.34) rotate(-22.5)"/><circle class="ba5c66ed-0756-4ba0-8378-e71aa2f5c4d4" cx="26.94" cy="6.73" r="2.79" transform="translate(-0.53 10.82) rotate(-22.5)"/><path class="ba5c66ed-0756-4ba0-8378-e71aa2f5c4d4" d="M80.12,30.2H17A1.92,1.92,0,0,1,15,28.27h0A1.92,1.92,0,0,1,17,26.35H80.12a1.93,1.93,0,0,1,1.93,1.92h0A1.93,1.93,0,0,1,80.12,30.2Z"/><path class="a68f3c49-c324-4814-a79a-832e4f297cc7" d="M99.46,42.71H17A1.92,1.92,0,0,1,15,40.79h0A1.92,1.92,0,0,1,17,38.87h82.5a1.92,1.92,0,0,1,1.92,1.92h0A1.92,1.92,0,0,1,99.46,42.71Z"/><path class="a68f3c49-c324-4814-a79a-832e4f297cc7" d="M99.46,50.39H17A1.92,1.92,0,0,1,15,48.47h0A1.92,1.92,0,0,1,17,46.55h82.5a1.92,1.92,0,0,1,1.92,1.92h0A1.92,1.92,0,0,1,99.46,50.39Z"/><path class="a68f3c49-c324-4814-a79a-832e4f297cc7" d="M99.46,58.07H17A1.92,1.92,0,0,1,15,56.15h0A1.93,1.93,0,0,1,17,54.22h82.5a1.93,1.93,0,0,1,1.92,1.93h0A1.92,1.92,0,0,1,99.46,58.07Z"/><path class="a68f3c49-c324-4814-a79a-832e4f297cc7" d="M169.87,111.55H17A1.92,1.92,0,0,1,15,109.63h0A1.92,1.92,0,0,1,17,107.7H169.87a1.92,1.92,0,0,1,1.92,1.93h0A1.92,1.92,0,0,1,169.87,111.55Z"/><rect class="a68f3c49-c324-4814-a79a-832e4f297cc7" x="15.04" y="115.38" width="156.75" height="3.84" rx="1.92"/><rect class="a25e3ee4-827f-4768-88a4-4e821f05bfa1" x="15.04" y="123.06" width="118.11" height="3.84" rx="1.92"/><path class="a68f3c49-c324-4814-a79a-832e4f297cc7" d="M99.46,65.75H17A1.92,1.92,0,0,1,15,63.82h0A1.92,1.92,0,0,1,17,61.9h82.5a1.92,1.92,0,0,1,1.92,1.92h0A1.92,1.92,0,0,1,99.46,65.75Z"/><rect class="a68f3c49-c324-4814-a79a-832e4f297cc7" x="15.04" y="69.58" width="86.34" height="3.84" rx="1.92"/><rect class="a25e3ee4-827f-4768-88a4-4e821f05bfa1" x="15.04" y="77.26" width="74.66" height="3.84" rx="1.92"/><rect class="a25e3ee4-827f-4768-88a4-4e821f05bfa1" x="15.04" y="84.93" width="74.66" height="3.84" rx="1.92"/></g></g></g></svg>