<svg xmlns="http://www.w3.org/2000/svg" viewBox="0 0 185.23 240.14"><defs><style>.ae5b3443-eeff-4bfc-b286-6d75db21b1a7{fill:#526672;}.bbc86a6e-5cb4-482f-a86d-8e108e33ab6e{fill:#1a1c2e;}.bf2a2083-0ec1-41ff-9382-3704f04d4904{fill:#0aa0b9;}.f4657448-4c49-4f13-a5f5-18e0cb371dcf{fill:#e3f6ff;}.be2f8ff0-fc71-4d34-8ed7-65990569e972{fill:#fff;}.b90f2a91-0656-45aa-b764-39b63e25e038{fill:#ffd8b6;}.b6477b08-2351-43f2-8e04-b1f85d481daa{fill:#ff5d4b;}.a231fd4b-c10e-42c5-8ca1-97cdbed02829{fill:none;stroke:#000;stroke-linecap:round;stroke-linejoin:round;stroke-width:0.99px;}</style></defs><title>04 Man Right and Note</title><g id="bcbc649d-e619-4e1f-95bb-07d1e656aacc" data-name="Layer 2"><g id="bb7208ee-bee3-418e-a8c1-d577cdb5f3fd" data-name="Layer 1"><g id="e877edc1-6475-4a03-b466-9eadd7377034" data-name="Man Right and Note"><path class="ae5b3443-eeff-4bfc-b286-6d75db21b1a7" d="M175.91,216.15a3.92,3.92,0,0,0,.25-.32,2,2,0,0,0-.64-2.78l-12.29-7.69a2,2,0,0,0-2.13,3.42l12.28,7.68A2,2,0,0,0,175.91,216.15Z"/><path class="bbc86a6e-5cb4-482f-a86d-8e108e33ab6e" d="M175.7,212.48s4.62,2.66,3.86,3.66-12.73,14.4-13.4,13.9c-2.31-1.7,5.9-14.15,7.1-15S175.05,212.08,175.7,212.48Z"/><path d="M118.18,62.79s0,.07-.08.16A.73.73,0,0,1,118.18,62.79Z"/><path d="M118.54,70.84C107.53,96,90.9,96.64,88,82.89h6.8c2.3,6.71,10.59,2.6,16.28-18.25,1.42-5.24,4-3.88,6.76-1.18S121,65.22,118.54,70.84Z"/><path class="ae5b3443-eeff-4bfc-b286-6d75db21b1a7" d="M114.39,237.18a2,2,0,0,0,.41,0,2,2,0,0,0,1.57-2.38l-2.89-14.19a2,2,0,1,0-4,.8l2.89,14.2A2,2,0,0,0,114.39,237.18Z"/><path class="ae5b3443-eeff-4bfc-b286-6d75db21b1a7" d="M110,228.92a51.07,51.07,0,0,0,6.41-.59C110,194.2,105.16,148.4,122.23,116.5c-5.18-2.54-10.4-5-15.62-7.49C94.13,136.8,104.76,199.56,110,228.92Z"/><path class="ae5b3443-eeff-4bfc-b286-6d75db21b1a7" d="M167.05,214.71c1.42-1.73,2.79-3.49,4.06-5.33-38.93-26.1-52.24-50.72-44.18-98.47-5.81-1-11.66-1.83-17.5-2.63C110.87,163.88,124.12,182.13,167.05,214.71Z"/><path class="bbc86a6e-5cb4-482f-a86d-8e108e33ab6e" d="M116.91,234.5s1.25,5.18,0,5.33-19.2.69-19.3-.15c-.36-2.84,14.31-5.46,15.75-5.18S116.75,233.75,116.91,234.5Z"/><rect class="bf2a2083-0ec1-41ff-9382-3704f04d4904" width="185.23" height="82.45"/><rect class="f4657448-4c49-4f13-a5f5-18e0cb371dcf" x="54.65" y="-48.13" width="75.94" height="178.71" transform="translate(133.84 -51.39) rotate(90)"/><path class="bf2a2083-0ec1-41ff-9382-3704f04d4904" d="M177.08,67.11V15.34a7.19,7.19,0,0,1-7.19-7.19H15.34a7.19,7.19,0,0,1-7.19,7.19V67.11a7.19,7.19,0,0,1,7.19,7.2H169.89A7.19,7.19,0,0,1,177.08,67.11Z"/><path class="f4657448-4c49-4f13-a5f5-18e0cb371dcf" d="M119.33,41.23a46.33,46.33,0,0,1-3.41,17.7c-4.58,11-13.3,18.47-23.3,18.47S73.89,70,69.32,58.93a46,46,0,0,1-3.43-17.7,46,46,0,0,1,3.43-17.71c4.57-11,13.28-18.47,23.3-18.47s18.72,7.45,23.3,18.47A46.38,46.38,0,0,1,119.33,41.23Z"/><circle class="f4657448-4c49-4f13-a5f5-18e0cb371dcf" cx="150.63" cy="41.23" r="10.92" transform="translate(85.81 183.31) rotate(-80.78)"/><circle class="f4657448-4c49-4f13-a5f5-18e0cb371dcf" cx="32.05" cy="41.23" r="10.92" transform="translate(-15.44 62.94) rotate(-76.72)"/><path class="f4657448-4c49-4f13-a5f5-18e0cb371dcf" d="M119.33,41.23a46.33,46.33,0,0,1-3.41,17.7H69.32a46,46,0,0,1-3.43-17.7,46,46,0,0,1,3.43-17.71h46.6A46.38,46.38,0,0,1,119.33,41.23Z"/><path d="M101.94,120.61c3.4-1.14,10.42.68,13.8,0,5-1,7.43-.64,12.36-.35.63-15.45.09-31.62,1.22-46.77.24-3.18.4-5.08-.19-7.47a9.83,9.83,0,0,0-4.64-6.6c-2.66-1.46-6.06-1.35-9.5.41a7.74,7.74,0,0,0-1.5.9c-2,1.56-3.92,4.61-4.22,10.35C108.51,85.42,104.65,105.7,101.94,120.61Z"/><path class="be2f8ff0-fc71-4d34-8ed7-65990569e972" d="M113.49,60.73l.29,9.67.36,12.14,5-11.28,5.3-11.84c-2.66-1.46-6.06-1.35-9.5.41A7.74,7.74,0,0,0,113.49,60.73Z"/><path class="b90f2a91-0656-45aa-b764-39b63e25e038" d="M124.47,49.65c-3.06,4.71-9.2,6.14-12.41,4.05s-2.27-6.91.79-11.61,7.22-5.41,10.43-3.32S127.53,45,124.47,49.65Z"/><path class="b90f2a91-0656-45aa-b764-39b63e25e038" d="M124.91,53.31c-.77,1.19-2.94,1.94-3.8,1.38s-.45-1.66.32-2.85,2.2-1.85,3.06-1.29A1.83,1.83,0,0,1,124.91,53.31Z"/><path class="b90f2a91-0656-45aa-b764-39b63e25e038" d="M123,49.21l-6.37-.62c-.08.87-.75,9.18-.43,12.31.24,1,1.83,1.4,3.55,1,1.55-.37,2.68-1.32,2.72-2.2h0A84.38,84.38,0,0,1,123,49.21Z"/><path class="bbc86a6e-5cb4-482f-a86d-8e108e33ab6e" d="M126.61,47.28s1-4-.74-6.82-6.86-5.85-10.87-2c0,0-2.6,3,1.27,5.82s4.34.23,5.23,3.41,3.57,2.66,3.69,3.34Z"/><polygon class="b6477b08-2351-43f2-8e04-b1f85d481daa" points="113.78 70.4 114.14 82.55 119.19 71.26 118.99 63.89 116.76 63.89 113.78 70.4"/><rect x="140.45" y="138.54" width="37.25" height="28.4" transform="translate(337.38 282.52) rotate(172.21)"/><polyline class="a231fd4b-c10e-42c5-8ca1-97cdbed02829" points="163.33 139.53 162.22 131.44 150.31 133.07 151.59 142.39"/><path class="b90f2a91-0656-45aa-b764-39b63e25e038" d="M155.21,121.67s-.84,10.87,1.17,12.75,4-8.39,1-14.29Z"/><path d="M154.1,123.11c1.63-.38,3.23-.81,4.82-1.28-8-27-10.14-35.06-28.89-56.13-2.87-3.23-3.83-2.81-6.26,0-.67-.21-.63-.26,0,0-2.44,2.77-1.93,3.52,1.17,6.69C145.25,93.07,142.89,97.13,154.1,123.11Z"/><path class="bf2a2083-0ec1-41ff-9382-3704f04d4904" d="M83.89,50.05V47.87a.8.8,0,0,1,.79-.79h.2c1.59,0,2.81-1.74,2.81-4.55V39a.45.45,0,0,0-.39-.48H85a.79.79,0,0,1-.79-.79v-2a.8.8,0,0,1,.79-.8H87.3a.37.37,0,0,0,.39-.39V29.43a6.71,6.71,0,0,1,13.41,0v.44a.79.79,0,0,1-.79.79H98.18a.79.79,0,0,1-.79-.79v-.44a2.91,2.91,0,0,0-3-2.92,2.85,2.85,0,0,0-2.93,2.92V34.5a.37.37,0,0,0,.4.39h5.38a.8.8,0,0,1,.79.8v2a.79.79,0,0,1-.79.79H91.85a.45.45,0,0,0-.4.48v3.56c0,1.42-.2,3.44-1,4.23-.16.16-.08.32.16.32h10a.8.8,0,0,1,.79.79v2.18a.8.8,0,0,1-.79.79h-16A.81.81,0,0,1,83.89,50.05Z"/></g></g></g></svg>