<svg xmlns="http://www.w3.org/2000/svg" viewBox="0 0 181.17 229.84"><defs><style>.a9f753fc-8e40-4bd3-9b15-e9c85f65b5a1{fill:#f0d1cd;}.bcbacd2e-394b-47cb-93b4-c236aa13fd2d{fill:#49e1e6;}.bbd92343-2b25-4f41-a1d8-c21a0c0d39df{fill:#e1f7ff;}.b40b0247-7d3e-4c93-9d7d-55b49a7f6ac6{fill:#526672;}.ae5714e5-ed11-4760-8d17-494137716a6a{fill:#3f2724;}.aefac5e8-e5bc-44f7-ac8a-3d7fa583dae8{fill:#1a1c2e;}.ba8b0466-0645-460d-bc55-cdf65e77c3d9{fill:#007288;}</style></defs><title>04 Man Arms Up</title><g id="ae066cc7-4fb8-4a51-9695-87cde63395c2" data-name="Layer 2"><g id="bd0046a6-5f06-4168-945e-5a540197ba87" data-name="Layer 1"><g id="fad9a8c4-2bbb-4cf1-8715-50be127c27e1" data-name="Man Arms Up"><path class="a9f753fc-8e40-4bd3-9b15-e9c85f65b5a1" d="M41.26,225.86a1.76,1.76,0,0,0,.4.07,2,2,0,0,0,2.13-1.83l1.06-14.28a2,2,0,1,0-4-.3L39.82,223.8A2,2,0,0,0,41.26,225.86Z"/><path class="bcbacd2e-394b-47cb-93b4-c236aa13fd2d" d="M44.68,224.09s1.3,5.11.07,5.26-19,.94-19.08.12c-.39-2.81,14.08-5.6,15.51-5.33S44.51,223.35,44.68,224.09Z"/><path class="a9f753fc-8e40-4bd3-9b15-e9c85f65b5a1" d="M110.75,56.33s5.64-8.58,8.22-8.82-1.87,8.54-7.46,11.23Z"/><path class="bbd92343-2b25-4f41-a1d8-c21a0c0d39df" d="M110.41,54.86c1,1.33,2,2.59,3,3.87-20,16.17-35.33,17.75-56.72,4.47-3.27-2-3-3.35-1-5.9-.24-.55-.27-.51,0,0,1.95-2.55,3-2.6,6.29-.54C83.7,70.22,88.26,67.34,110.41,54.86Z"/><path class="a9f753fc-8e40-4bd3-9b15-e9c85f65b5a1" d="M81.85,216a1.7,1.7,0,0,1-.35-.19A2,2,0,0,1,81,213l8.07-11.83a2,2,0,0,1,3.29,2.25l-8.07,11.83A2,2,0,0,1,81.85,216Z"/><path class="b40b0247-7d3e-4c93-9d7d-55b49a7f6ac6" d="M89.2,210.34a47.65,47.65,0,0,1-6.06-3c23.26-49.4,24-69.87-28.75-94.81,2.45-5.4,5.19-10.65,7.93-15.91C114.37,128.94,112.93,158.21,89.2,210.34Z"/><path class="b40b0247-7d3e-4c93-9d7d-55b49a7f6ac6" d="M38.61,218.22a65.7,65.7,0,0,0,6.57.59c-1.89-34.6,7.29-83.66,24.08-114.63-5.13-2.6-10.3-5.11-15.48-7.6C41.46,129.57,39,183.72,38.61,218.22Z"/><path class="bcbacd2e-394b-47cb-93b4-c236aa13fd2d" d="M80.58,212.6s-3.12,4.24-2,4.85,17.23,8,17.65,7.26c1.41-2.45-11-10.46-12.37-10.75S81,212,80.58,212.6Z"/><path class="bbd92343-2b25-4f41-a1d8-c21a0c0d39df" d="M50.4,103.74c2.75-1,6.72-1.92,13.64-2.18a72.12,72.12,0,0,1,11.28.32C63.21,78.64,61.12,67.07,62.21,60.54A8.54,8.54,0,0,0,58.42,52l-1.14-.79c-5.29-3.63-13-1-14.3,4.82a43.47,43.47,0,0,0-.9,6.72C41.39,74.78,43.17,87.84,50.4,103.74Z"/><path class="a9f753fc-8e40-4bd3-9b15-e9c85f65b5a1" d="M47.67,40.87C50,46.68,56,49.74,59.56,48.3s3.35-6.86,1-12.67-6.45-7.6-10-6.15S45.31,35.05,47.67,40.87Z"/><path class="a9f753fc-8e40-4bd3-9b15-e9c85f65b5a1" d="M48.69,41.07l6.56-.64c.09.9.77,9.45.44,12.68-.24,1-1.88,1.45-3.65,1-1.6-.38-2.76-1.35-2.8-2.27h0A87.92,87.92,0,0,0,48.69,41.07Z"/><path class="ae5714e5-ed11-4760-8d17-494137716a6a" d="M60.92,42.13a2.91,2.91,0,0,0-1.94.19c-.2.13-.36.3-.57.42l-.46.19a2.71,2.71,0,0,0-.8.71c-.34.39-1.14,1.5-.19,1.69a1.09,1.09,0,0,0,.64-.1c.67-.31,1.07-1,1.73-1.36a3.92,3.92,0,0,1,.36-.16c.4-.15.8-.3,1.21-.41a1.67,1.67,0,0,0,.54-.2.5.5,0,0,0,.26-.47C61.67,42.3,61.25,42.18,60.92,42.13Z"/><path class="ae5714e5-ed11-4760-8d17-494137716a6a" d="M58.79,30.83c-.14-.2-.29-.37-.44-.55a1.44,1.44,0,0,0,.31-1.38c-.26-.56-1-.66-1.61-.69a3.08,3.08,0,0,0-.21-1.62,1.46,1.46,0,0,0-1.28-.89c-.53,0-.82.18-1.27-.19-.28-.24-.37-.66-.68-.87s-.85.15-1,.58a6.86,6.86,0,0,1-.26,1.29,2.92,2.92,0,0,1-.74.79,4.18,4.18,0,0,0-.88,1.28,9.17,9.17,0,0,0-3.36,2.17,6.74,6.74,0,0,0-1.27,2,1.55,1.55,0,0,1-.22.12,3.13,3.13,0,0,1-.53.12,2.28,2.28,0,0,0-1.61,1.78,3.67,3.67,0,0,0,.46,2.44,2.2,2.2,0,0,1,.42,1.28,2.92,2.92,0,0,1-.21.56,2.08,2.08,0,0,0,0,1.71,1.56,1.56,0,0,0,1.43.85,2.4,2.4,0,0,0,.6-.15c.31-.11.73-.22,1.15-.36a3.79,3.79,0,0,0,2.76-2.23c1.52-3,1.49-.32,6-2.43S58.79,30.83,58.79,30.83Z"/><path class="a9f753fc-8e40-4bd3-9b15-e9c85f65b5a1" d="M45.87,43.51c.55,1.35,2.6,2.54,3.58,2.14s.78-1.6.23-2.95-1.86-2.3-2.84-1.9A1.89,1.89,0,0,0,45.87,43.51Z"/><path class="aefac5e8-e5bc-44f7-ac8a-3d7fa583dae8" d="M50.07,43.78s-.81-.21-.19.92,4.67,4.93,8.77,4.66,4.18-4.17,4.08-5-.47-1.18-1,.61a4.17,4.17,0,0,1-4.21,3,15.55,15.55,0,0,1-6-2.74A8.51,8.51,0,0,1,50.07,43.78Z"/><path class="a9f753fc-8e40-4bd3-9b15-e9c85f65b5a1" d="M10.27,31.17s2.45-10.49.76-12.63-5.14,7.6-3.14,13.8Z"/><path class="bbd92343-2b25-4f41-a1d8-c21a0c0d39df" d="M11.43,28.91c-1.68.08-3.36.15-4.9.15C7.69,56.83,18.21,75.72,47,61c4.4-2.26,3.15-2.93,1.92-5.58.16-.77.2-.49,0,0-1.24-2.65-2.26-4-6.12-1.67C17.56,69.3,16.11,50,11.43,28.91Z"/><polygon class="ba8b0466-0645-460d-bc55-cdf65e77c3d9" points="181.17 0 157.48 6.35 174.82 23.69 181.17 0"/><polygon class="ba8b0466-0645-460d-bc55-cdf65e77c3d9" points="96.32 8.2 78.18 20.34 62.29 0.64 0 11.96 1.43 19.83 59.05 9.36 76.54 31.06 94.45 19.08 113.99 45.31 113.99 31.92 96.32 8.2"/><polygon class="ba8b0466-0645-460d-bc55-cdf65e77c3d9" points="172.97 13.85 167.68 7.84 124.44 45.93 113.99 31.92 113.99 45.31 123.21 57.67 172.97 13.85"/><polygon class="aefac5e8-e5bc-44f7-ac8a-3d7fa583dae8" points="53.81 71.19 59.04 102.65 57.33 72.9 54.17 53.81 52.87 54.02 53.81 71.19"/></g></g></g></svg>