<svg xmlns="http://www.w3.org/2000/svg" viewBox="0 0 124.62 199.14"><defs><style>.f69fbff2-c122-4b51-9b35-d534fe7929d3{fill:#afc4d1;}.a94f4966-3790-4188-8565-b6ef02a0cca2{fill:#293d48;}.a1ae60ba-82ed-40ba-ad8e-278bb1996a65{fill:#007288;}.ae12fdec-6fcd-43d8-a465-55b205847123{fill:#bf8957;}.f32c1e88-e931-47fb-9496-e3aca39633cb{fill:#3f2724;}.e919c2b0-319d-4d06-8e0a-3b704c422f7b{fill:#4dd3ea;}.ff72e930-1455-4297-aaad-20ea748ec546{fill:#fff;}.b5af5aeb-6df8-4f7f-8b29-a33cdf8b42c4{fill:#7f94a0;}</style></defs><title>04 woman right</title><g id="a42308f4-50ba-4b1b-97a4-0f6f86f96afc" data-name="Layer 2"><g id="a8b1920b-adbb-4dc9-9a0a-54b2c00026f0" data-name="Layer 1"><path class="f69fbff2-c122-4b51-9b35-d534fe7929d3" d="M119.3,188.63l3.25-2.34c-.4-.55-36.71-55-39.42-93l-6.72.28C79.2,132.69,117.67,186.37,119.3,188.63Z"/><path class="f69fbff2-c122-4b51-9b35-d534fe7929d3" d="M53.48,195.85c.2-.65,22.74-65.84,24.28-102.34l-6.67-.17c-1.52,36-21.24,100.69-21.44,101.34Z"/><path class="a94f4966-3790-4188-8565-b6ef02a0cca2" d="M121.13,183.32s4.15,2.69,3.4,3.59-12.48,12.71-13.08,12.22c-2-1.69,6.15-12.82,7.3-13.54S120.54,182.92,121.13,183.32Z"/><path class="a1ae60ba-82ed-40ba-ad8e-278bb1996a65" d="M85.86,141.45c-1.17.79-2.26,1.69-3.41,2.53a51.58,51.58,0,0,1-8.38,4.82,30.05,30.05,0,0,1-5.3,2.08,21.26,21.26,0,0,1-8.59.3C64,125.37,62,101.77,70.38,77.26l2.46.93c0-.94-.06-1.88-.06-2.83,5.33.61,10.67,1.21,16,1.92-1.36,24.37,2.37,42.79,9.71,60.75A20.88,20.88,0,0,0,85.86,141.45Z"/><path class="ae12fdec-6fcd-43d8-a465-55b205847123" d="M68.21,4.81a4.88,4.88,0,0,1,4.71,2.86c.65,1.81-.7,3.7-2.42,4.33s-5.23-1.16-5.89-3S65.9,5,68.21,4.81Z"/><path class="ae12fdec-6fcd-43d8-a465-55b205847123" d="M74.25,2.32C77.55-.34,83.4-.92,87,1.68s3.43,8,1,11.43-10,5.51-15.69,2C68.48,12.77,70.07,5.69,74.25,2.32Z"/><path class="ae12fdec-6fcd-43d8-a465-55b205847123" d="M72.18,14.12c2.43-2,6.68-2.54,9.24-.69s2.35,5.83.49,8.39-8.43,3.57-11,1.71S69.09,16.66,72.18,14.12Z"/><path class="f32c1e88-e931-47fb-9496-e3aca39633cb" d="M76.1,17.46c-2.4,5.12-7.9,7.6-11,6.14s-2.69-6.32-.3-11.44,6.15-6.54,9.28-5.07S78.49,12.34,76.1,17.46Z"/><path class="f32c1e88-e931-47fb-9496-e3aca39633cb" d="M77.58,20.3c-.56,1.19-2.45,2.16-3.32,1.76s-.62-1.47-.07-2.67,1.78-2,2.64-1.57A1.69,1.69,0,0,1,77.58,20.3Z"/><path class="ae12fdec-6fcd-43d8-a465-55b205847123" d="M78.36,14.55s.46-3.79-1.55-6.17-7-4.5-10.25-.46c0,0-2,3.08,1.92,5.18s4-.35,5.24,2.45,3.62,2,3.82,2.6Z"/><path class="e919c2b0-319d-4d06-8e0a-3b704c422f7b" d="M67.52,88c4.48.14,8-1.44,11.75-3.72,2.92-1.76,6.67-2.52,9.74-3.76,2.25-13.85-.87-36.36-6.28-45.24C78,27.53,78,28.81,76.25,28.09a6.55,6.55,0,0,0-7.07,1.11.52.52,0,0,0-.11.1c-2.2,2.12-2.27,6.71-2.61,11.48S64.29,44.69,68.51,53C70.32,56.57,67.37,80.92,67.52,88Z"/><path class="f32c1e88-e931-47fb-9496-e3aca39633cb" d="M74.31,18.21l-5.91.52c.07.81.87,8.49,1.7,11.29.38.84,1.9,1,3.4.29,1.35-.6,2.22-1.66,2.11-2.47h0A79.85,79.85,0,0,1,74.31,18.21Z"/><path class="a94f4966-3790-4188-8565-b6ef02a0cca2" d="M54.66,193s1.16,4.8,0,4.94-17.8.64-17.9-.14c-.33-2.63,13.28-5.07,14.61-4.8S54.51,192.3,54.66,193Z"/><rect class="ff72e930-1455-4297-aaad-20ea748ec546" x="21.68" y="59.52" width="62.8" height="88.19" transform="translate(162.72 142.79) rotate(136.79)"/><rect class="b5af5aeb-6df8-4f7f-8b29-a33cdf8b42c4" x="10.29" y="76.67" width="37.99" height="3.25" transform="translate(104.24 115.3) rotate(136.79)"/><rect class="b5af5aeb-6df8-4f7f-8b29-a33cdf8b42c4" x="12.91" y="83.59" width="45.76" height="3.25" transform="translate(120.23 122.82) rotate(136.79)"/><rect class="b5af5aeb-6df8-4f7f-8b29-a33cdf8b42c4" x="17.02" y="87.97" width="45.76" height="3.25" transform="translate(130.33 127.57) rotate(136.79)"/><rect class="b5af5aeb-6df8-4f7f-8b29-a33cdf8b42c4" x="21.13" y="92.34" width="45.76" height="3.25" transform="translate(140.42 132.31) rotate(136.79)"/><rect class="b5af5aeb-6df8-4f7f-8b29-a33cdf8b42c4" x="25.24" y="96.71" width="45.76" height="3.25" transform="translate(150.52 137.06) rotate(136.79)"/><rect class="b5af5aeb-6df8-4f7f-8b29-a33cdf8b42c4" x="29.35" y="101.09" width="45.76" height="3.25" transform="translate(160.62 141.8) rotate(136.79)"/><rect class="b5af5aeb-6df8-4f7f-8b29-a33cdf8b42c4" x="33.45" y="105.46" width="45.76" height="3.25" transform="translate(170.71 146.55) rotate(136.79)"/><rect class="b5af5aeb-6df8-4f7f-8b29-a33cdf8b42c4" x="37.56" y="109.83" width="45.76" height="3.25" transform="translate(180.81 151.3) rotate(136.79)"/><rect class="b5af5aeb-6df8-4f7f-8b29-a33cdf8b42c4" x="41.67" y="114.2" width="45.76" height="3.25" transform="translate(190.91 156.04) rotate(136.79)"/><rect class="b5af5aeb-6df8-4f7f-8b29-a33cdf8b42c4" x="45.78" y="118.58" width="45.76" height="3.25" transform="translate(201 160.79) rotate(136.79)"/><path class="f32c1e88-e931-47fb-9496-e3aca39633cb" d="M87.53,85.76S80.66,93.18,81,95.7s7.72-3.81,9-9.79Z"/><path class="a1ae60ba-82ed-40ba-ad8e-278bb1996a65" d="M85.62,87.35c1.34,1,2.43,1.81,3.87,2.87,16.25-27.45,12.24-36-8.85-57.77-3.23-3.33-9.12,2.11-3.18,7.14C98.34,57.24,96.84,61.83,85.62,87.35Z"/></g></g></svg>