<svg xmlns="http://www.w3.org/2000/svg" viewBox="0 0 121.03 99.92"><defs><style>.f1a4ba0e-c4d2-45ad-b538-f33589dfdc06{fill:#3f2724;}.efb44796-a1c5-4554-9f7a-d849a136fe69{fill:#4dd3ea;}.ee799117-104a-4a2e-bb78-8f8f9a00f84a{fill:#fff;}.abfee833-4b2d-41de-a580-74f1a864f68f{fill:#7f94a0;}</style></defs><title>04 woman arm right</title><g id="bb69ff40-5e55-4a2e-8e15-7ef1c096414b" data-name="Layer 2"><g id="f745d558-9ac7-496d-9329-f402c30138a0" data-name="Layer 1"><path class="f1a4ba0e-c4d2-45ad-b538-f33589dfdc06" d="M78.84,52.12s-3.45-9-5.76-9.73,0,8.19,4.58,11.79Z"/><path class="efb44796-a1c5-4554-9f7a-d849a136fe69" d="M79.67,51.32c-1.48.53-2.94,1-4.34,1.66C85,75.77,91.45,84.71,116.86,86.11c3.89.21,4.16-1.31,3.68-4.26h0c-.47-2.95-1.65-3.22-5.05-3.38C93.26,77.48,89.93,69.92,79.67,51.32Z"/><rect class="ee799117-104a-4a2e-bb78-8f8f9a00f84a" x="8.99" y="5.86" width="62.8" height="88.19" transform="translate(68.71 107.62) rotate(-167.2)"/><rect class="abfee833-4b2d-41de-a580-74f1a864f68f" x="21.78" y="29.56" width="45.76" height="3.25" transform="translate(81.29 71.5) rotate(-167.2)"/><rect class="abfee833-4b2d-41de-a580-74f1a864f68f" x="20.45" y="35.41" width="45.76" height="3.25" transform="translate(77.37 82.76) rotate(-167.2)"/><rect class="abfee833-4b2d-41de-a580-74f1a864f68f" x="19.12" y="41.27" width="45.76" height="3.25" transform="translate(73.45 94.02) rotate(-167.2)"/><rect class="abfee833-4b2d-41de-a580-74f1a864f68f" x="17.79" y="47.12" width="45.76" height="3.25" transform="translate(69.53 105.28) rotate(-167.2)"/><rect class="abfee833-4b2d-41de-a580-74f1a864f68f" x="16.46" y="52.97" width="45.76" height="3.25" transform="translate(65.6 116.54) rotate(-167.2)"/><rect class="abfee833-4b2d-41de-a580-74f1a864f68f" x="15.13" y="58.82" width="45.76" height="3.25" transform="translate(61.68 127.81) rotate(-167.2)"/><rect class="abfee833-4b2d-41de-a580-74f1a864f68f" x="13.8" y="64.67" width="45.76" height="3.25" transform="translate(57.76 139.07) rotate(-167.2)"/><rect class="abfee833-4b2d-41de-a580-74f1a864f68f" x="12.47" y="70.52" width="45.76" height="3.25" transform="translate(53.84 150.33) rotate(-167.2)"/></g></g></svg>