<svg xmlns="http://www.w3.org/2000/svg" viewBox="0 0 40.04 36.76"><defs><style>.f231843e-4631-408a-a17d-6833c49a75ae{fill:#00e0e1;}</style></defs><title>05 boules</title><g id="bfe89f16-cdce-455a-aa6c-6db1d6ab929a" data-name="Layer 2"><g id="fc3c3890-6cb4-4245-92bd-1ea46858012d" data-name="Layer 1"><g id="bcd3f4fa-20a1-477d-86cd-16b04b6d4bc8" data-name="Dots on Floor"><path class="f231843e-4631-408a-a17d-6833c49a75ae" d="M13.5,30.24A6.52,6.52,0,1,1,20,36.76,6.52,6.52,0,0,1,13.5,30.24Z"/><path class="f231843e-4631-408a-a17d-6833c49a75ae" d="M0,30.24a6.52,6.52,0,1,1,6.52,6.52A6.52,6.52,0,0,1,0,30.24Z"/><path class="f231843e-4631-408a-a17d-6833c49a75ae" d="M27,30.24a6.52,6.52,0,1,1,6.52,6.52A6.52,6.52,0,0,1,27,30.24Z"/><path class="f231843e-4631-408a-a17d-6833c49a75ae" d="M6,18.24a6.52,6.52,0,1,1,6.52,6.52A6.52,6.52,0,0,1,6,18.24Z"/><path class="f231843e-4631-408a-a17d-6833c49a75ae" d="M19.91,18.52A6.52,6.52,0,1,1,26.43,25,6.52,6.52,0,0,1,19.91,18.52Z"/><path class="f231843e-4631-408a-a17d-6833c49a75ae" d="M12.91,6.52A6.52,6.52,0,1,1,19.43,13,6.52,6.52,0,0,1,12.91,6.52Z"/></g></g></g></svg>