<svg xmlns="http://www.w3.org/2000/svg" viewBox="0 0 554.03 267"><defs><style>.b9729bab-b8ac-48c2-b3d9-365a28b92154{fill:#fff;}</style></defs><title>05 City Dots</title><g id="fc763874-8be7-45c8-a5d6-c15dcbfc8eca" data-name="Layer 2"><g id="a421c6bb-94d7-4c7a-86b5-e8162169a6b7" data-name="Layer 1"><g id="abc99b4b-5f65-43d9-932e-ca704ac36c69" data-name="City Dots"><path class="b9729bab-b8ac-48c2-b3d9-365a28b92154" d="M184.49,216a3,3,0,1,1,3,3A3,3,0,0,1,184.49,216Z"/><path class="b9729bab-b8ac-48c2-b3d9-365a28b92154" d="M0,8.52a3,3,0,1,1,3,3A3,3,0,0,1,0,8.52Z"/><path class="b9729bab-b8ac-48c2-b3d9-365a28b92154" d="M22.49,31a3,3,0,1,1,3,3A3,3,0,0,1,22.49,31Z"/><path class="b9729bab-b8ac-48c2-b3d9-365a28b92154" d="M115.49,34a3,3,0,1,1,3,3A3,3,0,0,1,115.49,34Z"/><path class="b9729bab-b8ac-48c2-b3d9-365a28b92154" d="M115.49,54a3,3,0,1,1,3,3A3,3,0,0,1,115.49,54Z"/><path class="b9729bab-b8ac-48c2-b3d9-365a28b92154" d="M72.49,72a3,3,0,1,1,3,3A3,3,0,0,1,72.49,72Z"/><path class="b9729bab-b8ac-48c2-b3d9-365a28b92154" d="M7.49,64a3,3,0,1,1,3,3A3,3,0,0,1,7.49,64Z"/><path class="b9729bab-b8ac-48c2-b3d9-365a28b92154" d="M18.49,46a3,3,0,1,1,3,3A3,3,0,0,1,18.49,46Z"/><path class="b9729bab-b8ac-48c2-b3d9-365a28b92154" d="M53.49,56a3,3,0,1,1,3,3A3,3,0,0,1,53.49,56Z"/><path class="b9729bab-b8ac-48c2-b3d9-365a28b92154" d="M47.49,110a3,3,0,1,1,3,3A3,3,0,0,1,47.49,110Z"/><path class="b9729bab-b8ac-48c2-b3d9-365a28b92154" d="M97.49,139a3,3,0,1,1,3,3A3,3,0,0,1,97.49,139Z"/><path class="b9729bab-b8ac-48c2-b3d9-365a28b92154" d="M106.49,98a3,3,0,1,1,3,3A3,3,0,0,1,106.49,98Z"/><path class="b9729bab-b8ac-48c2-b3d9-365a28b92154" d="M100.49,92a3,3,0,1,1,3,3A3,3,0,0,1,100.49,92Z"/><path class="b9729bab-b8ac-48c2-b3d9-365a28b92154" d="M100.49,187a3,3,0,1,1,3,3A3,3,0,0,1,100.49,187Z"/><path class="b9729bab-b8ac-48c2-b3d9-365a28b92154" d="M118.49,194a3,3,0,1,1,3,3A3,3,0,0,1,118.49,194Z"/><path class="b9729bab-b8ac-48c2-b3d9-365a28b92154" d="M126.49,230a3,3,0,1,1,3,3A3,3,0,0,1,126.49,230Z"/><path class="b9729bab-b8ac-48c2-b3d9-365a28b92154" d="M162.49,193a3,3,0,1,1,3,3A3,3,0,0,1,162.49,193Z"/><path class="b9729bab-b8ac-48c2-b3d9-365a28b92154" d="M266.49,43a3,3,0,1,1,3,3A3,3,0,0,1,266.49,43Z"/><path class="b9729bab-b8ac-48c2-b3d9-365a28b92154" d="M285.49,52a3,3,0,1,1,3,3A3,3,0,0,1,285.49,52Z"/><path class="b9729bab-b8ac-48c2-b3d9-365a28b92154" d="M272.49,75a3,3,0,1,1,3,3A3,3,0,0,1,272.49,75Z"/><path class="b9729bab-b8ac-48c2-b3d9-365a28b92154" d="M261.49,81a3,3,0,1,1,3,3A3,3,0,0,1,261.49,81Z"/><path class="b9729bab-b8ac-48c2-b3d9-365a28b92154" d="M294.49,20a3,3,0,1,1,3,3A3,3,0,0,1,294.49,20Z"/><path class="b9729bab-b8ac-48c2-b3d9-365a28b92154" d="M291.49,38a3,3,0,1,1,3,3A3,3,0,0,1,291.49,38Z"/><path class="b9729bab-b8ac-48c2-b3d9-365a28b92154" d="M306.49,64a3,3,0,1,1,3,3A3,3,0,0,1,306.49,64Z"/><path class="b9729bab-b8ac-48c2-b3d9-365a28b92154" d="M302.49,38a3,3,0,1,1,3,3A3,3,0,0,1,302.49,38Z"/><path class="b9729bab-b8ac-48c2-b3d9-365a28b92154" d="M338.49,36a3,3,0,1,1,3,3A3,3,0,0,1,338.49,36Z"/><path class="b9729bab-b8ac-48c2-b3d9-365a28b92154" d="M326.49,72a3,3,0,1,1,3,3A3,3,0,0,1,326.49,72Z"/><path class="b9729bab-b8ac-48c2-b3d9-365a28b92154" d="M303.49,50a3,3,0,1,1,3,3A3,3,0,0,1,303.49,50Z"/><path class="b9729bab-b8ac-48c2-b3d9-365a28b92154" d="M294.49,55a3,3,0,1,1,3,3A3,3,0,0,1,294.49,55Z"/><path class="b9729bab-b8ac-48c2-b3d9-365a28b92154" d="M335.49,61a3,3,0,1,1,3,3A3,3,0,0,1,335.49,61Z"/><path class="b9729bab-b8ac-48c2-b3d9-365a28b92154" d="M344.49,17a3,3,0,1,1,3,3A3,3,0,0,1,344.49,17Z"/><path class="b9729bab-b8ac-48c2-b3d9-365a28b92154" d="M323.49,8a3,3,0,1,1,3,3A3,3,0,0,1,323.49,8Z"/><path class="b9729bab-b8ac-48c2-b3d9-365a28b92154" d="M342.49,3a3,3,0,1,1,3,3A3,3,0,0,1,342.49,3Z"/><path class="b9729bab-b8ac-48c2-b3d9-365a28b92154" d="M319.63,31.13a3,3,0,1,1,3,3A3,3,0,0,1,319.63,31.13Z"/><path class="b9729bab-b8ac-48c2-b3d9-365a28b92154" d="M322.75,256.32a3,3,0,1,1,3,3A3,3,0,0,1,322.75,256.32Z"/><path class="b9729bab-b8ac-48c2-b3d9-365a28b92154" d="M338.75,244.32a3,3,0,1,1,3,3A3,3,0,0,1,338.75,244.32Z"/><path class="b9729bab-b8ac-48c2-b3d9-365a28b92154" d="M316.75,231.32a3,3,0,1,1,3,3A3,3,0,0,1,316.75,231.32Z"/><path class="b9729bab-b8ac-48c2-b3d9-365a28b92154" d="M344.75,224.32a3,3,0,1,1,3,3A3,3,0,0,1,344.75,224.32Z"/><path class="b9729bab-b8ac-48c2-b3d9-365a28b92154" d="M338.75,217.32a3,3,0,1,1,3,3A3,3,0,0,1,338.75,217.32Z"/><path class="b9729bab-b8ac-48c2-b3d9-365a28b92154" d="M312.75,202.32a3,3,0,1,1,3,3A3,3,0,0,1,312.75,202.32Z"/><path class="b9729bab-b8ac-48c2-b3d9-365a28b92154" d="M311.75,191.32a3,3,0,1,1,3,3A3,3,0,0,1,311.75,191.32Z"/><path class="b9729bab-b8ac-48c2-b3d9-365a28b92154" d="M360.75,187.32a3,3,0,1,1,3,3A3,3,0,0,1,360.75,187.32Z"/><path class="b9729bab-b8ac-48c2-b3d9-365a28b92154" d="M375.75,172.32a3,3,0,1,1,3,3A3,3,0,0,1,375.75,172.32Z"/><path class="b9729bab-b8ac-48c2-b3d9-365a28b92154" d="M369.75,143.32a3,3,0,1,1,3,3A3,3,0,0,1,369.75,143.32Z"/><path class="b9729bab-b8ac-48c2-b3d9-365a28b92154" d="M347.75,140.32a3,3,0,1,1,3,3A3,3,0,0,1,347.75,140.32Z"/><path class="b9729bab-b8ac-48c2-b3d9-365a28b92154" d="M303.75,170.32a3,3,0,1,1,3,3A3,3,0,0,1,303.75,170.32Z"/><path class="b9729bab-b8ac-48c2-b3d9-365a28b92154" d="M282.75,161.32a3,3,0,1,1,3,3A3,3,0,0,1,282.75,161.32Z"/><path class="b9729bab-b8ac-48c2-b3d9-365a28b92154" d="M344.75,93.32a3,3,0,1,1,3,3A3,3,0,0,1,344.75,93.32Z"/><path class="b9729bab-b8ac-48c2-b3d9-365a28b92154" d="M264.75,96.32a3,3,0,1,1,3,3A3,3,0,0,1,264.75,96.32Z"/><path class="b9729bab-b8ac-48c2-b3d9-365a28b92154" d="M270.75,132.32a3,3,0,1,1,3,3A3,3,0,0,1,270.75,132.32Z"/><path class="b9729bab-b8ac-48c2-b3d9-365a28b92154" d="M300.75,80.32a3,3,0,1,1,3,3A3,3,0,0,1,300.75,80.32Z"/><path class="b9729bab-b8ac-48c2-b3d9-365a28b92154" d="M344.75,67.32a3,3,0,1,1,3,3A3,3,0,0,1,344.75,67.32Z"/><path class="b9729bab-b8ac-48c2-b3d9-365a28b92154" d="M353.75,85.32a3,3,0,1,1,3,3A3,3,0,0,1,353.75,85.32Z"/><path class="b9729bab-b8ac-48c2-b3d9-365a28b92154" d="M442.75,135.32a3,3,0,1,1,3,3A3,3,0,0,1,442.75,135.32Z"/><path class="b9729bab-b8ac-48c2-b3d9-365a28b92154" d="M429,117.61a3,3,0,1,1,3,3A3,3,0,0,1,429,117.61Z"/><path class="b9729bab-b8ac-48c2-b3d9-365a28b92154" d="M451,92.67a3,3,0,1,1,3,3A3,3,0,0,1,451,92.67Z"/><path class="b9729bab-b8ac-48c2-b3d9-365a28b92154" d="M495,111a3,3,0,1,1,3,3A3,3,0,0,1,495,111Z"/><path class="b9729bab-b8ac-48c2-b3d9-365a28b92154" d="M483,250a3,3,0,1,1,3,3A3,3,0,0,1,483,250Z"/><path class="b9729bab-b8ac-48c2-b3d9-365a28b92154" d="M512,103a3,3,0,1,1,3,3A3,3,0,0,1,512,103Z"/><path class="b9729bab-b8ac-48c2-b3d9-365a28b92154" d="M508,85a3,3,0,1,1,3,3A3,3,0,0,1,508,85Z"/><path class="b9729bab-b8ac-48c2-b3d9-365a28b92154" d="M496,59a3,3,0,1,1,3,3A3,3,0,0,1,496,59Z"/><path class="b9729bab-b8ac-48c2-b3d9-365a28b92154" d="M474,30a3,3,0,1,1,3,3A3,3,0,0,1,474,30Z"/><path class="b9729bab-b8ac-48c2-b3d9-365a28b92154" d="M535,78a3,3,0,1,1,3,3A3,3,0,0,1,535,78Z"/><path class="b9729bab-b8ac-48c2-b3d9-365a28b92154" d="M529,77a3,3,0,1,1,3,3A3,3,0,0,1,529,77Z"/><path class="b9729bab-b8ac-48c2-b3d9-365a28b92154" d="M511,257a3,3,0,1,1,3,3A3,3,0,0,1,511,257Z"/><path class="b9729bab-b8ac-48c2-b3d9-365a28b92154" d="M522,250a3,3,0,1,1,3,3A3,3,0,0,1,522,250Z"/><path class="b9729bab-b8ac-48c2-b3d9-365a28b92154" d="M536,232a3,3,0,1,1,3,3A3,3,0,0,1,536,232Z"/><path class="b9729bab-b8ac-48c2-b3d9-365a28b92154" d="M548,248a3,3,0,1,1,3,3A3,3,0,0,1,548,248Z"/><path class="b9729bab-b8ac-48c2-b3d9-365a28b92154" d="M533,264a3,3,0,1,1,3,3A3,3,0,0,1,533,264Z"/><path class="b9729bab-b8ac-48c2-b3d9-365a28b92154" d="M297.59,26.41a3,3,0,1,1,3,3A3,3,0,0,1,297.59,26.41Z"/><path class="b9729bab-b8ac-48c2-b3d9-365a28b92154" d="M309.59,19.41a3,3,0,1,1,3,3A3,3,0,0,1,309.59,19.41Z"/><path class="b9729bab-b8ac-48c2-b3d9-365a28b92154" d="M34.49,23a3,3,0,1,1,3,3A3,3,0,0,1,34.49,23Z"/><path class="b9729bab-b8ac-48c2-b3d9-365a28b92154" d="M123.49,49a3,3,0,1,1,3,3A3,3,0,0,1,123.49,49Z"/><path class="b9729bab-b8ac-48c2-b3d9-365a28b92154" d="M248.75,158.32a3,3,0,1,1,3,3A3,3,0,0,1,248.75,158.32Z"/><path class="b9729bab-b8ac-48c2-b3d9-365a28b92154" d="M282.75,143.32a3,3,0,1,1,3,3A3,3,0,0,1,282.75,143.32Z"/><path class="b9729bab-b8ac-48c2-b3d9-365a28b92154" d="M379.75,112.32a3,3,0,1,1,3,3A3,3,0,0,1,379.75,112.32Z"/><path class="b9729bab-b8ac-48c2-b3d9-365a28b92154" d="M396.75,102.32a3,3,0,1,1,3,3A3,3,0,0,1,396.75,102.32Z"/><path class="b9729bab-b8ac-48c2-b3d9-365a28b92154" d="M245.59,23.41a3,3,0,1,1,3,3A3,3,0,0,1,245.59,23.41Z"/><path class="b9729bab-b8ac-48c2-b3d9-365a28b92154" d="M513,133.05a3,3,0,1,1,3,3A3,3,0,0,1,513,133.05Z"/><path class="b9729bab-b8ac-48c2-b3d9-365a28b92154" d="M155.49,247a3,3,0,1,1,3,3A3,3,0,0,1,155.49,247Z"/></g></g></g></svg>