<svg xmlns="http://www.w3.org/2000/svg" viewBox="0 0 76.99 244.92"><defs><style>.ba94d722-6aac-4cee-9bf1-5c56f922d26d{fill:#293d48;}.e78be82a-bf1c-4c8c-b541-f1d04219257d{fill:#3f2724;}.b29ed953-80a5-4fcc-9cb8-8f2537073b30{fill:#7f94a0;}.b772abeb-5dba-4f06-8424-f1df055ee6e3{fill:#526672;}.be5b122c-cc82-45c8-a9bd-5464b7b17375{fill:#afc4d1;}.a121ebfe-ade9-450a-acd5-53007333e2b9{fill:none;stroke:#00a1b8;stroke-miterlimit:10;stroke-width:2px;}.edd22014-2664-443d-a4c9-7935ec564bb3{fill:#00a1b8;}.afde8e97-ae00-4c28-a528-fb7872a73aad{fill:#1a1c2e;}</style></defs><title>05 man left</title><g id="bffe4597-fcda-475f-a72b-9221650bc3be" data-name="Layer 2"><g id="fd3ec030-1d84-4e44-b650-a55ee24aa0a9" data-name="Layer 1"><g id="b7c203c4-d3e3-451f-9f4d-fc7bec6ab578" data-name="Man Left Raised Arm"><path class="ba94d722-6aac-4cee-9bf1-5c56f922d26d" d="M3.2,241.84a2,2,0,0,1-.42,0,2.09,2.09,0,0,1-1.64-2.47l3-14.76a2.09,2.09,0,1,1,4.1.83l-3,14.76A2.09,2.09,0,0,1,3.2,241.84Z"/><path class="e78be82a-bf1c-4c8c-b541-f1d04219257d" d="M.58,239.06s-1.3,5.39,0,5.54,20,.71,20.07-.15c.38-3-14.89-5.69-16.38-5.39S.75,238.28.58,239.06Z"/><path class="e78be82a-bf1c-4c8c-b541-f1d04219257d" d="M51.14,12.41S50.17,1.65,47.9.15,45.4,9,49.24,14.27Z"/><path class="b29ed953-80a5-4fcc-9cb8-8f2537073b30" d="M53.71,11.09c-2,.4-4,1-6,1.6,5.28,31.82,14,22.55-9.19,48.83-3.54,4-1.27,4.79,2.43,6.19-.42.79-.43.78,0,0,3.71,1.39,4.25,1.53,6.76-2.65C64.13,37.74,61.74,40.74,53.71,11.09Z"/><path d="M39.71,241.84a2,2,0,0,1-.42,0,2.09,2.09,0,0,1-1.64-2.47l3-14.76a2.09,2.09,0,1,1,4.1.83l-3,14.76A2.09,2.09,0,0,1,39.71,241.84Z"/><path class="ba94d722-6aac-4cee-9bf1-5c56f922d26d" d="M44.32,233.26a55.31,55.31,0,0,1-6.67-.62c6.64-35.49,11.66-83.12-6.09-116.29q8.09-4,16.24-7.79C60.77,137.46,49.72,202.73,44.32,233.26Z"/><path class="b772abeb-5dba-4f06-8424-f1df055ee6e3" d="M7.57,232.25C5.35,231.59,3.14,230.89,1,230,17.6,197.55,29.76,146.46,26.86,109.5c6-.31,12.08-.51,18.13-.68C42.72,145.8,21.94,198.92,7.57,232.25Z"/><path class="e78be82a-bf1c-4c8c-b541-f1d04219257d" d="M37.09,239.06s-1.3,5.39,0,5.54,20,.71,20.07-.15c.38-3-14.89-5.69-16.38-5.39S37.26,238.28,37.09,239.06Z"/><path class="be5b122c-cc82-45c8-a9bd-5464b7b17375" d="M52.65,120.62c-3.54-1.18-10.83.72-14.34,0-5.18-1.05-7.74-.66-12.86-.36-.65-16.07-.09-32.88-1.27-48.63-.25-3.31-.42-5.29.2-7.77A10.23,10.23,0,0,1,29.21,57c2.76-1.52,6.3-1.4,9.88.43a7.83,7.83,0,0,1,1.55.94C42.76,60,44.72,63.15,45,69.12,45.82,84,49.84,105.12,52.65,120.62Z"/><line id="e6f6eb70-28eb-4ca4-8251-e53d0d3bcf26" data-name="Staff" class="a121ebfe-ade9-450a-acd5-53007333e2b9" x1="15.02" y1="11.64" x2="76.02" y2="241.64"/><path class="e78be82a-bf1c-4c8c-b541-f1d04219257d" d="M32.22,105.35s11.2-1.76,13.31.17-8.37,4.81-14.73,2.24Z"/><path class="b29ed953-80a5-4fcc-9cb8-8f2537073b30" d="M33.57,104.4c.28,1.94.49,3.87.66,5.79-44.51,4.64-39.35-25.59-10.9-46.37,4.35-3.18,4.69-2.12,6.56,1.32.76-.18.75-.22,0,0,1.86,3.44.72,4.41-2.91,6.8C3.19,87.61-1.6,108.44,33.57,104.4Z"/><path class="edd22014-2664-443d-a4c9-7935ec564bb3" d="M40.64,58.36l-.3,10L40,81,34.72,69.3,29.21,57c2.76-1.52,6.3-1.4,9.88.43A7.83,7.83,0,0,1,40.64,58.36Z"/><path class="e78be82a-bf1c-4c8c-b541-f1d04219257d" d="M29.45,45.71c2.15,6,8,9.3,11.68,8S44.79,46.92,42.65,41s-6.2-7.94-9.84-6.62S27.3,39.75,29.45,45.71Z"/><path class="e78be82a-bf1c-4c8c-b541-f1d04219257d" d="M28.77,50.64c.8,1.24,3.06,2,3.95,1.44s.47-1.73-.33-3-2.29-1.92-3.18-1.34A1.89,1.89,0,0,0,28.77,50.64Z"/><path class="e78be82a-bf1c-4c8c-b541-f1d04219257d" d="M30.74,46.38l6.62-.65c.09.91.79,9.54.45,12.8-.24,1-1.89,1.46-3.69,1-1.61-.39-2.78-1.38-2.82-2.3h0A87.79,87.79,0,0,0,30.74,46.38Z"/><path class="afde8e97-ae00-4c28-a528-fb7872a73aad" d="M27,44.37s-1.09-4.13.77-7.09,7.13-6.09,11.3-2.1c0,0,2.71,3.1-1.31,6s-4.51.24-5.45,3.54-3.71,2.77-3.84,3.48Z"/></g></g></g></svg>