<svg xmlns="http://www.w3.org/2000/svg" viewBox="0 0 132.99 175.19"><defs><style>.a17adf86-9af5-4e3e-af05-27749f51beef{fill:#293d48;}.a532ef4a-5834-4c16-8d4c-75e9f759fd6a{fill:#526672;}.e2bd3d9f-884c-4636-9d94-eb633d18f875{fill:none;stroke:#00a1b8;stroke-linecap:round;stroke-linejoin:round;stroke-width:4.36px;}.ba390f18-bb47-4f75-8808-f9b506989a38{fill:#afc4d1;}</style></defs><title>05 trees left</title><g id="ebcf2dd3-c975-4719-89f7-95de07264536" data-name="Layer 2"><g id="bd7a994b-15ca-47ff-a14b-92c7ea5ced55" data-name="Layer 1"><g id="bc6ec38a-dc7d-408e-93d3-70c57ae1e70e" data-name="Left Plant"><path class="a17adf86-9af5-4e3e-af05-27749f51beef" d="M0,73.37c0,35.7,14.29,55.91,31.92,55.91V0S0,37.67,0,73.37Z"/><path class="a532ef4a-5834-4c16-8d4c-75e9f759fd6a" d="M31.92,0V129.28c17.63,0,31.92-20.21,31.92-55.91S31.92,0,31.92,0Z"/><line class="e2bd3d9f-884c-4636-9d94-eb633d18f875" x1="31.92" y1="169.39" x2="31.92" y2="52.97"/><line class="e2bd3d9f-884c-4636-9d94-eb633d18f875" x1="31.92" y1="80.78" x2="51.6" y2="61.11"/><line class="e2bd3d9f-884c-4636-9d94-eb633d18f875" x1="31.92" y1="108.8" x2="12.3" y2="89.18"/></g><g id="b6b3475d-41e5-4e3b-ac01-fe849292b98c" data-name="Small Left Plant"><path class="a17adf86-9af5-4e3e-af05-27749f51beef" d="M77,74.76c0,31.31,12.53,49.05,28,49.05V10.4S77,43.44,77,74.76Z"/><path class="a532ef4a-5834-4c16-8d4c-75e9f759fd6a" d="M105,10.4V123.81c15.46,0,28-17.74,28-49S105,10.4,105,10.4Z"/><line class="e2bd3d9f-884c-4636-9d94-eb633d18f875" x1="104.99" y1="158.99" x2="104.99" y2="56.87"/><line class="e2bd3d9f-884c-4636-9d94-eb633d18f875" x1="104.99" y1="81.26" x2="122.25" y2="64"/><line class="e2bd3d9f-884c-4636-9d94-eb633d18f875" x1="104.99" y1="105.84" x2="87.78" y2="88.63"/></g><path id="b335a2df-84fe-4ccb-9c7f-7d8c97f3df57" data-name="Cloud Left Low" class="ba390f18-bb47-4f75-8808-f9b506989a38" d="M65.3,142.37c-28.22,0-52,13.87-59.4,32.82H124.71C117.33,156.24,93.53,142.37,65.3,142.37Z"/></g></g></svg>