<svg xmlns="http://www.w3.org/2000/svg" viewBox="0 0 167.9 208.63"><defs><style>.bee91cb1-1c49-4ec6-99d7-018af6bb4bd8{fill:#293d48;}.a9b11b14-77c7-403a-989a-ef6fd03db85c{fill:#526672;}.a0b9b80d-25d1-44cf-b42e-243cf5224aac{fill:none;stroke:#00a1b8;stroke-linecap:round;stroke-linejoin:round;stroke-width:5px;}.f41aa50d-8f7a-4e63-9d35-37e0ccabbc49{fill:#e1f7ff;}</style></defs><title>05 tress right</title><g id="a5f843b8-3cfb-4b39-b891-50a534fa5ed8" data-name="Layer 2"><g id="a68d8f7a-a8b6-4ced-9e66-302c6b8b3228" data-name="Layer 1"><g id="aea25998-ccc1-4788-ac5f-a78a7fe6fe5e" data-name="Right Plant"><path class="bee91cb1-1c49-4ec6-99d7-018af6bb4bd8" d="M5.93,84.08c0,40.91,16.38,64.08,36.58,64.08V0S5.93,43.17,5.93,84.08Z"/><path class="a9b11b14-77c7-403a-989a-ef6fd03db85c" d="M42.51,0V148.16c20.21,0,36.58-23.17,36.58-64.08S42.51,0,42.51,0Z"/><line class="a0b9b80d-25d1-44cf-b42e-243cf5224aac" x1="42.51" y1="194.12" x2="42.51" y2="60.7"/><line class="a0b9b80d-25d1-44cf-b42e-243cf5224aac" x1="42.51" y1="92.58" x2="65.06" y2="70.03"/><line class="a0b9b80d-25d1-44cf-b42e-243cf5224aac" x1="42.51" y1="124.68" x2="20.03" y2="102.2"/></g><path class="f41aa50d-8f7a-4e63-9d35-37e0ccabbc49" d="M105.72,161.75A64.41,64.41,0,0,0,61.3,179.44,45.28,45.28,0,0,0,0,208.63H167.9A64.7,64.7,0,0,0,105.72,161.75Z"/></g></g></svg>