<svg xmlns="http://www.w3.org/2000/svg" viewBox="0 0 85.04 317.91"><defs><style>.a900e9a7-0a07-48e6-a6c6-6d1274006e9e{fill:#e1f7ff;}.e9a060d1-26a5-40f8-856f-3cca1bef0d10{fill:#fff;}.fbf9287c-a8a0-43f4-89c9-892dde317cad{fill:#f0d1cd;}.e537e8f8-5415-4a52-859d-030817f911a4{fill:#4dd3ea;}.be4c1c80-50cf-4034-8c25-a6490a00d342{fill:#f99a90;}.a84218be-a5d5-42b6-ac94-025e017a44e3{fill:#1a1c2e;}.effff530-c740-49d2-86a8-e2a1f9be95f3{fill:#00e0e1;}.fa7bca2a-bcf7-46aa-a8cd-0b6a0aa10760{fill:#00a1b8;}</style></defs><title>05 woman ladder</title><g id="f9587b92-5ef3-4a75-a014-e3f205d052e3" data-name="Layer 2"><g id="abac3684-eb1e-4d8e-b802-06661f02ec64" data-name="Layer 1"><path id="b488dc5e-11e0-4a54-b15c-fb7ba96f7d35" data-name="Ladder" class="a900e9a7-0a07-48e6-a6c6-6d1274006e9e" d="M37.89,97.93A2.07,2.07,0,0,0,35.81,100v20.33H7V100a2.08,2.08,0,0,0-4.15,0v21.7a2.23,2.23,0,0,0-.19.9,2.27,2.27,0,0,0,.19.9v19.83a2.23,2.23,0,0,0-.19.9,2.27,2.27,0,0,0,.19.9V165a2.27,2.27,0,0,0-.19.9,2.23,2.23,0,0,0,.19.9v19.83a2.27,2.27,0,0,0-.19.9,2.23,2.23,0,0,0,.19.9v19.84a2.23,2.23,0,0,0-.19.9,2.27,2.27,0,0,0,.19.9v19.83a2.23,2.23,0,0,0-.19.9,2.27,2.27,0,0,0,.19.9v19.83a2.27,2.27,0,0,0-.19.9,2.23,2.23,0,0,0,.19.9v19.83a2.27,2.27,0,0,0-.19.9,2.23,2.23,0,0,0,.19.9v19.83a2.25,2.25,0,0,0,0,1.81v19.28a2.08,2.08,0,0,0,4.15,0V297.92H35.81v17.92a2.08,2.08,0,0,0,4.15,0V100A2.07,2.07,0,0,0,37.89,97.93Zm-2.08,91.83v17.1H7v-17.1ZM7,185.23V168.12H35.81v17.11Zm28.84,26.16V228.5H7V211.39Zm0,21.63v17.11H7V233Zm0-69.42H7V146.49H35.81ZM7,254.65H35.81v17.11H7ZM35.81,124.86V142H7V124.86ZM7,293.39v-17.1H35.81v17.1Z"/><path class="e9a060d1-26a5-40f8-856f-3cca1bef0d10" d="M3.45,177.19a2.62,2.62,0,0,1-.38-.09,1.91,1.91,0,0,1-1.16-2.43l4.54-12.94a1.91,1.91,0,0,1,3.6,1.27L5.5,175.93A1.9,1.9,0,0,1,3.45,177.19Z"/><path class="fbf9287c-a8a0-43f4-89c9-892dde317cad" d="M76.53,8.52S81.85.26,84.31,0s-1.71,8.18-7,10.82Z"/><path class="e537e8f8-5415-4a52-859d-030817f911a4" d="M75.86,7.56c1.37.83,2.72,1.65,4,2.56C65.45,30.87,57.12,38.46,31.44,34.55c-3.93-.6-3.88-2.18-2.79-5-.61-.34-.61-.33,0,0,1.09-2.85,2.32-2.88,5.75-2.32C56.82,30.85,61.73,24,75.86,7.56Z"/><path class="e9a060d1-26a5-40f8-856f-3cca1bef0d10" d="M35.33,183.47a1.42,1.42,0,0,1-.36.14,1.91,1.91,0,0,1-2.36-1.3L28.8,169.14a1.91,1.91,0,0,1,3.66-1.06l3.81,13.17A1.91,1.91,0,0,1,35.33,183.47Z"/><path class="be4c1c80-50cf-4034-8c25-a6490a00d342" d="M31.15,12.61c-3.37-2.71-9.34-3.31-13-.65s-3.51,8.17-1,11.66,10.24,5.62,16,2.05C37,23.28,35.41,16.05,31.15,12.61Z"/><path class="be4c1c80-50cf-4034-8c25-a6490a00d342" d="M33.78,9.57C31.29,7.52,27,7,24.35,8.87s-2.4,6-.51,8.56,8.61,3.65,11.22,1.75S36.93,12.17,33.78,9.57Z"/><path class="fbf9287c-a8a0-43f4-89c9-892dde317cad" d="M32.49,12c.75,5.72,5.35,9.82,8.84,9.36s4.57-5.32,3.81-11-4-8.25-7.47-7.79S31.73,6.32,32.49,12Z"/><path class="fbf9287c-a8a0-43f4-89c9-892dde317cad" d="M28.26,15.88c.57,1.21,2.51,2.2,3.39,1.79s.64-1.5.07-2.71-1.81-2-2.7-1.61A1.74,1.74,0,0,0,28.26,15.88Z"/><path class="fbf9287c-a8a0-43f4-89c9-892dde317cad" d="M31.6,13.74l6,.53c-.07.83-.9,8.67-1.74,11.53-.39.86-1.94,1-3.48.3-1.37-.62-2.26-1.69-2.14-2.53h0A78.37,78.37,0,0,0,31.6,13.74Z"/><path class="a84218be-a5d5-42b6-ac94-025e017a44e3" d="M29.85,179.78s-.87,5,.32,5,18.18-.5,18.23-1.3c.17-2.7-13.85-4.3-15.2-3.94S30,179.06,29.85,179.78Z"/><path class="a84218be-a5d5-42b6-ac94-025e017a44e3" d="M2.88,171.82S-.77,175.3.15,176.06s14.91,10.4,15.42,9.79c1.75-2.07-8.58-11.69-9.87-12.2S3.4,171.31,2.88,171.82Z"/><path class="e537e8f8-5415-4a52-859d-030817f911a4" d="M34.84,173.42A51.4,51.4,0,0,1,29,175.61C23.23,140.23,25.53,95.86,17.6,63.85c5.32-1.1,10.64-2.13,16-3.18C39.61,98,24.78,129.81,34.84,173.42Z"/><path class="effff530-c740-49d2-86a8-e2a1f9be95f3" d="M9.57,167.73c-2-.55-4-1.16-5.93-1.87C17.85,126.32,26.37,99.4,16,57.19c5.2-1.71,10.44-3.32,15.67-4.93C39.19,93.16,24.82,130.61,9.57,167.73Z"/><path class="be4c1c80-50cf-4034-8c25-a6490a00d342" d="M37.83.07A5,5,0,0,0,33,3c-.67,1.84.72,3.78,2.47,4.41s5.34-1.18,6-3S40.18.26,37.83.07Z"/><path class="be4c1c80-50cf-4034-8c25-a6490a00d342" d="M27.46,10S27,6.14,29.05,3.71s7.2-4.59,10.46-.46c0,0,2,3.14-1.95,5.28S33.46,8.18,32.2,11s-3.69,2-3.9,2.65Z"/><path class="fa7bca2a-bcf7-46aa-a8cd-0b6a0aa10760" d="M38.53,85c-4.57.14-8.11-1.47-12-3.81-3-1.79-6.81-2.57-9.94-3.83-2.3-14.14.88-37.12,6.41-46.18,4.85-7.95,4.86-6.64,6.62-7.38A6.7,6.7,0,0,1,36.84,25a1.14,1.14,0,0,1,.11.11c2.24,2.16,2.32,6.84,2.67,11.72s2.21,4-2.1,12.46C35.67,52.9,38.68,77.76,38.53,85Z"/></g></g></svg>