<svg xmlns="http://www.w3.org/2000/svg" viewBox="0 0 165.62 165.62"><defs><style>.b40df5db-566e-475a-816a-a82c440a8e40{fill:#afc4d1;}</style></defs><title>06 Cog5</title><g id="f12fefa4-c425-4ee8-8cfe-6c9bf88e81eb" data-name="Layer 2"><g id="a5c45ddc-ab9f-4677-891d-a6b707655b9e" data-name="Layer 1"><path id="f87b6a66-0ee6-4694-8c69-bd0ec5765fdc" data-name="Cog5" class="b40df5db-566e-475a-816a-a82c440a8e40" d="M148,107.19s0-.1.05-.15.08-.2.11-.3c.15-.39.29-.79.43-1.19a2.47,2.47,0,0,1,.1-.29c.13-.41.27-.81.4-1.22l.09-.29s0,0,0,0,.07-.22.1-.32c.08-.26.15-.51.23-.76a.65.65,0,0,1,0-.13.57.57,0,0,1,0-.14c.07-.25.14-.5.22-.75a2,2,0,0,1,.09-.33v0a2.45,2.45,0,0,0,.08-.29c.12-.41.22-.82.33-1.24,0-.1,0-.2.07-.29.1-.41.2-.83.29-1.24,0-.1.05-.2.07-.3s0-.11,0-.17l7.8-.67,5.84-.5a46.15,46.15,0,0,0,1.07-6.72,45.62,45.62,0,0,0,.08-6.81l-5.67-1.48-7.58-2a.27.27,0,0,0,0-.09c0-.1,0-.21,0-.31,0-.42-.05-.85-.09-1.27a3,3,0,0,0,0-.31c0-.42-.06-.85-.11-1.28,0-.09,0-.17,0-.26L152,75.5q0-.3-.06-.57l0-.27c0-.42-.11-.85-.16-1.27,0-.1,0-.2,0-.3-.06-.43-.13-.85-.19-1.27,0-.1,0-.2-.05-.3s0-.06,0-.09l7-3.52,5.25-2.64a45,45,0,0,0-1.5-6.64,48,48,0,0,0-2.45-6.35l-5.84.73-7.75,1-.07-.15-.13-.28-.54-1.15a2.44,2.44,0,0,1-.14-.28c-.19-.38-.38-.76-.58-1.14,0-.09-.09-.18-.14-.27v0l-.15-.3-.37-.69a.83.83,0,0,1-.07-.13.75.75,0,0,1-.07-.12l-.17-.3-.21-.39-.17-.3h0l-.15-.27c-.21-.37-.43-.74-.65-1.1l-.15-.27-.67-1.08c-.06-.09-.11-.18-.17-.26l-.09-.14,5-6,3.77-4.49a45.65,45.65,0,0,0-4-5.51,44.69,44.69,0,0,0-4.75-4.87l-5.06,3-6.76,4-.06-.06-.23-.21-1-.84-.23-.2-1-.83-.21-.17-.44-.36-.44-.36-.21-.16-1-.79-.24-.18-1-.76-.25-.18-.07-.06,2.45-7.42,1.84-5.58a46.18,46.18,0,0,0-5.75-3.63,45.08,45.08,0,0,0-6.23-2.75L112,11.5l-4.79,6.17-.15-.06-.29-.1-1.2-.43c-.1,0-.19-.07-.29-.09-.4-.15-.81-.28-1.22-.41l-.28-.09h0l-.32-.1-.76-.23-.13,0-.14,0-.75-.22-.33-.09h0l-.3-.08-1.23-.33-.3-.07c-.41-.11-.83-.2-1.24-.3l-.31-.07-.15,0-.67-7.8-.5-5.84A46.5,46.5,0,0,0,89.85.17a45.5,45.5,0,0,0-6.8-.08L81.56,5.76l-2,7.57h-.09l-.3,0c-.43,0-.86,0-1.28.07l-.3,0-1.29.11-.26,0-.56.06-.57.06-.26,0-1.28.16-.3,0-1.27.19-.3,0-.08,0-3.52-7L65.28,2a47.11,47.11,0,0,0-13,4L53,11.75l1,7.75-.15.08-.28.13c-.38.17-.77.35-1.15.54l-.27.13L51,21l-.26.14,0,0-.3.15-.69.37-.12.07h0l-.13.07-.69.38-.3.17h0l-.26.14-1.1.65-.26.16L45.74,24l-.26.17-.14.08-6-5L34.87,15.4a44.6,44.6,0,0,0-5.52,4,45.67,45.67,0,0,0-4.87,4.76l3,5.05,4,6.76-.06.07-.2.22c-.29.32-.57.64-.85,1l-.2.22-.83,1c-.06.07-.11.14-.17.2l-.36.45-.36.44a1.56,1.56,0,0,1-.16.2c-.27.34-.53.68-.79,1l-.18.23-.76,1-.18.24-.05.07-7.42-2.45L13.24,38A46.63,46.63,0,0,0,6.86,50l4.64,3.61,6.17,4.79s0,.1-.05.16a2.49,2.49,0,0,0-.11.29c-.15.4-.29.8-.43,1.2,0,.09-.07.19-.1.29-.14.4-.27.81-.4,1.21l-.09.3s0,0,0,0-.07.23-.1.33-.16.5-.23.76a.56.56,0,0,1,0,.12.57.57,0,0,1,0,.14l-.22.76-.09.32v0a2.29,2.29,0,0,0-.08.28c-.12.41-.22.83-.33,1.25l-.07.29L15,67.41l-.06.3a.94.94,0,0,0,0,.16l-7.8.67L1.24,69A47.09,47.09,0,0,0,.08,82.57l5.68,1.49,7.57,2s0,.06,0,.09,0,.21,0,.31c0,.43.05.85.08,1.28l0,.3c0,.43.06.86.1,1.29l0,.26c0,.19,0,.38.05.57s0,.37.07.56l0,.26c0,.43.1.86.16,1.28,0,.1,0,.2,0,.29.06.43.13.86.19,1.28,0,.1,0,.19,0,.3a.31.31,0,0,0,0,.08l-7,3.52L2,100.34a47.11,47.11,0,0,0,4,13l5.83-.73,7.75-1s.05.1.08.15.08.18.13.27c.17.39.36.78.54,1.16l.14.27.57,1.15a1.71,1.71,0,0,1,.14.27h0l.16.31c.13.23.25.46.37.69a.75.75,0,0,1,.07.12l.06.13c.06.1.12.2.17.3s.15.26.22.39l.16.29,0,0,.14.25c.22.38.43.75.66,1.12l.15.25c.22.37.44.73.67,1.09l.16.26.09.14-5,6-3.77,4.48a44.6,44.6,0,0,0,4,5.52,46.66,46.66,0,0,0,4.76,4.87l5.05-3,6.76-4,.07.06.23.2c.31.29.63.57,1,.85l.22.2,1,.83.21.17.44.36.44.35.2.16,1,.8.23.17c.35.27.69.52,1,.77l.24.18a.18.18,0,0,1,.07.05l-2.45,7.42L38,152.37A46.37,46.37,0,0,0,43.8,156,48.09,48.09,0,0,0,50,158.76l3.61-4.64L58.42,148l.16.05.3.11,1.19.43.29.1,1.22.4.29.09h0l.34.1.75.23.13,0,.14.05.75.21.33.1h0l.28.08,1.25.33.28.07,1.25.29.3.07.16,0,.67,7.8.51,5.84a46.15,46.15,0,0,0,6.72,1.07,45.5,45.5,0,0,0,6.8.08l1.49-5.67,2-7.58h.08l.32,0c.42,0,.84,0,1.27-.08l.31,0c.42,0,.85-.06,1.28-.11l.26,0,.57-.06.56-.06.26,0,1.28-.16.3,0,1.27-.19.3-.05.09,0,3.51,7,2.65,5.25a45,45,0,0,0,6.64-1.5,48,48,0,0,0,6.35-2.45l-.74-5.84-1-7.75.14-.07.29-.13,1.15-.54.28-.14,1.13-.57.28-.15h0l.31-.17.69-.36.13-.07.12-.07.69-.38.29-.17h0l.26-.15,1.11-.65.25-.15,1.09-.67.26-.17.14-.09,6,5,4.49,3.78a47,47,0,0,0,10.38-8.75l-3-5.06-4-6.76.06-.06.21-.23.84-1,.21-.23.82-1,.17-.21.36-.44.36-.44.16-.21.79-1,.18-.24c.26-.34.51-.69.76-1l.18-.25.05-.07,7.42,2.45,5.59,1.84a46.2,46.2,0,0,0,6.38-12L154.12,112Zm-31.85-6.64a37.69,37.69,0,1,1-.27-36A37.72,37.72,0,0,1,116.1,100.55Z"/></g></g></svg>