<svg xmlns="http://www.w3.org/2000/svg" viewBox="0 0 153.75 153.75"><defs><style>.e2644476-df09-4cc1-a9ad-d4c558f11d4f{fill:#7f94a0;}</style></defs><title>06 Cog3</title><g id="b66c52a1-20a4-4a4c-843c-5030b0360d44" data-name="Layer 2"><g id="b744feac-e705-4a2d-801a-f3bf576b1498" data-name="Layer 1"><path id="a6ce9ddb-d7f7-4e2e-a46d-af8b06d1bb2a" data-name="Cog3" class="e2644476-df09-4cc1-a9ad-d4c558f11d4f" d="M137.34,99.5a.58.58,0,0,0,0-.14c0-.09.07-.18.1-.27.14-.37.27-.74.4-1.11l.09-.27c.13-.38.25-.75.37-1.13l.09-.27a0,0,0,0,1,0,0l.09-.3.21-.7s0-.08,0-.12a.5.5,0,0,1,0-.13c.07-.23.13-.47.2-.7s.05-.2.08-.3,0,0,0,0,0-.18.07-.27c.11-.38.21-.76.3-1.15a2.68,2.68,0,0,0,.07-.27c.1-.38.19-.77.28-1.15l.06-.28,0-.15,7.24-.63,5.43-.46a43.71,43.71,0,0,0,1.07-12.56l-5.27-1.38-7-1.84a.25.25,0,0,0,0-.08c0-.09,0-.19,0-.28,0-.4,0-.79-.08-1.19a2.64,2.64,0,0,0,0-.28c0-.4-.06-.79-.1-1.19,0-.08,0-.16,0-.25s0-.34,0-.52l-.06-.53,0-.24-.15-1.18c0-.1,0-.19,0-.28-.05-.4-.11-.79-.17-1.18a2.74,2.74,0,0,1,0-.28s0,0,0-.08l6.48-3.26,4.87-2.46a43.38,43.38,0,0,0-1.39-6.16,44,44,0,0,0-2.28-5.9l-5.42.68-7.19.91s0-.09-.07-.14l-.12-.26-.51-1.07-.12-.26c-.18-.35-.35-.7-.54-1.06l-.13-.25v0l-.14-.27c-.11-.22-.23-.43-.35-.65l-.06-.11a.75.75,0,0,0-.07-.12l-.15-.28-.19-.35L133,45s0,0,0,0-.1-.16-.14-.24l-.6-1-.15-.25-.62-1-.15-.24-.08-.13L136,36.52l3.5-4.16a43.92,43.92,0,0,0-8.12-9.64l-4.7,2.75-6.27,3.68-.06-.06-.22-.19c-.29-.26-.59-.53-.89-.78l-.21-.19-.91-.77-.19-.16-.41-.33-.41-.33-.19-.15-1-.73-.22-.18-1-.7-.23-.17-.07-.05,2.28-6.89,1.71-5.18a42.79,42.79,0,0,0-5.35-3.37,43.49,43.49,0,0,0-5.78-2.56L104,10.67,99.51,16.4l-.15,0-.26-.1L98,15.86a1.34,1.34,0,0,0-.26-.09l-1.14-.38-.26-.08h0l-.3-.1-.7-.21-.12,0-.13,0-.7-.2-.3-.09h0l-.28-.08-1.15-.3-.27-.07-1.15-.27-.28-.06-.15,0-.62-7.24-.47-5.42a43.88,43.88,0,0,0-6.24-1A43.09,43.09,0,0,0,77.09.08L75.71,5.35l-1.83,7h-.09l-.28,0c-.39,0-.79,0-1.19.07l-.28,0-1.19.1-.24,0-.53.06-.53.06-.23,0-1.2.16-.27,0-1.18.18-.28,0-.08,0L63.05,6.7,60.6,1.82a42.51,42.51,0,0,0-6.17,1.4A41.76,41.76,0,0,0,48.54,5.5l.68,5.41.9,7.2-.14.06-.26.12-1.07.51-.25.12-1.07.54-.24.13h0l-.27.15-.65.34-.1.06h0l-.12.07-.63.35-.28.16h0l-.24.13-1,.61-.24.14-1,.62-.24.16-.13.08L36.53,17.8l-4.16-3.51A42.4,42.4,0,0,0,27.25,18a42.88,42.88,0,0,0-4.52,4.41l2.74,4.7,3.68,6.28-.06.06-.18.2c-.27.3-.54.6-.79.9l-.19.21c-.25.3-.52.61-.77.92l-.15.19c-.12.13-.23.27-.34.4l-.33.42-.15.18-.73,1-.17.21c-.24.32-.48.64-.71,1l-.16.22-.05.07L17.48,37l-5.19-1.71a44.76,44.76,0,0,0-3.37,5.35,42.17,42.17,0,0,0-2.55,5.78l4.3,3.35,5.73,4.45a1.21,1.21,0,0,1,0,.14l-.1.27-.39,1.11-.1.27c-.12.38-.25.75-.37,1.13a2.76,2.76,0,0,0-.08.27s0,0,0,0-.06.2-.1.3l-.21.7,0,.12,0,.13-.2.7-.09.3v0c0,.09-.05.18-.08.27l-.3,1.15-.07.27-.27,1.16-.06.27a.83.83,0,0,0,0,.15l-7.24.63-5.42.46a44.11,44.11,0,0,0-1,6.24,43.1,43.1,0,0,0-.07,6.32L5.35,78l7,1.84V80c0,.09,0,.19,0,.29,0,.39,0,.79.07,1.18a2.64,2.64,0,0,0,0,.28c0,.4.07.8.1,1.19a1.94,1.94,0,0,1,0,.24l.06.53.06.53c0,.08,0,.16,0,.24.05.4.1.79.16,1.19l0,.27.18,1.19c0,.09,0,.18,0,.27s0,.05,0,.08L6.7,90.69,1.82,93.15a42.09,42.09,0,0,0,1.4,6.16,41.42,41.42,0,0,0,2.28,5.9l5.41-.68,7.2-.91.06.14.12.26.51,1.07c0,.08.08.17.13.26.17.35.35.71.53,1.06,0,.08.09.16.13.25v0l.15.28.34.64.06.11.06.12.16.28.2.36.15.27,0,0,.13.23c.2.35.4.7.61,1,.05.08.09.16.14.23.2.35.41.68.62,1l.15.23.09.14-4.68,5.55-3.51,4.17A43.31,43.31,0,0,0,22.41,131l4.7-2.75,6.28-3.67.06.05.21.19c.29.27.59.53.89.79l.21.18.92.77.19.16.41.34.41.33.19.14.95.74.21.16c.32.25.64.48,1,.72l.22.16a.18.18,0,0,1,.07,0L37,136.27l-1.71,5.18a43.59,43.59,0,0,0,11.13,5.93l3.35-4.31,4.45-5.73.14,0,.28.1,1.1.4L56,138l1.12.37.28.09h0l.31.1.69.21.12,0,.13,0,.7.2.31.08h0l.26.07q.59.17,1.17.3l.26.07,1.16.28.27.06.16,0,.62,7.24.47,5.43a42.5,42.5,0,0,0,6.24,1,43,43,0,0,0,6.31.08L78,148.4l1.84-7h.37l1.18-.08.29,0,1.18-.1.25,0,.52,0,.53-.06.24,0,1.19-.15.28,0,1.17-.17.28,0h.09l3.26,6.48,2.45,4.87a43.83,43.83,0,0,0,6.17-1.39,44.34,44.34,0,0,0,5.89-2.28l-.68-5.42-.91-7.19.14-.07.27-.12,1.06-.5.27-.14c.34-.17.7-.34,1-.53l.26-.13h0A2.69,2.69,0,0,0,107,134l.64-.33.12-.07.11-.06.64-.36.27-.15h0l.24-.14,1-.6.24-.15,1-.62.24-.15.13-.09,5.56,4.68,4.16,3.51a43.31,43.31,0,0,0,9.64-8.12l-2.75-4.7-3.67-6.28s0,0,.05,0l.2-.22.78-.89.19-.21c.26-.3.51-.61.76-.91,0-.07.11-.13.16-.19l.34-.41c.1-.14.22-.28.33-.41l.15-.19.73-1,.17-.22.71-1,.16-.23,0-.07,6.89,2.28,5.18,1.71a41.66,41.66,0,0,0,3.37-5.35,42.23,42.23,0,0,0,2.56-5.78L143.07,104Zm-29.56-6.16a35,35,0,1,1-.26-33.41A35,35,0,0,1,107.78,93.34Z"/></g></g></svg>