<svg xmlns="http://www.w3.org/2000/svg" xmlns:xlink="http://www.w3.org/1999/xlink" viewBox="0 0 428.25 351.66"><defs><style>.b7314069-c85c-442b-b1b7-6083b65442a8{fill:#00e0e1;}.bdcb19a8-3a45-4673-8bb2-784958c28e66{fill:#e1f7ff;}.b49efd47-3b54-46b9-bc78-485e950b07b9{fill:#afc4d1;}.ec8e006c-1f24-4768-9ad7-ab462a9d985e{fill:#fff;}.b44a3998-fc6e-41da-94bb-4643f094445f{clip-path:url(#f649f82e-3b7c-436f-a505-0bf8cd974917);}.f0022116-7b8b-4c8b-82f1-5bd72a6e1097{fill:#293d48;}</style><clipPath id="f649f82e-3b7c-436f-a505-0bf8cd974917"><polygon class="b7314069-c85c-442b-b1b7-6083b65442a8" points="212.77 14.98 164.7 14.98 14.99 14.98 14.99 164.7 14.99 237.6 212.77 237.6 410.55 237.6 410.55 14.98 212.77 14.98"/></clipPath></defs><title>06 comp</title><g id="b9076fdb-0157-4736-80d6-35e76152b5e5" data-name="Layer 2"><g id="b8099362-a393-48fd-9584-414652ed6aaf" data-name="Layer 1"><g id="a7ca80db-b417-4dcd-bd40-d2ddc7f46d06" data-name="Computer"><polygon class="bdcb19a8-3a45-4673-8bb2-784958c28e66" points="171.15 305.02 168.51 339.74 259.74 339.74 257.1 305.02 171.15 305.02"/><polygon class="b49efd47-3b54-46b9-bc78-485e950b07b9" points="255.66 285.95 172.59 285.95 171.15 305.02 257.1 305.02 255.66 285.95"/><path class="ec8e006c-1f24-4768-9ad7-ab462a9d985e" d="M153.38,336.68h121.5a7.85,7.85,0,0,1,7.85,7.85v7.13a0,0,0,0,1,0,0H145.53a0,0,0,0,1,0,0v-7.13A7.85,7.85,0,0,1,153.38,336.68Z"/><path d="M415.94,0H12.32A12.31,12.31,0,0,0,0,12.32V254.64H428.25V12.32A12.31,12.31,0,0,0,415.94,0Z"/><path class="ec8e006c-1f24-4768-9ad7-ab462a9d985e" d="M254,254.64H0v29.21a12.32,12.32,0,0,0,12.32,12.32H415.94a12.32,12.32,0,0,0,12.31-12.32V254.64Z"/><polygon class="b7314069-c85c-442b-b1b7-6083b65442a8" points="212.77 14.98 164.7 14.98 14.99 14.98 14.99 164.7 14.99 237.6 212.77 237.6 410.55 237.6 410.55 14.98 212.77 14.98"/><g class="b44a3998-fc6e-41da-94bb-4643f094445f"><polygon class="b7314069-c85c-442b-b1b7-6083b65442a8" points="334.92 125.76 214.71 84.32 93.33 125.76 93.33 247.14 214.13 222.29 334.92 247.14 334.92 125.76"/><polygon class="b7314069-c85c-442b-b1b7-6083b65442a8" points="93.33 247.07 214.71 272.03 214.71 167.13 93.33 125.69 93.33 247.07"/><polygon class="b7314069-c85c-442b-b1b7-6083b65442a8" points="28.09 164.94 149.46 206.38 214.71 167.13 93.33 125.69 28.09 164.94"/><polygon class="b7314069-c85c-442b-b1b7-6083b65442a8" points="334.92 247.07 213.54 272.03 213.54 167.13 334.92 125.69 334.92 247.07"/><polygon class="b7314069-c85c-442b-b1b7-6083b65442a8" points="400.16 164.94 278.79 206.38 213.54 167.13 334.92 125.69 400.16 164.94"/><polygon class="b7314069-c85c-442b-b1b7-6083b65442a8" points="214.71 84.32 334.92 125.69 381.55 89.56 261.34 48.18 214.71 84.32"/><polygon class="b7314069-c85c-442b-b1b7-6083b65442a8" points="214.71 84.32 94.5 125.69 47.87 89.56 168.08 48.18 214.71 84.32"/></g></g><path id="e2ab3c83-3339-4886-9b96-df1dd1f9a004" data-name="Centre Cog" class="f0022116-7b8b-4c8b-82f1-5bd72a6e1097" d="M297.75,106.33a1.06,1.06,0,0,0,0-.19c-.11-.59-.23-1.17-.36-1.76,0-.2-.07-.4-.11-.6s-.06-.24-.08-.35c-.07-.3-.13-.6-.19-.9a1.21,1.21,0,0,1-.05-.18c-.13-.55-.27-1.08-.41-1.63-.05-.19-.09-.4-.14-.6s-.08-.27-.11-.41l-.24-.92-.06-.2c-.14-.48-.29-1-.43-1.43h0c-.06-.21-.12-.43-.19-.64l-.15-.51c-.1-.29-.18-.59-.28-.88,0-.08-.06-.16-.08-.25-.13-.38-.27-.76-.4-1.15,0-.09-.06-.19-.1-.28s-.11-.34-.17-.52l-.22-.6-.29-.81-.12-.3c-.11-.29-.23-.57-.34-.86s-.14-.38-.22-.57-.09-.26-.15-.4-.19-.46-.29-.69-.19-.47-.29-.7-.12-.26-.17-.39-.17-.37-.25-.56-.23-.55-.36-.83c0-.1-.09-.21-.14-.32l-.36-.77-.27-.58c-.08-.17-.17-.33-.25-.5l-.13-.26c-.17-.36-.34-.72-.52-1.08l-.12-.25-.44-.82-.24-.46-.33-.6c-.24-.44-.46-.88-.71-1.31l-.1-.19c-.15-.27-.32-.54-.48-.82l-.21-.37-.33-.52c-.28-.48-.56-1-.85-1.43l-.1-.17c-.17-.26-.34-.51-.5-.77l-.19-.3-.35-.52c-.33-.5-.65-1-1-1.5l-.1-.15,10.12-12.95L274.08,39.78,261.13,49.9l-.14-.09-1.51-1-.52-.34-.3-.2-.76-.49-.18-.11c-.47-.29-1-.57-1.43-.85-.17-.11-.34-.22-.52-.32l-.37-.22-.82-.48-.18-.09L253.08,45l-.59-.33-.47-.24L251.2,44l-.24-.12-1.09-.53-.26-.13-.49-.24c-.19-.1-.39-.18-.58-.27l-.78-.37-.29-.13-.86-.37-.55-.25-.39-.17-.7-.29-.7-.29-.37-.14-.6-.23-.85-.34-.31-.12-.81-.29-.6-.22-.49-.16-.31-.11-1.15-.39-.24-.09-.89-.27-.5-.16-.62-.18h0l-1.43-.43-.2-.06L234,37.4l-.42-.12-.6-.14-1.63-.41-.18,0-.89-.2-.35-.07c-.2-.05-.41-.08-.61-.12-.58-.12-1.17-.25-1.76-.36l-.18,0-2-16.31h-28l-2,16.31-.16,0c-.6.11-1.2.24-1.79.36l-.6.12-.34.07-.9.2-.16,0-1.66.41-.59.14-.41.11-.92.25-.18,0-1.46.43h0l-.61.18-.51.16-.89.27-.22.08-1.18.41-.31.1-.48.16-.6.22-.81.29-.28.11-.89.35-.6.23-.36.14-.69.29-.71.29-.35.16-.6.27c-.29.12-.59.24-.88.38l-.26.11-.77.36-.59.28-.46.23-.3.15-1.13.54-.19.1-.82.43-.47.24-.56.32,0,0-1.36.73-.13.07-.82.48-.37.22-.53.32c-.5.3-1,.59-1.5.9l-.09.05-.77.5-.3.2-.52.34c-.53.35-1.06.69-1.58,1l-.07,0L148.59,39.78,128.8,59.57l10.12,12.95,0,.06c-.37.52-.71,1.06-1.06,1.6l-.35.51-.19.3c-.16.26-.34.51-.5.77l0,.09c-.31.5-.6,1-.91,1.51-.1.18-.21.35-.32.52l-.21.37c-.16.28-.33.55-.48.83a.41.41,0,0,1-.07.11L134,80.57l0,0-.31.56-.24.47c-.15.28-.3.55-.44.83l-.08.17c-.2.38-.37.77-.56,1.16l-.15.29c-.07.15-.15.3-.23.45l-.27.58c-.12.27-.25.52-.37.79l-.09.22c-.14.31-.27.62-.4.93l-.27.59-.15.34c-.1.24-.19.47-.29.7s-.2.47-.29.71-.08.22-.13.33l-.24.63-.36.9c0,.09-.07.17-.1.26l-.29.81c-.07.2-.15.4-.22.61s-.1.3-.15.45l-.12.35c-.14.4-.29.8-.42,1.21l-.06.17c-.1.3-.18.6-.27.89s-.11.34-.17.51-.1.39-.16.58a.24.24,0,0,0,0,.08c-.15.49-.31,1-.45,1.49a.93.93,0,0,1,0,.13l-.24.92c0,.14-.07.28-.11.42s-.09.39-.14.59c-.14.56-.3,1.13-.43,1.7l0,.11c-.06.3-.12.6-.19.9,0,.11-.05.23-.08.35s-.07.4-.11.6c-.13.61-.27,1.23-.38,1.85a.3.3,0,0,0,0,.1l-16.31,2v28l16.31,2s0,.05,0,.07c.12.64.26,1.26.39,1.88,0,.2.07.4.11.6a3.59,3.59,0,0,1,.08.35c.07.3.13.6.19.9l0,.09c.13.58.28,1.15.43,1.72,0,.2.09.39.14.59s.08.28.11.42l.24.92s0,.07,0,.11c.14.51.3,1,.45,1.51a.64.64,0,0,0,0,.07c.06.2.11.39.16.59s.11.33.16.5.18.6.28.89a.88.88,0,0,1,0,.15c.14.42.29.83.43,1.24l.12.35c0,.15.09.3.15.45s.14.4.22.6.19.55.29.82l.09.23.37.93.24.63c.05.11.08.22.13.33s.19.46.29.7.19.47.29.71.09.2.14.3.19.42.28.64.26.61.4.91l.09.23.37.78.27.58c.07.15.15.28.21.42a3.59,3.59,0,0,1,.17.34c.19.38.36.76.56,1.14l.08.18.44.82.24.47c.1.18.2.35.29.53a.25.25,0,0,1,0,.07c.25.46.49.92.74,1.37a.75.75,0,0,1,.07.12c.15.27.32.54.48.82l.22.38.31.51c.31.51.6,1,.91,1.52a.56.56,0,0,0,0,.08c.16.26.33.52.5.78l.19.3.35.51c.35.53.69,1.07,1.06,1.6l0,.06L128.8,185.07l19.79,19.78,12.95-10.12.07.05c.52.36,1.06.7,1.59,1.05l.5.34.31.19.77.5.09,0c.5.32,1,.61,1.51.91l.52.32.37.22c.28.15.55.32.82.48l.13.06c.45.26.91.49,1.36.74l.07,0,.53.29.47.25.82.43.19.09,1.13.55.34.17.42.21.59.27.77.37.26.11.88.38.64.29.31.13.71.29.69.3.36.13.6.23.93.37.24.09.81.3.6.22.48.16.31.1,1.25.43.15,0,.89.28.51.16.61.17h0l1.52.46.11,0,.93.24.41.11.59.14,1.73.44.08,0,.91.19.34.08.6.11c.63.13,1.25.27,1.88.39h.07l2,16.32h28l2-16.32.09,0c.62-.11,1.24-.25,1.85-.37l.61-.12.35-.08.89-.19.12,0,1.69-.42.6-.15.42-.11.92-.24.13,0,1.49-.44,0,0,.62-.17.5-.16.89-.28.17-.06c.41-.13.81-.28,1.22-.42l.31-.1.49-.16.6-.23.81-.29.26-.1.9-.35.6-.23.37-.14.7-.3.7-.29.35-.15.59-.27.86-.37.29-.12.78-.37.58-.27.45-.23.3-.14c.36-.18.73-.35,1.09-.54l.24-.11.82-.43.47-.25.56-.31,0,0c.44-.23.88-.46,1.32-.71l.18-.1.82-.48.37-.21c.18-.1.35-.22.52-.32.48-.29,1-.56,1.43-.86l.18-.1.76-.5.3-.19.51-.34c.51-.34,1-.66,1.52-1l.14-.09,12.95,10.12,19.79-19.78-10.12-12.95.1-.16c.34-.49.66-1,1-1.5l.35-.51c.06-.1.13-.2.19-.31l.5-.76a1.62,1.62,0,0,1,.1-.18c.29-.47.57-.95.85-1.42l.33-.53.21-.37c.16-.27.33-.54.48-.82a1.62,1.62,0,0,0,.1-.18l.71-1.31,0,0,.31-.57.24-.47c.15-.27.3-.54.44-.82l.12-.25c.18-.35.34-.71.52-1.07l.15-.3c.07-.15.15-.3.23-.46l.27-.58c.12-.26.25-.52.36-.78.05-.1.09-.21.14-.32l.36-.82c.08-.2.18-.39.26-.6a3.73,3.73,0,0,0,.16-.35c.1-.23.19-.47.29-.7s.2-.47.29-.7.1-.26.15-.39.15-.38.22-.57.24-.59.35-.89a2.33,2.33,0,0,0,.11-.28l.29-.81c.08-.2.15-.4.22-.6s.11-.34.17-.52.06-.18.1-.27c.13-.39.28-.78.41-1.18l.07-.22c.1-.29.18-.59.28-.89l.15-.5c.07-.22.13-.43.19-.65h0c.15-.49.3-1,.43-1.45l.06-.18.24-.92c0-.14.07-.28.11-.42s.09-.4.14-.6c.14-.54.29-1.09.42-1.65a1.24,1.24,0,0,1,0-.16c.06-.29.12-.59.19-.89,0-.12,0-.23.08-.35s.07-.4.11-.6c.13-.6.26-1.19.37-1.79l0-.16,16.31-2v-28Zm-31.76,20c0,.47-.06.94-.1,1.41s-.13,1.06-.2,1.6c0,.34-.08.69-.13,1-.08.58-.19,1.15-.29,1.73,0,.29-.1.6-.16.89-.12.58-.25,1.16-.38,1.74-.07.29-.13.59-.2.88-.14.55-.3,1.11-.45,1.66-.09.31-.17.63-.27.93-.15.52-.32,1-.49,1.54-.12.35-.23.7-.36,1s-.33.91-.51,1.36-.3.8-.47,1.19-.33.78-.5,1.17-.39.88-.6,1.32l-.49,1c-.24.48-.48,1-.74,1.43-.15.29-.31.57-.47.85-.28.5-.56,1-.86,1.5l-.47.76c-.32.5-.63,1-1,1.5l-.52.74c-.34.48-.67,1-1,1.43l-.64.83c-.33.42-.66.85-1,1.27s-.6.7-.91,1-.55.66-.84,1c-.6.67-1.22,1.33-1.86,2s-1.3,1.26-2,1.87c-.31.28-.64.55-1,.83l-1.07.92c-.41.34-.84.66-1.26,1l-.83.64c-.47.35-.95.68-1.43,1l-.75.52c-.49.33-1,.64-1.49,1l-.77.48c-.49.29-1,.57-1.49.85l-.85.48c-.47.25-.95.49-1.43.73l-1,.49-1.32.6-1.18.51-1.18.46c-.45.18-.9.36-1.36.52l-1,.35-1.54.5-.93.26c-.55.16-1.11.31-1.67.45l-.87.2c-.58.13-1.16.27-1.74.38l-.89.16c-.58.1-1.15.21-1.74.29l-1,.13c-.54.07-1.08.15-1.62.2l-1.37.1-1.3.1c-.88,0-1.77.06-2.66.06h-.09c-.89,0-1.78,0-2.66-.06l-1.3-.1-1.37-.1c-.54-.05-1.08-.13-1.62-.2l-1-.13c-.59-.08-1.17-.19-1.75-.29l-.88-.16c-.58-.11-1.16-.25-1.75-.38l-.86-.2q-.84-.21-1.68-.45l-.92-.26-1.54-.5-1-.35c-.46-.16-.91-.34-1.37-.52l-1.17-.46-1.18-.51c-.44-.2-.88-.39-1.31-.6l-1-.49c-.48-.24-1-.48-1.43-.73l-.85-.48c-.5-.28-1-.56-1.49-.85l-.77-.49c-.5-.31-1-.62-1.49-.95l-.76-.53q-.57-.39-1.14-.81l-.27-.2c-.29-.21-.57-.43-.85-.65l-.22-.18c-.35-.26-.7-.53-1-.8l-1.07-.92c-.32-.28-.65-.55-1-.83-.67-.61-1.32-1.23-2-1.87s-1.26-1.3-1.86-2c-.29-.31-.56-.64-.84-1s-.62-.7-.91-1.06-.54-.69-.81-1l-.18-.24c-.22-.27-.44-.55-.65-.83l-.2-.28-.81-1.14c-.18-.25-.36-.5-.53-.76-.33-.49-.64-1-.95-1.49-.16-.25-.33-.51-.48-.76-.3-.5-.58-1-.86-1.5-.16-.28-.32-.56-.47-.85-.26-.47-.5-1-.74-1.43l-.49-1c-.21-.44-.4-.88-.6-1.32s-.34-.78-.5-1.17-.32-.79-.47-1.19-.35-.9-.51-1.36-.24-.69-.36-1c-.17-.51-.34-1-.49-1.54-.1-.3-.18-.62-.27-.93-.15-.55-.31-1.11-.45-1.66-.07-.29-.13-.59-.2-.88-.13-.58-.26-1.16-.38-1.74-.06-.3-.11-.6-.16-.9s-.12-.68-.17-1-.09-.46-.12-.69-.09-.7-.13-1.05l-.06-.46c0-.38-.1-.75-.14-1.13s-.07-.94-.1-1.41-.07-.84-.09-1.26c-.05-.9-.07-1.8-.07-2.71s0-1.82.07-2.72c0-.41.06-.83.09-1.25s.06-.95.11-1.41.09-.75.13-1.13l.06-.46c0-.35.08-.71.13-1s.08-.47.12-.7.11-.68.17-1,.1-.61.16-.91c.12-.58.25-1.15.38-1.73.07-.29.13-.59.2-.88.14-.56.3-1.11.45-1.66.09-.31.17-.63.27-.94.15-.51.32-1,.49-1.53.12-.35.23-.7.36-1.05s.33-.9.51-1.35.3-.8.47-1.19.33-.78.5-1.16.39-.9.6-1.34.33-.65.49-1c.24-.48.48-1,.74-1.44l.46-.84c.29-.5.57-1,.87-1.5.15-.26.31-.5.47-.75.32-.51.63-1,1-1.51.16-.25.34-.49.51-.74q.49-.72,1-1.44l.63-.81c.34-.43.67-.86,1-1.28s.59-.69.89-1,.56-.67.86-1c.59-.65,1.19-1.29,1.82-1.92l.09-.08q.94-.94,1.92-1.83c.32-.29.66-.57,1-.86l1-.89c.42-.34.86-.67,1.29-1l.81-.64c.47-.35,1-.68,1.44-1,.24-.17.49-.35.74-.51.49-.33,1-.65,1.5-1l.75-.47c.5-.3,1-.58,1.51-.86l.84-.47c.47-.26.95-.5,1.44-.74.33-.16.65-.33,1-.48l1.33-.61,1.16-.5,1.19-.47c.45-.17.9-.35,1.36-.51l1-.36c.51-.17,1-.34,1.53-.49l.94-.27c.55-.15,1.1-.31,1.66-.44.29-.08.58-.14.88-.21l1.73-.38.9-.16,1.72-.29,1.05-.13c.53-.07,1.06-.14,1.59-.19s.94-.08,1.41-.11l1.26-.09c.9,0,1.81-.07,2.72-.07s1.81,0,2.71.07l1.26.09c.47,0,.94.06,1.41.11s1.06.12,1.59.19l1.05.13,1.72.29.9.16,1.74.38c.29.07.58.13.87.21.56.13,1.11.29,1.67.44l.93.27,1.53.49,1.05.36c.46.16.91.34,1.36.51l1.19.47c.39.16.77.33,1.16.51l1.33.59,1,.49c.48.24,1,.48,1.43.74l.85.47c.5.28,1,.56,1.49.86l.76.48q.76.47,1.5,1l.75.52c.48.33,1,.66,1.43,1l.82.64c.43.33.86.66,1.27,1s.71.6,1.06.91.65.55,1,.84c.67.6,1.32,1.22,2,1.87s1.26,1.3,1.86,2c.29.32.56.65.84,1s.62.7.91,1.06.67.84,1,1.27l.64.83c.35.46.68.94,1,1.42l.52.75c.33.49.64,1,1,1.5.16.25.32.5.47.76.3.49.58,1,.86,1.5.16.28.32.56.47.84.26.47.5,1,.74,1.44.16.33.33.65.49,1s.4.88.6,1.32.34.78.5,1.17.32.79.47,1.18.35.91.51,1.36.24.7.36,1.05c.17.51.34,1,.49,1.53.1.31.18.62.27.94.15.55.31,1.1.45,1.66.07.29.13.58.2.88.13.57.26,1.15.38,1.73.06.3.11.6.16.9.1.57.21,1.15.29,1.73.05.34.09.69.13,1,.07.53.14,1.06.2,1.6s.07.93.1,1.4.07.84.09,1.27c.05.89.07,1.8.07,2.71s0,1.81-.07,2.71C266.06,125.45,266,125.87,266,126.29Z"/></g></g></svg>