<svg xmlns="http://www.w3.org/2000/svg" viewBox="0 0 253.8 19.61"><defs><style>.bfe75aa8-255e-442a-8909-e4d62fbedcb8{fill:#00a1b8;}</style></defs><title>06 numbers 6_1</title><g id="fd75674f-d824-4ec9-a881-c72a553fc64a" data-name="Layer 2"><g id="bd943cda-25ea-427f-839c-6343e420c115" data-name="Layer 1"><path class="bfe75aa8-255e-442a-8909-e4d62fbedcb8" d="M8.18.33v19H3.79V3.85H0V.33Z"/><path class="bfe75aa8-255e-442a-8909-e4d62fbedcb8" d="M49.59.33v19H45.21V3.85h-3.8V.33Z"/><path class="bfe75aa8-255e-442a-8909-e4d62fbedcb8" d="M147,.33v19h-4.39V3.85h-3.79V.33Z"/><path class="bfe75aa8-255e-442a-8909-e4d62fbedcb8" d="M162.65.33v19h-4.39V3.85h-3.79V.33Z"/><path class="bfe75aa8-255e-442a-8909-e4d62fbedcb8" d="M178.29.33v19H173.9V3.85h-3.79V.33Z"/><path class="bfe75aa8-255e-442a-8909-e4d62fbedcb8" d="M17.82,9.81C17.82,3.55,21.28,0,25.94,0s8.13,3.55,8.13,9.81-3.44,9.8-8.13,9.8S17.82,16.06,17.82,9.81Zm11.83,0c0-4.31-1.51-6.1-3.71-6.1s-3.68,1.79-3.68,6.1,1.52,6.09,3.68,6.09S29.65,14.11,29.65,9.81Z"/><path class="bfe75aa8-255e-442a-8909-e4d62fbedcb8" d="M56,9.81C56,3.55,59.44,0,64.1,0s8.12,3.55,8.12,9.81-3.44,9.8-8.12,9.8S56,16.06,56,9.81Zm11.84,0c0-4.31-1.52-6.1-3.71-6.1s-3.69,1.79-3.69,6.1,1.52,6.09,3.69,6.09S67.81,14.11,67.81,9.81Z"/><path class="bfe75aa8-255e-442a-8909-e4d62fbedcb8" d="M76.6,9.81C76.6,3.55,80.07,0,84.73,0s8.13,3.55,8.13,9.81-3.44,9.8-8.13,9.8S76.6,16.06,76.6,9.81Zm11.84,0c0-4.31-1.52-6.1-3.71-6.1s-3.68,1.79-3.68,6.1,1.51,6.09,3.68,6.09S88.44,14.11,88.44,9.81Z"/><path class="bfe75aa8-255e-442a-8909-e4d62fbedcb8" d="M97.24,9.81c0-6.26,3.46-9.81,8.12-9.81s8.13,3.55,8.13,9.81-3.44,9.8-8.13,9.8S97.24,16.06,97.24,9.81Zm11.83,0c0-4.31-1.51-6.1-3.71-6.1s-3.68,1.79-3.68,6.1,1.52,6.09,3.68,6.09S109.07,14.11,109.07,9.81Z"/><path class="bfe75aa8-255e-442a-8909-e4d62fbedcb8" d="M117.87,9.81C117.87,3.55,121.34,0,126,0s8.12,3.55,8.12,9.81-3.44,9.8-8.12,9.8S117.87,16.06,117.87,9.81Zm11.84,0c0-4.31-1.52-6.1-3.71-6.1s-3.69,1.79-3.69,6.1,1.52,6.09,3.69,6.09S129.71,14.11,129.71,9.81Z"/><path class="bfe75aa8-255e-442a-8909-e4d62fbedcb8" d="M195.23,9.81c0-6.26,3.47-9.81,8.13-9.81s8.12,3.55,8.12,9.81-3.44,9.8-8.12,9.8S195.23,16.06,195.23,9.81Zm11.84,0c0-4.31-1.52-6.1-3.71-6.1s-3.69,1.79-3.69,6.1,1.52,6.09,3.69,6.09S207.07,14.11,207.07,9.81Z"/><path class="bfe75aa8-255e-442a-8909-e4d62fbedcb8" d="M216.39,9.81c0-6.26,3.46-9.81,8.12-9.81s8.13,3.55,8.13,9.81-3.44,9.8-8.13,9.8S216.39,16.06,216.39,9.81Zm11.83,0c0-4.31-1.51-6.1-3.71-6.1s-3.68,1.79-3.68,6.1,1.52,6.09,3.68,6.09S228.22,14.11,228.22,9.81Z"/><path class="bfe75aa8-255e-442a-8909-e4d62fbedcb8" d="M237.54,9.81C237.54,3.55,241,0,245.67,0s8.13,3.55,8.13,9.81-3.44,9.8-8.13,9.8S237.54,16.06,237.54,9.81Zm11.84,0c0-4.31-1.52-6.1-3.71-6.1S242,5.5,242,9.81s1.51,6.09,3.68,6.09S249.38,14.11,249.38,9.81Z"/></g></g></svg>