<svg xmlns="http://www.w3.org/2000/svg" viewBox="0 0 244.2 19.61"><defs><style>.b5b6c98b-404e-4b20-936e-d137cfa7d381{fill:#afc4d1;}</style></defs><title>06 numbers 5</title><g id="b9ec9ec5-e008-4ff0-8a6b-f5a5e240860a" data-name="Layer 2"><g id="b6015437-dd00-432e-8c35-25d5903d85a9" data-name="Layer 1"><path class="b5b6c98b-404e-4b20-936e-d137cfa7d381" d="M8.18.33v19H3.79V3.85H0V.33Z"/><path class="b5b6c98b-404e-4b20-936e-d137cfa7d381" d="M73.91.33v19H69.52V3.85H65.73V.33Z"/><path class="b5b6c98b-404e-4b20-936e-d137cfa7d381" d="M42.13,9.81C42.13,3.55,45.6,0,50.26,0s8.13,3.55,8.13,9.81-3.44,9.8-8.13,9.8S42.13,16.06,42.13,9.81ZM54,9.81c0-4.31-1.52-6.1-3.71-6.1s-3.68,1.79-3.68,6.1,1.51,6.09,3.68,6.09S54,14.11,54,9.81Z"/><path class="b5b6c98b-404e-4b20-936e-d137cfa7d381" d="M80.29,9.81C80.29,3.55,83.75,0,88.41,0s8.13,3.55,8.13,9.81-3.44,9.8-8.13,9.8S80.29,16.06,80.29,9.81Zm11.83,0c0-4.31-1.51-6.1-3.71-6.1s-3.68,1.79-3.68,6.1,1.52,6.09,3.68,6.09S92.12,14.11,92.12,9.81Z"/><path class="b5b6c98b-404e-4b20-936e-d137cfa7d381" d="M104.9,9.81C104.9,3.55,108.36,0,113,0s8.13,3.55,8.13,9.81-3.44,9.8-8.13,9.8S104.9,16.06,104.9,9.81Zm11.83,0c0-4.31-1.51-6.1-3.71-6.1s-3.68,1.79-3.68,6.1,1.52,6.09,3.68,6.09S116.73,14.11,116.73,9.81Z"/><path class="b5b6c98b-404e-4b20-936e-d137cfa7d381" d="M129.51,9.81C129.51,3.55,133,0,137.64,0s8.12,3.55,8.12,9.81-3.44,9.8-8.12,9.8S129.51,16.06,129.51,9.81Zm11.84,0c0-4.31-1.52-6.1-3.71-6.1S134,5.5,134,9.81s1.52,6.09,3.69,6.09S141.35,14.11,141.35,9.81Z"/><path class="b5b6c98b-404e-4b20-936e-d137cfa7d381" d="M154.12,9.81c0-6.26,3.47-9.81,8.13-9.81s8.12,3.55,8.12,9.81-3.44,9.8-8.12,9.8S154.12,16.06,154.12,9.81Zm11.84,0c0-4.31-1.52-6.1-3.71-6.1s-3.69,1.79-3.69,6.1,1.52,6.09,3.69,6.09S166,14.11,166,9.81Z"/><path class="b5b6c98b-404e-4b20-936e-d137cfa7d381" d="M178.73,9.81c0-6.26,3.47-9.81,8.13-9.81S195,3.55,195,9.81s-3.44,9.8-8.12,9.8S178.73,16.06,178.73,9.81Zm11.84,0c0-4.31-1.52-6.1-3.71-6.1s-3.69,1.79-3.69,6.1,1.52,6.09,3.69,6.09S190.57,14.11,190.57,9.81Z"/><path class="b5b6c98b-404e-4b20-936e-d137cfa7d381" d="M203.34,9.81c0-6.26,3.47-9.81,8.13-9.81s8.12,3.55,8.12,9.81-3.44,9.8-8.12,9.8S203.34,16.06,203.34,9.81Zm11.84,0c0-4.31-1.52-6.1-3.71-6.1s-3.69,1.79-3.69,6.1,1.52,6.09,3.69,6.09S215.18,14.11,215.18,9.81Z"/><path class="b5b6c98b-404e-4b20-936e-d137cfa7d381" d="M228,9.81C228,3.55,231.42,0,236.08,0s8.12,3.55,8.12,9.81-3.44,9.8-8.12,9.8S228,16.06,228,9.81Zm11.84,0c0-4.31-1.52-6.1-3.71-6.1s-3.68,1.79-3.68,6.1,1.51,6.09,3.68,6.09S239.79,14.11,239.79,9.81Z"/></g></g></svg>