<svg xmlns="http://www.w3.org/2000/svg" viewBox="0 0 153.89 19.61"><defs><style>.fc8f14f2-3694-4d59-ac3b-6a8ffd26fa5b{fill:#7f94a0;}</style></defs><title>06 numbers 4</title><g id="ff92e26f-1cde-4422-9778-e7be735e9ece" data-name="Layer 2"><g id="b1274566-268a-46a8-94de-44784747df33" data-name="Layer 1"><path class="fc8f14f2-3694-4d59-ac3b-6a8ffd26fa5b" d="M8.18.33v19H3.79V3.85H0V.33Z"/><path class="fc8f14f2-3694-4d59-ac3b-6a8ffd26fa5b" d="M49.59.33v19H45.21V3.85h-3.8V.33Z"/><path class="fc8f14f2-3694-4d59-ac3b-6a8ffd26fa5b" d="M96.21.33v19H91.83V3.85H88V.33Z"/><path class="fc8f14f2-3694-4d59-ac3b-6a8ffd26fa5b" d="M119.69.33v19H115.3V3.85h-3.79V.33Z"/><path class="fc8f14f2-3694-4d59-ac3b-6a8ffd26fa5b" d="M17.82,9.81C17.82,3.55,21.28,0,25.94,0s8.13,3.55,8.13,9.81-3.44,9.8-8.13,9.8S17.82,16.06,17.82,9.81Zm11.83,0c0-4.31-1.51-6.1-3.71-6.1s-3.68,1.79-3.68,6.1,1.52,6.09,3.68,6.09S29.65,14.11,29.65,9.81Z"/><path class="fc8f14f2-3694-4d59-ac3b-6a8ffd26fa5b" d="M56,9.81C56,3.55,59.44,0,64.1,0s8.12,3.55,8.12,9.81-3.44,9.8-8.12,9.8S56,16.06,56,9.81Zm11.84,0c0-4.31-1.52-6.1-3.71-6.1s-3.69,1.79-3.69,6.1,1.52,6.09,3.69,6.09S67.81,14.11,67.81,9.81Z"/><path class="fc8f14f2-3694-4d59-ac3b-6a8ffd26fa5b" d="M137.63,9.81c0-6.26,3.47-9.81,8.13-9.81s8.13,3.55,8.13,9.81-3.44,9.8-8.13,9.8S137.63,16.06,137.63,9.81Zm11.84,0c0-4.31-1.51-6.1-3.71-6.1s-3.68,1.79-3.68,6.1,1.51,6.09,3.68,6.09S149.47,14.11,149.47,9.81Z"/></g></g></svg>