<svg xmlns="http://www.w3.org/2000/svg" viewBox="0 0 213.73 114.81"><defs><style>.ab66fb22-3850-4c5e-a425-24463e3317d0{fill:#afc4d1;opacity:0.38;}</style></defs><title>06 robot smoke</title><g id="ede70c5a-904d-4a45-a742-08a9ba5905b6" data-name="Layer 2"><g id="f07b48e8-e831-4a61-a34d-10bf205573dc" data-name="Layer 1"><path id="e23c3370-214c-47cd-a293-33d82056c451" data-name="Robot Lift Off Smoke" class="ab66fb22-3850-4c5e-a425-24463e3317d0" d="M193.68,57.51a20,20,0,0,0-13.5,5.25,29.34,29.34,0,0,0-19-6.93,29.69,29.69,0,0,0-4.35.33L151.89,0h-42.7l-5,56.16A29.41,29.41,0,0,0,75.29,69a15.76,15.76,0,1,0-2.81,27.22,29.48,29.48,0,0,0,42.8,14.21A23.46,23.46,0,0,0,144,109.28a29.49,29.49,0,0,0,44.33-12.42,20,20,0,1,0,5.33-39.35Z"/><circle class="ab66fb22-3850-4c5e-a425-24463e3317d0" cx="71.65" cy="33.13" r="10.23" transform="translate(22.88 95.19) rotate(-76.66)"/><circle class="ab66fb22-3850-4c5e-a425-24463e3317d0" cx="17.14" cy="91.29" r="17.14" transform="translate(-75.72 93.22) rotate(-80.55)"/><path class="ab66fb22-3850-4c5e-a425-24463e3317d0" d="M161.21,33.13a6.12,6.12,0,1,1,6.11,6.11A6.11,6.11,0,0,1,161.21,33.13Z"/></g></g></svg>