<svg xmlns="http://www.w3.org/2000/svg" viewBox="0 0 420.23 374.81"><defs><style>.f10e67cb-4b79-490a-a92e-a254c4c8e7de{fill:#7f94a0;}.a64cebc6-8978-4ad2-b519-8f172ede6029{fill:#526672;}</style></defs><title>06 robot base</title><g id="bf68a73a-686a-4b68-b3cf-cc5621751624" data-name="Layer 2"><g id="aa0b3e31-00b1-460d-a55e-afe9cf3c1274" data-name="Layer 1"><path class="f10e67cb-4b79-490a-a92e-a254c4c8e7de" d="M129.8,203.12h94a23.36,23.36,0,0,1,23.36,23.36v39.35a0,0,0,0,1,0,0H106.44a0,0,0,0,1,0,0V226.49A23.36,23.36,0,0,1,129.8,203.12Z"/><path class="a64cebc6-8978-4ad2-b519-8f172ede6029" d="M60.57,260.29H293a10.83,10.83,0,0,1,10.83,10.83v49.39a0,0,0,0,1,0,0H49.74a0,0,0,0,1,0,0V271.12A10.83,10.83,0,0,1,60.57,260.29Z"/><path class="f10e67cb-4b79-490a-a92e-a254c4c8e7de" d="M12,306.55H408.19a12,12,0,0,1,12,12v10.55a0,0,0,0,1,0,0H0a0,0,0,0,1,0,0V318.58A12,12,0,0,1,12,306.55Z"/><circle cx="37.64" cy="347.66" r="27.15" transform="translate(-309.48 305.36) rotate(-76.87)"/><circle class="f10e67cb-4b79-490a-a92e-a254c4c8e7de" cx="37.64" cy="347.66" r="11.48"/><circle cx="380.86" cy="347.66" r="27.15" transform="translate(-38.22 648.15) rotate(-78.03)"/><circle class="f10e67cb-4b79-490a-a92e-a254c4c8e7de" cx="380.86" cy="347.66" r="11.48"/><circle cx="206.79" cy="347.66" r="27.15" transform="translate(-178.75 470.09) rotate(-76.87)"/><circle class="f10e67cb-4b79-490a-a92e-a254c4c8e7de" cx="206.79" cy="347.66" r="11.48"/><path class="f10e67cb-4b79-490a-a92e-a254c4c8e7de" d="M320.07,26A17,17,0,0,0,315.12,2.9h0A17,17,0,0,0,291.83,7L173.67,170.14A17,17,0,0,0,178,194.27l11.63,7.82a17,17,0,0,0,24-5.12ZM223.59,151.35a6.91,6.91,0,1,1-11.46-7.71L274,51.7a6.91,6.91,0,0,1,11.47,7.71Z"/><circle class="a64cebc6-8978-4ad2-b519-8f172ede6029" cx="176.79" cy="203.12" r="42.66"/><circle class="f10e67cb-4b79-490a-a92e-a254c4c8e7de" cx="176.79" cy="203.12" r="32.66"/><circle class="a64cebc6-8978-4ad2-b519-8f172ede6029" cx="176.79" cy="203.12" r="11.83" transform="translate(-91.85 184.5) rotate(-45)"/></g></g></svg>