<svg xmlns="http://www.w3.org/2000/svg" viewBox="0 0 263.97 126.57"><defs><style>.bcd0d93e-913a-4155-b29d-8ed6624326c1{fill:#526672;}.ac73127e-3629-4569-ba8c-2b04f5edc8b3{fill:none;stroke:#fff;stroke-miterlimit:10;stroke-width:4px;}.bf653ed4-ccdb-4812-848d-73302b096f54{fill:#293d48;}.b666fd13-3775-4834-8f55-0d0f07fcc6dc{fill:#e1f7ff;}.b72faaed-8149-4139-89f1-d20b4bb00988{fill:#fff;}.f6e301a5-130c-41cc-b096-1326bbd815ab{fill:#007288;}.b9d2915d-b8d2-43a6-8c06-676ebbe1dd56{fill:#00e0e1;}.acba0cf5-3a8c-4c4c-bb2f-2e0ac110e68f{fill:#00a1b8;}.aeff45b6-2698-403e-a2fa-3c4ea42b78e4{fill:#4dd3ea;}</style></defs><title>06 robot 3</title><g id="b626c583-1a11-4deb-b65b-f428fdf0bfd4" data-name="Layer 2"><g id="f0064a89-e713-483c-8b50-703af25c9eaf" data-name="Layer 1"><path id="ec4df3b3-dd23-49f9-a31a-64d51dc810c5" data-name="Cog6" class="bcd0d93e-913a-4155-b29d-8ed6624326c1" d="M77,80.93l0-.08a1,1,0,0,0,.07-.15c.1-.2.19-.4.29-.61l.06-.15c.1-.2.19-.41.28-.62l.06-.15h0a1.22,1.22,0,0,0,.07-.17c.06-.13.11-.25.16-.38l0-.07,0-.07.15-.39.06-.17h0a.88.88,0,0,0,0-.15c.09-.22.16-.43.24-.64a1,1,0,0,1,.05-.16c.08-.21.15-.42.22-.64a.88.88,0,0,1,0-.15l0-.09,4.16,0,3.11,0a25.42,25.42,0,0,0,.9-3.51A24.59,24.59,0,0,0,87.5,69L84.57,68l-3.91-1.42v-.05s0-.11,0-.16c0-.23,0-.45,0-.68v-.16c0-.23,0-.46,0-.68v-.45c0-.1,0-.2,0-.3v-.14l0-.68v-.16c0-.23,0-.46,0-.68v-.17a.06.06,0,0,0,0,0l3.87-1.52,2.91-1.14A24.56,24.56,0,0,0,86.91,56a25,25,0,0,0-1-3.49l-3.13.11-4.14.13a.41.41,0,0,1,0-.08l-.06-.16c-.07-.21-.15-.42-.23-.63l-.06-.16c-.08-.21-.16-.42-.25-.63L78,50.89h0a1.22,1.22,0,0,1-.07-.17c-.05-.13-.11-.25-.16-.38l0-.07,0-.07L77.6,50l-.09-.21-.07-.17h0l-.07-.15c-.09-.2-.18-.41-.28-.61a1,1,0,0,1-.07-.15l-.3-.6L76.63,48a.3.3,0,0,0,0-.08l3-2.92,2.22-2.19a24.64,24.64,0,0,0-1.84-3.11,24,24,0,0,0-2.27-2.81l-2.83,1.32-3.77,1.76,0,0-.11-.12-.46-.49-.12-.12-.48-.49-.1-.1-.21-.21-.22-.21-.1-.09-.5-.47-.12-.11c-.17-.16-.33-.31-.5-.45L68,36.93l0,0,1.66-3.81,1.25-2.86A24.19,24.19,0,0,0,68,28a22.9,22.9,0,0,0-3.16-1.77L62.7,28.54l-2.84,3-.08,0-.15-.07L59,31.17l-.15-.06c-.2-.09-.41-.19-.62-.27l-.15-.07h0l-.17-.07-.39-.16-.07,0-.07,0L57,30.33l-.17-.06h0l-.15-.05L56,30l-.15-.06-.64-.22-.16-.05-.08,0,0-4.17,0-3.11a24.92,24.92,0,0,0-3.5-.9,24.58,24.58,0,0,0-3.6-.38L46.89,24l-1.42,3.91h-.21l-.68,0H42.85l-.69,0H42l-.69,0h-.2L39.6,24.1l-1.14-2.91a24.88,24.88,0,0,0-3.59.47,25.22,25.22,0,0,0-3.48,1l.1,3.13.14,4.14a.32.32,0,0,1-.09,0l-.15.06-.64.23-.15.06-.63.25-.15.06h0l-.16.07-.39.16-.06,0h0l-.07,0-.39.17-.16.08h0l-.15.06-.62.29-.14.07-.61.3-.14.08-.08,0L23.9,29,21.71,26.8a22.88,22.88,0,0,0-3.11,1.84,23.22,23.22,0,0,0-2.81,2.27l1.31,2.83,1.76,3.77,0,0-.12.11-.5.47-.11.11c-.16.15-.33.31-.49.48l-.1.1L17.3,39l-.21.22-.1.1c-.16.16-.31.33-.47.5l-.1.12c-.16.17-.31.33-.46.51l-.1.12,0,0L12,39,9.16,37.71a24.67,24.67,0,0,0-4,6l2.28,2.14,3,2.84,0,.08a1,1,0,0,0-.07.15c-.1.2-.2.41-.29.61L10,49.7l-.27.62-.06.15h0a.87.87,0,0,1-.07.17L9.47,51l0,.06,0,.08-.15.39a1.11,1.11,0,0,1-.07.16v0l-.06.15c-.08.21-.15.42-.23.64l-.05.15c-.08.21-.15.43-.22.64l-.05.16,0,.08-4.16,0-3.11,0A23.62,23.62,0,0,0,.38,57,24.58,24.58,0,0,0,0,60.62l2.93,1.06L6.84,63.1v0a.86.86,0,0,0,0,.16c0,.23,0,.46,0,.68v.16c0,.23,0,.46,0,.69v.44c0,.1,0,.2,0,.3v.14c0,.23,0,.46,0,.69a.76.76,0,0,1,0,.15c0,.23,0,.46,0,.69a.92.92,0,0,0,0,.16v0L3,69,.12,70.11A24.69,24.69,0,0,0,.59,73.7a25.22,25.22,0,0,0,1,3.48l3.12-.1,4.15-.14,0,.09.06.15c.07.21.15.43.23.64l.06.15.24.63.06.15h0c0,.06.05.12.07.17l.16.39,0,.06,0,.07c0,.06,0,.12.07.17l.1.22.07.16v0l.06.14.29.62s.05.09.07.14l.3.61.07.14a.59.59,0,0,1,0,.08l-3,2.92L5.72,86.86A25.14,25.14,0,0,0,7.56,90a24.29,24.29,0,0,0,2.28,2.81l2.82-1.31,3.77-1.76,0,0,.1.12.47.5.11.11.48.49a.94.94,0,0,1,.1.1l.22.21.22.21.09.1.51.47.11.1.51.46.12.1,0,0-1.66,3.8-1.25,2.86a23.91,23.91,0,0,0,2.86,2.21,25.26,25.26,0,0,0,3.16,1.76l2.14-2.27,2.84-3,.08,0,.15.08.61.28.15.07.62.27.15.06h0l.17.07.38.15.07,0,.07,0,.39.15.17.07h0l.14.06.65.23.14,0,.65.22.15,0,.09,0,0,4.16,0,3.11a24.07,24.07,0,0,0,3.51.9,24.59,24.59,0,0,0,3.59.38l1.07-2.93L42,101.73h.21l.68,0h1.73l.69,0h.16l.67,0h.21l1.52,3.86L49,108.45a26.32,26.32,0,0,0,3.59-.46,25.25,25.25,0,0,0,3.48-1l-.1-3.12-.14-4.15.08,0,.16-.06.63-.23.16-.06.63-.24.15-.07h0l.17-.07.38-.16.07,0,.07,0,.38-.17.17-.07h0l.15-.06.62-.29.14-.07.61-.3.14-.07.08,0,2.92,3,2.19,2.22a25.33,25.33,0,0,0,5.92-4.12L70.4,95.91l-1.77-3.77,0,0,.12-.12.49-.46.12-.11.49-.48.1-.1.21-.22.21-.22.1-.1.46-.5a1.14,1.14,0,0,0,.11-.11l.46-.51.1-.12,0,0,3.81,1.66,2.86,1.25a25,25,0,0,0,2.21-2.86,25.26,25.26,0,0,0,1.76-3.16L80,83.77ZM60.49,75.85a20,20,0,1,1,1.62-19.06A20.05,20.05,0,0,1,60.49,75.85Z"/><g id="ab03e4c8-ee17-4f61-99cf-7125c06b9166" data-name="Robot Left Float"><path class="ac73127e-3629-4569-ba8c-2b04f5edc8b3" d="M100.52,76.8s25.81,7.25,43-14.9"/><path class="bf653ed4-ccdb-4812-848d-73302b096f54" d="M103.92,80.06h0a11.33,11.33,0,0,1-14.67,6.45L87.9,86a9.13,9.13,0,0,1-5.8-8.11l9.58,3.73,4.27-11-9.58-3.73a9.13,9.13,0,0,1,9.76-2l1.35.52A11.34,11.34,0,0,1,103.92,80.06Z"/><path class="ac73127e-3629-4569-ba8c-2b04f5edc8b3" d="M199.54,55.6s23.37,11.56,43.78-6.53"/><path class="bf653ed4-ccdb-4812-848d-73302b096f54" d="M242.58,52.83h0a11.34,11.34,0,0,1,4.5-15.39l1.26-.69a9.12,9.12,0,0,1,9.94.77l-9,4.94,5.65,10.32,9-4.94a9.11,9.11,0,0,1-4.7,8.79l-1.27.69A11.32,11.32,0,0,1,242.58,52.83Z"/><path class="b666fd13-3775-4834-8f55-0d0f07fcc6dc" d="M208.64,72.78c0,18.41-15.55,53.79-34.74,53.79-6.2,0-12-3.69-17.06-9.31-10.56-11.77-17.69-32-17.69-44.48,0-18.41,15.55-26.59,34.75-26.59a57,57,0,0,1,11.46,1.1C198.92,50.06,208.64,58.22,208.64,72.78Z"/><path class="b72faaed-8149-4139-89f1-d20b4bb00988" d="M191,63.49c0,18.24-15.26,53.1-34.19,53.77-10.56-11.77-17.69-32-17.69-44.48,0-18.41,15.55-26.59,34.75-26.59a57,57,0,0,1,11.46,1.1C189,51.38,191,56.75,191,63.49Z"/><path class="b666fd13-3775-4834-8f55-0d0f07fcc6dc" d="M207.7,34.42c0,19-15.41,20.72-34.42,20.72-11,0-20.85-.58-27.15-4.77-4.56-3-7.28-8-7.28-15.95A34.42,34.42,0,0,1,173.28,0h.87A34.42,34.42,0,0,1,207.7,34.42Z"/><path class="b72faaed-8149-4139-89f1-d20b4bb00988" d="M191.66,30c0,19-15.41,20.72-34.42,20.72-3.89,0-7.62-.07-11.11-.35-4.56-3-7.28-8-7.28-15.95A34.42,34.42,0,0,1,173.28,0h.87A34.43,34.43,0,0,1,191.66,30Z"/><rect x="152.1" y="21.35" width="43.3" height="16.21" rx="4.08"/><rect class="f6e301a5-130c-41cc-b096-1326bbd815ab" x="168.64" y="10.8" width="10.21" height="37.3" rx="1.08" transform="translate(203.2 -144.29) rotate(90)"/><circle class="b9d2915d-b8d2-43a6-8c06-676ebbe1dd56" cx="161.75" cy="29.45" r="2.48"/><circle class="b9d2915d-b8d2-43a6-8c06-676ebbe1dd56" cx="185.91" cy="29.45" r="2.48"/><rect x="155.1" y="67.33" width="28.33" height="18.14" rx="3"/><rect class="acba0cf5-3a8c-4c4c-bb2f-2e0ac110e68f" x="158.1" y="70.33" width="22.33" height="12.14"/><rect class="b9d2915d-b8d2-43a6-8c06-676ebbe1dd56" x="188.4" y="67.33" width="7" height="4.36"/><rect class="b9d2915d-b8d2-43a6-8c06-676ebbe1dd56" x="188.4" y="74.22" width="7" height="4.36"/><path class="aeff45b6-2698-403e-a2fa-3c4ea42b78e4" d="M169.27,73a13,13,0,0,1-4,9.52H158.1V70.33H169A14,14,0,0,1,169.27,73Z"/></g></g></g></svg>