<svg xmlns="http://www.w3.org/2000/svg" viewBox="0 0 128.27 126.57"><defs><style>.af8bf37e-13da-4696-a91c-0f67488e2c27{fill:none;stroke:#fff;stroke-miterlimit:10;stroke-width:4px;}.f40c52b7-a5e3-4a07-a338-ffd7e25a0882{fill:#afc4d1;}.fbfd2003-6a57-441b-86f9-90457aabe383{fill:#e1f7ff;}.ac66e74b-0021-4046-b759-ad2467218ce8{fill:#fff;}.bb1c4e9f-08d0-44b2-b875-b2b2a2a186f2{fill:#007288;}.e1b6843a-6c89-4613-a7e1-14ef71259d19{fill:#00e0e1;}.ac3cc736-2ffe-4354-8d4b-c02f153ae039{fill:#00a1b8;}.f3a7ba64-a923-41e5-b2c2-a35c568804b5{fill:#4dd3ea;}</style></defs><title>06 robot launch</title><g id="b9e6664b-528f-4093-87cf-ba2fc7ea27e7" data-name="Layer 2"><g id="b6dee08b-0db7-46e2-9f52-1f78cc4e7f9f" data-name="Layer 1"><path class="af8bf37e-13da-4696-a91c-0f67488e2c27" d="M115.68,92.34S115.15,65.54,89,55.48"/><path class="f40c52b7-a5e3-4a07-a338-ffd7e25a0882" d="M117.82,88.14h0a11.34,11.34,0,0,1,10.42,12.18l-.11,1.44a9.13,9.13,0,0,1-6.09,7.9l.8-10.25-11.73-.92-.8,10.25a9.11,9.11,0,0,1-4.78-8.74l.11-1.44A11.33,11.33,0,0,1,117.82,88.14Z"/><path class="fbfd2003-6a57-441b-86f9-90457aabe383" d="M99.31,72.78c0,18.41-15.55,53.79-34.74,53.79-6.2,0-12-3.69-17.06-9.31C37,105.49,29.82,85.25,29.82,72.78c0-18.41,15.55-26.59,34.75-26.59A57,57,0,0,1,76,47.29C89.59,50.06,99.31,58.22,99.31,72.78Z"/><path class="ac66e74b-0021-4046-b759-ad2467218ce8" d="M81.7,63.49c0,18.24-15.26,53.1-34.19,53.77C37,105.49,29.82,85.25,29.82,72.78c0-18.41,15.55-26.59,34.75-26.59A57,57,0,0,1,76,47.29C79.62,51.38,81.7,56.75,81.7,63.49Z"/><path class="fbfd2003-6a57-441b-86f9-90457aabe383" d="M98.37,34.42c0,19-15.41,20.72-34.42,20.72-11,0-20.85-.58-27.15-4.77-4.56-3-7.28-8-7.28-15.95A34.42,34.42,0,0,1,64,0h.87A34.42,34.42,0,0,1,98.37,34.42Z"/><path class="ac66e74b-0021-4046-b759-ad2467218ce8" d="M82.33,30c0,19-15.41,20.72-34.42,20.72-3.89,0-7.62-.07-11.11-.35-4.56-3-7.28-8-7.28-15.95A34.42,34.42,0,0,1,64,0h.87A34.43,34.43,0,0,1,82.33,30Z"/><rect x="42.77" y="21.35" width="43.3" height="16.21" rx="4.08"/><rect class="bb1c4e9f-08d0-44b2-b875-b2b2a2a186f2" x="59.32" y="10.8" width="10.21" height="37.3" rx="1.08" transform="translate(93.87 -34.97) rotate(90)"/><circle class="e1b6843a-6c89-4613-a7e1-14ef71259d19" cx="52.42" cy="29.45" r="2.48"/><circle class="e1b6843a-6c89-4613-a7e1-14ef71259d19" cx="76.59" cy="29.45" r="2.48"/><rect x="45.77" y="67.33" width="28.33" height="18.14" rx="3"/><rect class="ac3cc736-2ffe-4354-8d4b-c02f153ae039" x="48.77" y="70.33" width="22.33" height="12.14"/><rect class="e1b6843a-6c89-4613-a7e1-14ef71259d19" x="79.07" y="67.33" width="7" height="4.36"/><rect class="e1b6843a-6c89-4613-a7e1-14ef71259d19" x="79.07" y="74.22" width="7" height="4.36"/><path class="f3a7ba64-a923-41e5-b2c2-a35c568804b5" d="M59.94,73a13,13,0,0,1-4,9.52H48.77V70.33H59.69A14,14,0,0,1,59.94,73Z"/><path class="af8bf37e-13da-4696-a91c-0f67488e2c27" d="M47.58,51S15.49,60.6,12.17,95.5"/><path class="f40c52b7-a5e3-4a07-a338-ffd7e25a0882" d="M11.34,90.27h0A10.46,10.46,0,0,1,21,101.48l-.1,1.33a8.42,8.42,0,0,1-5.59,7.31l.7-9.46L5.18,99.85l-.71,9.47A8.43,8.43,0,0,1,0,101.26l.1-1.33A10.46,10.46,0,0,1,11.34,90.27Z"/></g></g></svg>