<svg xmlns="http://www.w3.org/2000/svg" viewBox="0 0 184.19 86.32"><defs><style>.f4d84169-8f22-4e1a-8fba-1a74dc2844fd{fill:#7f94a0;}.aadce7c8-886e-4676-835c-d3157c45058e{fill:#526672;}</style></defs><title>06 robot arm 1</title><g id="bec17963-9f68-4703-a44e-64a7afb7a7e1" data-name="Layer 2"><g id="ad5bfba5-23c4-42b2-bb41-ca583f705fd8" data-name="Layer 1"><path class="f4d84169-8f22-4e1a-8fba-1a74dc2844fd" d="M17.89.61a13.84,13.84,0,0,0-9,26.15L161.68,85.4a13.84,13.84,0,0,0,18-8.42l3.71-10.77a13.85,13.85,0,0,0-9-17.74Zm115,48.65a5.27,5.27,0,1,1-3.44,10l-80-27.55a5.27,5.27,0,0,1,3.43-10Z"/><path class="aadce7c8-886e-4676-835c-d3157c45058e" d="M10.85,13.56A4.4,4.4,0,1,1,15.25,18,4.4,4.4,0,0,1,10.85,13.56Z"/><path class="aadce7c8-886e-4676-835c-d3157c45058e" d="M159.79,64.24a4.4,4.4,0,1,1,4.39,4.4A4.39,4.39,0,0,1,159.79,64.24Z"/></g></g></svg>