<svg xmlns="http://www.w3.org/2000/svg" viewBox="0 0 149.15 126.57"><defs><style>.f2acd9ec-377e-4dfc-980a-974770dcc2e0{fill:none;stroke:#fff;stroke-miterlimit:10;stroke-width:4px;}.a88d7d53-879a-4698-86ec-8b0783a1ceaf{fill:#293d48;}.e9dedc76-5396-4219-a539-c98f4e228a30{fill:#e1f7ff;}.a4591b5a-4b01-4fbf-aa1e-d394d478cf5c{fill:#fff;}.f34dd7e8-09d9-40e1-89f4-4322e8eeeee5{fill:#007288;}.e52201f6-dc15-4401-9977-43e22040b194{fill:#00e0e1;}.ae5b221e-de31-475a-a506-b9da4ceb7a02{fill:#00a1b8;}.bd83b525-876d-4c89-901f-aac2b262d335{fill:#4dd3ea;}</style></defs><title>06 robot 1</title><g id="edbffad4-c229-47c3-a8c9-0745339dd4fa" data-name="Layer 2"><g id="a60a382e-808d-4fe5-b4a4-0d01ad6615f8" data-name="Layer 1"><g id="be8d09a3-a7dc-4a60-a85d-b0d4dc20786c" data-name="Robot Right Above"><path class="f2acd9ec-377e-4dfc-980a-974770dcc2e0" d="M17.12,41.65S34.05,62.44,60.87,54.23"/><path class="a88d7d53-879a-4698-86ec-8b0783a1ceaf" d="M18,46.28h0A11.33,11.33,0,0,1,2.32,43.1l-.8-1.2a9.11,9.11,0,0,1-.07-10l5.68,8.56,9.8-6.5-5.68-8.57a9.16,9.16,0,0,1,9.16,3.94l.8,1.21A11.34,11.34,0,0,1,18,46.28Z"/><path class="f2acd9ec-377e-4dfc-980a-974770dcc2e0" d="M136.56,92.34s-.53-26.8-26.71-36.86"/><path class="a88d7d53-879a-4698-86ec-8b0783a1ceaf" d="M138.7,88.14h0a11.32,11.32,0,0,1,10.41,12.18l-.11,1.44a9.12,9.12,0,0,1-6.08,7.9l.8-10.25L132,98.49l-.8,10.25A9.11,9.11,0,0,1,126.4,100l.12-1.44A11.32,11.32,0,0,1,138.7,88.14Z"/><path class="e9dedc76-5396-4219-a539-c98f4e228a30" d="M120.19,72.78c0,18.41-15.55,53.79-34.74,53.79-6.2,0-12-3.69-17.06-9.31-10.56-11.77-17.69-32-17.69-44.48,0-18.41,15.55-26.59,34.75-26.59a57,57,0,0,1,11.46,1.1C110.47,50.06,120.19,58.22,120.19,72.78Z"/><path class="a4591b5a-4b01-4fbf-aa1e-d394d478cf5c" d="M102.58,63.49c0,18.24-15.26,53.1-34.19,53.77-10.56-11.77-17.69-32-17.69-44.48,0-18.41,15.55-26.59,34.75-26.59a57,57,0,0,1,11.46,1.1C100.5,51.38,102.58,56.75,102.58,63.49Z"/><path class="e9dedc76-5396-4219-a539-c98f4e228a30" d="M119.25,34.42c0,19-15.41,20.72-34.42,20.72-11,0-20.85-.58-27.15-4.77-4.56-3-7.28-8-7.28-15.95A34.42,34.42,0,0,1,84.83,0h.87A34.42,34.42,0,0,1,119.25,34.42Z"/><path class="a4591b5a-4b01-4fbf-aa1e-d394d478cf5c" d="M103.21,30c0,19-15.41,20.72-34.42,20.72-3.89,0-7.62-.07-11.11-.35-4.56-3-7.28-8-7.28-15.95A34.42,34.42,0,0,1,84.83,0h.87A34.43,34.43,0,0,1,103.21,30Z"/><rect x="63.65" y="21.35" width="43.3" height="16.21" rx="4.08"/><rect class="f34dd7e8-09d9-40e1-89f4-4322e8eeeee5" x="80.19" y="10.8" width="10.21" height="37.3" rx="1.08" transform="translate(114.75 -55.84) rotate(90)"/><circle class="e52201f6-dc15-4401-9977-43e22040b194" cx="73.3" cy="29.45" r="2.48"/><circle class="e52201f6-dc15-4401-9977-43e22040b194" cx="97.46" cy="29.45" r="2.48"/><rect x="66.65" y="67.33" width="28.33" height="18.14" rx="3"/><rect class="ae5b221e-de31-475a-a506-b9da4ceb7a02" x="69.65" y="70.33" width="22.33" height="12.14"/><rect class="e52201f6-dc15-4401-9977-43e22040b194" x="99.95" y="67.33" width="7" height="4.36"/><rect class="e52201f6-dc15-4401-9977-43e22040b194" x="99.95" y="74.22" width="7" height="4.36"/><path class="bd83b525-876d-4c89-901f-aac2b262d335" d="M80.82,73a13,13,0,0,1-4,9.52H69.65V70.33H80.57A14,14,0,0,1,80.82,73Z"/></g></g></g></svg>