<svg xmlns="http://www.w3.org/2000/svg" viewBox="0 0 149.82 182.93"><defs><style>.bde15952-51ff-478b-a85e-03e59adccc8a{fill:#e1f7ff;}.bb26b977-2703-4ced-938a-650d243069e2{fill:#fff;}.a23b5a81-f4a6-4971-b4b2-05d1b9e7b74e{fill:#293d48;}.bb2799c0-dda8-4d8c-b1c7-3edf24c115bf{fill:#00e0e1;}.f87fb2fa-6574-469d-8cdc-f158fd5fcb79{fill:#526672;}.a75d790c-015a-42ef-96a1-187017982a6a{fill:#afc4d1;}.ac7be19c-10bd-45d5-a439-2e04a506f40d{fill:#bcf0f2;}.bb9b2710-960f-4a17-926b-1620ae0ff519{fill:#7f94a0;}</style></defs><title>06 robot 2</title><g id="aee5a72a-b097-42e2-b46a-460f77495389" data-name="Layer 2"><g id="bd3e4eef-7e89-4f70-a0ea-5ff487b32aaa" data-name="Layer 1"><g id="fefe3c77-5c83-4e9f-9bb0-373988d94300" data-name="Standing Right Robot"><rect class="bde15952-51ff-478b-a85e-03e59adccc8a" x="64.31" y="69.93" width="10.44" height="20.31"/><rect class="bb26b977-2703-4ced-938a-650d243069e2" x="31.95" y="26.44" width="75.15" height="50.8" rx="14.26"/><rect x="26.06" y="39.32" width="86.94" height="25.72" rx="12.86"/><path class="a23b5a81-f4a6-4971-b4b2-05d1b9e7b74e" d="M108.83,52.17a8.7,8.7,0,0,1-8.69,8.69H38.92a8.69,8.69,0,0,1,0-17.37h61.22A8.69,8.69,0,0,1,108.83,52.17Z"/><path class="bb2799c0-dda8-4d8c-b1c7-3edf24c115bf" d="M85.54,49.75h7.3a3,3,0,0,1,3,3h0a3,3,0,0,1-3,3h-7.3a3,3,0,0,1-3-3h0A3,3,0,0,1,85.54,49.75Z"/><path class="bb2799c0-dda8-4d8c-b1c7-3edf24c115bf" d="M69.18,74.46a7.31,7.31,0,0,0,7.31-7.31H61.88A7.31,7.31,0,0,0,69.18,74.46Z"/><polygon class="f87fb2fa-6574-469d-8cdc-f158fd5fcb79" points="88.12 43.49 70.75 60.86 43.19 60.86 60.56 43.49 88.12 43.49"/><path class="bb2799c0-dda8-4d8c-b1c7-3edf24c115bf" d="M52.31,55.67H45a3,3,0,0,1-3-3h0a3,3,0,0,1,3-3h7.31a3,3,0,0,1,3,3h0A3,3,0,0,1,52.31,55.67Z"/><path class="bb26b977-2703-4ced-938a-650d243069e2" d="M69.53,153.33h0a27.23,27.23,0,0,1-27.09-24.47L39.05,95.51a9.65,9.65,0,0,1,9.59-10.62H90.42A9.64,9.64,0,0,1,100,95.51l-3.39,33.35A27.23,27.23,0,0,1,69.53,153.33Z"/><rect class="bde15952-51ff-478b-a85e-03e59adccc8a" x="49.91" y="5.22" width="2.96" height="18.44"/><rect class="bde15952-51ff-478b-a85e-03e59adccc8a" x="87.17" y="5.25" width="2.96" height="18.44"/><circle class="bb2799c0-dda8-4d8c-b1c7-3edf24c115bf" cx="51.39" cy="3.81" r="3.81"/><circle class="bb2799c0-dda8-4d8c-b1c7-3edf24c115bf" cx="51.39" cy="26.44" r="6.07"/><circle class="bb2799c0-dda8-4d8c-b1c7-3edf24c115bf" cx="88.65" cy="3.85" r="3.81"/><path class="bde15952-51ff-478b-a85e-03e59adccc8a" d="M54.17,140.45h8.93a0,0,0,0,1,0,0v37.07a0,0,0,0,1,0,0H43.19a0,0,0,0,1,0,0V151.43A11,11,0,0,1,54.17,140.45Z"/><path class="bde15952-51ff-478b-a85e-03e59adccc8a" d="M76,140.45H95.87a0,0,0,0,1,0,0v37.07a0,0,0,0,1,0,0H86.93a11,11,0,0,1-11-11V140.45A0,0,0,0,1,76,140.45Z" transform="translate(171.82 317.97) rotate(180)"/><path class="bb2799c0-dda8-4d8c-b1c7-3edf24c115bf" d="M82.57,26.48a6.08,6.08,0,1,1,6.08,6.07A6.08,6.08,0,0,1,82.57,26.48Z"/><path class="a75d790c-015a-42ef-96a1-187017982a6a" d="M75.26,174.34h25.21a8.36,8.36,0,0,1,8.36,8.36v.23a0,0,0,0,1,0,0H75.26a0,0,0,0,1,0,0v-8.59a0,0,0,0,1,0,0Z"/><path class="a75d790c-015a-42ef-96a1-187017982a6a" d="M30.24,174.34H63.81a0,0,0,0,1,0,0v.23a8.36,8.36,0,0,1-8.36,8.36H30.24a0,0,0,0,1,0,0v-8.59A0,0,0,0,1,30.24,174.34Z" transform="translate(94.04 357.28) rotate(180)"/><rect class="bb26b977-2703-4ced-938a-650d243069e2" x="93.77" y="91.67" width="22.42" height="7.22"/><rect class="bb26b977-2703-4ced-938a-650d243069e2" x="22.3" y="91.67" width="22.42" height="7.22"/><rect class="bde15952-51ff-478b-a85e-03e59adccc8a" x="4.05" y="78.29" width="22.42" height="7.22" transform="translate(84.74 35.94) rotate(67.08)"/><rect class="bde15952-51ff-478b-a85e-03e59adccc8a" x="116.49" y="86.88" width="22.42" height="7.22" transform="translate(283.53 104.99) rotate(150)"/><circle class="f87fb2fa-6574-469d-8cdc-f158fd5fcb79" cx="119.79" cy="95.28" r="5.04"/><circle class="f87fb2fa-6574-469d-8cdc-f158fd5fcb79" cx="21.3" cy="94.28" r="5.04"/><rect class="ac7be19c-10bd-45d5-a439-2e04a506f40d" x="55.27" y="87.5" width="3.84" height="8.67"/><path class="bb9b2710-960f-4a17-926b-1620ae0ff519" d="M3.86,60.66l3.85,4.79L3.43,68.89.38,65.12a8.15,8.15,0,1,0,3.48-4.46Z"/><path class="bb9b2710-960f-4a17-926b-1620ae0ff519" d="M149.59,79.81l-5.92,1.65,1.48,5.3,4.67-1.3a8.14,8.14,0,1,1-.23-5.65Z"/></g></g></g></svg>