<svg xmlns="http://www.w3.org/2000/svg" viewBox="0 0 145.24 131.32"><defs><style>.f2d892f4-1b4d-482d-9494-e43a59e7075c{fill:#afc4d1;}.f64785ca-6dde-44f4-8c79-f231cf261539{fill:#7f94a0;}.ba857f35-f360-43be-ad8b-989f1b8acb23{fill:#293d48;}</style></defs><title>06 robot 2_1</title><g id="e2137cc6-183e-470a-b693-c0ec70c43297" data-name="Layer 2"><g id="fce15257-bed5-4cbc-b921-53b78f886fdc" data-name="Layer 1"><path class="f2d892f4-1b4d-482d-9494-e43a59e7075c" d="M142.26,45.34,102,86a10.34,10.34,0,0,1-14.29.37L50,52a10.32,10.32,0,0,1,2.12-16.75L116.4,1.2a10.31,10.31,0,0,1,14.08,4.56l13.7,27.75A10.32,10.32,0,0,1,142.26,45.34Z"/><path class="f64785ca-6dde-44f4-8c79-f231cf261539" d="M62.92,58.3l-42.69,33a5.25,5.25,0,0,1-7.37-.95l-6.7-8.65a5.25,5.25,0,0,1,.67-7.14L45.73,40a5.25,5.25,0,0,1,7.15.16L63.37,50.37A5.26,5.26,0,0,1,62.92,58.3Z"/><path class="f64785ca-6dde-44f4-8c79-f231cf261539" d="M9.36,129.52l-3.8-.12A5.74,5.74,0,0,1,0,123.49L1.26,82.35a5.74,5.74,0,0,1,5.92-5.56l7,.21a5.74,5.74,0,0,1,5.53,6.35L15.24,124.4A5.74,5.74,0,0,1,9.36,129.52Z"/><path class="f64785ca-6dde-44f4-8c79-f231cf261539" d="M100,87.67,61.31,117.59a10.38,10.38,0,0,1-14.57-1.86h0a10.4,10.4,0,0,1,1.09-13.92L84,67.75a5.08,5.08,0,0,1,7.51.59l9.44,12.19A5.09,5.09,0,0,1,100,87.67Z"/><circle class="ba857f35-f360-43be-ad8b-989f1b8acb23" cx="30.26" cy="115.7" r="15.62" transform="translate(-72.95 55.28) rotate(-45)"/></g></g></svg>