<svg xmlns="http://www.w3.org/2000/svg" viewBox="0 0 301.89 261.56"><defs><style>.a9eb7076-b5a7-4f5e-a9fe-5b7effc000e2{fill:#00a1b8;}.a8919e02-eba7-4f50-b52b-c50d8d4c840b{fill:#4dd3ea;}</style></defs><title>07 alpha sign</title><g id="ab9f842d-c0a1-43db-812c-de362c395da1" data-name="Layer 2"><g id="fefbc298-c818-4743-a152-17d3cdd3b612" data-name="Layer 1"><g id="f23a2620-c37b-4277-813f-d565286bf30a" data-name="Alpha"><path class="a9eb7076-b5a7-4f5e-a9fe-5b7effc000e2" d="M193.61,60.89,177.13,77.37c1.73,4.67,3.2,9.35,4.44,13.83l15.77-15.76C196.35,70.84,195.13,65.92,193.61,60.89ZM301.66,191.17c-.94-9.85-4.45-6.65-5-5.32S282.57,206,265.86,208.68h0a22.82,22.82,0,0,1-12-1.18A30,30,0,0,1,243.07,200a50.59,50.59,0,0,1-5.82-7.32,73.74,73.74,0,0,1-4.28-7.26q-1.2-2.28-2.31-4.45-2.37-4.62-4.4-8.75c-2.24-4.56-4.18-8.68-5.86-12.41-1-2.29-2-4.42-2.82-6.42q2-4,4.09-8c5.86-11.61,11.77-23.74,17.53-35.81,4-8.36,7.88-16.69,11.64-24.8,5.49-11.87,10.66-23.26,15.27-33.56,3.95-8.8,7.49-16.81,10.5-23.64,6.47-14.74,10.41-24,10.41-24H232.2l-3.34,8.88c-2,5.29-4.75,12.62-8,21.13-3.34,8.84-7.18,19-11.14,29.42-2.67,7-5.41,14.21-8.08,21.24-.64,1.63-1.26,3.26-1.88,4.88-.12-.85-.25-1.72-.39-2.62-.54-3.36-1.21-7.1-2.07-11.08-1-4.6-2.21-9.52-3.73-14.55-1-3.25-2.09-6.54-3.34-9.83a118.64,118.64,0,0,0-5.6-12.68,92.92,92.92,0,0,0-4.82-8.33,73.26,73.26,0,0,0-8-10.28A57.59,57.59,0,0,0,165,13.5a49.87,49.87,0,0,0-8.45-5.27c-1-.5-2.06-1-3.11-1.44h0a79.6,79.6,0,0,0-9.71-3.45A87.63,87.63,0,0,0,128.29.45,94.7,94.7,0,0,0,115.52.07,101.22,101.22,0,0,0,94.15,3.16a105.78,105.78,0,0,0-20.91,7.75c-20,9.89-38.63,26.84-52.17,52.17q-3.13,5.86-5.88,12.34-2.37,5.55-4.33,11A190,190,0,0,0,3.55,112Q1.87,120,1,127.73A155.46,155.46,0,0,0,0,147c0,4.25.27,8.42.68,12.48a131.57,131.57,0,0,0,2.48,15.8q1.16,5.36,2.72,10.44a125.52,125.52,0,0,0,4.93,13.34q2,4.58,4.31,8.86a113.51,113.51,0,0,0,6.93,11.34q2.7,3.9,5.68,7.48a103.46,103.46,0,0,0,8.83,9.46q3.42,3.25,7,6.11a95.31,95.31,0,0,0,10.85,7.43,92.67,92.67,0,0,0,8.68,4.48,82.35,82.35,0,0,0,13,4.59l.54.13a82.19,82.19,0,0,0,11.12,2,85.64,85.64,0,0,0,18.1.17A87.1,87.1,0,0,0,122.24,258h0c19-5.59,40.91-18.9,62.07-47.44,6.64-8.95,14.53-22.14,23-37.59l0,0c.18-.4.41-.78.63-1.19,0,.16.06.31.08.48.85,4.81,1.85,10,3,15.24h0c.77,3.48,1.63,7,2.57,10.57,1.26,4.73,2.65,9.47,4.21,14.08,1.11,3.27,2.31,6.47,3.58,9.56a106.75,106.75,0,0,0,6,12.32,67.1,67.1,0,0,0,5.24,7.92,41.06,41.06,0,0,0,8.07,8l1.28.91a47.53,47.53,0,0,0,8.48,4.67,33,33,0,0,0,15.62,2.67c15.17-1.28,27.35-14.23,32.53-32.53a70.34,70.34,0,0,0,2.32-12.4c.33-3.34.57-6.3.72-8.93A88.64,88.64,0,0,0,301.66,191.17Zm-218.51,48a36.2,36.2,0,0,1-4.19-.73,33.2,33.2,0,0,1-9.41-3.75,35.3,35.3,0,0,1-9.7-8.58,48.11,48.11,0,0,1-5.15-8,70.8,70.8,0,0,1-5.11-13.17,104,104,0,0,1-2.46-10.69,151.34,151.34,0,0,1-1.92-16.37c-.28-4.31-.4-8.59-.4-12.74h0c0-6.84.32-13.35.8-19.08.49-6,1.14-11.08,1.74-14.9.1-.58.18-1.12.27-1.64a197.85,197.85,0,0,1,5.22-22.13,178.19,178.19,0,0,1,7.54-20.7c9.94-22.62,26.56-46,53.82-53.81,2-.56,4-1,6-1.44a43.79,43.79,0,0,1,9.36-.79,36.87,36.87,0,0,1,14.77,3.51,42.35,42.35,0,0,1,8.11,5,56.54,56.54,0,0,1,9.11,9.18A78.38,78.38,0,0,1,167,56.06a109,109,0,0,1,6.32,12c1.39,3.08,2.66,6.21,3.82,9.34,1.73,4.67,3.2,9.35,4.44,13.83,1,3.68,1.88,7.23,2.61,10.55,1.36,6.21,2.24,11.62,2.73,15.55.21,1.62.35,3,.43,4.07-2.28,5.8-4.25,10.73-5.76,14.42-.75,1.82-1.39,3.34-1.9,4.5A333,333,0,0,1,163,172.7c-15.4,26.28-39,58.36-65.32,65.32A38.86,38.86,0,0,1,83.15,239.14Z"/><path class="a8919e02-eba7-4f50-b52b-c50d8d4c840b" d="M94.15,3.16,10.86,86.44q2-5.46,4.33-11,2.73-6.48,5.88-12.34L73.24,10.91A105.78,105.78,0,0,1,94.15,3.16Z"/><path class="a8919e02-eba7-4f50-b52b-c50d8d4c840b" d="M128.29.45,1,127.73q.87-7.68,2.54-15.69l112-112A94.7,94.7,0,0,1,128.29.45Z"/><path class="a8919e02-eba7-4f50-b52b-c50d8d4c840b" d="M60.38,86.64a178.19,178.19,0,0,0-7.54,20.7L.69,159.49C.28,155.43.05,151.26,0,147Z"/><path class="a8919e02-eba7-4f50-b52b-c50d8d4c840b" d="M153.39,6.79,129.58,30.6a43.79,43.79,0,0,0-9.36.79c-2.07.4-4.07.88-6,1.44L143.68,3.34A79.6,79.6,0,0,1,153.39,6.79Z"/><path class="a8919e02-eba7-4f50-b52b-c50d8d4c840b" d="M47.35,131.11c-.6,3.82-1.25,8.94-1.74,14.9L5.89,185.73q-1.56-5.08-2.72-10.44Z"/><path class="a8919e02-eba7-4f50-b52b-c50d8d4c840b" d="M171.85,19.77,152.46,39.15a42.35,42.35,0,0,0-8.11-5L165,13.5A57.59,57.59,0,0,1,171.85,19.77Z"/><path class="a8919e02-eba7-4f50-b52b-c50d8d4c840b" d="M45.21,177.84,15.13,207.93q-2.31-4.29-4.31-8.86l34-34C44.81,169.25,44.93,173.53,45.21,177.84Z"/><path class="a8919e02-eba7-4f50-b52b-c50d8d4c840b" d="M184.67,38.38,167,56.06a78.38,78.38,0,0,0-5.42-7.73l18.28-18.28A92.92,92.92,0,0,1,184.67,38.38Z"/><path class="a8919e02-eba7-4f50-b52b-c50d8d4c840b" d="M49.59,204.9,27.74,226.75q-3-3.57-5.68-7.48l25.07-25.06A104,104,0,0,0,49.59,204.9Z"/><path class="a8919e02-eba7-4f50-b52b-c50d8d4c840b" d="M190.27,51.06c1.25,3.29,2.35,6.58,3.34,9.83L177.13,77.37c-1.16-3.13-2.43-6.26-3.82-9.34Z"/><path class="a8919e02-eba7-4f50-b52b-c50d8d4c840b" d="M250.9,3.59l-30,30c3.21-8.51,6-15.84,8-21.13l8.89-8.88Z"/><path class="a8919e02-eba7-4f50-b52b-c50d8d4c840b" d="M59.85,226.08,43.61,242.32q-3.61-2.85-7-6.11L54.7,218.07A48.11,48.11,0,0,0,59.85,226.08Z"/><path class="a8919e02-eba7-4f50-b52b-c50d8d4c840b" d="M197.34,75.44c.86,4,1.53,7.72,2.07,11.08l-15.23,15.23c-.73-3.32-1.59-6.87-2.61-10.55Z"/><path class="a8919e02-eba7-4f50-b52b-c50d8d4c840b" d="M282.34,3.59,201.68,84.26c2.67-7,5.41-14.2,8.08-21.24L269.18,3.59Z"/><path class="a8919e02-eba7-4f50-b52b-c50d8d4c840b" d="M79,238.41,63.14,254.23a92.67,92.67,0,0,1-8.68-4.48l15.09-15.09A33.2,33.2,0,0,0,79,238.41Z"/><path class="a8919e02-eba7-4f50-b52b-c50d8d4c840b" d="M276.61,27.61c-3,6.83-6.55,14.84-10.5,23.64l-84.53,84.54c1.51-3.69,3.48-8.62,5.76-14.42-.08-1.07-.22-2.45-.43-4.07Z"/><path class="a8919e02-eba7-4f50-b52b-c50d8d4c840b" d="M250.84,84.81c-3.76,8.11-7.66,16.44-11.64,24.8L87.82,261a82.19,82.19,0,0,1-11.12-2L97.63,238c26.27-7,49.92-39,65.32-65.32Z"/><path class="a8919e02-eba7-4f50-b52b-c50d8d4c840b" d="M217.58,153.43c.85,2,1.78,4.13,2.82,6.42L208,172.23l-.71.71,0,0-85,85h0a87.1,87.1,0,0,1-16.32,3.16L221.67,145.42Q219.62,149.47,217.58,153.43Z"/><path class="a8919e02-eba7-4f50-b52b-c50d8d4c840b" d="M230.66,181l-17,17c-.94-3.54-1.8-7.09-2.57-10.57h0l15.21-15.21Q228.3,176.4,230.66,181Z"/><path class="a8919e02-eba7-4f50-b52b-c50d8d4c840b" d="M243.07,200l-21.66,21.65c-1.27-3.09-2.47-6.29-3.58-9.56l19.42-19.41A50.59,50.59,0,0,0,243.07,200Z"/><path class="a8919e02-eba7-4f50-b52b-c50d8d4c840b" d="M265.86,208.68l-33.24,33.25a67.1,67.1,0,0,1-5.24-7.92l26.51-26.51A22.82,22.82,0,0,0,265.86,208.68Z"/><path class="a8919e02-eba7-4f50-b52b-c50d8d4c840b" d="M301.64,204.34l-51.19,51.19a47.53,47.53,0,0,1-8.48-4.67l59.69-59.69A88.64,88.64,0,0,1,301.64,204.34Z"/><path class="a8919e02-eba7-4f50-b52b-c50d8d4c840b" d="M298.6,225.67c-5.18,18.3-17.36,31.25-32.53,32.53Z"/></g></g></g></svg>