<svg xmlns="http://www.w3.org/2000/svg" viewBox="0 0 222.82 281.83"><defs><style>.a02586c3-fa40-4185-a466-e658b8a9f979,.bd502f70-c1f9-4430-8b7e-96c5cf52015f{fill:#293d48;}.bc1f2d17-baf1-473e-9bfe-eee4b2a75275{fill:#00e0e1;}.bbde2776-70a5-4a38-af27-849fd3c2a6e4{fill:#4dd3ea;}.a48d94c0-a67f-47d7-aa9b-0538d6a5de24,.a736b03c-47e6-4547-9520-a7239f683add{fill:#526672;}.ab7ea90f-eeae-4213-8e76-1ddc50e0d0db{fill:#e1f7ff;}.ede5d5f7-77b3-4af5-855a-70515cbeca48{fill:#afc4d1;}.b77d70c1-5d9f-4a35-9322-b66a68cc2c27{fill:#7f94a0;}.a02586c3-fa40-4185-a466-e658b8a9f979,.a736b03c-47e6-4547-9520-a7239f683add,.add22091-f888-4001-a5fe-9bcd95c6eda7{stroke:#293d48;}.a02586c3-fa40-4185-a466-e658b8a9f979,.a736b03c-47e6-4547-9520-a7239f683add,.ad3fbcb6-91ca-4555-98c2-963ebf034182,.add22091-f888-4001-a5fe-9bcd95c6eda7{stroke-miterlimit:10;}.add22091-f888-4001-a5fe-9bcd95c6eda7{fill:#fff;}.ad3fbcb6-91ca-4555-98c2-963ebf034182,.af177c60-2efe-439c-b7cd-7ca3e9f7cb40,.eed5d1aa-ffff-4178-84bb-4116370643cc{fill:none;}.eed5d1aa-ffff-4178-84bb-4116370643cc{stroke:#ff5d4b;stroke-width:1.52px;}.af177c60-2efe-439c-b7cd-7ca3e9f7cb40,.eed5d1aa-ffff-4178-84bb-4116370643cc{stroke-linecap:round;stroke-linejoin:round;}.ad3fbcb6-91ca-4555-98c2-963ebf034182,.af177c60-2efe-439c-b7cd-7ca3e9f7cb40{stroke:#000;}.ad3fbcb6-91ca-4555-98c2-963ebf034182{stroke-width:5px;}.b2f80796-0560-40f0-9ed2-66249cd8b90b{fill:#007288;}.af177c60-2efe-439c-b7cd-7ca3e9f7cb40{stroke-width:4px;}</style></defs><title>07 computer on desk</title><g id="b25b7553-7fa4-4fd1-aff1-e863b89b643e" data-name="Layer 2"><g id="f4687d56-a7bd-45e7-999a-624bcbaa7256" data-name="Layer 1"><g id="fa94fbe8-6fee-48f4-9ee8-c2729878c595" data-name="Table"><rect class="bd502f70-c1f9-4430-8b7e-96c5cf52015f" y="173.85" width="222.82" height="5.37"/><rect class="bd502f70-c1f9-4430-8b7e-96c5cf52015f" x="18.79" y="191.71" width="185.25" height="2.68"/><rect class="bd502f70-c1f9-4430-8b7e-96c5cf52015f" x="17.31" y="176.49" width="2.95" height="97.05"/><rect class="bd502f70-c1f9-4430-8b7e-96c5cf52015f" x="203.78" y="176.49" width="2.95" height="97.05"/></g><g id="ba375a4c-cd19-4723-a740-c38d420849f4" data-name="Phone on Floor"><rect class="bd502f70-c1f9-4430-8b7e-96c5cf52015f" x="159.9" y="182.7" width="52.98" height="93.16" rx="13.11"/><path class="bc1f2d17-baf1-473e-9bfe-eee4b2a75275" d="M209.34,190.75a1.54,1.54,0,0,0-1.53-1.53H165a1.53,1.53,0,0,0-1.53,1.53v60.61l45.9-45.9Z"/><path class="bbde2776-70a5-4a38-af27-849fd3c2a6e4" d="M163.44,251.36v14.41A1.53,1.53,0,0,0,165,267.3h42.84a1.54,1.54,0,0,0,1.53-1.53V205.46Z"/><path class="a48d94c0-a67f-47d7-aa9b-0538d6a5de24" d="M193.22,187.39H179.55a1.26,1.26,0,0,1-1.26-1.27h0a1.25,1.25,0,0,1,1.26-1.26h13.67a1.26,1.26,0,0,1,1.27,1.26h0A1.27,1.27,0,0,1,193.22,187.39Z"/><circle class="bc1f2d17-baf1-473e-9bfe-eee4b2a75275" cx="186.39" cy="271.01" r="2.13"/><polygon class="bc1f2d17-baf1-473e-9bfe-eee4b2a75275" points="175.98 273.13 175.98 268.88 180.23 271.01 175.98 273.13"/></g><g id="bbc816ef-48d8-4f60-a1f0-611eb0edbf8c" data-name="Computer"><path d="M209.77,0H10.05A6.1,6.1,0,0,0,4,6.09V126H215.86V6.09A6.09,6.09,0,0,0,209.77,0Z"/><polygon class="bbde2776-70a5-4a38-af27-849fd3c2a6e4" points="109.99 8.93 86.21 8.93 12.12 8.93 12.12 83.01 12.12 119.09 109.99 119.09 207.86 119.09 207.86 8.93 109.99 8.93"/><polygon class="ab7ea90f-eeae-4213-8e76-1ddc50e0d0db" points="88.64 150.93 87.33 168.11 132.48 168.11 131.17 150.93 88.64 150.93"/><polygon class="ede5d5f7-77b3-4af5-855a-70515cbeca48" points="130.46 141.5 89.36 141.5 88.64 150.93 131.17 150.93 130.46 141.5"/><path class="ede5d5f7-77b3-4af5-855a-70515cbeca48" d="M83.38,166.6h53.06a7.41,7.41,0,0,1,7.41,7.41v0a0,0,0,0,1,0,0H76a0,0,0,0,1,0,0v0A7.41,7.41,0,0,1,83.38,166.6Z"/><polygon points="170.44 63.74 110.95 43.24 50.89 63.74 50.89 123.8 110.66 111.51 170.44 123.8 170.44 63.74"/><polygon class="a48d94c0-a67f-47d7-aa9b-0538d6a5de24" points="50.89 123.77 110.95 136.12 110.95 84.22 50.89 63.71 50.89 123.77"/><polygon class="b77d70c1-5d9f-4a35-9322-b66a68cc2c27" points="18.61 83.13 78.67 103.64 110.95 84.22 50.89 63.71 18.61 83.13"/><polygon class="bd502f70-c1f9-4430-8b7e-96c5cf52015f" points="170.44 123.77 110.38 136.12 110.38 84.22 170.44 63.71 170.44 123.77"/><polygon class="a48d94c0-a67f-47d7-aa9b-0538d6a5de24" points="202.72 83.13 142.66 103.64 110.38 84.22 170.44 63.71 202.72 83.13"/><polygon class="b77d70c1-5d9f-4a35-9322-b66a68cc2c27" points="110.95 43.24 170.44 63.71 193.51 45.83 134.03 25.36 110.95 43.24"/><polygon class="b77d70c1-5d9f-4a35-9322-b66a68cc2c27" points="110.95 43.24 51.47 63.71 28.39 45.83 87.88 25.36 110.95 43.24"/><path class="ab7ea90f-eeae-4213-8e76-1ddc50e0d0db" d="M129.61,126H4v14.46a6.1,6.1,0,0,0,6.1,6.09H209.77a6.09,6.09,0,0,0,6.09-6.09V126Z"/></g><g id="ac6ea45f-f5fc-493d-a9fd-48d0f83c04fe" data-name="Clock"><circle class="a02586c3-fa40-4185-a466-e658b8a9f979" cx="184.02" cy="153.61" r="18.92"/><circle class="add22091-f888-4001-a5fe-9bcd95c6eda7" cx="184.02" cy="153.61" r="16.16" transform="translate(-42.73 75.88) rotate(-20.93)"/><polygon class="a736b03c-47e6-4547-9520-a7239f683add" points="170.07 145.78 183.89 154.8 184.79 153.24 170.07 145.78"/><polygon class="a736b03c-47e6-4547-9520-a7239f683add" points="169.91 157.07 183.09 152.92 183.55 154.88 169.91 157.07"/><line class="eed5d1aa-ffff-4178-84bb-4116370643cc" x1="184.02" y1="153.61" x2="178.63" y2="163.59"/></g><g id="f7265d22-12a4-48f2-bfc5-8273d6c28e62" data-name="Plant Left Floor"><line class="ad3fbcb6-91ca-4555-98c2-963ebf034182" x1="59.71" y1="249.16" x2="53.61" y2="243.05"/><line class="ad3fbcb6-91ca-4555-98c2-963ebf034182" x1="59.2" y1="229.05" x2="53.11" y2="223.12"/><path class="b2f80796-0560-40f0-9ed2-66249cd8b90b" d="M55.48,244.78,29.27,218.57s.4,11.33,7.64,18.57S55.48,244.78,55.48,244.78Z"/><path class="bbde2776-70a5-4a38-af27-849fd3c2a6e4" d="M47.85,226.21c-7.24-7.24-18.58-7.64-18.58-7.64l26.21,26.21S55.08,233.44,47.85,226.21Z"/><path class="b2f80796-0560-40f0-9ed2-66249cd8b90b" d="M54.25,224.22,40.6,210.58s.21,5.9,4,9.66S54.25,224.22,54.25,224.22Z"/><path class="bbde2776-70a5-4a38-af27-849fd3c2a6e4" d="M50.27,214.55c-3.77-3.77-9.67-4-9.67-4l13.65,13.64S54,218.32,50.27,214.55Z"/><line class="ad3fbcb6-91ca-4555-98c2-963ebf034182" x1="63.72" y1="259.4" x2="66.64" y2="256.48"/><line class="ad3fbcb6-91ca-4555-98c2-963ebf034182" x1="63.92" y1="240.12" x2="66.84" y2="237.2"/><path class="af177c60-2efe-439c-b7cd-7ca3e9f7cb40" d="M59.71,269c0-4.94,4-4.94,4-9.89s-4-4.94-4-9.88,4-5,4-9.89-4-4.94-4-9.89,4-4.94,4-9.88"/><path class="bbde2776-70a5-4a38-af27-849fd3c2a6e4" d="M89.27,215.36,66.54,238.09s9.83-.34,16.11-6.62S89.27,215.36,89.27,215.36Z"/><path class="b2f80796-0560-40f0-9ed2-66249cd8b90b" d="M73.16,222c-6.27,6.27-6.62,16.1-6.62,16.1l22.73-22.73S79.44,215.71,73.16,222Z"/><path class="bbde2776-70a5-4a38-af27-849fd3c2a6e4" d="M63.94,197.48v25s5.21-5.6,5.21-12.49S63.94,197.48,63.94,197.48Z"/><path class="b2f80796-0560-40f0-9ed2-66249cd8b90b" d="M58.73,210c0,6.89,5.21,12.49,5.21,12.49v-25S58.73,203.07,58.73,210Z"/><polygon points="68.08 281.83 55.35 281.83 53.89 263.4 69.53 263.4 68.08 281.83"/><path class="bbde2776-70a5-4a38-af27-849fd3c2a6e4" d="M89.18,234.32,66.45,257.05s9.83-.35,16.11-6.63S89.18,234.32,89.18,234.32Z"/><path class="b2f80796-0560-40f0-9ed2-66249cd8b90b" d="M72.66,241.35C66.39,247.63,66,257.46,66,257.46l22.73-22.73S78.94,235.08,72.66,241.35Z"/></g></g></g></svg>