<svg xmlns="http://www.w3.org/2000/svg" viewBox="0 0 88.14 134.2"><defs><style>.ee317bbf-5599-411c-aef3-d754a7fee39d{fill:#293d48;}.b58738f8-fa29-4bf3-9333-00391700fea1{fill:#526672;}.e6133c05-9527-4f78-a077-72ab83951186{fill:#e1f7ff;}.adb79e1d-a39b-446f-8349-d33bb0cac308{fill:#fff;}.f50c9cdc-72ee-462f-bac3-341d893333f9{fill:#7f94a0;}</style></defs><title>07 floor bulb</title><g id="bcec91c9-4789-4d19-bd0a-660ac1a0ac02" data-name="Layer 2"><g id="ba46cb2a-d9f5-4558-a436-e1db16de5f19" data-name="Layer 1"><g id="a5fb34af-bc9b-4c6e-871e-0d5ef7271b66" data-name="Floor Bulb"><path class="ee317bbf-5599-411c-aef3-d754a7fee39d" d="M59.63,102.61H80.08a0,0,0,0,1,0,0V124.3a10.23,10.23,0,0,1-10.23,10.23h0A10.23,10.23,0,0,1,59.63,124.3V102.61a0,0,0,0,1,0,0Z" transform="translate(-35.47 30) rotate(-19.43)"/><path class="b58738f8-fa29-4bf3-9333-00391700fea1" d="M50.1,97.1H85.72a0,0,0,0,1,0,0v14.1A17.81,17.81,0,0,1,67.91,129h0A17.81,17.81,0,0,1,50.1,111.2V97.1a0,0,0,0,1,0,0Z" transform="translate(-33.75 29.04) rotate(-19.43)"/><path class="e6133c05-9527-4f78-a077-72ab83951186" d="M28.32,2.69a43.33,43.33,0,0,0-3.94,79.62,31.48,31.48,0,0,1,15.8,17.93l2,5.7a5.12,5.12,0,0,0,6.53,3.13l15.48-5.46L29.12,2.4Z"/><path class="adb79e1d-a39b-446f-8349-d33bb0cac308" d="M84.18,28.92A43.34,43.34,0,0,0,29.12,2.4L64.21,103.61l16.14-5.69a5.13,5.13,0,0,0,3.12-6.54l-2.11-6a30.9,30.9,0,0,1,1.1-23.49A43.2,43.2,0,0,0,84.18,28.92Z"/><path class="f50c9cdc-72ee-462f-bac3-341d893333f9" d="M83.8,104.52,50.19,116.38a2,2,0,0,1-2.58-1.23h0a2,2,0,0,1,1.24-2.58l33.6-11.86A2,2,0,0,1,85,101.94h0A2,2,0,0,1,83.8,104.52Z"/><path class="f50c9cdc-72ee-462f-bac3-341d893333f9" d="M86.25,111.48l-33.6,11.86a2,2,0,0,1-2.58-1.24h0a2,2,0,0,1,1.23-2.57l33.61-11.86a2,2,0,0,1,2.57,1.23h0A2,2,0,0,1,86.25,111.48Z"/><rect class="f50c9cdc-72ee-462f-bac3-341d893333f9" x="53.42" y="120.44" width="35.62" height="4.04" rx="2.02" transform="matrix(0.94, -0.33, 0.33, 0.94, -36.69, 30.68)"/></g></g></g></svg>