<svg xmlns="http://www.w3.org/2000/svg" viewBox="0 0 179.64 152.68"><defs><style>.adca3e90-5162-4443-b0b1-14a7d3ed18f0{fill:none;stroke:#000;stroke-miterlimit:10;stroke-width:4px;}.a286394c-a689-482d-a5f3-b1258dc8ff51{fill:#00e0e1;}.ad0d10cb-1956-4816-992c-4e7fcc1bad97{fill:#293d48;}</style></defs><title>07 flag</title><g id="b3a9feb2-891d-491f-88e5-34f5dbd80561" data-name="Layer 2"><g id="a008982e-64e9-4ad2-afc0-8c0467f22f17" data-name="Layer 1"><g id="fbd9be38-ac06-4531-92ad-6f917117491c" data-name="Flag"><line class="adca3e90-5162-4443-b0b1-14a7d3ed18f0" x1="1.97" y1="152.36" x2="25.95" y2="6"/><path class="a286394c-a689-482d-a5f3-b1258dc8ff51" d="M18.43,61.5C27.17,61.5,41.79,57,45.64,54c3.2-2.51,5.52-4.32,10.94-4.32S64.31,51.46,67.51,54c3.85,3,8.63,6.77,17.37,6.77S98.4,57,102.24,54c3.21-2.51,5.53-4.32,10.94-4.32s7.74,1.81,10.94,4.32c3.85,3,8.63,6.77,17.37,6.77s13.87-3.8,17.71-6.81c3.21-2.51,15,1.51,20.44,1.51L174.34,29,178.88,7c-8.74,0-22.6,7.57-26.45,10.59-3.2,2.51-5.52,4.33-10.94,4.33s-7.73-1.82-10.94-4.33c-3.85-3-8.63-6.77-17.37-6.77s-12.19,3-16,6c-3.2,2.51-2.15,3-7.56,3s-6.64-2-9.84-4.54c-3.85-3-6.4-6.81-15.14-6.81s-17.35.77-21.19,3.78C40.2,14.82,32.18,10,26.76,10Z"/><circle class="ad0d10cb-1956-4816-992c-4e7fcc1bad97" cx="26.45" cy="4.5" r="4.5"/></g></g></g></svg>