<svg xmlns="http://www.w3.org/2000/svg" viewBox="0 0 186.88 346.53"><defs><style>.a54b8ef9-67bf-4263-896b-91d44f8cfc54,.bdeed9e9-0ff5-4e7e-a34d-04c78cce2efb{fill:none;stroke:#293d48;stroke-linecap:round;stroke-linejoin:round;}.a54b8ef9-67bf-4263-896b-91d44f8cfc54{stroke-width:4.39px;}.bdeed9e9-0ff5-4e7e-a34d-04c78cce2efb{stroke-width:4.79px;}.ae7687ed-5ef8-4f6f-8400-b2df5a720f87{fill:#007288;}.b6a36b41-f39f-4f3c-8c8d-e65dc718394d{fill:#ff5d4b;}.a6c319ee-972f-4369-a187-d75588febbaa{fill:#1a1c2e;}.b375ca05-3d15-477f-abc3-d435ff115d2f{fill:#3f2724;}.b92b0d2e-782a-414b-9567-ef7e778475f3{fill:#e1f7ff;}.aebea963-a1d6-441f-b111-0ec60b7ef4ab{fill:#7f94a0;}.f291b915-db93-4a0b-94f1-841e7b5509dc{fill:#526672;}.f4da45ae-8d7e-42a2-8fb3-8d379f186b25{fill:#00e0e1;}.ab681798-6ca0-49f0-9ed4-94758133dff6{fill:#bcf0f2;}.b3e0de85-a8fd-4384-a90a-0a667a26576f{fill:#afc4d1;}</style></defs><title>07 ladder with robot</title><g id="bbbc50f0-a0e8-4d0f-a3e7-09ac986d919a" data-name="Layer 2"><g id="f20342fd-8f55-48b0-b13c-8ea46829fdcb" data-name="Layer 1"><g id="bc009d70-2f6b-481f-bc0f-eb211af96a95" data-name="Ladder"><line class="a54b8ef9-67bf-4263-896b-91d44f8cfc54" x1="21.7" y1="89.58" x2="21.7" y2="344.34"/><line class="a54b8ef9-67bf-4263-896b-91d44f8cfc54" x1="60.64" y1="89.58" x2="60.64" y2="344.34"/><line class="bdeed9e9-0ff5-4e7e-a34d-04c78cce2efb" x1="21.7" y1="116.25" x2="58.44" y2="116.25"/><line class="bdeed9e9-0ff5-4e7e-a34d-04c78cce2efb" x1="21.7" y1="141.78" x2="58.44" y2="141.78"/><line class="bdeed9e9-0ff5-4e7e-a34d-04c78cce2efb" x1="21.7" y1="167.31" x2="58.44" y2="167.31"/><line class="bdeed9e9-0ff5-4e7e-a34d-04c78cce2efb" x1="21.7" y1="192.85" x2="58.44" y2="192.85"/><line class="bdeed9e9-0ff5-4e7e-a34d-04c78cce2efb" x1="21.7" y1="218.38" x2="58.44" y2="218.38"/><line class="bdeed9e9-0ff5-4e7e-a34d-04c78cce2efb" x1="21.7" y1="243.91" x2="58.44" y2="243.91"/><line class="bdeed9e9-0ff5-4e7e-a34d-04c78cce2efb" x1="21.7" y1="269.45" x2="58.44" y2="269.45"/><line class="bdeed9e9-0ff5-4e7e-a34d-04c78cce2efb" x1="21.7" y1="294.98" x2="58.44" y2="294.98"/><line class="bdeed9e9-0ff5-4e7e-a34d-04c78cce2efb" x1="21.7" y1="320.51" x2="58.44" y2="320.51"/></g><g id="bc845dee-1f45-4092-adca-60c1df8c33b3" data-name="Woman Atop Ladder"><ellipse class="ae7687ed-5ef8-4f6f-8400-b2df5a720f87" cx="53.78" cy="62.25" rx="10.36" ry="5.86" transform="translate(-18.7 101.15) rotate(-77.4)"/><path class="b6a36b41-f39f-4f3c-8c8d-e65dc718394d" d="M63.72,133.15l.27-.06a1.35,1.35,0,0,0,.86-1.71l-3-9.26a1.36,1.36,0,1,0-2.58.85l3.05,9.26A1.37,1.37,0,0,0,63.72,133.15Z"/><path class="a6c319ee-972f-4369-a187-d75588febbaa" d="M64.75,130.18s2.54,2.52,1.88,3-10.75,7.19-11.1,6.75c-1.21-1.5,6.26-8.2,7.18-8.54S64.39,129.81,64.75,130.18Z"/><path class="b375ca05-3d15-477f-abc3-d435ff115d2f" d="M10.63,9S6.23,3.61,4.47,3.63s1.84,5.65,5.82,7.1Z"/><path class="b92b0d2e-782a-414b-9567-ef7e778475f3" d="M11,8.31c-.9.69-1.8,1.38-2.62,2.12C20.21,24,26.68,28.69,44.53,23.92c2.73-.73,2.57-1.84,1.58-3.76h0c-1-1.93-1.86-1.86-4.25-1.2C26.3,23.29,22.3,18.83,11,8.31Z"/><path class="b6a36b41-f39f-4f3c-8c8d-e65dc718394d" d="M40.2,138.72l.26.07A1.37,1.37,0,0,0,42,137.7l1.72-9.6a1.36,1.36,0,0,0-2.67-.48l-1.72,9.6A1.35,1.35,0,0,0,40.2,138.72Z"/><path class="ae7687ed-5ef8-4f6f-8400-b2df5a720f87" d="M39.14,132.15a35.56,35.56,0,0,0,4.1,1.79c5.5-24.88,5.68-56.48,12.62-78.88-3.73-1-7.46-2-11.2-2.91C38.84,78.39,48.07,101.6,39.14,132.15Z"/><path class="ae7687ed-5ef8-4f6f-8400-b2df5a720f87" d="M60.46,128.72c1.43-.37,2.84-.77,4.24-1.25C55.14,99.16,49.46,79.9,57.42,50c-3.67-1.29-7.37-2.5-11.07-3.72C40.43,75.28,50.13,102.11,60.46,128.72Z"/><path d="M37.33.05A3.55,3.55,0,0,1,41,1.74a2.61,2.61,0,0,1-1.41,3.31c-1.18.59-3.86-.41-4.48-1.66S35.68.37,37.33.05Z"/><path d="M43,8.4c2.17-2.18,6.34-3.07,9.14-1.48s3.11,5.51,1.59,8.17S47,19.86,42.6,17.78C39.7,16.4,40.28,11.16,43,8.4Z"/><path d="M40.93,6.45c1.6-1.64,4.62-2.36,6.61-1.23s2.16,4,1,6-5.8,3.25-7.79,2.11S38.91,8.53,40.93,6.45Z"/><path class="b375ca05-3d15-477f-abc3-d435ff115d2f" d="M44,8.55c-1.32,3.88-5.1,6.11-7.47,5.31s-2.45-4.35-1.13-8.23,3.92-5.21,6.29-4.4S45.35,4.67,44,8.55Z"/><path d="M45.32,10.48c-.31.91-1.6,1.76-2.25,1.53s-.57-1-.26-1.91,1.12-1.57,1.78-1.35A1.23,1.23,0,0,1,45.32,10.48Z"/><path d="M45.43,6.27a6.61,6.61,0,0,0-1.61-4.33c-1.65-1.56-5.45-2.68-7.43.49,0,0-1.2,2.38,1.79,3.58s2.87-.57,4,1.36,2.77,1.14,3,1.56Z"/><path class="b92b0d2e-782a-414b-9567-ef7e778475f3" d="M43.45,60.16c3.24-.26,5.62-1.67,8.18-3.62,2-1.5,4.61-2.35,6.73-3.48.52-10.18-3.52-26.17-8.13-32.15-4-5.24-3.95-4.32-5.25-4.7a4.75,4.75,0,0,0-5,1.36l-.07.08c-1.42,1.71-1.11,5-1,8.5s-1.25,3,2.46,8.65C43,37.23,42.78,55,43.45,60.16Z"/><path class="b375ca05-3d15-477f-abc3-d435ff115d2f" d="M42.79,9.23l-4.22.85a69.34,69.34,0,0,0,2.13,8c.34.57,1.45.55,2.48-.06s1.46-1.37,1.32-2h0A58.24,58.24,0,0,1,42.79,9.23Z"/><path class="a6c319ee-972f-4369-a187-d75588febbaa" d="M42.52,136.91s1.21,3.37.39,3.56S30.12,142.35,30,141.8c-.45-1.88,9.18-4.71,10.16-4.63S42.35,136.42,42.52,136.91Z"/><path class="b375ca05-3d15-477f-abc3-d435ff115d2f" d="M7.43,27.37s-5.16-5.22-7-5S3,28.06,7.25,29.16Z"/><path class="b92b0d2e-782a-414b-9567-ef7e778475f3" d="M6.35,25.93c-.74.94-1.4,1.7-2.21,2.72,19.39,12.64,25.71,10,42.17-4.6,2.52-2.24-1.24-6.68-5.07-2.53C27.78,36.1,24.49,34.87,6.35,25.93Z"/></g><g id="af4e329d-abf9-4b10-9633-aa1c6f133fa6" data-name="Robot"><rect class="aebea963-a1d6-441f-b111-0ec60b7ef4ab" x="117.14" y="231.66" width="10.09" height="19.62" transform="translate(244.36 482.94) rotate(-180)"/><rect class="b92b0d2e-782a-414b-9567-ef7e778475f3" x="85.87" y="189.64" width="72.61" height="49.08" rx="14.26" transform="translate(244.36 428.36) rotate(-180)"/><rect class="f291b915-db93-4a0b-94f1-841e7b5509dc" x="80.18" y="202.08" width="84.01" height="24.85" rx="12.42" transform="translate(244.36 429) rotate(180)"/><path class="b92b0d2e-782a-414b-9567-ef7e778475f3" d="M84.21,214.5a8.39,8.39,0,0,0,8.39,8.39h59.16a8.39,8.39,0,1,0,0-16.78H92.6A8.4,8.4,0,0,0,84.21,214.5Z"/><path class="f4da45ae-8d7e-42a2-8fb3-8d379f186b25" d="M106.72,212.16H99.66A2.86,2.86,0,0,0,96.8,215h0a2.86,2.86,0,0,0,2.86,2.86h7.06a2.85,2.85,0,0,0,2.85-2.86h0A2.85,2.85,0,0,0,106.72,212.16Z"/><path class="f4da45ae-8d7e-42a2-8fb3-8d379f186b25" d="M122.52,236a7.06,7.06,0,0,1-7.06-7.06h14.12A7.06,7.06,0,0,1,122.52,236Z"/><path class="f4da45ae-8d7e-42a2-8fb3-8d379f186b25" d="M138.82,217.88h7.06a2.86,2.86,0,0,0,2.86-2.86h0a2.86,2.86,0,0,0-2.86-2.86h-7.06A2.86,2.86,0,0,0,136,215h0A2.86,2.86,0,0,0,138.82,217.88Z"/><path class="b92b0d2e-782a-414b-9567-ef7e778475f3" d="M122.18,312.24h0a26.3,26.3,0,0,0,26.17-23.65l3.28-32.22a9.31,9.31,0,0,0-9.26-10.26H102a9.32,9.32,0,0,0-9.27,10.26L96,288.59A26.3,26.3,0,0,0,122.18,312.24Z"/><rect class="b92b0d2e-782a-414b-9567-ef7e778475f3" x="138.28" y="169.13" width="2.86" height="17.82" transform="translate(279.42 356.08) rotate(-180)"/><rect class="b92b0d2e-782a-414b-9567-ef7e778475f3" x="102.28" y="169.16" width="2.86" height="17.82" transform="translate(207.42 356.15) rotate(-180)"/><path class="b92b0d2e-782a-414b-9567-ef7e778475f3" d="M128.39,299.79h19.24a0,0,0,0,1,0,0v35.81a0,0,0,0,1,0,0h-8.26a11,11,0,0,1-11-11V299.79A0,0,0,0,1,128.39,299.79Z" transform="translate(276.01 635.4) rotate(-180)"/><path class="b92b0d2e-782a-414b-9567-ef7e778475f3" d="M107.72,299.79H116a0,0,0,0,1,0,0v35.81a0,0,0,0,1,0,0H96.73a0,0,0,0,1,0,0V310.78A11,11,0,0,1,107.72,299.79Z"/><path class="aebea963-a1d6-441f-b111-0ec60b7ef4ab" d="M84.21,332.54h32.44a0,0,0,0,1,0,0v0a8.3,8.3,0,0,1-8.3,8.3H84.21a0,0,0,0,1,0,0v-8.3A0,0,0,0,1,84.21,332.54Z" transform="translate(200.86 673.38) rotate(-180)"/><path class="aebea963-a1d6-441f-b111-0ec60b7ef4ab" d="M127.71,332.54h24.13a8.3,8.3,0,0,1,8.3,8.3v0a0,0,0,0,1,0,0H127.71a0,0,0,0,1,0,0v-8.3A0,0,0,0,1,127.71,332.54Z"/><rect class="b92b0d2e-782a-414b-9567-ef7e778475f3" x="77.1" y="252.66" width="21.66" height="6.97" transform="translate(175.86 512.3) rotate(-180)"/><rect class="b92b0d2e-782a-414b-9567-ef7e778475f3" x="146.16" y="242.82" width="21.66" height="6.97" transform="translate(439.63 320) rotate(137.13)"/><rect class="b92b0d2e-782a-414b-9567-ef7e778475f3" x="161.1" y="224.46" width="21.66" height="6.97" transform="translate(448.85 158.38) rotate(112.92)"/><rect class="b92b0d2e-782a-414b-9567-ef7e778475f3" x="55.15" y="248.03" width="21.66" height="6.97" transform="translate(134.6 0.71) rotate(30)"/><circle class="aebea963-a1d6-441f-b111-0ec60b7ef4ab" cx="73.62" cy="256.15" r="4.87"/><circle class="aebea963-a1d6-441f-b111-0ec60b7ef4ab" cx="166.31" cy="237.23" r="4.87"/><rect class="f4da45ae-8d7e-42a2-8fb3-8d379f186b25" x="132.26" y="248.64" width="3.71" height="8.37" transform="translate(268.22 505.65) rotate(-180)"/><path class="ab681798-6ca0-49f0-9ed4-94758133dff6" d="M183.15,205.93l-3.72,4.61,4.14,3.34,2.94-3.65a7.88,7.88,0,1,1-3.36-4.3Z"/><path class="b92b0d2e-782a-414b-9567-ef7e778475f3" d="M44.83,241.21l5.71,1.59-1.42,5.12-4.52-1.26a7.87,7.87,0,1,0,.23-5.45Z"/><circle class="b3e0de85-a8fd-4384-a90a-0a667a26576f" cx="139.71" cy="189.64" r="5.87"/><circle class="b3e0de85-a8fd-4384-a90a-0a667a26576f" cx="139.71" cy="167.77" r="3.68"/><path class="b3e0de85-a8fd-4384-a90a-0a667a26576f" d="M109.58,189.67a5.87,5.87,0,1,0-5.87,5.87A5.87,5.87,0,0,0,109.58,189.67Z"/><circle class="b3e0de85-a8fd-4384-a90a-0a667a26576f" cx="103.71" cy="167.81" r="3.68"/></g></g></g></svg>