<svg xmlns="http://www.w3.org/2000/svg" viewBox="0 0 172.19 213.66"><defs><style>.f258b855-2807-4bcd-97ef-4bc088900b95{stroke:#fff;stroke-width:27px;}.a7125563-90b0-413f-a2b5-e898386ea042,.f258b855-2807-4bcd-97ef-4bc088900b95{stroke-miterlimit:10;}.aa8b4044-dbf7-4d82-99f1-ff0e457e8bdb{fill:#fff;}.b3ab3319-a245-4ceb-b4d4-42a3f83c0820{fill:#4dd3ea;}.a7125563-90b0-413f-a2b5-e898386ea042,.e6cbbdcc-d4d2-4ed8-b90d-181938b60508{stroke:#000;}.a281f1e8-8b77-4697-88c4-4c4fe8e3be5b{fill:#526672;}.e5d5caa1-7f3a-45ba-a282-eabc5de1963f{fill:#7f94a0;}.e6cbbdcc-d4d2-4ed8-b90d-181938b60508{fill:none;stroke-linecap:round;stroke-linejoin:round;}.f572a6c5-6294-406e-bb38-051c56086758{fill:#f0d1cd;}.a27137e2-5284-4fd6-aee6-42a52f25d0b9{fill:#afc4d1;}.aa76cda7-2aa6-4a7a-bf43-718cc86654e5{fill:#00a1b8;}.bd3d30e8-23f4-4ec6-aa77-2112b78dc572{fill:#007288;}.b96236bb-3e5b-4e23-8f2f-7405a3e2a0c8{fill:#ff5d4b;}</style></defs><title>07 man on graph</title><g id="b5950320-b414-4bfd-8b83-e2fde7710403" data-name="Layer 2"><g id="b950b72c-46c5-41c5-8776-5dd1c7e24a94" data-name="Layer 1"><polyline class="f258b855-2807-4bcd-97ef-4bc088900b95" points="35.28 206.1 68.37 157.19 94.38 168.81 114.78 125.01 133.86 128.36 152.4 100.63"/><polygon class="aa8b4044-dbf7-4d82-99f1-ff0e457e8bdb" points="170.09 77.67 172.19 122.33 127.17 90.16 170.09 77.67"/><g id="b95aef2d-9224-4dff-b138-f4d4f49cfa5f" data-name="Man Up Stairs"><path class="b3ab3319-a245-4ceb-b4d4-42a3f83c0820" d="M18.62,178a2.23,2.23,0,0,1-.19-.24,1.55,1.55,0,0,1,.49-2.13l9.39-5.88A1.55,1.55,0,1,1,30,172.32l-9.4,5.87A1.53,1.53,0,0,1,18.62,178Z"/><path class="a7125563-90b0-413f-a2b5-e898386ea042" d="M18.78,175.14s-3.53,2-3,2.81,9.74,11,10.26,10.63c1.76-1.3-4.52-10.82-5.43-11.47S19.28,174.84,18.78,175.14Z"/><path class="aa8b4044-dbf7-4d82-99f1-ff0e457e8bdb" d="M86.92,49.22s-2.36-7.59-4.22-8.32-.44,6.75,3.14,10Z"/><path class="a281f1e8-8b77-4697-88c4-4c4fe8e3be5b" d="M88.15,47.62c-1.39.37-2.79.85-4.18,1.32,8.47,20.63,3.86,36.4-15,13.93-2.89-3.44-4-.34-4.94,1.76-.58-.41-.58-.42,0,0-1,2.1-1.61,1.85,1.92,5C89,90.05,100.4,72.49,88.15,47.62Z"/><path class="b3ab3319-a245-4ceb-b4d4-42a3f83c0820" d="M136.88,135.44a1.43,1.43,0,0,1-.28.13,1.55,1.55,0,0,1-2-.94L131,124.18a1.54,1.54,0,0,1,.94-2,1.52,1.52,0,0,1,2,.94l3.69,10.45A1.53,1.53,0,0,1,136.88,135.44Z"/><path class="e5d5caa1-7f3a-45ba-a282-eabc5de1963f" d="M137.12,127.59q-2.38,1-4.84,1.68c-11.77-33.59-37.07-34.73-67.72-18.7-2.14-3.89-4.24-7.81-6.19-11.8C92.78,84.19,124.33,92.49,137.12,127.59Z"/><path class="e5d5caa1-7f3a-45ba-a282-eabc5de1963f" d="M25.39,176.85c-1.08-1.32-2.13-2.67-3.1-4.08,29.78-20,40-38.79,33.79-75.31,4.45-.77,8.92-1.4,13.39-2C68.37,138,58.23,151.93,25.39,176.85Z"/><path class="a7125563-90b0-413f-a2b5-e898386ea042" d="M134.18,134.68s1.21,3.88,2.09,3.49,12.87-7.1,12.61-7.69c-.88-2-11.55,2.05-12.38,2.8S134,134.12,134.18,134.68Z"/><path class="a281f1e8-8b77-4697-88c4-4c4fe8e3be5b" d="M75.2,104.87c-2.61-.87-8,.53-10.56,0-3.81-.77-5.68-.48-9.45-.26-.48-11.82-.07-24.18-.94-35.77a16.92,16.92,0,0,1,.15-5.72,7.52,7.52,0,0,1,3.55-5c2-1.11,4.64-1,7.27.32a5.59,5.59,0,0,1,1.14.69c1.56,1.19,3,3.52,3.23,7.91C70.17,78,73.12,93.47,75.2,104.87Z"/><path class="aa8b4044-dbf7-4d82-99f1-ff0e457e8bdb" d="M66.36,59.08l-.22,7.39-.28,9.29L62,67.13l-4-9.06c2-1.11,4.64-1,7.27.32A5.59,5.59,0,0,1,66.36,59.08Z"/><polygon class="b3ab3319-a245-4ceb-b4d4-42a3f83c0820" points="66.14 66.47 65.86 75.76 62 67.13 62.16 61.49 63.86 61.49 66.14 66.47"/><rect x="2.8" y="108.61" width="28.49" height="21.72" transform="translate(40.77 1.14) rotate(19.46)"/><polyline class="e6cbbdcc-d4d2-4ed8-b90d-181938b60508" points="15.9 108.91 17.98 103.02 26.65 106.09 24.26 112.86"/><path class="f572a6c5-6294-406e-bb38-051c56086758" d="M25.35,99.12s-1.35,8.23-3.19,9.26-1.43-6.95,1.83-10.8Z"/><path class="a281f1e8-8b77-4697-88c4-4c4fe8e3be5b" d="M25.91,100.39c-1.14-.58-2.25-1.19-3.35-1.83C33.38,80,36.46,74.35,54.21,62.1c2.72-1.88,3.35-1.39,4.66,1.11.53,0,.51-.09,0,0,1.31,2.5.79,3-2.09,4.75C37.94,79.68,39,83.12,25.91,100.39Z"/><path class="a27137e2-5284-4fd6-aee6-42a52f25d0b9" d="M117.87,45.24c-.29.67-.59,1.33-.92,2A31.86,31.86,0,0,1,112.3,54a30.36,30.36,0,0,1-3.08,3,32.56,32.56,0,0,1-11.17,6.25A32.42,32.42,0,0,1,90,64.79a29.82,29.82,0,0,1-4.33,0A31.37,31.37,0,0,1,77.3,63c-.68-.23-1.35-.5-2-.79s-1.33-.59-2-.92a32.19,32.19,0,0,1-6.79-4.64,30.45,30.45,0,0,1-3-3.09,32.38,32.38,0,0,1-4.65-7.15,31.74,31.74,0,0,1-1.6-4,32.42,32.42,0,0,1-1.52-8.08,29.83,29.83,0,0,1,0-4.33,31.45,31.45,0,0,1,1.76-8.34c.23-.67.5-1.35.79-2s.59-1.33.92-2a32.19,32.19,0,0,1,4.64-6.79,30.45,30.45,0,0,1,3.09-3,32.38,32.38,0,0,1,7.15-4.65,31.74,31.74,0,0,1,4-1.6A32.42,32.42,0,0,1,86.22.06a29.83,29.83,0,0,1,4.33,0,31.45,31.45,0,0,1,8.34,1.76c.68.23,1.35.5,2,.79s1.33.59,2,.92a31.86,31.86,0,0,1,6.79,4.65,30.36,30.36,0,0,1,3,3.08,32.38,32.38,0,0,1,4.65,7.15,31.74,31.74,0,0,1,1.6,4,32.42,32.42,0,0,1,1.52,8.08,29.82,29.82,0,0,1,0,4.33,31.37,31.37,0,0,1-1.76,8.34C118.43,43.9,118.16,44.57,117.87,45.24Z"/><path class="aa76cda7-2aa6-4a7a-bf43-718cc86654e5" d="M97.36,38.77,109.3,50.93l3,3.06a30.36,30.36,0,0,1-3.08,3l-3-3.06L94.08,41.62l8,20.05a31.74,31.74,0,0,1-4,1.6l-1.59-4L90.15,43.47,90,60.5l0,4.29a29.82,29.82,0,0,1-4.33,0l0-4.28.15-17.3L77.3,63c-.68-.23-1.35-.5-2-.79s-1.33-.59-2-.92l8.43-19.59-12.16,12-3.06,3a30.45,30.45,0,0,1-3-3.09l3-3L78.9,38.42l-16.07,6.4-4,1.58a31.74,31.74,0,0,1-1.6-4l4-1.59,15.83-6.3-17-.16-4.29,0a29.83,29.83,0,0,1,0-4.33l4.28,0,17.3.15L57.53,21.63c.23-.67.5-1.35.79-2s.59-1.33.92-2l19.59,8.43-12-12.16-3-3.06a30.45,30.45,0,0,1,3.09-3l3,3.05L82.1,23.23,75.69,7.16l-1.57-4a31.74,31.74,0,0,1,4-1.6L86,21.38l.15-17,0-4.29a29.83,29.83,0,0,1,4.33,0l0,4.28-.15,17.31L98.89,1.86c.68.23,1.35.5,2,.79s1.33.59,2,.92L94.44,23.16,106.6,11.22l3.06-3a30.36,30.36,0,0,1,3,3.08l-3.06,3L97.28,26.44,113.36,20l4-1.58a31.74,31.74,0,0,1,1.6,4l-4,1.59-15.83,6.3,17,.15,4.3,0a29.82,29.82,0,0,1,0,4.33l-4.29,0-17.29-.16,19.82,8.53c-.23.68-.5,1.35-.79,2s-.59,1.33-.92,2Z"/><circle class="e5d5caa1-7f3a-45ba-a282-eabc5de1963f" cx="88.09" cy="32.43" r="28.14" transform="translate(-2.64 56.51) rotate(-35.07)"/><circle class="bd3d30e8-23f4-4ec6-aa77-2112b78dc572" cx="88.09" cy="32.43" r="26.56" transform="translate(-5.61 26.8) rotate(-16.77)"/><path class="a27137e2-5284-4fd6-aee6-42a52f25d0b9" d="M79.61,48.38l1.75-4.07A12.89,12.89,0,0,1,76,39.88l2.13-2.28a11.72,11.72,0,0,0,5.06,4.23c2.86,1.23,5.51.41,6.5-1.89s0-4.26-2.5-6.75c-3.41-3.38-5.15-6.33-3.64-9.83,1.44-3.35,4.9-4.86,8.87-3.87l1.75-4.07,2.5,1.07L94.94,20.4a11.75,11.75,0,0,1,4.63,3.66l-2.15,2.23a10.6,10.6,0,0,0-4.49-3.55c-3.1-1.34-5.07,0-5.76,1.62-.9,2.1.14,3.79,3,6.75,3.42,3.48,4.61,6.47,3.07,10.06-1.37,3.18-4.87,5.21-9.31,4.11l-1.8,4.19Z"/><path class="f572a6c5-6294-406e-bb38-051c56086758" d="M58.51,50.91c2.54,3.91,7.33,5.3,9.71,3.75s1.48-5.47-1.06-9.38S61.39,40.65,59,42.2,56,47,58.51,50.91Z"/><path class="f572a6c5-6294-406e-bb38-051c56086758" d="M57.63,53.4c.59.91,2.25,1.48,2.91,1.06s.34-1.28-.25-2.19-1.68-1.41-2.34-1A1.39,1.39,0,0,0,57.63,53.4Z"/><path class="f572a6c5-6294-406e-bb38-051c56086758" d="M59.08,50.26,64,49.79a76.3,76.3,0,0,1,.33,9.41c-.18.74-1.39,1.08-2.71.76s-2-1-2.08-1.69h0A65.53,65.53,0,0,0,59.08,50.26Z"/><path class="b96236bb-3e5b-4e23-8f2f-7405a3e2a0c8" d="M53.29,50.26s-2-4.17-.67-7.51,6.06-7.3,11.15-3.69c0,0,3.41,2.88-.11,6.48s-4.57.86-4.85,4.43-3.24,3.37-3.22,4.13Z"/></g></g></g></svg>