<svg xmlns="http://www.w3.org/2000/svg" viewBox="0 0 76.65 208.71"><defs><style>.e48a7626-070f-460f-ab54-f54b0d6fe306{fill:#fff;}.a3661aec-1f52-4f58-aff2-ac24d788978b{fill:#1a1c2e;}.b248f5e4-8895-43ca-a542-c6e04511c167{fill:#3b3e54;}.b600c4b6-5260-49e5-845d-efd4d5534b28{fill:#ffd8b6;}</style></defs><title>07 man with arm</title><g id="be421480-9871-4de5-9eff-a609b96193cb" data-name="Layer 2"><g id="f8330b2e-5de7-41b5-be02-30c1717ca0da" data-name="Layer 1"><g id="a0de3ee8-3f4a-4ce6-a5e7-bfdfa92442a1" data-name="Man Centre Sideburns"><path class="e48a7626-070f-460f-ab54-f54b0d6fe306" d="M73.52,206a1.61,1.61,0,0,0,.37,0,1.85,1.85,0,0,0,1.45-2.18l-2.66-13.06a1.86,1.86,0,1,0-3.64.74l2.66,13.06A1.86,1.86,0,0,0,73.52,206Z"/><path class="a3661aec-1f52-4f58-aff2-ac24d788978b" d="M75.84,203.53s1.14,4.77,0,4.9-17.67.63-17.77-.13c-.33-2.62,13.18-5,14.5-4.77S75.69,202.84,75.84,203.53Z"/><path class="e48a7626-070f-460f-ab54-f54b0d6fe306" d="M41.21,206a1.5,1.5,0,0,0,.37,0A1.84,1.84,0,0,0,43,203.77l-2.66-13.06a1.85,1.85,0,1,0-3.63.74l2.66,13.06A1.85,1.85,0,0,0,41.21,206Z"/><path class="b248f5e4-8895-43ca-a542-c6e04511c167" d="M37.13,198.4a50.91,50.91,0,0,0,5.91-.55C37.16,166.45,32.72,124.31,48.42,95c-4.76-2.34-9.56-4.63-14.36-6.89C22.58,113.64,32.35,171.38,37.13,198.4Z"/><path class="b248f5e4-8895-43ca-a542-c6e04511c167" d="M69.65,197.51c2-.59,3.92-1.21,5.82-2C60.77,166.8,50,121.6,52.58,88.9c-5.34-.28-10.69-.45-16-.61C38.54,121,56.93,168,69.65,197.51Z"/><path class="a3661aec-1f52-4f58-aff2-ac24d788978b" d="M43.53,203.53s1.15,4.77,0,4.9-17.66.63-17.76-.13c-.33-2.62,13.17-5,14.5-4.77S43.38,202.84,43.53,203.53Z"/><path class="e48a7626-070f-460f-ab54-f54b0d6fe306" d="M32.33,92c3.1-.95,7.52,1.33,10.6.76,4.53-.85,5.36-.25,9.84,0,.57-12.88,1.16-26,2.18-38.64.22-2.66.37-4.24-.17-6.23a8.28,8.28,0,0,0-4.22-5.5c-2.42-1.22-5.51-1.12-8.64.34a7.73,7.73,0,0,0-1.36.75c-1.85,1.3-3.56,3.84-3.83,8.63C36,64,34.79,79.54,32.33,92Z"/><path class="b600c4b6-5260-49e5-845d-efd4d5534b28" d="M57.68,93.13s-9.49,3.27-10.34,5.65,8.53.3,12.44-4.35Z"/><path class="e48a7626-070f-460f-ab54-f54b0d6fe306" d="M57,92.27c.88,1.43,1.8,2.85,2.66,4.18,24-18.86,22.47-30.23-3.53-50.19-4-3.06-4.15-2.33-6.08.68-.72-.24-.71-.27,0,0-1.92,3-.41,3.87,2.72,6.27C73.24,68.88,77.71,77.36,57,92.27Z"/><path class="b600c4b6-5260-49e5-845d-efd4d5534b28" d="M2,11.81S2,1.77,3.92.18,7,8.13,4,13.36Z"/><path class="e48a7626-070f-460f-ab54-f54b0d6fe306" d="M0,11.14c1.77-.5,3.58-.8,5.46-1.17,4.88,21.77.31,35.26,33.28,34.23,5-.16,5,.91,4.18,4.5.67.37.68.35,0,0-.8,3.59-1.8,3.51-6.61,2.91C4.84,47.69,4.94,38.42,0,11.14Z"/><path class="b600c4b6-5260-49e5-845d-efd4d5534b28" d="M49.83,33.82c-3.06,4.7-8.81,6.38-11.69,4.52s-1.77-6.58,1.29-11.28,6.94-5.58,9.81-3.71S52.89,29.12,49.83,33.82Z"/><path class="b600c4b6-5260-49e5-845d-efd4d5534b28" d="M50.89,36.82c-.71,1.09-2.7,1.78-3.5,1.27s-.41-1.53.3-2.63,2-1.7,2.81-1.18A1.67,1.67,0,0,1,50.89,36.82Z"/><path class="b600c4b6-5260-49e5-845d-efd4d5534b28" d="M49.15,33l-5.86-.57c-.08.8-.7,8.45-.4,11.33.22.88,1.68,1.29,3.27.91,1.42-.35,2.46-1.22,2.5-2h0A76.21,76.21,0,0,1,49.15,33Z"/><path class="a3661aec-1f52-4f58-aff2-ac24d788978b" d="M42.82,16.27S40.57,20.7,42,24.53s6.6,8.67,12.33,5.17c0,0,3.84-2.87,0-7.2S49.21,21.11,49,17.13s-3.54-4.06-3.5-4.9Z"/><polygon points="37.12 77.1 38.55 84.74 43.39 77.42 45.45 46.55 43.4 46.55 37.12 77.1"/><path class="a3661aec-1f52-4f58-aff2-ac24d788978b" d="M50.24,26.19c-1.2-.05-1.14,1.12-1.68,3.41S47.45,36,42.93,34.44c-2.27-.76-1.52,2.27-1.51,2.27,1.51,2,3.65-.28,5.51-.7,2.55-.59,4.81-3.4,5.58-7.14C52,27.62,51.05,26.22,50.24,26.19Z"/></g></g></g></svg>