<svg xmlns="http://www.w3.org/2000/svg" viewBox="0 0 99.78 241.57"><defs><style>.baad6d76-a64e-4c85-ab81-eaee07ae3fde{fill:#293d48;}.f881405a-0636-48ee-90b9-7003d3cfc2d3{fill:#fff;}.a0cb07b3-b28f-4d33-9a58-aab736b4c99d{fill:#e1f7ff;}.f86239c4-0d71-47c7-b1bd-5d828057dda9{fill:#007288;}.b1107a93-8585-41ef-a662-4c5b32e7d816{fill:#3f2724;}.be33df54-a38e-4dc9-a4d1-11a643162f86{fill:#4dd3ea;}.e18310a8-05a5-4fa2-9838-b0d30ca7300f{fill:#7f94a0;}.b2d027ef-8440-400b-b9be-51bd019a0730{fill:#afc4d1;}.a9d1b22a-f27f-4e98-b123-9184dab713bd{fill:none;stroke:#fff;stroke-width:3.57px;}.a9d1b22a-f27f-4e98-b123-9184dab713bd,.b763f459-8b45-4153-afdd-aaf04ce9d66f{stroke-miterlimit:10;}.b763f459-8b45-4153-afdd-aaf04ce9d66f{stroke:#000;}</style></defs><title>07 man with padlock</title><g id="b394ff62-676c-42c9-8dec-59d82dfc4d36" data-name="Layer 2"><g id="a513874c-fb30-47c3-bb8a-74ee860efd75" data-name="Layer 1"><path class="baad6d76-a64e-4c85-ab81-eaee07ae3fde" d="M7.61,13.06H99.78a0,0,0,0,1,0,0v51a9.46,9.46,0,0,1-9.46,9.46H17.07a9.46,9.46,0,0,1-9.46-9.46v-51A0,0,0,0,1,7.61,13.06Z"/><polygon class="baad6d76-a64e-4c85-ab81-eaee07ae3fde" points="45.46 16.42 7.61 16.42 7.61 0 36.68 0 45.46 16.42"/><path class="f881405a-0636-48ee-90b9-7003d3cfc2d3" d="M19.2,8.19l2.57,2.57-1.5,1.5L17.7,9.69l-2.63,2.63-1.5-1.5L16.2,8.19,13.63,5.62l1.5-1.5L17.7,6.7l2.59-2.6,1.5,1.5Z"/><path class="baad6d76-a64e-4c85-ab81-eaee07ae3fde" d="M46.34,239.19a1.84,1.84,0,0,0,.33,0,1.63,1.63,0,0,0,1.27-1.91l-2.33-11.44a1.62,1.62,0,0,0-3.18.65l2.33,11.43A1.61,1.61,0,0,0,46.34,239.19Z"/><path d="M48.37,237s1,4.17,0,4.29-15.46.55-15.54-.12c-.29-2.29,11.53-4.4,12.69-4.17S48.24,236.43,48.37,237Z"/><path class="baad6d76-a64e-4c85-ab81-eaee07ae3fde" d="M18.07,239.19a1.84,1.84,0,0,0,.33,0,1.62,1.62,0,0,0,1.26-1.91l-2.33-11.44a1.62,1.62,0,0,0-3.17.65l2.32,11.43A1.63,1.63,0,0,0,18.07,239.19Z"/><path class="a0cb07b3-b28f-4d33-9a58-aab736b4c99d" d="M14.5,232.54a42.62,42.62,0,0,0,5.17-.47c-5.14-27.48-9-64.37,4.71-90.06q-6.25-3.06-12.57-6C1.76,158.36,10.32,208.9,14.5,232.54Z"/><path class="a0cb07b3-b28f-4d33-9a58-aab736b4c99d" d="M43,231.77A53.54,53.54,0,0,0,48.05,230c-12.86-25.13-22.28-64.7-20-93.32-4.67-.24-9.36-.39-14-.53C15.73,164.82,31.83,206,43,231.77Z"/><path d="M20.1,237s1,4.17,0,4.29-15.46.55-15.55-.12c-.29-2.29,11.53-4.4,12.69-4.17S20,236.43,20.1,237Z"/><path class="f86239c4-0d71-47c7-b1bd-5d828057dda9" d="M8.05,145.32c2.74-.91,8.38.55,11.11,0,4-.81,6-.51,10-.28.51-12.44.07-25.46,1-37.66a17.34,17.34,0,0,0-.15-6,7.89,7.89,0,0,0-3.74-5.32c-2.14-1.18-4.88-1.09-7.65.33a6.22,6.22,0,0,0-1.2.73c-1.64,1.25-3.16,3.7-3.4,8.33C13.34,117,10.23,133.32,8.05,145.32Z"/><path class="b1107a93-8585-41ef-a662-4c5b32e7d816" d="M60.86,80.31s-3.47-8.06-2.43-10,5.22,5.35,4.51,10.61Z"/><path class="f86239c4-0d71-47c7-b1bd-5d828057dda9" d="M59.88,80.36c1.44-.28,2.91-.51,4.28-.75,1.92,26.64-6.33,32.36-34.57,27.3-4.32-.77-3.95-1.32-3.14-4.33-.58-.33-.59-.3,0,0,.82-3,2.26-2.55,5.66-1.94C54.34,104.67,62.46,102.57,59.88,80.36Z"/><path class="b1107a93-8585-41ef-a662-4c5b32e7d816" d="M5.06,51.13S9.73,43.69,9,41.6s-6,4.49-6.09,9.8Z"/><path class="f86239c4-0d71-47c7-b1bd-5d828057dda9" d="M6.58,50.82c-1.39-.44-2.77-.82-4.14-1.13C-2.7,78.61.1,79.15,12.6,103.77c1.91,3.76,2.7,3.8,5.27,1.7.64.64.64.65,0,0,2.58-2.1,1.58-3.1-.33-6.48C5.11,76.9,3,77.39,6.58,50.82Z"/><path class="be33df54-a38e-4dc9-a4d1-11a643162f86" d="M17.35,97.11l.23,7.78.29,9.78,4.06-9.09,4.27-9.53c-2.14-1.18-4.88-1.09-7.65.33A6.22,6.22,0,0,0,17.35,97.11Z"/><path class="b1107a93-8585-41ef-a662-4c5b32e7d816" d="M15.18,88.37c2.74,4.07,7.8,5.45,10.29,3.78s1.46-5.79-1.29-9.86-6.15-4.78-8.64-3.1S12.43,84.3,15.18,88.37Z"/><path class="b1107a93-8585-41ef-a662-4c5b32e7d816" d="M14.29,91c.64,1,2.4,1.53,3.08,1.07s.34-1.35-.3-2.3-1.79-1.46-2.47-1A1.46,1.46,0,0,0,14.29,91Z"/><path class="b1107a93-8585-41ef-a662-4c5b32e7d816" d="M25,87.83l-5.13-.5a81.71,81.71,0,0,0-.35,9.91c.19.77,1.47,1.13,2.86.79s2.15-1.06,2.19-1.77h0A69,69,0,0,1,25,87.83Z"/><path class="e18310a8-05a5-4fa2-9838-b0d30ca7300f" d="M17.71,89.73c.74-.83,1.46-.1,3.3.89s5.09.67,5.24-3.59c.1-2.71,1.7,1.7,1.71,1.7.34,2.22-.24,3.58-1.71,4.57-2,1.38-5.33,1.24-8.27-.45C17.5,91.77,17.2,90.3,17.71,89.73Z"/><path class="b2d027ef-8440-400b-b9be-51bd019a0730" d="M26.39,86.87l-.17.1c-.89.5-4.92,2.85-5.3,4.53-.43,1.9,2.17-.76,2.95-2s1.76-1.08,2.62-1.35S27.74,86.8,26.39,86.87Z"/><path class="e18310a8-05a5-4fa2-9838-b0d30ca7300f" d="M12.84,86.17s-.9-3.18.51-5.5,5.44-4.8,8.72-1.77c0,0,2.14,2.37-.94,4.7s-3.49.25-4.17,2.81S14.12,88.6,14,89.15Z"/><polygon class="a0cb07b3-b28f-4d33-9a58-aab736b4c99d" points="17.58 104.89 17.87 114.67 21.93 105.58 21.78 99.65 19.98 99.65 17.58 104.89"/><path class="f881405a-0636-48ee-90b9-7003d3cfc2d3" d="M41,37.53H66.91a2,2,0,0,1,2,2v9.66A14.93,14.93,0,0,1,54,64.09h0A14.93,14.93,0,0,1,39,49.16V39.5A2,2,0,0,1,41,37.53Z"/><path class="a9d1b22a-f27f-4e98-b123-9184dab713bd" d="M62.7,41.79V31.34A8.75,8.75,0,0,0,54,22.59h0a8.75,8.75,0,0,0-8.75,8.75v9.6"/><path class="b763f459-8b45-4153-afdd-aaf04ce9d66f" d="M50.48,48.36A3.47,3.47,0,1,1,54,51.83,3.47,3.47,0,0,1,50.48,48.36Z"/><path class="b763f459-8b45-4153-afdd-aaf04ce9d66f" d="M54,58h0a1.45,1.45,0,0,1-1.44-1.44V51.54A1.45,1.45,0,0,1,54,50.1h0a1.44,1.44,0,0,1,1.44,1.44V56.6A1.44,1.44,0,0,1,54,58Z"/></g></g></svg>