<svg xmlns="http://www.w3.org/2000/svg" viewBox="0 0 75.38 178.04"><defs><style>.f5e72581-90ef-4ad2-9fa1-7599c6aee0ac{fill:#007288;}</style></defs><title>07 Right Plant</title><g id="b010efd7-96e3-4249-8d87-c8513bd0fa80" data-name="Layer 2"><g id="a5cf9e70-b228-4a45-bb2e-9b7e63d8c68e" data-name="Layer 1"><g id="abb72b97-2c50-4643-93ab-cc3429c8447c" data-name="Right Plant"><path class="f5e72581-90ef-4ad2-9fa1-7599c6aee0ac" d="M50.23,31.58a26.11,26.11,0,0,0-2.12-18.51C43.15,3.19,51-2.14,55.49.81S63.15,15,50.23,31.58Z"/><path class="f5e72581-90ef-4ad2-9fa1-7599c6aee0ac" d="M42.83,38.5A26.1,26.1,0,0,0,29.38,25.6c-10.12-4.45-7.5-13.55-2.13-14.15S42.21,17.5,42.83,38.5Z"/><path class="f5e72581-90ef-4ad2-9fa1-7599c6aee0ac" d="M43.84,39.33a26.1,26.1,0,0,1,17.69,5.86C70.19,52.07,77,45.5,75,40.47S62.7,30.07,43.84,39.33Z"/><path class="f5e72581-90ef-4ad2-9fa1-7599c6aee0ac" d="M33.18,55.26a26.1,26.1,0,0,1,17.69,5.86c8.67,6.88,15.48.31,13.51-4.72S52,46,33.18,55.26Z"/><path class="f5e72581-90ef-4ad2-9fa1-7599c6aee0ac" d="M27.33,72A26.1,26.1,0,0,1,45,77.87c8.66,6.88,15.48.31,13.51-4.72S46.19,62.75,27.33,72Z"/><path class="f5e72581-90ef-4ad2-9fa1-7599c6aee0ac" d="M21,93.05a26.1,26.1,0,0,1,17.69,5.86c8.67,6.88,15.48.31,13.51-4.72S39.84,83.79,21,93.05Z"/><path class="f5e72581-90ef-4ad2-9fa1-7599c6aee0ac" d="M33.3,55.14a26.09,26.09,0,0,0-13.44-12.9c-10.12-4.45-7.5-13.54-2.13-14.15S32.68,34.14,33.3,55.14Z"/><path class="f5e72581-90ef-4ad2-9fa1-7599c6aee0ac" d="M26,73.61A26.09,26.09,0,0,0,12.54,60.7C2.42,56.26,5,47.16,10.41,46.55S25.36,52.61,26,73.61Z"/><path class="f5e72581-90ef-4ad2-9fa1-7599c6aee0ac" d="M20.32,92.72A26.06,26.06,0,0,0,6.88,79.82C-3.25,75.37-.62,66.27,4.75,65.67S19.7,71.72,20.32,92.72Z"/><path class="f5e72581-90ef-4ad2-9fa1-7599c6aee0ac" d="M14.25,178a.94.94,0,0,0,.71-1,271.06,271.06,0,0,1,1.1-53.16c3.2-27.44,12.12-66.3,36.5-95.61A.94.94,0,0,0,51.11,27C26.43,56.7,17.41,96,14.19,123.67a273,273,0,0,0-1.1,53.53.94.94,0,0,0,1,.83Z"/></g></g></g></svg>