<svg xmlns="http://www.w3.org/2000/svg" viewBox="0 0 101.03 238.61"><defs><style>.bd890fc1-b2fc-442e-a3d9-99b196f5e00c{fill:#007288;}</style></defs><title>07 Right Plant (2)</title><g id="ed3f94ef-7275-4db3-962d-6ac134250b1f" data-name="Layer 2"><g id="e11696a1-ed8a-4c3f-93dc-679d3db28c82" data-name="Layer 1"><g id="b1604f3f-3be2-412d-8454-51c0772128f3" data-name="Right Plant"><path class="bd890fc1-b2fc-442e-a3d9-99b196f5e00c" d="M67.32,42.33a35,35,0,0,0-2.84-24.81C57.83,4.27,68.31-2.87,74.37,1.09S84.63,20.13,67.32,42.33Z"/><path class="bd890fc1-b2fc-442e-a3d9-99b196f5e00c" d="M57.4,51.6a35,35,0,0,0-18-17.3c-13.57-6-10.05-18.15-2.86-19S56.57,23.46,57.4,51.6Z"/><path class="bd890fc1-b2fc-442e-a3d9-99b196f5e00c" d="M58.76,52.71a35,35,0,0,1,23.7,7.85c11.61,9.22,20.75.42,18.11-6.33S84,40.3,58.76,52.71Z"/><path class="bd890fc1-b2fc-442e-a3d9-99b196f5e00c" d="M44.47,74.07a35,35,0,0,1,23.71,7.85c11.61,9.22,20.74.41,18.1-6.33S69.75,61.66,44.47,74.07Z"/><path class="bd890fc1-b2fc-442e-a3d9-99b196f5e00c" d="M36.63,96.51a35,35,0,0,1,23.71,7.85c11.61,9.22,20.74.42,18.1-6.33S61.9,84.1,36.63,96.51Z"/><path class="bd890fc1-b2fc-442e-a3d9-99b196f5e00c" d="M28.12,124.71a35,35,0,0,1,23.71,7.85c11.61,9.22,20.74.42,18.1-6.33S53.4,112.3,28.12,124.71Z"/><path class="bd890fc1-b2fc-442e-a3d9-99b196f5e00c" d="M44.63,73.9a35,35,0,0,0-18-17.29c-13.57-6-10.06-18.15-2.86-19S43.8,45.76,44.63,73.9Z"/><path class="bd890fc1-b2fc-442e-a3d9-99b196f5e00c" d="M34.82,98.65a35,35,0,0,0-18-17.29c-13.57-6-10.06-18.15-2.86-19S34,70.51,34.82,98.65Z"/><path class="bd890fc1-b2fc-442e-a3d9-99b196f5e00c" d="M27.23,124.27a35,35,0,0,0-18-17.3C-4.35,101-.84,88.82,6.36,88S26.4,96.12,27.23,124.27Z"/><path class="bd890fc1-b2fc-442e-a3d9-99b196f5e00c" d="M19.1,238.58a1.26,1.26,0,0,0,.95-1.36c0-.3-3.18-31.32,1.47-71.24C25.81,129.2,37.77,77.11,70.44,37.83a1.26,1.26,0,0,0-1.94-1.6C35.43,76,23.34,128.61,19,165.75c-4.68,40.18-1.5,71.43-1.47,71.74a1.26,1.26,0,0,0,1.38,1.12Z"/></g></g></g></svg>