<svg xmlns="http://www.w3.org/2000/svg" viewBox="0 0 346.21 348.22"><defs><style>.fc1e93fd-8022-4523-b9af-6173db64dfff{fill:#00a1b8;}.aa45110e-a7fd-4382-8afc-eb3d3b22017f,.f7c7fdb8-9ba7-40a7-8edc-8e1ef6eaa71c{fill:none;stroke:#000;}.f7c7fdb8-9ba7-40a7-8edc-8e1ef6eaa71c{stroke-miterlimit:10;stroke-width:5px;}.a7ef0620-fa1e-414a-bec9-6568300f0274{fill:#4dd3ea;}.aa45110e-a7fd-4382-8afc-eb3d3b22017f{stroke-linecap:round;stroke-linejoin:round;stroke-width:4px;}</style></defs><title>07 stairs</title><g id="b4e5368e-d081-432e-9f60-9d3cbb6f0ab8" data-name="Layer 2"><g id="a08176a6-b95d-4a82-a3ae-b1c0aa60b3a4" data-name="Layer 1"><polygon class="fc1e93fd-8022-4523-b9af-6173db64dfff" points="255.61 108.1 255.61 154.06 191.61 154.06 191.61 199.14 127.81 199.14 127.81 244.13 63.93 244.13 63.93 289.84 0 289.84 0 348.22 13.42 348.22 13.42 303.26 77.39 303.26 77.39 289.84 77.35 289.84 77.35 257.55 141.32 257.55 141.32 244.13 141.23 212.56 205.2 212.56 205.03 167.48 269 167.48 269.03 121.52 333 121.52 333 108.1 255.61 108.1"/><line class="f7c7fdb8-9ba7-40a7-8edc-8e1ef6eaa71c" x1="308.26" y1="66.32" x2="300.43" y2="58.49"/><line class="f7c7fdb8-9ba7-40a7-8edc-8e1ef6eaa71c" x1="307.61" y1="40.52" x2="299.79" y2="32.91"/><path class="fc1e93fd-8022-4523-b9af-6173db64dfff" d="M302.84,60.71,269.2,27.07s.51,14.55,9.8,23.84S302.84,60.71,302.84,60.71Z"/><path class="a7ef0620-fa1e-414a-bec9-6568300f0274" d="M293,36.87c-9.29-9.29-23.84-9.8-23.84-9.8l33.64,33.64S302.33,46.16,293,36.87Z"/><path class="fc1e93fd-8022-4523-b9af-6173db64dfff" d="M301.25,34.32,283.74,16.81s.27,7.57,5.11,12.41S301.25,34.32,301.25,34.32Z"/><path class="a7ef0620-fa1e-414a-bec9-6568300f0274" d="M296.15,21.91c-4.83-4.83-12.41-5.1-12.41-5.1l17.51,17.51S301,26.75,296.15,21.91Z"/><line class="f7c7fdb8-9ba7-40a7-8edc-8e1ef6eaa71c" x1="313.41" y1="79.48" x2="317.16" y2="75.73"/><line class="f7c7fdb8-9ba7-40a7-8edc-8e1ef6eaa71c" x1="313.67" y1="54.73" x2="317.42" y2="50.98"/><path class="aa45110e-a7fd-4382-8afc-eb3d3b22017f" d="M308.26,91.77c0-6.35,5.15-6.35,5.15-12.69s-5.15-6.34-5.15-12.69,5.15-6.34,5.15-12.69-5.15-6.34-5.15-12.69,5.15-6.34,5.15-12.69"/><path class="a7ef0620-fa1e-414a-bec9-6568300f0274" d="M346.21,23,317,52.13s12.62-.45,20.68-8.5S346.21,23,346.21,23Z"/><path class="fc1e93fd-8022-4523-b9af-6173db64dfff" d="M325.53,31.45c-8,8.06-8.5,20.68-8.5,20.68L346.21,23S333.59,23.4,325.53,31.45Z"/><path class="a7ef0620-fa1e-414a-bec9-6568300f0274" d="M313.7,0V32.06s6.69-7.18,6.69-16S313.7,0,313.7,0Z"/><path class="fc1e93fd-8022-4523-b9af-6173db64dfff" d="M307,16c0,8.85,6.69,16,6.69,16V0S307,7.18,307,16Z"/><polygon points="319 108.26 302.67 108.26 300.8 84.6 320.88 84.6 319 108.26"/><path class="a7ef0620-fa1e-414a-bec9-6568300f0274" d="M346.1,47.28,316.92,76.45S329.54,76,337.59,68,346.1,47.28,346.1,47.28Z"/><path class="fc1e93fd-8022-4523-b9af-6173db64dfff" d="M324.89,56.31c-8.05,8.06-8.5,20.67-8.5,20.67l29.18-29.17S333,48.25,324.89,56.31Z"/></g></g></svg>