<svg xmlns="http://www.w3.org/2000/svg" viewBox="0 0 257.32 143.81"><defs><style>.b003884d-dcc8-4cb8-a8e9-12017cf8704d{fill:#526672;}.fc77c96f-eb4d-4c91-b231-ba6aba599e84{fill:#fff;}.e108b599-717a-43fa-bdb4-97fc561b20f9{fill:#00e0e1;}</style></defs><title>07 tamp cloud</title><g id="bddb73c3-da65-4571-8534-9ae3ea345d87" data-name="Layer 2"><g id="b67d085b-222f-416d-adfe-55d8561d623e" data-name="Layer 1"><g id="a1ee9468-9077-4f07-b68a-8f30f1e9e752" data-name="Tamp1 Cloud"><path class="b003884d-dcc8-4cb8-a8e9-12017cf8704d" d="M206.66,42.49a50.58,50.58,0,0,0-18.31,3.42A71.92,71.92,0,0,0,49.86,63.64a40.61,40.61,0,1,0-11.46,80.1v.07H206.66a50.66,50.66,0,0,0,0-101.32Z"/><path class="fc77c96f-eb4d-4c91-b231-ba6aba599e84" d="M126.24,90V37a.5.5,0,0,0-.86-.39L111.75,49.06a1.22,1.22,0,0,1-2.12-.78V42.39a4.36,4.36,0,0,1,1.06-3.19l14.69-14a3,3,0,0,1,1.93-.87h6a1.94,1.94,0,0,1,1.93,1.93V90A1.94,1.94,0,0,1,133.3,92h-5.12A1.94,1.94,0,0,1,126.24,90Z"/><ellipse class="e108b599-717a-43fa-bdb4-97fc561b20f9" cx="131.55" cy="107.37" rx="10.57" ry="10.73"/></g></g></g></svg>