<svg xmlns="http://www.w3.org/2000/svg" viewBox="0 0 57.19 138.18"><defs><style>.aed8322e-7ec6-454b-973d-4675bf0985ad{fill:#f0d1cd;}.b3d2f978-90a9-4a71-800b-d51c3268a4ce{fill:#a4f2ff;}.ab5090c4-6859-45af-8b6d-268f77752ffb{fill:#526672;}.b21ae316-b57e-467f-b959-47ba0926de35{fill:#e1f7ff;}.bdf6e4bd-43c2-4b9b-a503-1d2a94c0f729{fill:#ffd8b6;}.aa15c7a0-bf89-4779-9ac3-cc2edf6ed631{fill:#7f94a0;}</style></defs><title>07 woman next to padlock</title><g id="b665054f-5346-42bd-a889-e7aceeeccb8e" data-name="Layer 2"><g id="bf830933-1bfd-403a-bba5-72dbfdcae66b" data-name="Layer 1"><path class="aed8322e-7ec6-454b-973d-4675bf0985ad" d="M53.78,137.15c.92-.18,1.85-.35,2.77-.55-4.25-21.31-9.89-43.94-9.5-65.76-1.57-.16-3.13-.31-4.7-.44C41.88,92.49,48.89,115.74,53.78,137.15Z"/><path class="b3d2f978-90a9-4a71-800b-d51c3268a4ce" d="M56.9,134.65s.72,3.43-.1,3.5-12.62.08-12.68-.47c-.18-1.88,9.51-3.31,10.45-3.1S56.81,134.16,56.9,134.65Z"/><path class="aed8322e-7ec6-454b-973d-4675bf0985ad" d="M25.18,135.62c.89.33,1.78.65,2.69.95,7.87-23.2,7.2-45,13.44-67.55-1.47-.61-3-1.19-4.45-1.75C30.46,89,31.75,112.59,25.18,135.62Z"/><path class="b3d2f978-90a9-4a71-800b-d51c3268a4ce" d="M28.18,134.65s.72,3.43-.1,3.5-12.62.08-12.68-.47c-.18-1.88,9.51-3.31,10.45-3.1S28.09,134.16,28.18,134.65Z"/><path class="aed8322e-7ec6-454b-973d-4675bf0985ad" d="M8.19,32s-6.69-1.39-8-.29S5.07,34.8,9,33.44Z"/><path class="ab5090c4-6859-45af-8b6d-268f77752ffb" d="M8,31.15c-.25,1.08-.5,2.16-.67,3.22,17.28,3,25.09,2.53,35.65-12.08,1.61-2.24.8-3-1.14-3.83.13-.46.14-.46,0,0-1.94-.84-2.55-.25-3.94,1.72C28.83,33.06,23.05,32.15,8,31.15Z"/><path class="b21ae316-b57e-467f-b959-47ba0926de35" d="M48.09,94c-.77.65-1.31,1.35-2.06,2a41.34,41.34,0,0,1-5.56,4.26,22.85,22.85,0,0,1-3.62,2,17.12,17.12,0,0,1-6.09,1.13c.82-26-.79-39,14.82-51.93,1.49-.82,1.62-.1,2.09-.27.32.3.73.54,1,.85,3.84,3.9,3.4,7,2.27,12.72-2.62,13.3-.92,16.12,5.31,25.89A14.36,14.36,0,0,0,48.09,94Z"/><path class="bdf6e4bd-43c2-4b9b-a503-1d2a94c0f729" d="M38.21.5a3.46,3.46,0,0,1,3.31,2.08,2.55,2.55,0,0,1-1.76,3c-1.22.42-3.69-.88-4.14-2.16S36.58.61,38.21.5Z"/><path class="bdf6e4bd-43c2-4b9b-a503-1d2a94c0f729" d="M49,10.66c3,2.46,6.57,12.82,7.37,23.5s-1.75,18.25-4.7,18.47S43.57,41.41,42,25.47C41,14.84,45.13,7.55,49,10.66Z"/><path class="bdf6e4bd-43c2-4b9b-a503-1d2a94c0f729" d="M41.69,6.17c2.11-1.69,5.76-2.1,7.92-.48s1.94,5,.33,7.19-7.26,2.95-9.43,1.33S39,8.31,41.69,6.17Z"/><path class="aed8322e-7ec6-454b-973d-4675bf0985ad" d="M43.67,9.54c-1.74,3.6-5.67,5.31-7.87,4.24s-1.84-4.5-.1-8.1,4.42-4.58,6.62-3.51S45.42,5.94,43.67,9.54Z"/><path class="aed8322e-7ec6-454b-973d-4675bf0985ad" d="M44.7,11.57c-.41.84-1.76,1.5-2.37,1.21s-.43-1,0-1.89,1.28-1.38,1.88-1.09A1.21,1.21,0,0,1,44.7,11.57Z"/><path class="bdf6e4bd-43c2-4b9b-a503-1d2a94c0f729" d="M47,7.69s.43-3.23-1.26-5.29-6-3.93-8.75-.51c0,0-1.75,2.61,1.57,4.45S42,6.09,43,8.5s3.07,1.74,3.23,2.27Z"/><path class="aa15c7a0-bf89-4779-9ac3-cc2edf6ed631" d="M36.9,59.46c3.17.14,5.65-.94,8.36-2.52,2.08-1.22,4.75-1.72,6.94-2.57,1.73-9.79-.26-25.77-4-32.11-3.29-5.57-3.31-4.66-4.53-5.19a4.63,4.63,0,0,0-5,.72.27.27,0,0,0-.08.07c-1.58,1.48-1.68,4.73-2,8.11S35,28.71,38,34.64C39.2,37.19,36.87,54.41,36.9,59.46Z"/><path class="aed8322e-7ec6-454b-973d-4675bf0985ad" d="M42.4,10.05l-4.19.31a65.93,65.93,0,0,0,1.09,8c.26.6,1.34.7,2.41.24s1.58-1.15,1.51-1.73h0A55,55,0,0,1,42.4,10.05Z"/><path class="aed8322e-7ec6-454b-973d-4675bf0985ad" d="M32.46,55.93s-6.82,2.2-7.46,3.88,6.09.33,8.94-2.93Z"/><path class="ab5090c4-6859-45af-8b6d-268f77752ffb" d="M30.73,56.24c.49,1.06.87,2,1.39,3.12,19.56-11.32,20-18,14.57-38.76-.84-3.18-6.37-1.86-4.44,3.31C49,42.05,46.51,44.37,30.73,56.24Z"/></g></g></svg>