<svg xmlns="http://www.w3.org/2000/svg" viewBox="0 0 99.61 166.2"><defs><style>.e5adef2e-179d-4d2d-bd5f-bac01b14a806{fill:#3b3e54;}.f0fd7901-a054-4996-ae8d-9e702195723b{fill:#ff9f9c;}.e72eab53-cb93-47e4-a5ca-c863aa45d29e{fill:#526672;}.fcbb194d-64be-4753-9b1f-4d058e77dad8{fill:#ffd8b6;}.afe67451-c069-49fe-9513-0bd7653cbd57{fill:#00a1b8;}.bf7345cd-728e-4835-98e1-b6b0a7bf5851{fill:none;stroke:#000;stroke-miterlimit:10;stroke-width:6px;}.f22a98ca-5c41-493a-bbf2-6c7ecfcacf94{fill:#e1f7ff;}</style></defs><title>07 wheelchair</title><g id="f160e504-a8f3-4bc8-bf09-73f8c1b690c3" data-name="Layer 2"><g id="eab10c96-9b36-40a1-8341-1de4cc16fc95" data-name="Layer 1"><g id="e9329105-c1ed-44ab-9cea-1f9957b99c1d" data-name="Woman WheelChair"><rect class="e5adef2e-179d-4d2d-bd5f-bac01b14a806" x="18.07" y="55.74" width="3.1" height="50.94" transform="translate(-13.48 4.5) rotate(-9.76)"/><rect class="f0fd7901-a054-4996-ae8d-9e702195723b" x="19.83" y="102.03" width="46.37" height="9.52" rx="4.76"/><path d="M68.05,161.42a1.61,1.61,0,0,1-.37,0,1.86,1.86,0,0,1-1.45-2.19l2.67-13.08a1.86,1.86,0,0,1,3.64.74l-2.67,13.09A1.85,1.85,0,0,1,68.05,161.42Z"/><path class="e72eab53-cb93-47e4-a5ca-c863aa45d29e" d="M71.89,155.94c-1.93-.44-3.85-1-5.75-1.5,12.28-53,11.6-44.19-34.73-48.76-5-.49-8-4.23-8.72-8.93-.44-2.85.2-5.31,0-8.07C76.92,98.72,88.22,92.51,71.89,155.94Z"/><path class="fcbb194d-64be-4753-9b1f-4d058e77dad8" d="M71.82,10.93S72.88,1.41,74.92.12,77,8,73.47,12.61Z"/><path d="M70.39,10.54a30,30,0,0,1,4.49.79c-9.28,37.62-9.2,27.18-38,41.29-4.41,2.16-4.62.31-5.23-2.61h0c-.61-2.93-.28-3.42,4-5.11C63.27,33.87,58.87,43.52,70.39,10.54Z"/><path d="M85,161.51a1.5,1.5,0,0,1-.37,0,1.84,1.84,0,0,1-1.9-1.81l-.31-13.35a1.86,1.86,0,0,1,3.71-.09l.31,13.35A1.86,1.86,0,0,1,85,161.51Z"/><path class="e72eab53-cb93-47e4-a5ca-c863aa45d29e" d="M87.34,154.89c-2,0-4,0-6-.11C81.14,104,79,109.64,31.49,105.42c-5.17-.46-8.2-4-8.86-8.67-.39-2.86,0-5.27-.22-8C77.24,96.31,88.68,96.81,87.34,154.89Z"/><path d="M31.51,19.81a4.85,4.85,0,0,0-4.68,2.85c-.65,1.8.7,3.68,2.41,4.3s5.2-1.16,5.85-2.95S33.81,20,31.51,19.81Z"/><path d="M8.8,36.77c-3.39,2.49-5.45,8-3.86,12.07s6.81,5.34,10.73,3.83,7.86-8.24,5.93-14.56C20.32,33.89,13.11,33.61,8.8,36.77Z"/><path d="M26.3,28.88c-2.75-1.52-7-1.26-9.16,1S15.91,36,18.19,38.19s8.89,2,11-.33S29.78,30.81,26.3,28.88Z"/><path class="fcbb194d-64be-4753-9b1f-4d058e77dad8" d="M23.68,32.39c2.38,5.09,7.86,7.55,11,6.1s2.67-6.29.29-11.37-6.12-6.5-9.23-5S21.29,27.3,23.68,32.39Z"/><path class="fcbb194d-64be-4753-9b1f-4d058e77dad8" d="M22.21,35.22c.55,1.18,2.44,2.14,3.29,1.74s.63-1.46.07-2.65-1.77-2-2.62-1.56A1.68,1.68,0,0,0,22.21,35.22Z"/><path d="M21.42,29.5S21,25.73,23,23.36s7-4.47,10.18-.46c0,0,2,3.06-1.9,5.15s-4-.34-5.21,2.45-3.6,2-3.8,2.58Z"/><path d="M44.59,101.5c-4.35,1-8,0-12.16-1.5-3.18-1.18-7-1.24-10.21-1.88C17.49,85,16.33,62.38,20.09,52.75c3.47-8.89,6.22-8.91,7-9,2.94,1.38,2.67-1,5.21.65S35.78,50.51,37,55.12s2.83,3.41.23,12.31C36.09,71.25,43.43,94.51,44.59,101.5Z"/><path class="fcbb194d-64be-4753-9b1f-4d058e77dad8" d="M25.19,34.49l5.87-.58c.08.81.7,8.46.4,11.35-.22.89-1.68,1.3-3.27.91-1.43-.35-2.47-1.22-2.51-2h0A78,78,0,0,0,25.19,34.49Z"/><path class="afe67451-c069-49fe-9513-0bd7653cbd57" d="M81.81,159s-1.15,4.77,0,4.9,17.7.64,17.79-.13c.34-2.62-13.19-5-14.52-4.77S82,158.26,81.81,159Z"/><path class="afe67451-c069-49fe-9513-0bd7653cbd57" d="M64.59,159s-1.15,4.77,0,4.9,17.7.64,17.8-.13c.33-2.62-13.2-5-14.52-4.77S64.74,158.26,64.59,159Z"/><path d="M11.72,103.18a29.35,29.35,0,0,1-4.31,1.48C-2.68,67.25,2.3,76.42,20.72,50.11c2.81-4,9.85.57,4.85,6.15C5.67,78.47,5.84,68.74,11.72,103.18Z"/><circle class="bf7345cd-728e-4835-98e1-b6b0a7bf5851" cx="35.45" cy="130.75" r="32.45"/><path class="fcbb194d-64be-4753-9b1f-4d058e77dad8" d="M10.28,103.53s3.68,8.84,2.52,11S7.18,108.59,8,102.86Z"/><path class="f22a98ca-5c41-493a-bbf2-6c7ecfcacf94" d="M44.1,136.68,55.24,148l2.81,2.87a29.57,29.57,0,0,1-2.88,2.83l-2.81-2.87L41,139.33l7.46,18.73a29.7,29.7,0,0,1-3.76,1.49l-1.48-3.72-5.89-14.77L37.23,157l0,4a28.85,28.85,0,0,1-4.05,0l0-4,.14-16.16-8,18.51c-.63-.22-1.26-.47-1.88-.74s-1.24-.55-1.83-.86l7.86-18.29L18.17,150.55l-2.86,2.8a29.6,29.6,0,0,1-2.83-2.88l2.86-2.81,11.53-11.32-15,6L8.14,143.8a30.16,30.16,0,0,1-1.49-3.75l3.71-1.49,14.78-5.88-15.9-.15-4,0a28.7,28.7,0,0,1,0-4l4,0,16.16.15-18.51-8c.22-.64.47-1.26.74-1.89s.55-1.24.86-1.83l18.29,7.87L15.65,113.48l-2.8-2.86a27.47,27.47,0,0,1,2.88-2.83l2.81,2.85,11.31,11.53-6-15-1.47-3.71a31.86,31.86,0,0,1,3.75-1.5l7.37,18.49.14-15.9,0-4a28.69,28.69,0,0,1,4,0l0,4-.15,16.15,8-18.5c.63.21,1.25.46,1.88.73s1.24.55,1.83.87L41.37,122.1,52.72,111l2.86-2.8A28.47,28.47,0,0,1,58.41,111l-2.86,2.81L44,125.16l15-6,3.72-1.48a31.33,31.33,0,0,1,1.5,3.76l-3.72,1.48-14.78,5.89,15.9.14,4,0a28.83,28.83,0,0,1,0,4.05l-4,0-16.14-.14,18.5,8c-.21.63-.46,1.26-.73,1.88s-.55,1.24-.87,1.83Z"/></g></g></g></svg>