<svg xmlns="http://www.w3.org/2000/svg" viewBox="0 0 85.69 85.69"><defs><style>.a709dd58-3523-4bf9-8615-547b004bc6a8{fill:#7f94a0;}.b8d268a4-2ccb-4aa2-a6fd-5da2254f4e59{fill:#afc4d1;}.fc06a606-6c68-4cd8-b9ee-601bf8bde6d2{fill:#e1f7ff;}.bc6f1df2-f800-466e-8f5a-a514071695d3{fill:#fff;}.a8258783-0ba1-4a69-9ea3-6a19e6390aef{fill:#293d48;}</style></defs><title>Clock02 -</title><g id="fa89facc-a031-4256-926d-ffeb1b299f6b" data-name="Layer 2"><g id="b138530e-1b9d-4e8d-ac1e-4c94343320d9" data-name="Layer 1"><g id="a32757df-fdae-4f71-a66c-0d8d71264786" data-name="Clock"><path class="a709dd58-3523-4bf9-8615-547b004bc6a8" d="M3.5,25.92c.38-.89.78-1.76,1.22-2.59a42.37,42.37,0,0,1,6.13-9,41.61,41.61,0,0,1,4.08-4A43.07,43.07,0,0,1,40.37.08a39,39,0,0,1,5.72.05,41.49,41.49,0,0,1,11,2.33c.9.3,1.79.66,2.67,1s1.76.78,2.59,1.22a42.37,42.37,0,0,1,9,6.13,41.61,41.61,0,0,1,4,4.08A43.07,43.07,0,0,1,85.61,40.37a39,39,0,0,1,0,5.72,41.49,41.49,0,0,1-2.33,11c-.3.9-.65,1.79-1,2.67s-.78,1.76-1.22,2.59a42.37,42.37,0,0,1-6.13,9,41.61,41.61,0,0,1-4.08,4A43.07,43.07,0,0,1,45.32,85.61a39,39,0,0,1-5.72,0,41.49,41.49,0,0,1-11-2.33c-.9-.3-1.78-.65-2.67-1s-1.76-.78-2.59-1.22a42.37,42.37,0,0,1-9-6.13,41.61,41.61,0,0,1-4-4.08A43.07,43.07,0,0,1,.08,45.32,39,39,0,0,1,.13,39.6a41.49,41.49,0,0,1,2.33-11C2.76,27.69,3.12,26.81,3.5,25.92Z"/><path class="b8d268a4-2ccb-4aa2-a6fd-5da2254f4e59" d="M30.6,34.46,14.83,18.4l-4-4a41.61,41.61,0,0,1,4.08-4l4,4.05,16,16.3L24.37,4.2a42.65,42.65,0,0,1,5.32-2.11l2.09,5.26,8.34,20.91.2-22.51,0-5.67a39,39,0,0,1,5.72.05L46,5.78l-.2,22.87L57.1,2.46c.9.3,1.79.66,2.67,1s1.76.78,2.59,1.22L51.23,30.6,67.29,14.82l4-4a41.61,41.61,0,0,1,4,4.08l-4,4L55,34.93l21.23-8.46,5.27-2.1a42.65,42.65,0,0,1,2.11,5.32l-5.25,2.1L57.43,40.12l22.51.2,5.67,0a39,39,0,0,1,0,5.72L79.91,46,57,45.84,83.23,57.1c-.3.9-.65,1.79-1,2.67s-.78,1.76-1.22,2.59L55.09,51.23,70.87,67.29l4,4a41.61,41.61,0,0,1-4.08,4l-4-4L50.77,55l8.46,21.24,2.09,5.26A42.65,42.65,0,0,1,56,83.6L45.58,57.44,45.38,80l-.06,5.66a39,39,0,0,1-5.72,0l0-5.65L39.85,57,28.59,83.23c-.9-.3-1.78-.65-2.67-1s-1.76-.78-2.59-1.22L34.46,55.09,18.4,70.87l-4,4a41.61,41.61,0,0,1-4-4.08l4.05-4,16.3-16L9.47,59.22,4.2,61.32A42.65,42.65,0,0,1,2.09,56l5.26-2.09,20.92-8.34-22.51-.2-5.68,0A39,39,0,0,1,.13,39.6l5.67,0,22.85.2L2.46,28.59c.3-.9.66-1.78,1-2.67s.78-1.76,1.22-2.59Z"/><circle class="b8d268a4-2ccb-4aa2-a6fd-5da2254f4e59" cx="42.85" cy="42.85" r="37.18" transform="translate(-13.5 20.55) rotate(-23.41)"/><circle class="fc06a606-6c68-4cd8-b9ee-601bf8bde6d2" cx="42.85" cy="42.85" r="35.09" transform="translate(-1.31 84.35) rotate(-88.22)"/><rect class="bc6f1df2-f800-466e-8f5a-a514071695d3" x="51.44" y="7.8" width="4.63" height="37.2" transform="translate(28.59 -27.94) rotate(38.99)"/><rect class="a8258783-0ba1-4a69-9ea3-6a19e6390aef" x="43.01" y="39.7" width="4.22" height="25.09" transform="translate(-10.17 10.91) rotate(-12.4)"/><rect class="bc6f1df2-f800-466e-8f5a-a514071695d3" x="37.62" y="15.81" width="4.22" height="25.09" transform="translate(-5.16 9.19) rotate(-12.4)"/><rect class="a8258783-0ba1-4a69-9ea3-6a19e6390aef" x="52.91" y="9.47" width="4.85" height="38.77" transform="translate(30.48 -28.39) rotate(38.99)"/></g></g></g></svg>