<svg xmlns="http://www.w3.org/2000/svg" viewBox="0 0 447.52 366.66"><defs><style>.a7e3c87f-e9ad-4313-bc34-98916c4e1912{fill:#e3f6ff;}.f9c89fe3-e4ce-400d-a628-715952ae30ad{fill:#b1c3d0;}.e0044213-ccf4-4f51-9244-4ec3825c6648{fill:#00e0e3;}</style></defs><title>Computer02 -</title><g id="a1cde71c-e681-47eb-96ff-1aebb4a477bd" data-name="Layer 2"><g id="ae565d88-86f2-4d5f-b7d8-6421eebaee11" data-name="Layer 1"><g id="bbd4a976-6c3b-4859-95cf-01ef104f0770" data-name="Computer"><polygon class="a7e3c87f-e9ad-4313-bc34-98916c4e1912" points="178.45 318.03 175.7 354.24 270.82 354.24 268.07 318.03 178.45 318.03"/><polygon class="f9c89fe3-e4ce-400d-a628-715952ae30ad" points="266.56 298.16 179.96 298.16 178.45 318.03 268.07 318.03 266.56 298.16"/><path class="f9c89fe3-e4ce-400d-a628-715952ae30ad" d="M159.92,351H286.6a8.18,8.18,0,0,1,8.18,8.18v7.44a0,0,0,0,1,0,0h-143a0,0,0,0,1,0,0v-7.44a8.18,8.18,0,0,1,8.18-8.18Z"/><path d="M433.68,0H12.84A12.84,12.84,0,0,0,0,12.84V265.5H446.52V12.84A12.84,12.84,0,0,0,433.68,0Z"/><path class="a7e3c87f-e9ad-4313-bc34-98916c4e1912" d="M265.79,265.5H1V296A12.84,12.84,0,0,0,13.84,308.8H434.68A12.84,12.84,0,0,0,447.52,296V265.5Z"/><polygon class="e0044213-ccf4-4f51-9244-4ec3825c6648" points="221.84 15.62 171.73 15.62 15.63 15.62 15.63 171.73 15.63 247.74 221.84 247.74 428.07 247.74 428.07 15.62 221.84 15.62"/></g></g></g></svg>