<svg xmlns="http://www.w3.org/2000/svg" viewBox="0 0 53.2 79.25"><defs><style>.ebdd9a43-299f-4985-b6fe-20e9bb0dc344{fill:#a4f2ff;}</style></defs><title>Asset 2702 -</title><g id="f5b322e3-3840-4ce8-aa6f-2e6f1865897b" data-name="Layer 2"><g id="bda34a14-9e3c-49b4-84e5-590456a285e7" data-name="Layer 1"><path class="ebdd9a43-299f-4985-b6fe-20e9bb0dc344" d="M49.72,40.44c-.24-.29-.5-.57-.77-.84a17.79,17.79,0,0,0-3.7-2.77,28.13,28.13,0,0,0-4.46-2c-9.23-3.31-20.22-3.05-20.22-7.16,0-2,1.86-3.71,7.67-3.71a36.38,36.38,0,0,1,16.44,4.39l6-14.42A44,44,0,0,0,33.56,9V0H21.67V9.19C7.84,11.13.93,19.14.93,28.67a15.35,15.35,0,0,0,3,9.69,13.54,13.54,0,0,0,1.28,1.45A17.75,17.75,0,0,0,8.9,42.6c4,2.3,8.84,3.46,13.2,4.39s8.14,1.59,10.09,2.9a2.62,2.62,0,0,1,1.37,2.21c0,2-2,3.21-7.68,3.21-.66,0-1.33,0-2-.07A41.09,41.09,0,0,1,7.47,50.5c-.36-.19-.71-.39-1.06-.59l-1.31,3L0,64.41c4.72,2.91,12.15,5.09,20,5.77l1.69.13v8.94H33.56V69.89C46.62,67.61,53.2,59.69,53.2,50.58A14.87,14.87,0,0,0,49.72,40.44Z"/></g></g></svg>