<svg xmlns="http://www.w3.org/2000/svg" viewBox="0 0 40.96 61.01"><defs><style>.e368b5de-b10d-4031-a2df-c22b0026c132{fill:#b1c3d0;}</style></defs><title>Dollar 102 -</title><g id="b4b283d7-3539-40dd-8271-46f3ce50122e" data-name="Layer 2"><g id="bf60c828-14da-4669-ad56-c9860a2a43d9" data-name="Layer 1"><path class="e368b5de-b10d-4031-a2df-c22b0026c132" d="M38.28,31.13c-.19-.22-.39-.43-.59-.64a14,14,0,0,0-2.85-2.14,22.6,22.6,0,0,0-3.43-1.55c-7.11-2.55-15.57-2.35-15.57-5.51,0-1.56,1.43-2.86,5.9-2.86A28,28,0,0,1,34.4,21.81L39,10.71A33.76,33.76,0,0,0,25.83,7V0H16.68V7.08C6,8.57.72,14.73.72,22.07A11.87,11.87,0,0,0,3,29.53a11.82,11.82,0,0,0,1,1.12A13.63,13.63,0,0,0,6.85,32.8c3.06,1.77,6.81,2.66,10.17,3.38s6.26,1.22,7.76,2.23a2,2,0,0,1,1,1.7c0,1.56-1.55,2.47-5.9,2.47-.51,0-1,0-1.55,0A31.71,31.71,0,0,1,5.75,38.88l-.82-.45-1,2.28L0,49.59C3.64,51.83,9.36,53.51,15.38,54l1.3.1V61h9.15v-7.2C35.89,52.05,41,46,41,38.94A11.45,11.45,0,0,0,38.28,31.13Z"/></g></g></svg>