<svg xmlns="http://www.w3.org/2000/svg" viewBox="0 0 43.77 59.35"><defs><style>.ab911ec4-f6cf-402f-80c6-ce78fd648859{fill:#e3f6ff;}</style></defs><title>Asset 2902 -</title><g id="a4d942d6-606b-4f5b-94aa-0e6fad12ed3f" data-name="Layer 2"><g id="a93137ae-aab7-4811-b1c2-45b9320ed1a0" data-name="Layer 1"><path class="ab911ec4-f6cf-402f-80c6-ce78fd648859" d="M43.77,40.72c0,11.7-7.34,18.63-18.55,18.63-8.24,0-13.93-4.21-16.56-9.73-1.49-3-2.07-6.76-2.4-10.88H1.65A1.65,1.65,0,0,1,0,37.09V33.38a1.66,1.66,0,0,1,1.65-1.65H6.1V26.29H1.65A1.65,1.65,0,0,1,0,24.65V20.94a1.65,1.65,0,0,1,1.65-1.65H6.43A26.29,26.29,0,0,1,8.66,9.73C11.29,4.2,17,0,25.22,0,36.43,0,43.77,6.92,43.77,18.63a1.62,1.62,0,0,1-1.65,1.48H37.5a1.65,1.65,0,0,1-1.64-1.65c0-6.76-4.12-10.63-10.64-10.63a9.9,9.9,0,0,0-9.31,5.61,19.29,19.29,0,0,0-1.32,5.85H27.2a1.65,1.65,0,0,1,1.65,1.65v3.71a1.65,1.65,0,0,1-1.65,1.64h-13v5.44h13a1.66,1.66,0,0,1,1.65,1.65v3.71a1.65,1.65,0,0,1-1.65,1.65H14.42a21.22,21.22,0,0,0,1.49,7.17,9.92,9.92,0,0,0,9.31,5.61c6.52,0,10.64-3.88,10.64-10.64a1.65,1.65,0,0,1,1.64-1.64h4.62A1.62,1.62,0,0,1,43.77,40.72Z"/></g></g></svg>