<svg xmlns="http://www.w3.org/2000/svg" viewBox="0 0 110.69 99.18"><defs><style>.aff053eb-fb9d-4b1d-8a0b-a644329650fe{fill:none;stroke:#293e4a;}.aff053eb-fb9d-4b1d-8a0b-a644329650fe,.ed8c9eff-de9d-4670-b0f2-0b0e9c324327{stroke-miterlimit:10;}.ed8c9eff-de9d-4670-b0f2-0b0e9c324327{fill:#00e0e3;stroke:#526672;}.a2e3eb27-d49a-48fb-92fe-9ff780d2ed0e{fill:#3c3e54;}</style></defs><title>Flag02 -</title><g id="e366bbf8-febb-44f8-9621-13f07cc940f4" data-name="Layer 2"><g id="b9918054-665b-4136-a8fb-32f04a340fc5" data-name="Layer 1"><g id="ebd03ee5-876e-43bf-8b8a-683ec76c53c4" data-name="Flag"><line class="aff053eb-fb9d-4b1d-8a0b-a644329650fe" x1="2.5" y1="96.68" x2="2.5" y2="1.9"/><path class="ed8c9eff-de9d-4670-b0f2-0b0e9c324327" d="M2.54,36.62c6.64,0,10.27-2.69,13.19-4.84,2.44-1.8,4.2-3.1,8.31-3.1s5.88,1.3,8.31,3.1c2.92,2.15,6.56,4.84,13.19,4.84s10.27-2.69,13.19-4.84c2.44-1.8,4.19-3.1,8.31-3.1s5.87,1.3,8.31,3.1c2.92,2.15,6.56,4.84,13.19,4.84s10.27-2.69,13.19-4.84c2.44-1.8,4.2-3.1,8.31-3.1l-3.5-13.48L110,.9c-6.63,0-10.27,2.69-13.19,4.84-2.43,1.8-4.19,3.1-8.31,3.1s-5.87-1.3-8.31-3.1C77.31,3.59,73.67.9,67,.9S56.77,3.59,53.85,5.74c-2.44,1.8-4.2,3.1-8.31,3.1s-5.87-1.3-8.31-3.1C34.31,3.59,30.68.9,24,.9S13.77,3.59,10.85,5.74c-2.43,1.8-4.19,3.1-8.31,3.1Z"/><circle class="a2e3eb27-d49a-48fb-92fe-9ff780d2ed0e" cx="2.5" cy="96.68" r="2.5"/><circle class="a2e3eb27-d49a-48fb-92fe-9ff780d2ed0e" cx="2.5" cy="1.81" r="1.81" transform="matrix(0.99, -0.16, 0.16, 0.99, -0.26, 0.42)"/></g></g></g></svg>