<svg xmlns="http://www.w3.org/2000/svg" viewBox="0 0 185.23 82.45"><defs><style>.ef84d035-a9fe-4594-9466-502b457ebda5{fill:#0aa0b9;}.a50de9d6-2227-43e2-9b30-bd46e917cc37{fill:#e3f6ff;}</style></defs><title>L1 Note02 -</title><g id="b0c1baae-4c88-4d9b-997c-fecca5b10897" data-name="Layer 2"><g id="f9244056-1ae7-41c7-bb31-a5962cb29d26" data-name="Layer 1"><g id="eadeaaa7-502e-4d55-b53d-f041faecb260" data-name="L1 Note"><rect class="ef84d035-a9fe-4594-9466-502b457ebda5" width="185.23" height="82.45"/><rect class="a50de9d6-2227-43e2-9b30-bd46e917cc37" x="54.65" y="-48.13" width="75.94" height="178.71" transform="translate(133.84 -51.39) rotate(90)"/><path class="ef84d035-a9fe-4594-9466-502b457ebda5" d="M177.08,67.11V15.34a7.19,7.19,0,0,1-7.19-7.19H15.34a7.19,7.19,0,0,1-7.19,7.19V67.11a7.19,7.19,0,0,1,7.19,7.2H169.89A7.19,7.19,0,0,1,177.08,67.11Z"/><path class="a50de9d6-2227-43e2-9b30-bd46e917cc37" d="M119.33,41.23a46.33,46.33,0,0,1-3.41,17.7c-4.58,11-13.3,18.47-23.3,18.47S73.89,70,69.32,58.93a46,46,0,0,1-3.43-17.7,46,46,0,0,1,3.43-17.71c4.57-11,13.28-18.47,23.3-18.47s18.72,7.45,23.3,18.47A46.38,46.38,0,0,1,119.33,41.23Z"/><circle class="a50de9d6-2227-43e2-9b30-bd46e917cc37" cx="150.63" cy="41.23" r="10.92" transform="translate(85.81 183.31) rotate(-80.78)"/><circle class="a50de9d6-2227-43e2-9b30-bd46e917cc37" cx="32.05" cy="41.23" r="10.92" transform="translate(-15.44 62.94) rotate(-76.72)"/><path class="a50de9d6-2227-43e2-9b30-bd46e917cc37" d="M119.33,41.23a46.33,46.33,0,0,1-3.41,17.7H69.32a46,46,0,0,1-3.43-17.7,46,46,0,0,1,3.43-17.71h46.6A46.38,46.38,0,0,1,119.33,41.23Z"/><path class="ef84d035-a9fe-4594-9466-502b457ebda5" d="M101.73,44.91c0,5.62-3.52,8.94-8.9,8.94a8.43,8.43,0,0,1-8-4.67A14.75,14.75,0,0,1,83.72,44H81.51a.79.79,0,0,1-.79-.79V41.39a.79.79,0,0,1,.79-.8h2.14V38H81.51a.79.79,0,0,1-.79-.79V35.41a.79.79,0,0,1,.79-.79H83.8A12.74,12.74,0,0,1,84.87,30a8.43,8.43,0,0,1,8-4.67c5.38,0,8.9,3.33,8.9,8.94a.79.79,0,0,1-.79.72H98.72a.8.8,0,0,1-.79-.8c0-3.24-2-5.1-5.1-5.1a4.78,4.78,0,0,0-4.48,2.69,9.46,9.46,0,0,0-.63,2.81h6a.8.8,0,0,1,.8.79v1.78a.79.79,0,0,1-.8.79H87.52v2.61h6.25a.8.8,0,0,1,.8.8v1.78a.8.8,0,0,1-.8.79H87.64a10.42,10.42,0,0,0,.71,3.44,4.78,4.78,0,0,0,4.48,2.69c3.12,0,5.1-1.86,5.1-5.1a.79.79,0,0,1,.79-.79h2.22A.78.78,0,0,1,101.73,44.91Z"/></g></g></g></svg>