<svg xmlns="http://www.w3.org/2000/svg" viewBox="0 0 100.32 217.93"><defs><style>.eb848fc2-56b2-4ec7-807a-60c37c8abdb2{fill:#3f2724;}.a5010963-8759-459c-8190-67f61966c584{fill:#181a29;}.b737ac19-7356-4752-84e7-355be7da8141{fill:#fff;}.a15782ff-7c91-4d2a-8c9c-579a8ac8c99f{fill:#1a1c2e;}.fd15166b-b748-435b-b2a2-d2f32362cd5f{fill:#293d48;}.b2e05015-f1fb-47c5-8a30-5edf5c371554{fill:#fe5e5a;}</style></defs><title>man body02 -</title><g id="a9622724-231c-4db5-afe2-ed9fd2718dca" data-name="Layer 2"><g id="a5e9c697-a443-4740-8aa1-267ffbec4410" data-name="Layer 1"><path class="eb848fc2-56b2-4ec7-807a-60c37c8abdb2" d="M86.53,53.19s10.91-4,13.4-2.44-7.46,6.47-14.35,5.14Z"/><path class="a5010963-8759-459c-8190-67f61966c584" d="M87.34,52.13a54.47,54.47,0,0,1,.81,5.69c-38.59,1-35.35.3-63.81-23.55-4.35-3.65-3.46-4.82-.24-7.35-.52-.9-.55-.89,0,0,3.21-2.53,4.06-1,7.81,2.34C56.42,51.31,52.53,52.56,87.34,52.13Z"/><path class="b737ac19-7356-4752-84e7-355be7da8141" d="M22.14,214.78a2,2,0,0,1-.43,0A2.16,2.16,0,0,1,20,212.21l3.08-15.11a2.14,2.14,0,1,1,4.2.86l-3.08,15.1A2.14,2.14,0,0,1,22.14,214.78Z"/><path class="a15782ff-7c91-4d2a-8c9c-579a8ac8c99f" d="M19.45,211.93s-1.32,5.51,0,5.67,20.43.73,20.55-.16c.38-3-15.24-5.81-16.77-5.51S19.63,211.13,19.45,211.93Z"/><path class="a5010963-8759-459c-8190-67f61966c584" d="M27.59,206.74a70.27,70.27,0,0,1-7.11-.08c5.81-36.86,1.35-90.41-13.26-125.41C13,79,18.81,76.89,24.63,74.8,34.22,111.48,30.94,169.75,27.59,206.74Z"/><path class="b737ac19-7356-4752-84e7-355be7da8141" d="M3.27,214.78a2.13,2.13,0,0,1-2.1-2.57L4.24,197.1a2.15,2.15,0,0,1,4.21.86l-3.08,15.1A2.15,2.15,0,0,1,3.27,214.78Z"/><path class="a15782ff-7c91-4d2a-8c9c-579a8ac8c99f" d="M.59,211.93s-1.33,5.51,0,5.67,20.43.73,20.54-.16c.38-3-15.23-5.81-16.76-5.51S.76,211.13.59,211.93Z"/><path class="fd15166b-b748-435b-b2a2-d2f32362cd5f" d="M8,206.88A69.34,69.34,0,0,1,1,206.06c9-33.73,10.46-82.94,1.68-118.88-1-4.06.53-12,4.58-13,3.5-.9,7.93,2,11.44,1.15C24.42,112.81,15.16,170.42,8,206.88Z"/><path class="fd15166b-b748-435b-b2a2-d2f32362cd5f" d="M28,91.37c-3.31-1.9-11-1.48-14.39-2.91-5-2.1-7.62-2.23-12.81-3,2.59-16.25,6.56-33,8.57-49,.42-3.38.65-5.39,1.77-7.76a10.48,10.48,0,0,1,6.23-5.91c3.08-1,6.61-.12,9.83,2.43a7.91,7.91,0,0,1,1.36,1.26c1.8,2.05,3.12,5.63,2.23,11.68C28.52,53.29,28.28,75.25,28,91.37Z"/><path class="b737ac19-7356-4752-84e7-355be7da8141" d="M28.52,26.49l-2.34,10L23.25,49.1,20.37,36.27l-3-13.47c3.08-1,6.61-.12,9.83,2.43A7.91,7.91,0,0,1,28.52,26.49Z"/><path class="eb848fc2-56b2-4ec7-807a-60c37c8abdb2" d="M20.07,13.19c2.39,6,8.53,9.25,12.21,7.79s3.52-7,1.13-13.08S26.82,0,23.13,1.45,17.68,7.16,20.07,13.19Z"/><path class="eb848fc2-56b2-4ec7-807a-60c37c8abdb2" d="M18.18,16.34c.55,1.41,2.66,2.65,3.68,2.25s.81-1.65.26-3.05-1.9-2.39-2.92-2A2,2,0,0,0,18.18,16.34Z"/><path class="eb848fc2-56b2-4ec7-807a-60c37c8abdb2" d="M21,12.47l6.78.69c-.1.93-1.15,9.73-2.15,12.93-.45.95-2.19,1.08-3.91.28-1.54-.72-2.51-1.94-2.37-2.87h0A90.56,90.56,0,0,0,21,12.47Z"/><path d="M17.67,9.7s-.25-4.37,2.21-7,8.39-4.66,11.77.18c0,0,2.08,3.67-2.55,5.81s-4.57-.68-6.18,2.45-4.28,2-4.55,2.7Z"/><polygon class="b2e05015-f1fb-47c5-8a30-5edf5c371554" points="26.18 36.51 23.25 49.1 20.37 36.27 22.13 28.62 24.45 29.09 26.18 36.51"/></g></g></svg>