<svg xmlns="http://www.w3.org/2000/svg" viewBox="0 0 61 85.65"><defs><style>.f4b30020-9912-426c-9e14-0b47094da8d4{fill:#293d48;}.a5d161ea-df99-4aeb-b96b-c0eedd3b821d,.f4b30020-9912-426c-9e14-0b47094da8d4{stroke:#293d48;stroke-miterlimit:10;}.a5d161ea-df99-4aeb-b96b-c0eedd3b821d{fill:none;stroke-width:3.57px;}.accff721-c0c6-465e-aa21-7f3084cc6985{fill:#7ce2e6;}</style></defs><title>Padlock02 -</title><g id="e1d483f9-d995-4eed-9f97-79d64901527e" data-name="Layer 2"><g id="ba214e3d-37d5-45da-9051-f76a2373253a" data-name="Layer 1"><g id="aceaad48-3ba7-49eb-99d4-5dfd15e71d6e" data-name="Padlock"><path class="f4b30020-9912-426c-9e14-0b47094da8d4" d="M1.82,31.79H59.18a1.32,1.32,0,0,1,1.32,1.32v42a10,10,0,0,1-10,10h-40a10,10,0,0,1-10-10v-42a1.32,1.32,0,0,1,1.32-1.32Z"/><path class="a5d161ea-df99-4aeb-b96b-c0eedd3b821d" d="M48.08,40.35v-21A17.58,17.58,0,0,0,30.5,1.78h0A17.58,17.58,0,0,0,12.92,19.36V38.64"/><path class="accff721-c0c6-465e-aa21-7f3084cc6985" d="M23.53,53.55a7,7,0,1,1,7,7A7,7,0,0,1,23.53,53.55Z"/><path class="accff721-c0c6-465e-aa21-7f3084cc6985" d="M30.5,73h0a2.89,2.89,0,0,1-2.89-2.89V59.94a2.89,2.89,0,0,1,2.89-2.89h0a2.89,2.89,0,0,1,2.89,2.89V70.09A2.89,2.89,0,0,1,30.5,73Z"/></g></g></g></svg>