<svg xmlns="http://www.w3.org/2000/svg" viewBox="0 0 34.62 55.24"><defs><style>.b94a1e89-0441-4dc9-9880-84bd0cec894b{fill:#a4f2ff;}</style></defs><title>Asset 3302 -</title><g id="b4559079-9588-4cee-8130-84e9785ef3ac" data-name="Layer 2"><g id="fed71cba-b4cb-4a34-9049-506848681b0b" data-name="Layer 1"><path class="b94a1e89-0441-4dc9-9880-84bd0cec894b" d="M0,53.69V49.41a1.56,1.56,0,0,1,1.56-1.56h.38c3.12,0,5.53-3.42,5.53-9v-7A.87.87,0,0,0,6.69,31H2.26A1.56,1.56,0,0,1,.7,29.41v-4a1.56,1.56,0,0,1,1.56-1.55H6.69a.74.74,0,0,0,.78-.78v-10C7.47,5.14,13.3,0,20.62,0S33.84,5.14,33.84,13.15V14a1.56,1.56,0,0,1-1.55,1.56h-4.2A1.56,1.56,0,0,1,26.53,14v-.85a5.73,5.73,0,0,0-5.91-5.76,5.6,5.6,0,0,0-5.76,5.76v10a.74.74,0,0,0,.78.78H26.22a1.56,1.56,0,0,1,1.56,1.55v4A1.56,1.56,0,0,1,26.22,31H15.64a.87.87,0,0,0-.78.93v7c0,2.8-.39,6.77-1.87,8.33-.31.31-.15.62.31.62H33.07a1.56,1.56,0,0,1,1.55,1.56v4.28a1.56,1.56,0,0,1-1.55,1.55H1.63A1.58,1.58,0,0,1,0,53.69Z"/></g></g></svg>