<svg xmlns="http://www.w3.org/2000/svg" viewBox="0 0 185.23 82.45"><defs><style>.a08a21a6-247e-4320-9afe-89f1cbb298c5{fill:#0aa0b9;}.afd9b2b8-ee26-4611-b11b-d51fcdae8e08{fill:#e3f6ff;}</style></defs><title>R1 Note02 -</title><g id="be530dbc-3967-43f8-9ece-3723a1d4cdbb" data-name="Layer 2"><g id="b5efb2b5-01a5-4d67-9e8c-4312c7be620b" data-name="Layer 1"><g id="bee44356-191f-455c-8b90-6e3d9ebb390d" data-name="R1 Note"><rect class="a08a21a6-247e-4320-9afe-89f1cbb298c5" width="185.23" height="82.45"/><rect class="afd9b2b8-ee26-4611-b11b-d51fcdae8e08" x="54.65" y="-48.13" width="75.94" height="178.71" transform="translate(133.84 -51.39) rotate(90)"/><path class="a08a21a6-247e-4320-9afe-89f1cbb298c5" d="M177.08,67.11V15.34a7.19,7.19,0,0,1-7.19-7.19H15.34a7.19,7.19,0,0,1-7.19,7.19V67.11a7.19,7.19,0,0,1,7.19,7.2H169.89A7.19,7.19,0,0,1,177.08,67.11Z"/><path class="afd9b2b8-ee26-4611-b11b-d51fcdae8e08" d="M119.33,41.23a46.33,46.33,0,0,1-3.41,17.7c-4.58,11-13.3,18.47-23.3,18.47S73.89,70,69.32,58.93a46,46,0,0,1-3.43-17.7,46,46,0,0,1,3.43-17.71c4.57-11,13.28-18.47,23.3-18.47s18.72,7.45,23.3,18.47A46.38,46.38,0,0,1,119.33,41.23Z"/><circle class="afd9b2b8-ee26-4611-b11b-d51fcdae8e08" cx="150.63" cy="41.23" r="10.92"/><circle class="afd9b2b8-ee26-4611-b11b-d51fcdae8e08" cx="32.05" cy="41.23" r="10.92"/><path class="a08a21a6-247e-4320-9afe-89f1cbb298c5" d="M100.44,27.65,97,35.49H99.2a.73.73,0,0,1,.73.72v1.6a.73.73,0,0,1-.73.72H95.72l-.83,2H99.2a.73.73,0,0,1,.73.73v1.56a.73.73,0,0,1-.73.72H94.42V51a.73.73,0,0,1-.73.73h-2a.73.73,0,0,1-.73-.73V43.5H86.15a.73.73,0,0,1-.73-.72V41.22a.73.73,0,0,1,.73-.73h4.31l-.83-2H86.15a.73.73,0,0,1-.73-.72v-1.6a.73.73,0,0,1,.73-.72h2.17l-3.41-7.84a1.81,1.81,0,0,1-.18-.69.64.64,0,0,1,.66-.61h2.39a.68.68,0,0,1,.69.54l3.92,9.65c.07.22.14.32.29.32s.21-.1.29-.32l3.91-9.65a.68.68,0,0,1,.69-.54H100a.64.64,0,0,1,.65.61A1.81,1.81,0,0,1,100.44,27.65Z"/></g></g></g></svg>