<svg xmlns="http://www.w3.org/2000/svg" viewBox="0 0 185.23 82.45"><defs><style>.f729e9ce-4b4c-4a47-82d8-96b33659cce5{fill:#0aa0b9;}.a3ba4537-1e48-4a9c-912c-ce9d2a0041a4{fill:#e3f6ff;}</style></defs><title>R3 Note02 -</title><g id="b8e9ae3a-50c5-403e-a791-765386cc0a57" data-name="Layer 2"><g id="edae6e6c-67ef-438d-96c2-0baaa034982b" data-name="Layer 1"><g id="be661679-de03-4d81-bb2a-32665f182fd7" data-name="R3 Note"><rect class="f729e9ce-4b4c-4a47-82d8-96b33659cce5" width="185.23" height="82.45"/><rect class="a3ba4537-1e48-4a9c-912c-ce9d2a0041a4" x="54.65" y="-48.13" width="75.94" height="178.71" transform="translate(133.84 -51.39) rotate(90)"/><path class="f729e9ce-4b4c-4a47-82d8-96b33659cce5" d="M177.08,67.11V15.34a7.19,7.19,0,0,1-7.19-7.19H15.34a7.19,7.19,0,0,1-7.19,7.19V67.11a7.19,7.19,0,0,1,7.19,7.2H169.89A7.19,7.19,0,0,1,177.08,67.11Z"/><path class="a3ba4537-1e48-4a9c-912c-ce9d2a0041a4" d="M119.33,41.23a46.33,46.33,0,0,1-3.41,17.7c-4.58,11-13.3,18.47-23.3,18.47S73.89,70,69.32,58.93a46,46,0,0,1-3.43-17.7,46,46,0,0,1,3.43-17.71c4.57-11,13.28-18.47,23.3-18.47s18.72,7.45,23.3,18.47A46.38,46.38,0,0,1,119.33,41.23Z"/><circle class="a3ba4537-1e48-4a9c-912c-ce9d2a0041a4" cx="150.63" cy="41.23" r="10.92"/><circle class="a3ba4537-1e48-4a9c-912c-ce9d2a0041a4" cx="32.05" cy="41.23" r="10.92"/><path class="f729e9ce-4b4c-4a47-82d8-96b33659cce5" d="M95.39,53.89v1.66a.79.79,0,0,1-.79.79H92.82a.79.79,0,0,1-.79-.79V53.81a7.88,7.88,0,0,1-7-8.15V45a.79.79,0,0,1,.79-.79H88a.79.79,0,0,1,.79.79v.63c0,2.69,2.13,4.55,5.22,4.55,2.89,0,4.91-1.66,4.91-4.07,0-2.74-1.67-4.24-5.74-5.19-4.67-1.07-7.44-3.64-7.44-8,0-4,2.53-6.57,6.25-7.32V23.9a.79.79,0,0,1,.79-.79H94.6a.79.79,0,0,1,.79.79v1.62c4.4.4,7,3.17,7,7.48v.51a.8.8,0,0,1-.79.8H99.47a.8.8,0,0,1-.79-.8V33c0-2.37-1.7-3.76-4.51-3.76s-4.51,1.42-4.51,3.68c0,2.45,1.62,3.72,6.25,4.75A8.33,8.33,0,0,1,102.83,46C102.83,50.29,99.87,53.38,95.39,53.89Z"/></g></g></g></svg>