<svg xmlns="http://www.w3.org/2000/svg" viewBox="0 0 197.78 256.79"><defs><style>.e90effb9-4776-476c-8f4d-c1401b8f07c6{fill:#fff;}.faaada90-ffe6-41f8-bf6b-70b1abb7c56a{fill:#3c3f57;}.ff78abba-1bf8-4cea-bac9-6088a889a5c9{fill:#0aa0b9;}.be909169-8180-4d92-94a3-5d22d4b2c280{fill:#a4f2ff;}.af72c7c8-7e25-474a-98c1-167bf2f7d538{fill:#a3f2ff;}.a212c69b-4bb6-4ddf-b4f0-aadb604d7c4b{fill:#b1c3d0;}.a63a3d28-384d-4b16-9a08-fc80f96c5600{fill:#9899a3;}</style></defs><title>Sheet of Paper Centre02 -</title><g id="bcd8058e-aaf8-447f-bd95-2176167115b0" data-name="Layer 2"><g id="a4addd9c-b7f6-404e-b6b4-7e1b48354b66" data-name="Layer 1"><g id="b9a4c98a-423d-40fd-8bf1-89d10ae9679c" data-name="Sheet of Paper Centre"><rect class="e90effb9-4776-476c-8f4d-c1401b8f07c6" width="197.78" height="256.79"/><circle class="faaada90-ffe6-41f8-bf6b-70b1abb7c56a" cx="59.8" cy="61.48" r="37" transform="translate(-25.96 60.3) rotate(-45)"/><path class="ff78abba-1bf8-4cea-bac9-6088a889a5c9" d="M59.8,61.48,88.24,85.16a37,37,0,1,1,8.57-23.68Z"/><path class="be909169-8180-4d92-94a3-5d22d4b2c280" d="M59.8,61.48,40.11,30.15a37,37,0,0,1,56.7,31.33Z"/><rect class="af72c7c8-7e25-474a-98c1-167bf2f7d538" x="108.89" y="26.92" width="17.5" height="8.8"/><rect class="a212c69b-4bb6-4ddf-b4f0-aadb604d7c4b" x="108.89" y="39.31" width="61.5" height="2.36"/><rect class="a212c69b-4bb6-4ddf-b4f0-aadb604d7c4b" x="108.89" y="44.34" width="61.5" height="2.36"/><rect class="ff78abba-1bf8-4cea-bac9-6088a889a5c9" x="108.89" y="51.02" width="17.5" height="8.8"/><rect class="a212c69b-4bb6-4ddf-b4f0-aadb604d7c4b" x="108.89" y="63.41" width="61.5" height="2.36"/><rect class="a212c69b-4bb6-4ddf-b4f0-aadb604d7c4b" x="108.89" y="68.45" width="61.5" height="2.36"/><rect class="faaada90-ffe6-41f8-bf6b-70b1abb7c56a" x="108.89" y="75.13" width="17.5" height="8.8"/><rect class="a212c69b-4bb6-4ddf-b4f0-aadb604d7c4b" x="108.89" y="87.52" width="61.5" height="2.36"/><rect class="a212c69b-4bb6-4ddf-b4f0-aadb604d7c4b" x="108.89" y="92.55" width="61.5" height="2.36"/><rect class="faaada90-ffe6-41f8-bf6b-70b1abb7c56a" x="22.8" y="186.68" width="17.5" height="8.8"/><rect class="a212c69b-4bb6-4ddf-b4f0-aadb604d7c4b" x="22.8" y="199.07" width="149.59" height="2.36"/><rect class="a212c69b-4bb6-4ddf-b4f0-aadb604d7c4b" x="22.8" y="204.1" width="149.59" height="2.36"/><rect class="a212c69b-4bb6-4ddf-b4f0-aadb604d7c4b" x="22.8" y="209.14" width="149.59" height="2.36"/><rect class="a212c69b-4bb6-4ddf-b4f0-aadb604d7c4b" x="22.8" y="214.17" width="149.59" height="2.36"/><rect class="af72c7c8-7e25-474a-98c1-167bf2f7d538" x="22.8" y="132.01" width="105.43" height="9.17"/><rect class="a63a3d28-384d-4b16-9a08-fc80f96c5600" x="22.8" y="150.89" width="52.72" height="9.17"/><rect class="ff78abba-1bf8-4cea-bac9-6088a889a5c9" x="22.8" y="169.78" width="149.59" height="9.17"/></g></g></g></svg>