<svg xmlns="http://www.w3.org/2000/svg" viewBox="0 0 130 130"><defs><style>.b9213c90-f584-4ab9-b5e9-212a9af5c621{fill:#fff;}.b231d1f2-c08d-4212-83ea-7cb728db9d9f{fill:#00e0e1;}.b5e86bef-00c2-4f1d-a1ea-f8d5c3da0d6c,.eb840595-db01-428d-beb8-caa2f2b7bc6f{fill:#293d48;}.f1aa422a-ba68-4af5-a1e5-1d1f5ddb3811{fill:none;stroke:#1a1c2e;stroke-width:2px;}.eb840595-db01-428d-beb8-caa2f2b7bc6f,.f1aa422a-ba68-4af5-a1e5-1d1f5ddb3811{stroke-miterlimit:10;}.eb840595-db01-428d-beb8-caa2f2b7bc6f{stroke:#afc4d1;}.a165a57c-356b-4802-8a24-22ce4812c821{fill:#1a1c2e;}</style></defs><title>target02 -</title><g id="a45f1aae-3a2f-4296-92e0-e52fb34f26e7" data-name="Layer 2"><g id="bcd848a5-b6f3-4a9e-bd4e-b2d45e742203" data-name="Layer 1"><g id="e4ce9530-e39e-4dc1-839a-5c6d3f5b3ab8" data-name="Target"><circle class="b9213c90-f584-4ab9-b5e9-212a9af5c621" cx="65" cy="65" r="65" transform="translate(-26.92 65) rotate(-45)"/><circle class="b231d1f2-c08d-4212-83ea-7cb728db9d9f" cx="65" cy="65" r="56.84" transform="translate(-18.26 26.04) rotate(-19.93)"/><circle class="b9213c90-f584-4ab9-b5e9-212a9af5c621" cx="65" cy="65" r="48.68" transform="translate(-18.04 25.57) rotate(-19.6)"/><circle class="b231d1f2-c08d-4212-83ea-7cb728db9d9f" cx="65" cy="65" r="40.52" transform="translate(-18.01 25.5) rotate(-19.55)"/><circle class="b9213c90-f584-4ab9-b5e9-212a9af5c621" cx="65" cy="65" r="32.36" transform="translate(-17.97 25.44) rotate(-19.51)"/><circle class="b231d1f2-c08d-4212-83ea-7cb728db9d9f" cx="65" cy="65" r="24.2" transform="translate(-18.32 26.17) rotate(-20.01)"/><circle class="b9213c90-f584-4ab9-b5e9-212a9af5c621" cx="65" cy="65" r="16.04" transform="translate(-17.91 25.31) rotate(-19.42)"/><path class="b231d1f2-c08d-4212-83ea-7cb728db9d9f" d="M65,72.88A7.88,7.88,0,1,1,72.88,65,7.9,7.9,0,0,1,65,72.88Z"/><path class="b5e86bef-00c2-4f1d-a1ea-f8d5c3da0d6c" d="M65,69.2A4.2,4.2,0,1,1,69.2,65,4.2,4.2,0,0,1,65,69.2Z"/></g><g id="a5c1ee9e-492d-44f4-b77e-16c18ca70d50" data-name="Target Flag"><line class="f1aa422a-ba68-4af5-a1e5-1d1f5ddb3811" x1="65.18" y1="64.63" x2="65.18" y2="15.59"/><path class="eb840595-db01-428d-beb8-caa2f2b7bc6f" d="M63.76,24.9a17.34,17.34,0,0,0,6.82-1.26,11.82,11.82,0,0,1,8.6,0,19.11,19.11,0,0,0,13.65,0,11.82,11.82,0,0,1,8.6,0,19.11,19.11,0,0,0,13.65,0,10.19,10.19,0,0,1,4.3-.81l-1.81-3.52,1.81-3.72a17.34,17.34,0,0,0-6.82,1.26,11.82,11.82,0,0,1-8.6,0,19.14,19.14,0,0,0-13.66,0,11.79,11.79,0,0,1-8.59,0,19.14,19.14,0,0,0-13.66,0,10.17,10.17,0,0,1-4.29.81Z"/><circle class="a165a57c-356b-4802-8a24-22ce4812c821" cx="65.18" cy="64.63" r="1.29"/><circle class="a165a57c-356b-4802-8a24-22ce4812c821" cx="65.18" cy="52.54" r="0.94"/></g></g></g></svg>