<svg xmlns="http://www.w3.org/2000/svg" viewBox="0 0 84.13 221.84"><defs><style>.a8d2d6f4-1a92-4109-b832-1785c98bea9c{fill:#f0d1cd;}.eceb00da-5768-4dce-8836-4d2ccba247b2{fill:#1a1c2e;}.be074c9f-81d2-4fe1-a9f0-54c3b7f299c2{fill:#afc4d1;}.f5a0f5de-0e12-47fc-9d9c-a25546e6f4de{fill:#7f94a0;}.b11b9b83-65aa-4b3e-821f-9fa51a48555a{fill:#bf8957;}.bc1c56e0-e021-481f-8d71-aa32bda32c9f{fill:#293d48;}</style></defs><title>Woman Right02 -</title><g id="ed0be55d-766c-442a-bfe8-ec4989cc56a0" data-name="Layer 2"><g id="ffa1d1d0-c1c9-418c-aa74-fddf1385b4f3" data-name="Layer 1"><g id="b6a3bf66-40c2-44fc-a597-fc9b355396f6" data-name="Woman Right"><path class="a8d2d6f4-1a92-4109-b832-1785c98bea9c" d="M80.92,219.12a2.33,2.33,0,0,0,.37,0,1.86,1.86,0,0,0,1.45-2.19l-2.66-13.06a1.85,1.85,0,1,0-3.63.74l2.66,13.06A1.86,1.86,0,0,0,80.92,219.12Z"/><path class="eceb00da-5768-4dce-8836-4d2ccba247b2" d="M83.24,216.65s1.15,4.77,0,4.9-17.67.64-17.77-.13c-.33-2.62,13.18-5,14.5-4.77S83.09,216,83.24,216.65Z"/><path class="a8d2d6f4-1a92-4109-b832-1785c98bea9c" d="M48.61,219.12a2.33,2.33,0,0,0,.37,0,1.86,1.86,0,0,0,1.45-2.19l-2.66-13.06a1.85,1.85,0,1,0-3.63.74l2.66,13.06A1.86,1.86,0,0,0,48.61,219.12Z"/><path class="be074c9f-81d2-4fe1-a9f0-54c3b7f299c2" d="M44.53,211.52a48.79,48.79,0,0,0,5.91-.54c-5.88-31.41-10.33-73.56,5.38-102.92-4.77-2.34-9.56-4.62-14.37-6.89C30,126.75,39.75,184.5,44.53,211.52Z"/><path class="be074c9f-81d2-4fe1-a9f0-54c3b7f299c2" d="M77.05,210.63a59.49,59.49,0,0,0,5.82-2C68.17,179.92,57.41,134.71,60,102c-5.34-.28-10.69-.46-16-.61C45.94,134.13,64.33,181.13,77.05,210.63Z"/><path class="eceb00da-5768-4dce-8836-4d2ccba247b2" d="M50.93,216.65s1.15,4.77,0,4.9-17.67.64-17.77-.13c-.33-2.62,13.18-5,14.5-4.77S50.78,216,50.93,216.65Z"/><path class="a8d2d6f4-1a92-4109-b832-1785c98bea9c" d="M5.1,12.42S3.9,1.6,1.58.14s-2.34,9,1.64,14.2Z"/><path class="f5a0f5de-0e12-47fc-9d9c-a25546e6f4de" d="M6.72,12a33.88,33.88,0,0,0-5.1.9C12.17,55.63,12.08,43.77,44.86,59.81c5,2.45,5.26.35,6-3h0c.69-3.33.31-3.89-4.51-5.81C14.82,38.5,19.82,49.46,6.72,12Z"/><path class="b11b9b83-65aa-4b3e-821f-9fa51a48555a" d="M50.91,22.52a5.51,5.51,0,0,1,5.32,3.24c.74,2-.8,4.18-2.73,4.88s-5.92-1.31-6.65-3.35S48.3,22.73,50.91,22.52Z"/><path class="b11b9b83-65aa-4b3e-821f-9fa51a48555a" d="M61.92,17.6c4.21-2.27,10.83-1.7,14.28,1.94s2.15,9.6-1.32,12.88-12.3,4-17.84-1C53.34,28,56.57,20.47,61.92,17.6Z"/><path class="b11b9b83-65aa-4b3e-821f-9fa51a48555a" d="M56.84,32.83c3.12-1.73,8-1.44,10.41,1.16s1.4,7-1.2,9.41S56,45.62,53.49,43,52.88,35,56.84,32.83Z"/><path class="a8d2d6f4-1a92-4109-b832-1785c98bea9c" d="M59.82,36.81c-2.71,5.79-8.94,8.59-12.47,6.93s-3-7.14-.33-12.92S54,23.44,57.51,25.09,62.53,31,59.82,36.81Z"/><path class="a8d2d6f4-1a92-4109-b832-1785c98bea9c" d="M61.49,40c-.63,1.35-2.78,2.45-3.75,2s-.71-1.66-.08-3,2-2.23,3-1.78A1.92,1.92,0,0,1,61.49,40Z"/><path class="b11b9b83-65aa-4b3e-821f-9fa51a48555a" d="M62.38,33.52s.51-4.27-1.76-7-8-5.08-11.57-.52c0,0-2.27,3.48,2.16,5.85s4.53-.38,5.92,2.78,4.09,2.24,4.32,2.94Z"/><path class="bc1c56e0-e021-481f-8d71-aa32bda32c9f" d="M31.31,134.38c6,1.4,11.08.06,16.78-2.19,4.38-1.74,9.64-1.82,14.09-2.77,6.53-19.25,8.14-52.38,2.95-66.49-4.79-13-8.59-13.07-9.73-13.24-4.06,2-3.69-1.5-7.18,1s-4.76,9-6.42,15.75-3.91,5-.32,18C43,90.05,32.9,124.14,31.31,134.38Z"/><path class="a8d2d6f4-1a92-4109-b832-1785c98bea9c" d="M58.1,39.2l-6.67-.66c-.09.92-.79,9.62-.45,12.9.24,1,1.9,1.47,3.71,1,1.63-.4,2.81-1.39,2.85-2.32h0A89.09,89.09,0,0,1,58.1,39.2Z"/><path class="a8d2d6f4-1a92-4109-b832-1785c98bea9c" d="M75.05,117.67s-4.19,10-2.87,12.45,6.39-6.7,5.44-13.22Z"/><path class="f5a0f5de-0e12-47fc-9d9c-a25546e6f4de" d="M73.41,117.27a33.5,33.5,0,0,0,4.9,1.69c11.46-42.52,5.8-32.1-15.13-62-3.2-4.58-11.19.64-5.52,7C80.28,89.19,80.09,78.13,73.41,117.27Z"/></g></g></g></svg>