<svg xmlns="http://www.w3.org/2000/svg" viewBox="0 0 53.2 74.48"><defs><style>.f6868a43-b980-4995-a06a-eaa53ae59dda{fill:#8093a1;}</style></defs><title>Y Sign02 -</title><g id="a8cecb61-7898-4224-bd0e-b409fc611125" data-name="Layer 2"><g id="acfa8c4f-94da-4229-ba01-1c2304096816" data-name="Layer 1"><path class="f6868a43-b980-4995-a06a-eaa53ae59dda" d="M52.56,3.83,43.94,24.47h3.94A2.14,2.14,0,0,1,50,26.6v7.13a2.14,2.14,0,0,1-2.13,2.13H39.16l-1.92,4.47H47.88A2.13,2.13,0,0,1,50,42.45v7.13a2.14,2.14,0,0,1-2.13,2.13H34.05V72.35a2.14,2.14,0,0,1-2.13,2.13H21.28a2.14,2.14,0,0,1-2.13-2.13V51.71H5a2.14,2.14,0,0,1-2.13-2.13V42.45A2.13,2.13,0,0,1,5,40.33H16L14,35.86H5a2.14,2.14,0,0,1-2.13-2.13V26.6A2.14,2.14,0,0,1,5,24.47H9.26L.64,3.83A5.14,5.14,0,0,1,0,1.49C0,.74.43,0,1.7,0h12a2,2,0,0,1,2,1.6l10.1,26.6c.22.63.43.95.75.95s.53-.32.74-.95L37.45,1.6a2,2,0,0,1,2-1.6h12c1.27,0,1.7.74,1.7,1.49A5.14,5.14,0,0,1,52.56,3.83Z"/></g></g></svg>